<svg xmlns="http://www.w3.org/2000/svg" width="280" height="387" viewBox="0 0 279.62 387"><defs><style>.cls-1{fill:#e0e0e0;}</style></defs><title>about_lines</title><g id="Calque_2" data-name="Calque 2"><g id="Calque_1-2" data-name="Calque 1"><g id="Groupe_9" data-name="Groupe 9"><path id="Tracé_806" data-name="Tracé 806" class="cls-1" d="M181.87,161.43c-4.89-3.8-11.46-3.61-16.11-2.78-2.47.45-4.93,1.12-7.29,1.78a68.81,68.81,0,0,1-8.5,1.95c-1.18.17-2.39.3-3.67.43-5.62.6-12,1.29-16.25,5.31-2.74,2.57-3.82,5.85-3,9,1,3.57,4.17,6.38,8.38,7.34a23,23,0,0,0,5.29.56,39,39,0,0,0,11.5-1.92c.85-.26,1.7-.54,2.54-.82,4.11-1.35,8.36-2.75,12.67-2.89,1.29,0,2.68,0,4,.07,4.45.17,9.06.36,12.29-2.75a8.59,8.59,0,0,0,2.47-6.75A11.87,11.87,0,0,0,181.87,161.43Zm.93,14.27c-2.8,2.69-6.91,2.52-11.26,2.35-1.36-.06-2.77-.11-4.11-.07-4.52.15-8.87,1.58-13.07,3l-2.52.82c-3.42,1.08-10.06,2.7-16.05,1.33-3.7-.85-6.52-3.28-7.35-6.34-.72-2.67.19-5.37,2.57-7.6,3.93-3.7,9.78-4.33,15.44-4.93,1.29-.14,2.52-.27,3.71-.44a69.5,69.5,0,0,0,8.68-2c2.34-.65,4.76-1.31,7.17-1.75,4.37-.78,10.52-1,15,2.5a10.45,10.45,0,0,1,3.83,7.49A7.19,7.19,0,0,1,182.8,175.7Z"/><path id="Tracé_807" data-name="Tracé 807" class="cls-1" d="M186.8,151.64c-2.62-.8-5.35-.4-8,0a30.91,30.91,0,0,1-4.71.45,29,29,0,0,1-6.6-1.11,37.25,37.25,0,0,0-5.35-1.07c-6.27-.63-12.37,1.83-17.74,4-8.55,3.46-18.23,7.38-25.18,14.48a13.36,13.36,0,0,0-3.82,10,19.38,19.38,0,0,0,6.51,13.42,25,25,0,0,0,16.7,5.92c.46,0,.93,0,1.39,0,5.79-.27,11.79-2.1,18.36-5.59l2.3-1.26c4.65-2.56,9.46-5.21,14.57-4.68a26.64,26.64,0,0,1,6,1.62c3.08,1.08,6.26,2.21,9.51,1.42,4.85-1.17,7.57-6.23,8.05-10.43.52-4.62-.88-9.26-2.11-13.35C194.83,159.28,192.34,153.35,186.8,151.64Zm10.95,27c-.43,3.85-2.89,8.48-7.24,9.54-2.95.71-5.85-.31-8.92-1.4a27.55,27.55,0,0,0-6.24-1.68c-5.44-.56-10.39,2.17-15.18,4.81-.77.42-1.54.85-2.3,1.25-6.43,3.42-12.28,5.21-17.9,5.47-6.69.31-13-1.73-17.34-5.62a18.34,18.34,0,0,1-6.17-12.66,12.37,12.37,0,0,1,3.53-9.24c6.8-6.93,16.37-10.81,24.82-14.24,5.25-2.13,11.21-4.55,17.24-3.93a37.1,37.1,0,0,1,5.2,1,29.93,29.93,0,0,0,6.84,1.15,30.43,30.43,0,0,0,4.87-.47c2.64-.4,5.14-.77,7.53,0,5.07,1.56,7.41,7.21,9.19,13.09,1.21,4,2.58,8.52,2.08,12.92Z"/><path id="Tracé_808" data-name="Tracé 808" class="cls-1" d="M204.21,206.53c1.17-.5,2.41-.93,3.61-1.35,2.77-1,5.63-2,7.89-3.94,3.9-3.41,5.08-8.73,6-14.35.58-3.46.88-7.72-2-10-1.75-1.37-4-1.41-6.11-1.45a15.75,15.75,0,0,1-3.87-.39c-4.46-1.23-6.56-6.44-7.53-10.58-.15-.6-.28-1.2-.41-1.82-.93-4.17-1.89-8.48-5-11.41-3.6-3.35-8.63-3.61-13.5-3.85a42.58,42.58,0,0,1-7.47-.81,38.06,38.06,0,0,1-9.31-4,43.58,43.58,0,0,0-8.68-3.88,22.15,22.15,0,0,0-20,4.28,44.06,44.06,0,0,0-5.15,5.43,24.88,24.88,0,0,1-11.86,9.16,35.92,35.92,0,0,0-5.48,2.82,18.89,18.89,0,0,0-8.25,15,27.44,27.44,0,0,0,9.22,21.8c6.26,5.33,15.31,8,24.82,7.19,7.64-.6,15.76-3.26,24.82-8.13l.4-.22a18.45,18.45,0,0,1,5.44-2.22,5.6,5.6,0,0,1,5.4,1.67c1.35,1.73,1,4,.64,6.45a14.75,14.75,0,0,0-.14,5.5,7.27,7.27,0,0,0,3.53,4.61,11.9,11.9,0,0,0,6.09,1.57,12.43,12.43,0,0,0,3.37-.44,34.72,34.72,0,0,0,8.2-3.86A52.84,52.84,0,0,1,204.21,206.53Zm-13.79,5.67a11.71,11.71,0,0,1-8.64-1,6.24,6.24,0,0,1-3-4,14.11,14.11,0,0,1,.15-5.1c.38-2.54.78-5.16-.84-7.25a6.3,6.3,0,0,0-5-2.19,8.07,8.07,0,0,0-1.39.12,19.14,19.14,0,0,0-5.76,2.34l-.39.21c-8.94,4.8-16.92,7.42-24.41,8-9.24.73-18-1.8-24-6.95a26.36,26.36,0,0,1-8.85-20.93A17.84,17.84,0,0,1,116,161.28a34.53,34.53,0,0,1,5.31-2.72,26,26,0,0,0,12.24-9.45,42.78,42.78,0,0,1,5-5.31,21.11,21.11,0,0,1,19-4.07,42.84,42.84,0,0,1,8.46,3.8,39.25,39.25,0,0,0,9.58,4.11,42.75,42.75,0,0,0,7.65.84c4.89.24,9.51.48,12.83,3.57,2.9,2.7,3.82,6.85,4.71,10.87.13.61.27,1.22.41,1.82,1,4.43,3.32,10,8.28,11.37a16.85,16.85,0,0,0,4.13.42c2.06,0,4,.07,5.48,1.23,2.43,1.9,2.13,5.79,1.6,9-.91,5.42-2,10.55-5.67,13.73-2.11,1.84-4.75,2.76-7.55,3.74-1.22.42-2.48.86-3.68,1.38a53,53,0,0,0-5.42,2.88,34,34,0,0,1-8,3.75Z"/><path id="Tracé_809" data-name="Tracé 809" class="cls-1" d="M220.52,249.52a12.52,12.52,0,0,0,1.82-12.1,24.34,24.34,0,0,0-3.16-5.25c-.58-.8-1.17-1.62-1.7-2.46-1.1-1.74-2.75-5.1-1.52-8.05a11.4,11.4,0,0,1,2.78-3.51,14.64,14.64,0,0,0,2.63-3.08c1.67-2.85,1.27-6.16.88-9.37a25.33,25.33,0,0,1-.27-5.77c.4-3.56,2.46-6.71,4.45-9.77.66-1,1.34-2,1.95-3.08,2.55-4.33,4.08-10.38.73-14.35-2.51-3-6.51-3.44-10.39-3.89-3.71-.42-7.22-.83-9.56-3.24-1.53-1.59-2.2-3.72-2.91-6a32.87,32.87,0,0,0-1.22-3.45c-3.9-8.76-14.55-11.73-24.23-13.82-9-1.94-19.65-5.3-22.63-14.14-1.07-3.16-1-6.7-.87-10.12.13-4.32.26-8.8-2-12.58s-6.85-6.49-12.55-7.2a54.1,54.1,0,0,0-10.57,0c-1.32.09-2.68.18-4,.24-7.46.31-13.14-.91-17.35-3.71-4.63-3.08-8.1-9.62-5.89-15.22.15-.39.33-.78.51-1.16a8.23,8.23,0,0,0,1-3.61,4.49,4.49,0,0,0-1.66-3.38c-2-1.73-5.41-2.16-7.87-1.83-5.63.77-10,3.38-12.06,7.18-2.83,5.3-1.21,12,5,20.67,4.53,6.31,8.77,13,6.64,19.45-1.09,3.28-3.7,5.83-6.23,8.28-.92.9-1.87,1.82-2.74,2.78-3.57,3.9-5.85,9.68-2.9,13.82,2.16,3,5.91,3.6,9.53,4.15a26.83,26.83,0,0,1,5.74,1.3c5.56,2.19,7,8.25,6.52,13.19-.25,2.54-.66,5.12-1.06,7.61a76.5,76.5,0,0,0-1.32,13.59c.27,11.53,8.43,17.07,16.33,22.43a84.94,84.94,0,0,1,8.25,6.11c.94.83,1.84,1.78,2.71,2.7,2.15,2.26,4.37,4.6,7.43,5.46,3.43,1,6.85-.2,10.15-1.33a28,28,0,0,1,6.36-1.65c6.78-.61,12.54,4.28,15.38,7.25,1.88,2,3.61,4.18,5.28,6.31a53.6,53.6,0,0,0,16,14.84c1.6,1.1,3.25,2.23,4.83,3.4l1.46,1.1c3.32,2.53,6.75,5.14,10.92,5.74a12.82,12.82,0,0,0,1.65.11A12.54,12.54,0,0,0,220.52,249.52ZM209.3,253c-3.9-.56-7.22-3.09-10.43-5.53l-1.47-1.11c-1.59-1.19-3.25-2.33-4.86-3.43a52.8,52.8,0,0,1-15.77-14.62c-1.68-2.15-3.42-4.37-5.35-6.39-2.79-2.92-8.31-7.62-15-7.62q-.63,0-1.26.06a28.56,28.56,0,0,0-6.61,1.7c-3.29,1.13-6.41,2.19-9.52,1.32-2.78-.79-4.81-2.92-6.95-5.18-.89-.93-1.81-1.9-2.78-2.76a84.23,84.23,0,0,0-8.35-6.19c-8-5.45-15.62-10.6-15.87-21.58a75.31,75.31,0,0,1,1.31-13.4c.4-2.51.81-5.11,1.07-7.68.53-5.32-1.08-11.87-7.19-14.28a28.3,28.3,0,0,0-6-1.36c-3.57-.54-6.93-1.05-8.84-3.72-2.61-3.65-.46-8.9,2.82-12.5.85-.93,1.79-1.84,2.7-2.72,2.62-2.55,5.33-5.18,6.5-8.71,2.48-7.48-3.1-15.26-6.78-20.4-5.91-8.26-7.51-14.65-4.89-19.56,1.87-3.49,6-5.91,11.27-6.63,2.23-.3,5.27.07,7,1.59a3.42,3.42,0,0,1,1.28,2.6,7.22,7.22,0,0,1-.94,3.14c-.19.41-.37.81-.53,1.22-2.5,6.33,1.37,13.22,6.29,16.49,4.4,2.93,10.28,4.2,18,3.88,1.35,0,2.72-.15,4-.24a54.34,54.34,0,0,1,10.36-.06c5.38.68,9.68,3.12,11.78,6.69s2,7.65,1.83,12c-.1,3.51-.21,7.14.92,10.48,3.15,9.35,14.17,12.84,23.41,14.84,9.42,2,19.78,4.91,23.48,13.22a30.7,30.7,0,0,1,1.19,3.33c.71,2.28,1.45,4.64,3.16,6.41,2.59,2.69,6.45,3.13,10.2,3.56s7.46.86,9.7,3.51c3,3.55,1.53,9.12-.84,13.14-.6,1-1.27,2.05-1.92,3-2.06,3.16-4.18,6.42-4.61,10.23a25.71,25.71,0,0,0,.26,6c.39,3.18.75,6.17-.74,8.72A14,14,0,0,1,218,217.4a12.15,12.15,0,0,0-3,3.85c-1.42,3.39.4,7.11,1.6,9,.55.87,1.15,1.7,1.74,2.52a22.83,22.83,0,0,1,3,5A11.25,11.25,0,0,1,209.3,253Z"/><path id="Tracé_810" data-name="Tracé 810" class="cls-1" d="M124.16,130.1a6,6,0,0,0,1.78.25,13.18,13.18,0,0,0,5.58-1.65c2.75-1.32,5.84-2.95,7.86-5.64s2.77-6.61.7-9.48-6.2-3.4-10.25-3.42a34.31,34.31,0,0,0-8.28.65c-3.34.81-5.4,2.25-6.14,4.25-.93,2.54.19,5.86,3.53,10.46C120.13,127.15,121.75,129.38,124.16,130.1Zm-7.76-14.67c.61-1.66,2.43-2.87,5.4-3.59a29.78,29.78,0,0,1,7.11-.62h.92c3.77,0,7.52.38,9.4,3,1.77,2.45,1,6-.69,8.23-1.88,2.49-4.84,4-7.47,5.32-2,1-4.42,2-6.6,1.34-1.92-.57-3.25-2.24-4.67-4.19C116.73,120.67,115.62,117.57,116.4,115.43Z"/><path id="Tracé_811" data-name="Tracé 811" class="cls-1" d="M212.3,234.71l-1-.44c-1.92-.85-3.92-1.72-4.92-3.42-.9-1.53-.92-3.47-.93-5.34,0-3.12-.06-6.35-4.08-7.76a6.65,6.65,0,0,0-5.5.34,8.07,8.07,0,0,0-3.84,5.2,17.63,17.63,0,0,0,3.53,15,18.52,18.52,0,0,0,14.09,7.52h.21a9.33,9.33,0,0,0,4.61-1,5.14,5.14,0,0,0,2.75-4.21C217.3,237.47,214.17,235.57,212.3,234.71Zm1.66,9.15a8.52,8.52,0,0,1-4.29.9,17.49,17.49,0,0,1-13.27-7.1,16.6,16.6,0,0,1-3.34-14.11,7,7,0,0,1,3.32-4.52,5.58,5.58,0,0,1,4.64-.28c3.32,1.17,3.35,3.77,3.38,6.78,0,2,0,4.09,1.08,5.86,1.17,2,3.32,2.94,5.4,3.85l1,.44c1.31.6,4.36,2.28,4.3,4.87a4.12,4.12,0,0,1-2.2,3.31Z"/><path id="Tracé_812" data-name="Tracé 812" class="cls-1" d="M213,292.7c3.71-1.44,5.84-4.92,7.9-8.28l.5-.82c1.9-3.07,4.41-6.29,8.71-6.86a21.87,21.87,0,0,1,2.8-.13c2.46,0,5,0,7.14-2.07,5.43-5.17,1.32-10.78-2-15.29a38.16,38.16,0,0,1-2.69-4c-4.93-9.07-6.56-16.42-5.12-23.12a43.8,43.8,0,0,1,1.82-5.8,34.56,34.56,0,0,0,2.2-8,36.59,36.59,0,0,0,0-5.54,23.62,23.62,0,0,1,.3-7c1-4.17,4.08-7.31,7.33-10.63s6.6-6.75,7.7-11.3c1.76-7.23-3-14.35-8-18.6a75.35,75.35,0,0,0-8.46-6,74.26,74.26,0,0,1-8.33-5.86,75.67,75.67,0,0,1-6.39-6.4c-3.44-3.74-7-7.61-11.62-10-6-3.11-12.85-3.37-19.5-3.61-1.79-.07-3.63-.14-5.42-.26-6-.42-8.95-3.16-9-8.38a28.21,28.21,0,0,1,1.12-7.13c.18-.77.37-1.55.54-2.32.58-2.69,1.17-6.66-.47-10-3.91-8.09-11.09-13.4-19.19-14.21-.61-.06-1.23-.1-1.85-.13a21.93,21.93,0,0,1-3.53-.4,8.65,8.65,0,0,1-4-2c-2.13-1.94-3.26-5.14-3.09-8.75.28-6.06,2.61-11.71,4.86-17.17a78,78,0,0,0,4.15-11.87c1.27-5.55.35-10.68-2.55-14.07-5.86-6.86-19.45-6.81-26.46-2-1.48,1-2.92,2.19-4.31,3.3-3.64,2.93-7.08,5.7-11.38,6.51-5,.94-10-1.05-14.84-3-1.08-.43-2.16-.85-3.23-1.25C84.89,38.85,75.39,36.2,70,42c-2.45,2.63-3.22,6.16-4,9.58-.64,2.93-1.3,6-3,8.28-2.53,3.43-6.91,4.84-11.14,6.2-1.24.4-2.53.82-3.76,1.28C42,69.68,36.56,75.23,38.55,81c1.46,4.22,5.76,5.66,9.92,7,2.62.88,5.33,1.78,7.35,3.37,5.5,4.32,5,13,2.13,19.28a72.3,72.3,0,0,1-4.43,7.93c-2.21,3.6-4.5,7.32-5.8,11.45-2.35,7.48,0,17,7.25,19.35,6.23,2,13.12,0,18.42-2,3.78-1.4,8.55-1.12,11.33.67a5.14,5.14,0,0,1,2.54,4.1c.2,2.71-1.6,5-3.49,7.37-.67.85-1.36,1.72-2,2.61-3.59,5.4-4.36,10.29-2.55,16.37,1.87,6.32,5.75,11.81,9.3,16.35a151.05,151.05,0,0,0,22.52,23.19c1,.83,2,1.7,3.07,2.63a71.79,71.79,0,0,0,7.93,6.29,37,37,0,0,0,5.33,2.69c3,1.3,5.79,2.53,8.07,5.16,3.43,4,4.43,10.82.38,14.34a15.58,15.58,0,0,1-3.63,2.13,16.87,16.87,0,0,0-4,2.36c-4.23,3.67-3.84,10.27-1.33,14.6,2.6,4.5,7.13,7.56,11.12,10.24,3.84,2.59,8.19,5.51,10.6,9.84.5.89.92,1.87,1.34,2.8a16.36,16.36,0,0,0,3.41,5.6c2.23,2.12,5.24,2.79,8.16,3.44,1.21.27,2.47.55,3.63.93a36,36,0,0,1,5.9,2.77,44.21,44.21,0,0,0,5,2.47,15.9,15.9,0,0,0,5.66,1.13,9,9,0,0,0,6.54-2.46,14.69,14.69,0,0,0,3-5.47c.74-2,1.45-3.89,2.91-5.18,2.5-2.2,6-1.76,9.68-1.31C207,293.42,210.18,293.81,213,292.7Zm-9-1.05c-3.84-.48-7.81-1-10.78,1.65-1.73,1.52-2.53,3.66-3.3,5.74a13.41,13.41,0,0,1-2.66,5c-2.76,2.77-7.48,2.28-10.68,1a41.64,41.64,0,0,1-4.88-2.4,37.68,37.68,0,0,0-6.14-2.87c-1.23-.4-2.52-.68-3.76-1-2.86-.64-5.55-1.24-7.5-3.09a15.15,15.15,0,0,1-3.09-5.14c-.43-1-.87-2-1.4-2.92-2.58-4.63-7.28-7.79-11-10.32s-8.25-5.56-10.69-9.78c-2.26-3.91-2.49-9.78,1-12.84a15.4,15.4,0,0,1,3.65-2.14,17.18,17.18,0,0,0,3.95-2.35c4.68-4.06,3.63-11.86-.24-16.32-2.49-2.88-5.58-4.23-8.57-5.53a35.33,35.33,0,0,1-5.14-2.59,71,71,0,0,1-7.77-6.16C114,218.68,113,217.8,112,217a149.67,149.67,0,0,1-22.31-23c-3.47-4.43-7.26-9.79-9.06-15.88-1.7-5.71-1-10.11,2.37-15.19.57-.84,1.24-1.7,1.89-2.52,2-2.5,4-5.09,3.8-8.34a6.58,6.58,0,0,0-3.18-5.18,13.12,13.12,0,0,0-7-1.79,16.36,16.36,0,0,0-5.63,1c-5.09,1.89-11.68,3.82-17.51,2-6.45-2.06-8.48-10.75-6.33-17.58,1.25-4,3.49-7.61,5.66-11.14a74.28,74.28,0,0,0,4.51-8.08c3.05-6.75,3.56-16.19-2.54-21-2.21-1.74-5-2.68-7.78-3.59-4-1.34-7.8-2.6-9-6.17-1.8-5.21,4-10,8.7-11.81,1.2-.45,2.47-.86,3.7-1.26,4.44-1.43,9-2.91,11.84-6.71C66,58.15,66.7,55,67.37,51.91,68.1,48.53,68.8,45.33,71,43c4.85-5.22,13.68-2.73,17.25-1.42,1.06.39,2.12.82,3.19,1.24,5,2,10.25,4.06,15.63,3,4.64-.87,8.38-3.88,12-6.79,1.37-1.1,2.78-2.25,4.22-3.24,6.54-4.54,19.17-4.64,24.6,1.71,2.6,3,3.42,7.72,2.24,12.83A74.81,74.81,0,0,1,146,62c-2.29,5.58-4.66,11.34-5,17.64-.19,4,1.1,7.63,3.55,9.86a10.07,10.07,0,0,0,4.62,2.37,22.68,22.68,0,0,0,3.76.43c.6,0,1.2.07,1.8.13,7.72.77,14.3,5.66,18.06,13.42,1.45,3,.9,6.65.36,9.14-.16.76-.35,1.52-.53,2.28a29.75,29.75,0,0,0-1.16,7.49c.1,5.92,3.69,9.3,10.35,9.76,1.81.13,3.67.2,5.46.26,6.5.24,13.21.49,18.9,3.46,4.4,2.29,7.73,5.9,11.25,9.72A75.58,75.58,0,0,0,224,154.5a73.6,73.6,0,0,0,8.48,6,75.05,75.05,0,0,1,8.3,5.84c4.68,4,9.12,10.59,7.51,17.2-1,4.18-4.09,7.32-7.34,10.65s-6.59,6.74-7.7,11.28a25.44,25.44,0,0,0-.33,7.44,33.62,33.62,0,0,1,0,5.31,33.37,33.37,0,0,1-2.12,7.66,46.57,46.57,0,0,0-1.88,6c-2,9.26,2.06,18.18,5.27,24.09a39.89,39.89,0,0,0,2.78,4.14c3.28,4.49,6.67,9.13,2.14,13.45-1.73,1.65-3.89,1.66-6.17,1.68a22.94,22.94,0,0,0-3,.14c-4.9.66-7.77,4.36-9.72,7.52l-.5.82c-1.93,3.16-3.94,6.44-7.2,7.71C210,292.37,207,292,204.08,291.65Z"/><path id="Tracé_813" data-name="Tracé 813" class="cls-1" d="M215.36,269.29c.64.09,1.3.22,1.94.35a16.34,16.34,0,0,0,4.3.46,8.82,8.82,0,0,0,7.88-6.91c.61-3.14-.47-6-1.52-8.83a35.06,35.06,0,0,1-1.28-3.87,14.11,14.11,0,0,1-.07-5,13.15,13.15,0,0,0-.27-5.85,43.43,43.43,0,0,0-2.66-6c-2.55-5.09-5-9.9-2.07-15.12a18.12,18.12,0,0,1,2.1-2.82,14.29,14.29,0,0,0,2.7-4c.87-2.28.54-4.72.23-7.08-.14-1-.28-2.1-.32-3.13-.13-3.85,2.07-8,4.19-12.12,3.63-7,7.38-14.13.7-20.56-2.6-2.5-6.18-3.28-9.63-4a24.61,24.61,0,0,1-7.65-2.53c-3.34-2-4.5-4.78-5.71-7.69A31.67,31.67,0,0,0,206,150c-.2-.31-.42-.62-.65-.93h0c-3.31-4.23-9.64-6.46-14.11-7.77-2-.58-4.05-1.08-6-1.56a61.23,61.23,0,0,1-12.77-4.13c-7.17-3.56-10.46-9-10.35-17.26.09-7.08-.52-15.73-6.13-19.85-3.26-2.4-7.46-2.72-11.51-3-4.44-.34-8.62-.66-11.57-3.49-4.54-4.37-3.06-12.15.24-17.53,1.22-2,2.67-3.9,4.07-5.74,2.55-3.35,5.18-6.82,6.55-10.89a14.78,14.78,0,0,0-1.42-12.18,8.3,8.3,0,0,0-6.27-4c-4.06-.38-7.37,2.18-10.57,4.66a42.15,42.15,0,0,1-4,2.81c-5.5,3.3-11.9,3.36-18.67,3.42a70,70,0,0,0-11.57.75c-10.63,1.92-19.52,8.9-27.37,15.05-4.8,3.76-10.15,8.88-8.83,15,1,4.56,5.15,7.11,9.18,9.58S72,97.62,73,101.64c1.51,6.09-3.75,11-8.84,15.83-2.56,2.41-5,4.68-6.41,7-1.85,3-3.07,7.56-1,11.42,2.44,4.46,8,5.75,12.21,6,9.31.65,20.89,1.46,23,12.58.62,3.31,0,6.6-.56,10.08-.28,1.64-.57,3.33-.73,5-1.3,14.15,7.89,24.22,14.91,30.56,15,13.54,28.8,24.92,46.1,27,1,.12,2.06.21,3.07.3a30.58,30.58,0,0,1,8.43,1.53c3.37,1.32,6.61,4.57,6.28,8.27-.27,3.06-3,5.91-7.26,7.62-1.1.44-2.26.82-3.38,1.18a25.65,25.65,0,0,0-7.46,3.38,14.82,14.82,0,0,0-5.32,13.9A19.27,19.27,0,0,0,154.3,276c5,3.48,11.23,4.82,16.73,6l.57.12a69.42,69.42,0,0,0,14.2,2c4.52,0,8.89-.92,12.15-3.78a13.77,13.77,0,0,0,2.93-4.15,12.46,12.46,0,0,1,2.82-4C206.51,269.84,211.08,268.7,215.36,269.29ZM203,271.39a13.57,13.57,0,0,0-3.07,4.28,12.94,12.94,0,0,1-2.7,3.85c-6.44,5.65-17.87,3.18-25.43,1.55l-.56-.12c-5.4-1.16-11.53-2.48-16.36-5.84a18.21,18.21,0,0,1-7.83-11.9,13.77,13.77,0,0,1,4.91-12.9,24.45,24.45,0,0,1,7.16-3.22c1.13-.37,2.31-.75,3.44-1.21,2.24-.89,7.48-3.51,7.92-8.5.39-4.4-3.33-7.93-7-9.34a30.86,30.86,0,0,0-8.72-1.6c-1-.09-2-.18-3-.3-17-2.07-30.67-13.34-45.52-26.75-6.85-6.19-15.82-16-14.57-29.69.15-1.63.44-3.3.72-4.91.59-3.43,1.21-7,.56-10.46-2.21-11.92-14.75-12.8-23.92-13.44-4-.27-9.15-1.45-11.36-5.49-1.9-3.47-.76-7.63.93-10.37,1.37-2.21,3.74-4.44,6.25-6.8,5.06-4.76,10.8-10.16,9.13-16.84-1.11-4.45-5.22-7-9.2-9.4s-7.82-4.79-8.7-8.9c-1.2-5.58,3.89-10.4,8.45-14,7.75-6.07,16.53-13,26.9-14.84a68.9,68.9,0,0,1,11.39-.73c6.62-.06,13.47-.12,19.21-3.57a44.3,44.3,0,0,0,4-2.88c3-2.3,5.79-4.47,9.12-4.47l.71,0a7.3,7.3,0,0,1,5.48,3.53,13.67,13.67,0,0,1,1.31,11.26c-1.32,3.91-3.9,7.3-6.39,10.59a71.13,71.13,0,0,0-4.13,5.83c-3.51,5.73-5,14.07-.07,18.84,3.21,3.09,7.79,3.44,12.21,3.78,3.91.3,8,.61,11,2.83,5.22,3.83,5.79,12.16,5.7,19-.12,8.66,3.36,14.45,10.94,18.22a61.77,61.77,0,0,0,13,4.2c2,.48,4,1,6,1.55,6.79,2,11.23,4.41,13.57,7.41a8.59,8.59,0,0,1,.59.84,29.08,29.08,0,0,1,2.14,4.38c1.29,3.07,2.5,6,6.14,8.18a25.82,25.82,0,0,0,8,2.67c3.46.74,6.73,1.45,9.11,3.74,6.12,5.89,2.71,12.41-.89,19.32-2.19,4.19-4.45,8.52-4.31,12.65,0,1.08.18,2.17.32,3.23.32,2.33.6,4.53-.17,6.57A13.39,13.39,0,0,1,222.9,215a18.62,18.62,0,0,0-2.22,3c-3.17,5.7-.51,11,2.06,16.1a43.24,43.24,0,0,1,2.59,5.87,12.17,12.17,0,0,1,.23,5.4,15.19,15.19,0,0,0,.09,5.38,34.67,34.67,0,0,0,1.32,4c1,2.78,2,5.41,1.47,8.26a7.74,7.74,0,0,1-6.91,6.06,15.2,15.2,0,0,1-4-.45c-.65-.12-1.32-.26-2-.35-4.55-.63-9.45.6-12.49,3.15Z"/><path id="Tracé_814" data-name="Tracé 814" class="cls-1" d="M192.57,256.93c-2.41-2.18-5.76-2.3-9-2.42l-1.65-.07c-1-.06-2.08-.17-3.1-.28a30.9,30.9,0,0,0-6.59-.23c-3.06.32-6.8,1.9-8.11,5.33-1.93,5.07,2.73,11.07,6.69,13.29a15,15,0,0,0,7.22,1.56,25.4,25.4,0,0,0,10-2,11.84,11.84,0,0,0,6.41-6.39A8.14,8.14,0,0,0,192.57,256.93Zm.84,8.39a10.81,10.81,0,0,1-5.86,5.8c-4.58,2.05-12.09,2.83-16.22.51-3.71-2.08-7.87-7.65-6.22-12,1.14-3,4.49-4.37,7.24-4.66a30.06,30.06,0,0,1,6.36.23c1,.11,2.1.22,3.16.28l1.67.07c3,.11,6.19.23,8.32,2.15a7.08,7.08,0,0,1,1.55,7.62Z"/><path id="Tracé_815" data-name="Tracé 815" class="cls-1" d="M208.78,303.32c2.75-1.71,6.19-1.9,9.51-2.1l1.63-.1c6.62-.46,18.88-2.65,26.58-12.11,6.78-8.34,6.73-19.05-.13-30.16a61.75,61.75,0,0,0-4.6-6.2c-4.69-5.82-9.54-11.83-6.35-19.72a19,19,0,0,1,2.58-4.14,18.15,18.15,0,0,0,2.87-4.83c.94-2.73.56-5.62.18-8.4a21.78,21.78,0,0,1-.21-6.74c1-5.35,5.14-8.47,9.54-11.78,3.07-2.3,6.24-4.68,8.21-7.88,5.43-8.8-3.56-20.21-10.92-25.74-2.64-2-5.35-3.83-8-5.62-5.93-4.07-11.54-7.9-16.6-13.21-.86-.9-1.7-1.81-2.54-2.73a56.81,56.81,0,0,0-9.33-8.74c-3.93-2.72-8.86-3.09-13.63-3.45-6.14-.46-11.94-.9-15.66-6-2.76-3.77-2.18-8.58-1.58-13.67.57-4.72,1.15-9.6-1.11-13.7-2.45-4.46-7.33-6.4-12.06-8.29-4.26-1.7-8.67-3.45-11.2-7-3.39-4.83-2.82-11.73,1.73-21.07l.33-.67c3.25-6.65,6.94-14.2,4.51-21.36-4.08-12-21.19-13.63-32-11-2.73.67-5.46,1.48-8.09,2.26-9,2.68-17.42,5.2-26.84,2.85q-3.28-.91-6.47-2.14c-7.52-2.75-16-5.87-22.64.38-3.85,3.66-4.28,9.1-4.7,14.36-.33,4.23-.67,8.6-2.77,12.08-3.44,5.7-9.53,7.54-16,9.48-5.78,1.74-11.76,3.54-15.69,8.38-5.8,7.13-.85,13,3.94,18.57,3,3.49,6,7.1,6.52,11,.66,5.25-2.45,10.14-5.46,14.87-3.26,5.11-6.63,10.41-5.32,16.26,1.2,5.34,5.81,8.7,10.26,11.94,4.13,3,8.39,6.1,9.82,10.74,1.16,3.75.26,7.89-.62,11.9-1,4.77-2.11,9.7.28,14,3,5.29,9.73,6.59,13.5,6.9,1.62.13,3.27.16,4.87.2a36.52,36.52,0,0,1,10.19,1.17,23.76,23.76,0,0,1,15.25,16.14c1.93,7.31,6.5,15.16,13.56,23.34l.15.16c1.16,1.34,2.36,2.73,2.65,4.38.4,2.3-1,4.33-2.43,6.48a16.42,16.42,0,0,0-2.62,5c-1.35,5.45,3.43,10.3,6.4,12.71l1.52,1.21c3.29,2.58,6.68,5.25,7.77,9.11.78,2.76.22,5.87-.22,8.37-.53,2.91-1.06,5.91-.3,8.85,1.38,5.34,6.45,7.14,11.36,8.89,2.9,1,5.65,2,7.58,3.65,2.31,2,3.61,4.72,5,7.63a30.06,30.06,0,0,0,3.68,6.39c3.13,3.8,8.34,7.52,14.2,7.52a13.42,13.42,0,0,0,2.2-.18,27.28,27.28,0,0,0,5.86-1.89A22.29,22.29,0,0,1,173.3,318c3-.29,6.15.68,9.17,1.61,4,1.23,8.15,2.51,12.08.87s5.9-5.36,7.88-9C204.13,308.36,205.88,305.12,208.78,303.32ZM201.5,311c-2,3.64-3.85,7.07-7.36,8.54s-7.36.32-11.36-.91c-3.13-1-6.35-2-9.59-1.66a23.71,23.71,0,0,0-6.68,2,25.83,25.83,0,0,1-5.62,1.83c-6.3,1-12.09-2.93-15.41-7a29.26,29.26,0,0,1-3.55-6.16c-1.36-2.89-2.77-5.88-5.25-8-2.09-1.78-5.05-2.83-7.92-3.85-4.65-1.65-9.45-3.35-10.69-8.15-.7-2.71-.18-5.6.32-8.4.46-2.6,1-5.85.2-8.84-1.19-4.19-4.72-7-8.13-9.66-.51-.4-1-.8-1.51-1.2-2.77-2.25-7.25-6.75-6-11.63a15.64,15.64,0,0,1,2.48-4.71c1.51-2.23,3.07-4.53,2.59-7.25-.34-1.94-1.64-3.44-2.9-4.89l-.14-.17c-7-8.05-11.45-15.77-13.34-22.92a24.88,24.88,0,0,0-16-16.88,37.83,37.83,0,0,0-10.49-1.21c-1.58,0-3.22-.07-4.8-.2-3.56-.29-10-1.5-12.66-6.37-2.2-3.93-1.22-8.45-.17-13.24.9-4.14,1.83-8.43.6-12.44-1.54-5-5.95-8.18-10.21-11.28-4.5-3.28-8.74-6.37-9.85-11.33-1.22-5.42,1.89-10.3,5.17-15.46,3.11-4.88,6.33-9.93,5.62-15.56-.52-4.21-3.7-7.94-6.77-11.55-4.71-5.54-9.16-10.77-3.92-17.23,3.73-4.58,9.55-6.34,15.18-8,6.36-1.91,12.93-3.89,16.58-10,2.23-3.68,2.58-8.18,2.92-12.53.42-5.3.81-10.3,4.37-13.68,6.13-5.81,14.32-2.81,21.55-.16a66.44,66.44,0,0,0,6.57,2.17c9.7,2.43,18.3-.14,27.4-2.85,2.62-.78,5.33-1.59,8-2.26,10.16-2.5,27-1,30.79,10.27,2.29,6.76-1.29,14.09-4.46,20.56l-.32.67c-4.74,9.72-5.28,17-1.65,22.14,2.7,3.85,7.26,5.67,11.67,7.43,4.76,1.9,9.26,3.68,11.53,7.81,2.1,3.8,1.53,8.51,1,13.07-.6,5.07-1.23,10.31,1.78,14.42,4,5.47,10.32,5.95,16.43,6.41,4.62.35,9.41.71,13.11,3.26a56.4,56.4,0,0,1,9.15,8.59c.85.92,1.69,1.84,2.55,2.74,5.14,5.39,10.79,9.26,16.77,13.35,2.6,1.78,5.3,3.63,7.92,5.6,7.06,5.29,15.71,16.14,10.66,24.34-1.87,3-5,5.35-7.94,7.59-4.37,3.29-8.89,6.68-9.95,12.43a22.43,22.43,0,0,0,.2,7.08c.37,2.79.73,5.42-.13,7.92a17.2,17.2,0,0,1-2.73,4.54,20.52,20.52,0,0,0-2.7,4.37c-3.43,8.47,1.62,14.73,6.5,20.78a62.53,62.53,0,0,1,4.53,6.1c3.83,6.2,8.94,18.2.21,28.93-7.45,9.16-19.39,11.29-25.84,11.74l-1.61.1c-3.46.2-7,.4-10,2.25-3.13,1.94-5,5.3-6.72,8.55Z"/><path id="Tracé_816" data-name="Tracé 816" class="cls-1" d="M203.59,328.56a13.81,13.81,0,0,1,5.36-.21c3.12.29,6.35.59,8.31-3.61a24,24,0,0,0,1.63-6.34c.51-3.17,1-6.17,3.15-8.45,1.55-1.63,3.82-2.52,5.83-3.31s4.18-1.48,6.46-2.21c7.18-2.29,14.6-4.66,19-10.56,6.8-9,3.77-22.19,1.36-29.24a51,51,0,0,0-5.59-12.14c-.59-.86-1.22-1.74-1.87-2.63-4.27-5.94-8.7-12.07-3.76-18.91.37-.51.76-1,1.15-1.52,1.45-1.86,3-3.79,3.4-6.17a14.37,14.37,0,0,0-.06-4.44c-.06-.59-.13-1.18-.17-1.77-.13-2.16.32-3.72,1.4-4.77,2.24-2.19,7-1.8,10.75-1.49,1.09.09,2.13.17,3.05.2,8.07.2,15.8-7.43,16.51-16.38.53-6.72-2.29-13.9-7.73-19.7-3.61-3.84-8-6.83-12.32-9.72-2.77-1.87-5.63-3.8-8.24-5.94-5.3-4.36-9.76-9.77-14.08-15-2-2.47-4.15-5-6.33-7.45-8.6-9.57-16.94-14.87-25.5-16.2l-2-.28c-3.14-.4-6.38-.81-8.33-3-1.68-1.94-1.86-4.58-2.05-7.37a22.35,22.35,0,0,0-.76-5.27c-1.51-4.85-5.89-7.64-10.13-10.34-3.06-2-6.23-4-8.34-6.74A14.23,14.23,0,0,1,171.88,74c1.66-4.21,4.25-5.43,7.53-7,1-.48,2.11-1,3.23-1.62,4.45-2.53,5.86-9.27,5.69-14.73-.18-6.35-2.42-12.33-4.6-18.11C180.89,25,177.67,16.39,172,9.78,166.93,4,158.22-1.55,148.84.4c-4.91,1-9.09,3.94-13.12,6.77-3.23,2.26-6.56,4.6-10.24,5.93-9.46,3.43-19,.13-29.13-3.37-6.2-2.15-12.61-4.36-19-4.92C68.07,4,58,7.82,51,14.73c-6,5.95-9,13.35-8.44,20.83a60.76,60.76,0,0,0,1.06,6.84c1.1,5.68,2.15,11.05-.83,15.41-3.77,5.5-10.7,5.24-18,4.95-5-.19-10.2-.4-14.68,1.25C5,65.89,1.19,70.93.23,77.16S1.37,89.34,5.7,92.68c2.85,2.2,6.49,3.59,10,4.94,5.89,2.25,11.45,4.38,12.75,9.93,1.11,4.78-1.8,9.06-4.89,13.59s-6.15,9-5.17,14.2c.67,3.52,3.11,6.2,5.47,8.79a37.94,37.94,0,0,1,3.48,4.21c4.23,6.3,3.88,14.6,2.87,22.63l-.15,1.24c-1,7.59-2,15.43,1.08,22.43,3.48,8,11,11,23.1,9.29,10.14-1.46,18.33,0,24.34,4.32a18.94,18.94,0,0,1,3.17,2.83,33.32,33.32,0,0,1,4.29,6.36,26.57,26.57,0,0,0,4.24,5.27,33.14,33.14,0,0,1,3.42,4c2.51,3.64,3.6,7.57,3.06,11.07a24.94,24.94,0,0,1-2,5.82c-1.17,2.73-2.39,5.56-2.06,8.59.49,4.46,4,7.44,7.33,10.32,2.52,2.16,5.13,4.39,6.5,7.23,1.56,3.22,1.42,6.79,1.28,10.58A42,42,0,0,0,108,287c.56,4.34,2.49,8.27,4.36,12.08,1.54,3.13,3.46,7,7,9.07a19.88,19.88,0,0,0,7.43,2c2.61.36,5.08.7,7.19,2,4.55,2.76,5.73,8.84,6.33,15l1.9,19.45c.38,4,.78,8.1,2.39,11.9a20.05,20.05,0,0,0,4.54,6.11,28.28,28.28,0,0,1,3.34,3.91l.51.79c2.71,4.14,5.27,8.05,9.31,11.29A29.56,29.56,0,0,0,180.57,387a24.18,24.18,0,0,0,16.86-6.3c7.14-6.83,9.39-18.48,5.59-29-.52-1.43-1.14-2.85-1.74-4.22a33.37,33.37,0,0,1-2.82-8.36C197.85,334.9,199.6,329.8,203.59,328.56Zm-6.18,10.71a34.22,34.22,0,0,0,2.9,8.64c.6,1.36,1.21,2.76,1.72,4.16,3.65,10.12,1.51,21.32-5.33,27.87-8.44,8.07-23.6,8-33.79-.14-3.91-3.12-6.43-7-9.09-11l-.51-.78a27.53,27.53,0,0,0-3.47-4.08,18.91,18.91,0,0,1-4.33-5.78c-1.54-3.66-1.93-7.69-2.31-11.6l-1.89-19.44c-.63-6.44-1.89-12.8-6.84-15.81-2.3-1.39-5-1.76-7.59-2.12s-5-.68-7-1.89c-3.23-1.88-5.07-5.62-6.55-8.63-1.83-3.73-3.72-7.58-4.26-11.75a40.94,40.94,0,0,1-.11-6.55c.14-3.75.29-7.63-1.38-11.08-1.47-3-4.16-5.35-6.77-7.58-3.35-2.87-6.52-5.59-7-9.63-.3-2.75.8-5.33,2-8.06a25,25,0,0,0,2-6.08c.59-3.76-.56-8-3.23-11.82a33.54,33.54,0,0,0-3.52-4.1A25.49,25.49,0,0,1,87,216.92a34.86,34.86,0,0,0-4.42-6.55,21.12,21.12,0,0,0-3.34-3c-6.24-4.49-14.69-6-25.11-4.5-11.53,1.67-18.72-1.17-22-8.66-2.92-6.74-1.95-14.43-1-21.88l.15-1.24c1-8.23,1.38-16.76-3.05-23.35a37,37,0,0,0-3.57-4.33c-2.36-2.6-4.6-5-5.21-8.28-.9-4.73,2-8.94,5-13.41s6.26-9.2,5-14.42c-1.43-6.1-7.52-8.43-13.4-10.69-3.45-1.32-7-2.68-9.74-4.78-4-3.1-6-8.67-5.07-14.52S5.69,66.74,10.47,65c4.28-1.57,9.36-1.37,14.27-1.18,7.64.3,14.86.58,19-5.41,3.23-4.72,2.1-10.56,1-16.21a58.67,58.67,0,0,1-1.05-6.72c-.55-7.16,2.34-14.27,8.13-20C58.54,8.78,68.29,5.1,77.21,5.86c6.3.54,12.65,2.74,18.8,4.86,9.84,3.4,20,6.93,29.83,3.37,3.81-1.38,7.2-3.76,10.49-6.06,4.13-2.89,8-5.62,12.73-6.6,7.36-1.53,16,2,22.1,9,5.59,6.47,8.64,14.6,11.59,22.47,2.13,5.7,4.34,11.6,4.53,17.78.15,4.92-1.12,11.48-5.16,13.78-1.09.61-2.14,1.11-3.16,1.59-3.36,1.57-6.26,2.93-8.07,7.53a15.32,15.32,0,0,0,2,14.56c2.23,2.93,5.48,5,8.62,7,4.26,2.72,8.3,5.28,9.69,9.77a22.44,22.44,0,0,1,.72,5c.19,2.84.38,5.78,2.3,8,2.2,2.55,5.65,3,9,3.41.66.09,1.32.17,2,.27,8.31,1.3,16.45,6.49,24.88,15.87,2.16,2.4,4.26,5,6.3,7.42,4.35,5.27,8.85,10.72,14.23,15.14,2.64,2.17,5.53,4.12,8.32,6,4.23,2.85,8.61,5.81,12.14,9.56,5.24,5.59,7.95,12.48,7.44,18.9-.65,8.3-7.67,15.42-15.1,15.42h-.32c-.9,0-1.92-.11-3-.2-4.22-.35-9-.75-11.58,1.79-1.29,1.26-1.87,3.14-1.71,5.59,0,.61.11,1.23.17,1.82a13.56,13.56,0,0,1,.07,4.12c-.4,2.13-1.75,3.88-3.19,5.72-.4.52-.8,1-1.17,1.56-5.38,7.45-.52,14.19,3.76,20.14.64.88,1.27,1.75,1.85,2.61A50.57,50.57,0,0,1,253.75,265c1.88,5.52,5.53,19.31-1.21,28.27-4.24,5.63-11.5,7.95-18.52,10.19-2.3.73-4.47,1.43-6.53,2.23s-4.5,1.76-6.21,3.57c-2.38,2.51-2.91,5.81-3.43,9a23.47,23.47,0,0,1-1.54,6.06c-1.65,3.53-4.13,3.3-7.26,3a14.21,14.21,0,0,0-5.77.26c-4.71,1.45-6.53,7.11-5.87,11.7Z"/><path id="Tracé_817" data-name="Tracé 817" class="cls-1" d="M180.23,346.89l-1.27-.28a30.7,30.7,0,0,1-7.37-2.95,46.77,46.77,0,0,0-5-2.27,6.91,6.91,0,0,0-8.82,3.25c-2.17,3.73-2.14,9.78,1.69,13a19,19,0,0,0,4.35,2.55,24,24,0,0,1,3.45,1.87c2.57,1.82,4.25,4.64,5.9,7.62l.17.31c1.56,2.84,3.18,5.78,5.72,7.89a10.4,10.4,0,0,0,6.37,2.43,7,7,0,0,0,3.47-.88c3.16-1.78,4.24-5.57,5-9,1.4-6.3,2.26-13.38-1.87-18.18C189,348.8,184.55,347.83,180.23,346.89Zm12.63,23.37c-.7,3.19-1.7,6.72-4.48,8.29s-6.47.36-8.65-1.45c-2.39-2-3.95-4.82-5.47-7.57l-.17-.32c-1.7-3.09-3.46-6-6.22-8a24.08,24.08,0,0,0-3.6-2,17.83,17.83,0,0,1-4.11-2.4c-3.42-2.91-3.42-8.35-1.46-11.71a5.89,5.89,0,0,1,7.54-2.79,45.69,45.69,0,0,1,4.88,2.23,32.08,32.08,0,0,0,7.61,3l1.28.28c4.14.9,8.43,1.84,11.22,5.08,3.83,4.44,3,11.22,1.64,17.26Z"/></g></g></g></svg>
