<svg xmlns="http://www.w3.org/2000/svg" width="253" height="368" viewBox="0 0 253.04 368.66"><path d="M253,210.92c0-8.86-.63-17.48-1.24-25a16.85,16.85,0,0,1,.13-4.65c-.36-2.38-.8-4.75-1.2-7.12s-.93-4.72-1.39-7.07c1.34.91-1.25-12,.7-5.29q-.61-2-1.14-3.93c-.38-1.3-.76-2.61-1.11-3.92s-.68-2.63-1-3.94-.72-2.66-1.11-4c-1.57-5.33-3.57-10.81-6.91-15.62a39.7,39.7,0,0,0-10.36-12.5,35.3,35.3,0,0,0-15.3-6.77,47.31,47.31,0,0,0-16-.09c-1.86.29-3.7.66-5.5,1.11.44-1.16.82-2.29,1.13-3.33.16-.78.81-1.1,1.32-1.61,1-2.86,2.5-6.35,3.29-9.57l-.07.15c.51-1.69,1.47-2.76,1.91-4.43-.16,0-.08-.3-.12-.45.39,0,.84-2.55,1.15-5.14s.58-5.2.86-5.44c0-.18,0-.36.07-.55.65-1.7,1.51-3.37,2.31-5A18.32,18.32,0,0,0,205.23,72a19,19,0,0,0-.59-2.18c.43-.47-.15-.7.06-1.33,1.77-1.36,1.36-2.46.68-1.7.06-1.4.48-2.73.62-4,0-.58,0-1.16-.05-1.75a.85.85,0,0,1,.61-.91c0-1.27.31-.85.65-2.12.56-.24-.33-3.38-.13-3.72l0,.22c.32-1.48,1.41-2.36,1.64-3.83.21-1,.4-2.06.53-3.11s.21-2.13.3-3.19c.2-2.12.27-4.21.5-6.11-.53-.07.06.85-.65.85.27-2.24,1-4.48,1.22-6.76a4.55,4.55,0,0,1,.63-1.09c.22-.72-.24-.44-.16-1l.49-.06c-.39-.79.56-1.13.38-1.88-.2,0-.22-.31-.2-.57.52,0,0-.81.46-.77h0a1.08,1.08,0,0,1,.07-.47c-.16-.31-1.6-3.13-1.81-3.42l.08-.14c0-.42-.4-.6-.49-.35l0-.52,0,.06,0-.51a.38.38,0,0,1,.51-.07,1.12,1.12,0,0,1-.19-.9,17.58,17.58,0,0,1-1.28,2.66c-.18-.34.09-1,0-1.34a7.79,7.79,0,0,0,.85-2.1c0-.16-.61-.26-.37-.62.4-.18,0-.4.26-.71a1.57,1.57,0,0,1,.12,1c.47-.07.3-.85.42-1.13-.15-.12,0-.8-.16-1.22.3.12.33-.07.38-.28l-.08-.1.08.1a.71.71,0,0,1,.14-.32c0-.29-.14-.46-.3-.34a.25.25,0,0,0-.24.11l-.46-.7a13.2,13.2,0,0,1,2.68-4.44c.59-1.83,1.76-4.12,1.28-5.33a8.58,8.58,0,0,0,1-2.24,18.65,18.65,0,0,1,.88-2.29c-.74.12.51-2-.39-1.38-1.37.65-.86,1.07-2,1.63l.17.07c-3.56,3.75-7.08,7.42-10.71,11.13-2,2.89-4.81,5.4-7.31,8.06-2.61,2.93-5.47,6.13-7.65,8.8-.49.67-1.24.74-1.92,1-2.13,2.32-5.23,4.89-7.66,7.53l.14-.1c-1.34,1.36-2.78,1.9-4.08,3.24.12.11-.09.31-.14.47-.36-.15-2.13,2-3.86,4.22s-3.44,4.56-3.83,4.64a5.15,5.15,0,0,1-.37.48c-3,2.57-6.95,4.58-9.15,7.27a23.67,23.67,0,0,0-.69,2.36c-.64.25-.26.73-.79,1.24-2.32.49-2.55,1.74-1.53,1.32-.84,1.3-1.89,2.43-2.69,3.55-.3.57-.6,1.13-.88,1.72a1,1,0,0,1-1,.63c-.64,1.26-.7.71-1.67,1.81-.31,0-.7.85-1,1.77a8.88,8.88,0,0,1-.76,2l.07-.24a7.14,7.14,0,0,1-1.73,1.56A7.77,7.77,0,0,0,143,77.5a46.53,46.53,0,0,0-2.51-6.12A54.34,54.34,0,0,0,133,60.65a4.62,4.62,0,0,1-.9-2.22,80.78,80.78,0,0,0-8-8.68l.12.14c-1.51-1.41-2.26-2.87-3.8-4.17-.1.12-.34-.08-.51-.11.12-.39-2.36-2.08-5-3.6s-5.32-2.86-5.48-3.23l-.57-.3c-3.22-2.64-6.17-6.13-9.38-7.78a17.6,17.6,0,0,0-2.52-.21c-.4-.58-.8-.1-1.42-.54-1-2.2-2.32-2.17-1.67-1.25-1.49-.57-2.86-1.37-4.14-2l-1.91-.52a1,1,0,0,1-.84-.9c-1.38-.41-.85-.56-2.14-1.32-.12-.64-3.75-.77-4.07-1.09l.25,0c-1.53-.75-2.2-2.13-3.73-2.82-4.14-2.13-8.86-3.64-12.5-5.53-.26.47.88.26.62.93-2.18-1.09-4.05-2.76-6.06-4a4,4,0,0,1-.7-1.07c-.55-.54-.51,0-.94-.33L58,9.69c-.87-.07-.71-1-1.42-1.26-.13.14-.37,0-.58-.14.28-.44-.68-.4-.38-.78l0,0a.83.83,0,0,1-.34-.3c-.33,0-3.39-.47-3.75-.54l-.06-.15c-.33-.25-.71-.07-.58.16l-.38-.35h.07A4.12,4.12,0,0,1,50.17,6a.39.39,0,0,1,.3-.43,1,1,0,0,1-.78-.46c.19.39.38.84.58,1.3s.43.94.6,1.42c-.38-.09-.71-.7-1-.9a9.2,9.2,0,0,0-1-2c-.13-.08-.62.26-.68-.18.16-.41-.29-.28-.29-.69.38.09.54.39.76.65.29-.38-.34-.82-.43-1.1-.19,0-.55-.55-.91-.76.29-.11.2-.27.11-.46l-.16,0,.16,0A.66.66,0,0,1,47.33,2C47.2,1.79,47,1.78,46.9,2a.22.22,0,0,0-.12.22C46,2,45.2,1.68,45.28,1.8s0,.14-.1.18a.12.12,0,0,0-.13,0c-.11,0-.21.08-.16.2h.16c.34.5-.28.73-.95,1s-1.48.46-1,1.12c0-.88.61-.2,1.12.28a1.36,1.36,0,0,0,.09,1.1c.34.29.34,0,.51,0,.07.26.32.68,0,.85.51,0,.22.56.6.77s.1-.13.4-.07c.36.42.91,1,1.18,1.31-.07.33,0,1.07-.6,1.15-.59-.63.73-.33,0-.85-.17.74-.7-.4-1.17-.14,0,.4.44.8.85,1.07V9.64c.37.23,1.09.68,1.24,1.24-.23.1-.19.37-.47.21l.43.41c.11,0,.22,0,.12-.17a.72.72,0,0,1,.57.54c-.12.28,3.14,1,3,1.11a.91.91,0,0,1,.3.37,27.72,27.72,0,0,0-2.87-1.18,8.31,8.31,0,0,0,2.35,1.16c1.15.43,2.26.84,2.24,1.12.27.15.63.3.7.05.38.37-.39.32-.19.71,0,0,0-.12.14-.05l.14.45a3.38,3.38,0,0,1,1.3.61,2.61,2.61,0,0,0,1.4.5,3.27,3.27,0,0,1-1.44.33l0-.16c-.11,0-.55-.13-.66.09a2,2,0,0,0,1.41.65,3.41,3.41,0,0,1,.17.33.19.19,0,0,1,0-.09c.08.22.05.23,0,.29l-.06,0c-.06.81,2.06.58,2.75,1.35.3,0,.08-.1.46-.06a18.28,18.28,0,0,0,2.14,1.79c.43-.14.51-.24.28-.71l.67.42c-1,.46,1,1.33-.07,1.76a1.3,1.3,0,0,0,1,.56.59.59,0,0,1,.79-.25l0,0c.58.56.46.4.93.9,0,.31-.23.32-.29.53,1,.07.55.89,1.42,1.2.56.15,1.62.57,1.83.14.7.31.57.64.35,1l.55.29A49.66,49.66,0,0,1,63,24.31,24.94,24.94,0,0,0,69,28.71a7.82,7.82,0,0,0,6.61.47c-.36,1.84,3.22,4.34,3.48,4a20.4,20.4,0,0,1,2.8.35C87.72,34.61,93.09,38,98.14,42c1.43,1.06,4.09,3,6.61,5a53.73,53.73,0,0,1,6.07,5.61c.34.38.68.76,1,1.14l-1.07-1.37c1,.52,1.91,1,2.8,1.5s1.72,1,2.52,1.57a3.32,3.32,0,0,0-.26-1.46l.6.8c1.15.08,2.62,1.54,3.49,2.06-.43.12,0,.73.44,1.27l0-.38c.82,1,1.71,2,2.64,3a35.67,35.67,0,0,1,2.41,2.94,1,1,0,0,1,.18.74c.5.54,1,1,1.52,1.61-.54.16.6,1.77-.25,1.09,1.45,1,1.94,2.63,3.31,3.64,1.37,2.42,2.78,4.93,4,7.55s2.52,5.3,3.58,8l.16-.19,0,.06c-.67,1.44-1.32,2.85-1.9,4.21.48.24.25-1,.93-.72-.52,1.18-1.19,2.3-1.84,3.45a36.61,36.61,0,0,0-1.66,3.6,6.67,6.67,0,0,1-.93,1.06c-.41.77.12.56-.11,1.14L132,99c.15,1-.86,1.17-.89,2.06.18.09.13.4,0,.7-.52-.11-.15.94-.61.8l0,0a1.23,1.23,0,0,1-.17.52c.12.41.87,3.9,1.08,4.26l-.1.15c0,.49.32.75.44.48l-.1.59,0-.07-.1.59a.36.36,0,0,1-.49,0l0,0a1.46,1.46,0,0,1,.06,1.07,18.7,18.7,0,0,1,1.64-2.89c.13.42-.23,1.09-.22,1.53a9.93,9.93,0,0,0-1.14,2.31c0,.18.57.35.28.75-.41.17,0,.46-.31.8a1.83,1.83,0,0,1,0-1.2c-.5,0-.39,1-.53,1.27.15.16,0,.94.08,1.44-.3-.16-.34.06-.4.31l0,.09-.06-.09a.83.83,0,0,1-.16.36c-.06.34.11.55.28.42a.23.23,0,0,0,.24-.12l.22.46a8.8,8.8,0,0,0-2.51,0c-2.21.56.18.3-1.37.81l-2.72.21c-1,.08-1.93.21-2.89.3-1.93.19-3.76.47-5.09.62-1.12-.42-4.45-.74-2.34-2.11,5.13-.8-1.68,1.77,3.59.65-.69-.25-.65-.45-.21-.63a3.17,3.17,0,0,0,2.25-.43c.9.43,1.54.19,2.49.49.1-.6,1.14,0,1-.66s-.17-.63-.3-.73a1.06,1.06,0,0,0,.29-.22l-.5-.07a1.27,1.27,0,0,1-.06-.28l-.09.17c-.78-1.06-1.63-2-2.46-2.94s-1.71-1.82-2.61-2.67c-1.55-.7-2.74-2.08-4.1-3.13-.75-.55-1.57-1.08-2.38-1.58s-1.58-1-2.32-1.39c-.39-.15-.26-.68-.31-1.09-1.23-.84-2.35-2.36-3.72-3.35l0,.07c-.65-.6-.66-1.48-1.3-2.06-.11.11-.21,0-.31,0,.24-.31-.92-1-2-1.73s-2.32-1.49-2.25-1.74a1.38,1.38,0,0,1-.25-.17c-.83-1.69-.82-4-1.78-5.22a10,10,0,0,0-1.43-.25c.11-.41-.43-.11-.54-.43.75-1.52,0-1.59-.23-.94a7.39,7.39,0,0,1-1.19-1.64c-.24-.19-.49-.37-.75-.55s-.12-.38.11-.67c-.51-.43-.1-.46-.31-1.1.34-.38-1.54-1-1.5-1.26l.12,0c-.3-.71.33-1.64,0-2.3a19.66,19.66,0,0,0-1.32-2.88A17.17,17.17,0,0,1,88.49,72c-.5.21.28.33-.36.65-.38-1.07-.24-2.37-.62-3.43a1.94,1.94,0,0,1,.33-.73c0-.42-.32-.1-.35-.37l.44-.22c-.52-.2.29-.73,0-1a.22.22,0,0,1-.3-.18c.47-.2-.19-.35.26-.51h0c0-.07-.07-.11,0-.23l-2.32-.9.06-.1c-.09-.19-.48-.14-.52,0L85,64.76l0,0,0-.25a.63.63,0,0,1,.47-.2c-.22-.07-.37-.19-.33-.36a9,9,0,0,1-.77,1.7c-.22-.1-.07-.5-.18-.66a3.85,3.85,0,0,0,.46-1.28c0-.07-.62.08-.44-.18.35-.21-.08-.18.14-.42.26.09.23.28.27.45.43-.19.16-.5.24-.67-.16,0-.13-.38-.32-.53.3,0,.3-.14.31-.26l-.07,0,.07,0a.34.34,0,0,1,.09-.19c0-.15-.2-.18-.33-.07a.32.32,0,0,0-.2.12c-.51-.18-1.07-.4-1-.32s-.12.08-.21.1H83c-.12,0-.23,0-.25.11h.12c.1.64-2.73.33-2.63,1.07.45-.49.61-.09.79.21a1,1,0,0,0-.47.61c.11.18.24,0,.4,0-.08.15-.11.4-.41.48.4,0-.14.32,0,.47s.14-.07.35,0a4.88,4.88,0,0,1,.13.84c-.24.18-.64.59-1.12.57-.08-.4.73-.11.5-.47-.56.4-.29-.28-.78-.18a.44.44,0,0,0,0,.64l0,0,.07-.07c.15.16.41.49.15.81-.23,0-.37.19-.47.07l.05.27c.08,0,.17,0,.19-.08.21.06.16.22.07.36s1.51,1,1.35,1a.37.37,0,0,1-.05.25,7.47,7.47,0,0,0-1.21-1c-.19.27,2,1.63,1.59,1.92.07.13.19.27.4.14,0,.28-.47.11-.61.37,0,0,.11-.07.12,0l-.23.28c.5.2.25.93.88,1.1a2.9,2.9,0,0,1-1.1-.09l.1-.09c-.09,0-.25-.17-.47-.07-.06.3.06.48.38.62a1.05,1.05,0,0,1-.12.21l.08,0c-.1.14-.13.14-.23.15h-.06c-.6.43.83.7.67,1.27.15.08.12,0,.31,0A7,7,0,0,0,81.48,75a.64.64,0,0,0,.69-.35l.06.38c-.9,0-.44,1-1.34,1a.35.35,0,0,0,.09.5l0,0c.2-.07.52-.19.63,0a5.94,5.94,0,0,1-.14.71c-.21.18-.36.13-.55.24.53.26-.35.62-.1,1,.2.21.48.68.91.48.15.34-.16.5-.53.65l.09.3a13.78,13.78,0,0,1-1.08-2.87c-.47,2.67-.53,5.83,3.38,5.62-1.52,1.05-1.19,3.4-.78,3.21a10.86,10.86,0,0,1,1.44.74c2.73,1.76,3.89,4.68,5.24,7.76.41.83,1.21,2.34,2.12,3.79s1.77,3,2.2,3.84c.13.25.26.5.4.73l-.35-.9c1.13.55,2.17,1,3.06,1.55a3,3,0,0,0,.26-1l.2.5c.86-.16,1.54.64,2.13.77-.37.2-.16.54,0,.83l.1-.28a30.15,30.15,0,0,0,2.86,2.79.45.45,0,0,1,0,.45l1,.56c-.44.33.34,1-.28.86,1,.12,1.38,1,2.43,1a28.9,28.9,0,0,0,3.53,2.6,26.83,26.83,0,0,0,4.06,2l.07-.2c.62.13,1.24.23,1.87.3l-.15,0,.48.06.08,0c-1.27.28-3.1.83-5,1.21a27.3,27.3,0,0,1-5.31.83c.52-.62-.76-.66,1.07-1.23-1.18.24-2.33.56-3.49.86-.4.27-.81.54.21.36a9.72,9.72,0,0,1-2.33.85,13.66,13.66,0,0,1-2.18.39c-.2-.14-2.87,1-6,2.55l0-.07c2.6-1.23,4.19-1.94,3.19-1.55a18.34,18.34,0,0,0-3.13,1.15c.33-.74,1.6-1.79.62-2.19.45.74-.36.52-1,.39a1.32,1.32,0,0,0-.61-.85c-.4-.07-.29.14-.41.26-.18-.2-.56-.43-.41-.7-.42.25-.42-.37-.82-.36s0,.16-.31.25c-.46-.2-1.11-.5-1.46-.7,0-.32-.32-1,.15-1.27.69.31-.51.59.26.77-.1-.74.71.06,1-.36a1.23,1.23,0,0,0-1-.6l0,.11c-.38,0-1.13-.17-1.38-.64.17-.18.07-.4.34-.36l-.46-.22c-.09,0-.18.1-.06.2a.52.52,0,0,1-.6-.28c0-.25-2.88-.1-2.75-.21a.7.7,0,0,1-.31-.28,17.22,17.22,0,0,0,2.68.33c-.17-.38-4.33-.45-4.33-1-.26-.1-.58-.2-.62.06-.37-.32.32-.37.13-.73,0,0,0,.13-.12.07l-.15-.42c-.81,0-1.53-.85-2.43-.75a3.38,3.38,0,0,1,1.3-.46v.16c.1,0,.49,0,.59-.18a1.55,1.55,0,0,0-1.24-.46,2.88,2.88,0,0,1-.13-.31.19.19,0,0,1,0,.09c-.06-.21,0-.22.06-.28s0,0,0,0c.1-.78-1.76-.45-2.3-1.18-.26,0-.08.1-.41.07-.6-.64-1-1.16-1.62-1.75-.4.12-.49.21-.37.67l-.51-.44c1-.39-.63-1.32.38-1.68a.92.92,0,0,0-.75-.58.53.53,0,0,1-.77.16c-.37-.6-.3-.43-.58-1,0-.3.27-.28.37-.47-.86-.17-.24-.89-.9-1.28-.43-.21-1.23-.7-1.52-.35-.5-.41-.29-.69,0-1L70,100c.33.25.67.51,1,.78l1,.79c.68.55,1.35,1.12,2,1.7a23.68,23.68,0,0,0-3.77-4.81,6.37,6.37,0,0,0-5.39-1.71c.94-1.57-1-4.68-1.41-4.4a13.31,13.31,0,0,1-2.19-1C56.8,88.77,53.84,84,51.61,79c-.33-.69-.84-1.65-1.32-2.8s-1.12-2.4-1.59-3.73c-.25-.66-.5-1.32-.75-2s-.41-1.29-.59-1.89a19.54,19.54,0,0,1-.77-3c-.09-.44-.17-.88-.27-1.32l.17,1.51-1.56-2.32c-.47-.76-.89-1.52-1.28-2.28a3.17,3.17,0,0,0-.55,1.26L43,61.59a3.43,3.43,0,0,1-1.15-1.46,14.18,14.18,0,0,0-.76-1.63c.44.08.36-.59.28-1.19l-.2.29c-.21-1.12-.45-2.31-.72-3.48-.13-.59-.26-1.16-.39-1.72s-.18-1.1-.23-1.61a.86.86,0,0,1,.2-.65c-.18-.63-.38-1.26-.54-1.9.54.09.34-1.65.75-.76-.73-1.39-.51-2.88-1.17-4.25-.27-5-.38-10.28-.41-15.59l-.22.1c0-1.86-.8-3.7.09-5.82-.37-1.76,0-4.08-.93-5.05a8.89,8.89,0,0,0,.18-1.26c0-.38.07-.72.09-1.07a15.47,15.47,0,0,1,.24-2.35c-.69.27,0-2-.73-1.25-1.15.94-.55,1.24-1.51,2.06l.19,0a52.69,52.69,0,0,0-5.22,14.71c0,.89-.05,1.79-.13,2.69,0,.45-.09.9-.14,1.36s-.07.91-.11,1.37l-.24,2.77c-.06.92-.06,1.84-.05,2.75a59.14,59.14,0,0,0,.48,6c.13,1,.32,1.93.49,2.84a25.69,25.69,0,0,0,.57,2.6c.26.77-.13,1.39-.3,2.1l1,5a46.72,46.72,0,0,0,1.39,5.19,1.11,1.11,0,0,1,0-.17c.6,1.73.41,3.23,1.06,4.92.15-.06.25.2.37.3-.15.14.09.8.52,1.73.22.46.48,1,.78,1.55l1,1.71c1.36,2.34,3,4.52,2.94,4.91a5.78,5.78,0,0,1,.33.48c.33.88.68,1.77,1,2.69s.55,1.86.9,2.74A17.19,17.19,0,0,0,45,88a17.63,17.63,0,0,0,2,1.13c.07.66.64.38,1,1-.1,2.28,1,2.73.88,1.69,1,1,1.87,2.2,2.74,3.13l1.42,1.12a.9.9,0,0,1,.4,1.06c1.05.8.51.77,1.35,1.86-.16.64,3,1.81,3.19,2.18l-.21-.1c1.06,1.16,1.2,2.58,2.36,3.63a39.19,39.19,0,0,0,5.11,4.25c1.85,1.25,3.65,2.48,5.33,3.58.32-.44-.81-.37-.47-1,1,.65,1.87,1.46,2.81,2.22a28.91,28.91,0,0,0,2.93,2.1,5,5,0,0,1,.77,1c.6.52.53,0,1,.27l-.14.48c.91,0,.85,1,1.65,1.17.12-.16.39-.06.63.08-.2.47.8.3.57.71l0,0a1.24,1.24,0,0,1,.43.25c.38,0,3.65-.17,4-.3l.11.13c.42.13.73-.17.52-.34l.5.21h-.07l.5.21a.37.37,0,0,1-.12.5,1.25,1.25,0,0,1,1,.15,16.87,16.87,0,0,1-2.16-2.15c.4,0,.91.43,1.3.51a8.66,8.66,0,0,0,1.76,1.55c.17,0,.45-.47.73-.11,0,.43.41.11.62.47a1.59,1.59,0,0,1-1.06-.23c-.09.48.75.57,1,.78.1-.06.38,0,.68.13-1.13.54-2.36,1.13-3.62,1.83-1.52.8-3.11,1.66-4.66,2.6-6.27,3.6-12,7.8-12.89,7.83-1.6,1-3.41,2.41-2.77,2.57-2.79,1.56.27-1.32-1.89-.44,0,.09.3.1-.33.49l-2.15.77c-.9.88-2,1.75-3.13,2.7s-2.4,1.83-3.59,2.84a34.15,34.15,0,0,0-6.32,6.22c.36-.72.7-1.55,1.24-2.51a18.22,18.22,0,0,1,2.38-3.4l.63-.18c.27-.43,2.32-2.36,1.95-2.69a33.93,33.93,0,0,0-3.7,2.84A39.05,39.05,0,0,0,48,146.33c-.55.34-1.17.75-1.62,1,0,0,.13,0,.17.1-1,.55-1,.44-.81,0a1,1,0,0,1,.09-.24,5.56,5.56,0,0,0-2.46,1.73c-1.14,1.22-2.21,2.5-3.22,3.82-1.11,1.5-2.32,3.06-3.42,4.6-.56.75-1.13,1.47-1.69,2.14s-1.07,1.31-1.6,1.84c-.9,1.52.1.28-1,2.19l-2.8,3.26c-.88,1-1.66,2.08-2.47,3.12s-1.57,2.13-2.36,3.28L23.55,175l-1.21,2c-.42,2.11-.26,2.35,1.48.49l-1.23,2.07c-.39.7-.76,1.41-1.15,2.11.21-2.34-1.13-.5-2.46,1.34s-2.5,3.7-2.27,1.1a14.76,14.76,0,0,0-1.55,2.7,30.86,30.86,0,0,0-1.36,3.85c.29.41.75,1-.37,4.3-.54,1.08-.88,1.84-1.12,2.43s-.42,1-.58,1.35c-.3.76-.65,1.4-1.41,3.26-.77.77-.6-.71-1.06-.66a18.51,18.51,0,0,1-.81,3.46,12.73,12.73,0,0,1-.93,2.06,13.51,13.51,0,0,0-1.88,5.26c-.3,1.82-.65,4.55-.84,6.85s-.08,4.19.38,4.32c-.51,4.9-1.16,4.87-1.91,4.32-.16,1.34-.24,2.69-.34,4a121.83,121.83,0,0,1,8.33-39.48,115.21,115.21,0,0,0-8,21.71A104.32,104.32,0,0,0,0,237.28c-.4,15.6,3.48,30.38,10.14,40.2-.67.85-.81,3.26-.38,6.38a46.87,46.87,0,0,0,1,5.13c.45,1.81,1,3.7,1.63,5.54,2.46,7.42,6.29,14.06,6.84,14.06a164.49,164.49,0,0,0,12.24,14.14,155.06,155.06,0,0,0,49.61,34.11,147.74,147.74,0,0,0,30.07,9.32,133.47,133.47,0,0,0,32.41,2.33l2.42-.14,2.64-.26c.92-.1,1.87-.17,2.86-.31l3-.43,1.6-.24,1.63-.31,3.38-.64c2.29-.55,4.7-1.05,7.14-1.78a118.45,118.45,0,0,0,30.46-13.26,110.27,110.27,0,0,0,14.09-10.33,103.11,103.11,0,0,0,11.63-11.92A109.83,109.83,0,0,0,233,317.1c2.36-3.68,4.27-7,5.76-9.84,1.76-3.25,3.28-6.54,4.77-9.91-1.31,2.76-2,4.13-2.69,5.49s-1.4,2.73-2.9,5.42a157.61,157.61,0,0,0,6.94-20.73c1.74-6.68,3.13-13.1,4.24-19.4-.52,1-.93,1.61-1.45,2.56-.26.48-.55,1-.9,1.8s-.79,1.71-1.31,2.95l1-3.1.93-3.12a49.5,49.5,0,0,1,.42-5.7c.23-2.2.6-4.63.94-7.07s.62-4.9.91-7.15.4-4.29.46-5.88c.3.73.68-.14,1-1.74s.68-4,1-6.16l-.73,1.69A199.17,199.17,0,0,0,253,210.92ZM45,3c-.09-.13,0-.18.24-.19A.38.38,0,0,1,45,3ZM46.58,3l.15,0c0-.24-.32-.55-.51-.74-.14.11-.11.2-.17.25a1,1,0,0,1-.35-.14l-.1-.06,0-.08-.24-.14a.27.27,0,0,1,0-.2c.1,0,.15.13.21.21-.13-.17.57,0,1.23.14,0,.28.33.65.11.78H47l0,.2A1,1,0,0,1,46.58,3ZM83.3,61.72c.08,0,.06.09.07.14s.48,0,1,.16c-.11.16,0,.4-.28.45h.09l-.07.12a.49.49,0,0,1-.25-.17l.11,0c.14-.13,0-.34-.06-.46l-.27.13a.49.49,0,0,1-.22-.1l0,0,0,0a.57.57,0,0,1-.13-.1s0-.06.08-.11Zm-.53.55a.71.71,0,0,1-.3.1c0-.08.11-.1.3-.09Zm122.38-36a.8.8,0,0,1-.14.39,25.88,25.88,0,0,0-.7-2.58h0C204.57,24.85,205.28,26.35,205.15,26.29Zm5.17-9.79c-.15.25-.15.73-.39.69l.08.08-.1.18a1,1,0,0,1-.19-.47l.1.1c.17-.16.1-.64.07-.91a.41.41,0,0,0-.24.08l.18-.37.49.62ZM147.16,89.57c.08-.25.21-.62.28-.94s.1-.62-.11-.74c.35-.61.66-.45,1-.21l.31-.47c-.83,1.52-1.69,3.11-2.62,4.65,0-.37,0-.74-.05-1.11l0,0C146.05,89.83,146.86,90.33,147.16,89.57Zm-1.5,10.54a3.92,3.92,0,0,0-.46-.1c0-.12.08-.23.11-.35a3,3,0,0,0,.1-.43,4.25,4.25,0,0,0,.27.46c-.35,0,.15.31,0,.42Zm-.56.25a1.37,1.37,0,0,1-.25.61c.09-.21.17-.41.24-.62Zm-.45,1.61c0,.14-.1.14-.32.07a5.93,5.93,0,0,0,.29-.56,3.87,3.87,0,0,0,0,.48Zm-1.07,1.6,0-.09a.52.52,0,0,1-.28.13l.3-.31c0,.15.06.27,0,.27Zm-6.21,1.2a.78.78,0,0,1,.21-.4,20.23,20.23,0,0,0,.2,2.91c.34-.26-.4-4.68.21-4.82.06-.29.1-.65-.16-.65.24-.46.42.26.74,0,0,0-.13,0-.09-.11l.39-.26c-.16-.84.56-1.82.35-2.73a3.52,3.52,0,0,1,.65,1.26l-.15,0c.05.09,0,.53.27.58a1.92,1.92,0,0,0,.27-1.4,2.92,2.92,0,0,1,.28-.21l-.1,0c.2-.11.22-.09.29,0a.12.12,0,0,1,.05,0c.79-.07.17-2,.81-2.69,0-.28-.11-.06-.14-.42l.09-.12a5.05,5.05,0,0,0,1.07,1.76,23.3,23.3,0,0,1-.11,3,5.79,5.79,0,0,1-.42,1.53,4.68,4.68,0,0,1-1.31,1.79c.55-.07,0,.66-.8,1.13l-.52.32a.73.73,0,0,0-.17.18c-.06.1,0,.18.28.2a5.64,5.64,0,0,0,1-.15l.4-.13a9.83,9.83,0,0,1-.82,1.45c.46.27,0-.27.64.07-.39.51-1.28.76-1.67,1.29a2.51,2.51,0,0,1-.67,0c-.27.09.18.22,0,.33l-.45-.21c.15.22-.08.2-.29.2l0-.1c-.07-.08-.13-.16-.2,0a.57.57,0,0,1,.15-.7c.23,0-.48-3.07-.35-3Zm-.16,4c.17.11.33,0,.4.15l0,0c-.46-.23-.07.22-.49,0l0,0s0,.07-.1.08a.81.81,0,0,1,.17-.28Zm-4.46,7h-.29l0,0a.34.34,0,0,1,.31,0Zm-1.85-.64c.17-.28.2-.84.44-.78l-.08-.09.11-.2a1.34,1.34,0,0,1,.16.56l-.1-.14c-.18.17-.13.75-.12,1.07.18,0,.22-.1.3-.1a.9.9,0,0,1,.12.24l-.54-.07c-.1-.16-.2-.32-.29-.5ZM91,121.34l.25-.12.14,0-.28.15-.11-.08Zm1.6-1.16-.18.08a.32.32,0,0,1,.1-.19c.07,0,.09.06.08.11Zm-1.93.83a.58.58,0,0,1,.19,0l-.12,0,0,0Zm-7.06,4.18,3.77-2c1.11-.57,2.21-1.13,3.24-1.63a.2.2,0,0,0,0,.18l-.65.35c-2.06,1.08-4,2.3-5.45,3.13a15.29,15.29,0,0,1-2.22,1.29,17.87,17.87,0,0,1-2.56,1l.61-.36Zm152.21,95.42a292.7,292.7,0,0,1-3.54,33.28c.08-.4.17-.79.22-1-.47,2.83-1.1,5.45-1.69,8s-1.37,4.91-2.08,7.3c-1.47,4.75-3.06,9.38-4.78,14.59.32,0-.23,1.66-.35,2.5-.53.31-1.92,4.35-4.28,10-1.21,2.8-2.62,6-4.35,9.35a100,100,0,0,1-6,10,76.53,76.53,0,0,1-7.27,9.16,81.76,81.76,0,0,1-7.64,7.25c-4.88,4.06-8.88,6.41-9.8,6.71-.95.6-1.93,1.26-3,1.83a86.26,86.26,0,0,1-16.23,6,97.88,97.88,0,0,1-16.75,2.75A149.66,149.66,0,0,1,117,346.89c-2.14.08-4.4,0-6.6-.1s-4.33-.23-6.16-.34a9.67,9.67,0,0,0-2.08-.72,12.21,12.21,0,0,0-1.71-.29,14.21,14.21,0,0,1-4.37-1c-2.32-1.53-4.36-2.86-6.1-3.83a34.83,34.83,0,0,0-4.16-2.15c-2-.86-2.43-.43-.15,1.21a86.53,86.53,0,0,1-11.7-5.79c-3.69-2.16-7.08-4.55-10.26-6.8-3-2-6-4.08-8.79-6.39a12.47,12.47,0,0,1-2.67-2.66,9.09,9.09,0,0,1-1.28-2.4c-1.41-1.37-2.37-2.3-3-3.08a23.67,23.67,0,0,1-1.47-1.95c-.4-.6-.81-1.2-1.37-2.11-.29-.44-.63-1-1-1.56s-.92-1.3-1.48-2.16c-.17-1.1-3.51-5-6.55-9.25s-5.77-8.85-6.11-10l.7,1.18a49.45,49.45,0,0,1-2.24-6.32c-.5-2.05-1-4-1.3-6-.75-3.91-1.24-7.8-2.17-12.33a138.77,138.77,0,0,1-2.13-19.5,128.91,128.91,0,0,1,.84-19.84,106.71,106.71,0,0,1,10.87-36.12c-.43-.35-1,.85-1.53,2.09s-1.15,2.56-1.88,2.39a83.76,83.76,0,0,1,5-9.3,99,99,0,0,1,6.09-8.6c2.14-2.78,4.51-5.39,6.88-8s4.89-5,7.49-7.41a36,36,0,0,1,3.25-2.24,21.21,21.21,0,0,1,2.55-1.42c3.68-2.54,1.69-2.1,4.36-4l.94.51c3.36-3.5,6.23-3.2,9.78-5.88,0-.45,1.35-1.39,2.75-2.12.3.42,1.35-.19,2.36-.8s2-1.15,2.14-.68v-.09A13.87,13.87,0,0,1,87.14,140c.37-.27,1.51-1.12,3.08-2.21L92.87,136c.95-.63,2-1.23,3-1.87,4.13-2.5,8.51-4.71,9.36-5.17l.89-.08c2.49-.75,3.39-1.76,1.86-1.55,1-.26,2.1-.48,3.16-.73l-.35.16c1-.25,2.1-.48,3.15-.66.6,0,1.35.3.56.93a19.51,19.51,0,0,1,2.69-1,17.34,17.34,0,0,1,2.78-.46c-5.07.15-11.42.7-16.87,1.31a20.36,20.36,0,0,1,4-1.23c1.54-.35,3.13-.59,4.27-.94,3,0,8.78-.57,13.31-.6,1-.17,1.53-1.38,3.83-1.1,1.16.68,2.54-.2,4.44.25a40,40,0,0,1-6.38.69c.24.45,1.56.46,3,.42s3.12-.14,4,0a15.26,15.26,0,0,1,3.09-.22c1.47,0,3.15,0,4.46-.1-.58.45-.05.59.8.7.26,0,.56.08.86.13s.77-.15,1.2-.22l-1.17.22a9.57,9.57,0,0,1,1.9.39c1.73.17,2.86,0,2.18-.43.15-.22-.1-.39-.53-.53l1.52-.17c1.89-.24,3.75-.35,5-.45s2-.19,1.55-.26-.56-.3-.42-.44.39-.1.35-.24c.29-.17.5-.34-.29-.53l-.76.15c-3.78-.6-2.18-1.67-.45-2.77s3.83-2.38-1.07-3.15c4,1.69-1.52,1-5.83.81a4.52,4.52,0,0,0-1.67-.76,19.05,19.05,0,0,0-3.74-.74c-2.72.06-1.6.41-2.12.7-1.5-.3-4.37-.39-4-1l-.13,0c0-.14,0-.3,0-.44a1.41,1.41,0,0,0,.67-.89c0-.45-.2-.27-.35-.36.14-.24.27-.71.57-.63-.35-.37.26-.54.15-1s-.17,0-.32-.26c.1-.55.24-1.31.36-1.73.3-.14.87-.59,1.27-.17-.15.8-.69-.39-.69.47.7-.3.1.77.58,1a1.44,1.44,0,0,0,.36-1.24l-.1.08A2.83,2.83,0,0,1,137,109c.14.19,1,1.5,1.17,1.68h-.09c0,.11.28.33.4.31l-.09.11,0,0-.09.12a1.19,1.19,0,0,1-.47-.22c.13.16.18.28.06.32a8.23,8.23,0,0,1,1.49-.1c.11.17-.21.2-.2.33a2.79,2.79,0,0,0-1,.14s.51.33.24.31,0,.11-.34.06c-.15-.18,0-.22,0-.3-.42-.19-.39.07-.54.08.12.1-.11.2,0,.37-.25-.16-.3-.13-.38-.1l0,0,0,0a.25.25,0,0,1-.17,0c-.09,0,.06.18.21.22a.62.62,0,0,0,.23.07c.3.36.6.75.63.71a.49.49,0,0,1,.21.08l.07,0c.1.06.2.12.25.11l-.09-.08c.27-.25,2.29,1.44,2.6,1.14-.6-.1-.52-.31-.5-.5a1.32,1.32,0,0,0,.68.08c0-.12-.16-.15-.29-.24a.86.86,0,0,1,.57.1c-.29-.24.27,0,.2-.17s-.15-.07-.28-.2a2.65,2.65,0,0,1,.34-.33,3.67,3.67,0,0,1,1.15.49c-.14.16-.61-.4-.62-.16.63.21.07.25.51.51.3.07.36,0,.33-.19l-.09,0c0-.13-.06-.38.3-.32.2.13.38.16.4.26l.1-.11a.26.26,0,0,0-.19-.09c-.13-.14,0-.15.14-.13s-.58-1.14-.45-1,.1,0,.17,0a3.68,3.68,0,0,0,.32,1c.28,0-.56-1.58-.12-1.42,0-.08,0-.18-.21-.28.16-.06.4.25.65.28,0,0-.12,0-.09-.07l.31.06c-.25-.35.33-.37,0-.8a5.57,5.57,0,0,1,.76.69l-.13,0c.06,0,.09.19.31.3s.21-.15.05-.38l.22,0-.09,0a.47.47,0,0,1,.25.11l.05,0c.68.28-.18-.64.27-.67-.06-.1-.11-.06-.19-.2a3.14,3.14,0,0,0,.9-.23,1.19,1.19,0,0,0-.68-.36l.18-.11c.65.54.86.08,1.5.64.19,0,.28,0,.21-.19s-.47-.28-.4-.4a4.71,4.71,0,0,1,.53,0,5.39,5.39,0,0,1,.52.3c-.2-.36.61.12.67-.09a.55.55,0,0,0-.32-.64c.11-.15.42,0,.75.23l.12-.1a3.43,3.43,0,0,1-1,1.11c1.95-.15,3.78-.47,1.21-2.93,1.64.85,2.89.42,2.51.17a4.72,4.72,0,0,1-.38-1c-.5-1.92.84-2.88,2.29-3.77.76-.53,2.41-2.22,3.35-2.6.13-.07.26-.13.37-.2l-.51.14a12.75,12.75,0,0,1-.17-2,4,4,0,0,0-.89-.28l.28-.09c-.49-.63-.16-1-.27-1.41.29.28.47.18.62.08L157,97c.51-.4.69-1.2,1.08-1.62.05-.06.2,0,.34,0l.09-.61c.4.36.65-.07.75.34-.25-.71.31-.8,0-1.5A9.7,9.7,0,0,0,161,89.47l-.17-.1c.06-.61-.43-1.65.25-1.89-.25-.81-.09-1.54-.8-2.42.24-.49,0-1,.1-1.61-.5-.28-.15-.83-.64-.93-.8-.27-.33.19-1,0l.14.12a11.43,11.43,0,0,0-4,2.09c-.25,1-1.22,1.55-1.72,2.41a10.69,10.69,0,0,0-1.14,3c0,.27-.47.1-.79.09-.31.81-1.09,1.54-1.41,2.47l0,0c-.21.46-.89.43-1.1.88.13.09.1.15.14.23-.66-.36-.39,3.21-.82,3.1a1.1,1.1,0,0,1,0,.18,18,18,0,0,1-2.44,1c.08-.43.14-.85.18-1.27.1-1,.1-1.65.13-2.41s.05-1.51,0-2.27a1.21,1.21,0,0,0,0-.19c3.13-3.11,6.52-6.36,5.29-10.87,1.76.66,4.67-2.18,4.34-2.51a20.38,20.38,0,0,1,.8-2.55c2-5.28,6.43-9.59,11.2-13.62,1.3-1.16,3.66-3.31,6.13-5.43s5-4.2,6.51-5.24l1.27-.94-1.5,1c1.27-1.86,2.41-3.57,3.63-5.12a3.62,3.62,0,0,0-1.5.17l.85-.54c.15-1.18,1.71-2.57,2.22-3.47.12.44.74,0,1.28-.44l-.37,0c2-1.63,4-3.91,5.77-5.46a1.09,1.09,0,0,1,.72-.28l1.43-1.75c.24.51,1.68-.94,1.13,0,.78-1.62,2.3-2.5,3-4.1,2.07-2.05,4.12-4.26,6.06-6.61a11.85,11.85,0,0,0,.49,2.12c.26,1,.49,2.05.26,2.16,0,.27.05.6.3.54-.13.46-.47-.15-.71.18,0,0,.13,0,.11.08l-.32.3c.37.73-.14,1.75.32,2.52a3.14,3.14,0,0,1-.94-1l.13-.08c-.07-.07-.15-.47-.4-.46a1.57,1.57,0,0,0,.08,1.32,2.52,2.52,0,0,1-.21.25h.1c-.17.15-.19.14-.28.08l-.06,0c-.74.25.38,1.8,0,2.61.09.25.13,0,.25.34a20.43,20.43,0,0,0-.81,2.27c.3.3.42.33.77,0l-.15.66c-.79-.66-.88,1.19-1.67.46a1,1,0,0,0-.16,1c.21,0,.54.13.5.6a10.07,10.07,0,0,1-.52,1c-.28.1-.37-.1-.6-.1.3.86-.64.68-.66,1.46,0,.49,0,1.45.45,1.52-.09.66-.44.62-.82.52l-.1.53c.13-1.73.49-3.52.79-5.3-1.89,3.8-3.83,8.09-.77,11.52-1.84.1-3.25,3.69-2.8,3.83a17.24,17.24,0,0,1,.48,2.48c.6,5.24-1.1,10.6-3.1,16-.55,1.5-1.43,4.3-2.43,7.07-.48,1.39-1,2.77-1.5,4s-.93,2.27-1.3,3c-.21.42-.42.84-.61,1.27l.8-1.38c-.15,2-.23,3.87-.5,5.61a3.36,3.36,0,0,0,1.19-.74l-.45.78c.45,1-.21,2.77-.2,3.7-.32-.31-.63.31-.89.87l.33-.14c-.95,2.1-1.61,4.7-2.48,6.55a.85.85,0,0,1-.52.46c-.17.63-.32,1.28-.51,1.9-.43-.36-1.12,1.25-1,.27,0,1.6-1.07,2.71-1.12,4.24-.9,1.72-1.85,3.46-2.82,5.2l-1.2.53c-1.13.55-2.28,1-3.38,1.64-2.25,1.14-4.32,2.39-6.43,3.61a132.42,132.42,0,0,0-12,8.27,134.45,134.45,0,0,0-20.65,20l.93-.4a127.33,127.33,0,0,0-11,15.95c-3.38,5.59-6.78,11.5-10.93,18.24-2.12,5.3-4.64,11.65-6.4,17.36s-2.86,10.72-2.52,13.18a104.62,104.62,0,0,0-3.79,14.8c-.82,4.36-1.51,8.7-2.49,14.83.88-1.44.55,1.57.38,4.22s-.34,5,.63,2c.77-1.94,1.26-3.42,1.63-4.67s.61-2.24.83-3.21.44-1.9.77-3a30.68,30.68,0,0,1,1.52-3.93l-.41.11a227.75,227.75,0,0,1,8.3-22.54c1.55-3.68,3.27-7.28,5-10.85s3.63-7.07,5.64-10.48a159.57,159.57,0,0,1,28.87-37,101.15,101.15,0,0,1,25.33-19.34,72.7,72.7,0,0,1,7-3.44,65.2,65.2,0,0,1,7.16-2.49c.6-.19,1.2-.34,1.79-.47l1.78-.42c1.18-.19,2.37-.47,3.51-.57a34.52,34.52,0,0,1,6.66-.27,21.59,21.59,0,0,1,6.31,1.22,13.68,13.68,0,0,1,1.43.56c.44.23.9.45,1.36.66a28.34,28.34,0,0,1,2.51,1.7c3.19,2.52,5.84,6.68,7.9,11.66a81,81,0,0,1,2.74,7.9c.82,2.73,1.5,5.65,2.24,8.43s1.28,5.56,1.92,8.26,1.1,5.34,1.56,7.91a33.16,33.16,0,0,1,.58,6.67c-.06,2.06-.23,4-.29,6.17a201.87,201.87,0,0,1,.86,31.58Zm-85.92-99.74c1,.11.73.34-.2.62C149.48,121.23,149.53,121,149.89,120.87Zm-1.4,2.78c0-.38-.58-.48-.52-.65a16.16,16.16,0,0,1,2.2-.16l.69,0,.44.12c.53,0,1.13,0,1.66,0a2.88,2.88,0,0,1,1,.35,6.89,6.89,0,0,1-1.86-.2c.68.1.07.25-1.15.42l-4.69.7c-1.45-.4-4.52-.56-4.23-1l-.47.13-1.08-.21a12,12,0,0,1,1.44-.23c.5,0,1.05,0,1.6,0l-.8.19c1,.4,4,.4,5.75.55Zm-10.56-11.17c-.18,0-.18.11-.2.19a1.39,1.39,0,0,0,.28.1.66.66,0,0,1,.12.17.08.08,0,0,0,0,0h0a.3.3,0,0,1,0,.1s0,0-.12,0,0-.06,0-.09-.35-.27-.65-.6c.17,0,.24-.11.45,0l-.06-.05h.12a.3.3,0,0,1,.1.2Zm1.08.86s-.14,0-.28-.14a1.47,1.47,0,0,1,.28.14Z"/></svg>
