<svg xmlns="http://www.w3.org/2000/svg" width="110" height="135" viewBox="0 0 109.11 134.59"><defs><style>.cls-1{fill:#e0e0e0;}</style></defs><title>fruits_lines_3</title><g id="Calque_2" data-name="Calque 2"><g id="Calque_1-2" data-name="Calque 1"><g id="Groupe_50" data-name="Groupe 50"><path id="Tracé_906" data-name="Tracé 906" class="cls-1" d="M11.47,101.35a23.79,23.79,0,0,1-4.6,4.19c-3.58,2.79-7.64,5.95-6.74,9.73a6.46,6.46,0,0,0,4.12,4.3c3.38,1.34,8.86,1.36,12.86.93,6-.64,12.06-1.87,17.9-3,7.29-1.48,14.83-3,22.36-3.4,15.8-.83,29.25,4.4,36,14l.72,1c1.59,2.34,3.23,4.76,6,5.39a5.1,5.1,0,0,0,1.23.14c2.86,0,5.47-2.2,6.66-4.58,1.94-3.93,1.33-9.22-1.58-13.47s-7.53-7-10.74-8.67a67.34,67.34,0,0,0-26.7-7.4c-1.47-.09-3-.14-4.48-.19-7.39-.25-15-.51-20.21-5.36-3.83-3.58-5.8-9.58-5.4-16.46A71.49,71.49,0,0,1,41.08,66c.42-1.8.87-3.65,1.24-5.49,1-4.83,2-12-.64-18.33A38.56,38.56,0,0,0,38,35.74c-.83-1.26-1.7-2.57-2.44-3.9-1.34-2.4-3.33-7-1.64-11.07A17.23,17.23,0,0,1,37.41,16c1.69-1.82,3.43-3.71,4-6.19a7.67,7.67,0,0,0-1.37-6.23A8.33,8.33,0,0,0,34.19,0c-4.42-.39-8.95,3.26-9.65,7.83-.46,2.93.45,5.81,1.32,8.59.23.72.45,1.44.65,2.15a34.88,34.88,0,0,1-13.4,37.17l-.75.51c-2.31,1.57-4.93,3.34-5.52,6.21-.68,3.24,1.56,6.1,3.52,8.63l.91,1.17a24.49,24.49,0,0,1,4.36,19.14A25.31,25.31,0,0,1,11.47,101.35Zm.59-29.64c-.3-.39-.6-.79-.92-1.19-1.93-2.47-3.93-5-3.35-7.84.52-2.47,2.86-4.06,5.12-5.6l.76-.51A35.88,35.88,0,0,0,27.45,18.35c-.2-.73-.43-1.46-.66-2.19C26,13.49,25.08,10.72,25.5,8a8.45,8.45,0,0,1,8.61-7,7.37,7.37,0,0,1,5.18,3.11,6.74,6.74,0,0,1,1.22,5.44c-.54,2.24-2.13,3.95-3.8,5.76A18,18,0,0,0,33,20.4c-1.36,3.29-.76,7.52,1.7,11.91.76,1.37,1.63,2.69,2.48,4a38.41,38.41,0,0,1,3.62,6.32c1.92,4.65,2.11,10.29.59,17.77-.37,1.82-.81,3.67-1.24,5.45A72.82,72.82,0,0,0,37.92,78.4c-.41,7.17,1.67,13.45,5.71,17.23,5.45,5.1,13.27,5.36,20.84,5.62,1.47,0,3,.1,4.45.19a66.31,66.31,0,0,1,26.31,7.29c3.12,1.63,7.59,4.26,10.39,8.36s3.3,8.87,1.5,12.49c-1.19,2.39-4,4.58-6.8,3.93-2.4-.55-3.93-2.81-5.42-5-.24-.36-.48-.71-.73-1C87.7,118.28,75.3,113,60.6,113c-1.08,0-2.17,0-3.28.09-7.6.4-15.17,1.93-22.5,3.42C29,117.67,23,118.9,17,119.53c-3.71.4-9.18.41-12.41-.86A5.56,5.56,0,0,1,1.07,115c-.75-3.17,2.88-6,6.4-8.74a24.4,24.4,0,0,0,4.8-4.39,26.45,26.45,0,0,0,4.33-10.3,25.46,25.46,0,0,0-4.55-19.9Z"/><path id="Tracé_907" data-name="Tracé 907" class="cls-1" d="M20.13,71.08a16.29,16.29,0,0,1,2.3,4.34,40.14,40.14,0,0,1-1.8,27.48l-.07.15c-.79,1.74-1.68,3.71-.95,5.64A4.65,4.65,0,0,0,24,111.44a6.49,6.49,0,0,0,.77,0,8.29,8.29,0,0,0,4.87-3.07c3.66-4.39,4.65-11,2.93-19.6-.29-1.47-.63-3-1-4.4-1.14-4.94-2.31-10-1.6-15s3.33-9.74,5.63-13.85c.83-1.47,1.86-3.31,1.69-5.32A4.28,4.28,0,0,0,35.48,47a2.92,2.92,0,0,0-2.55-.4,5.16,5.16,0,0,0-1.78,1.21L23.74,54.7c-2.73,2.54-7.3,6.78-6,11.77A15.81,15.81,0,0,0,20.13,71.08Zm4.49-15.43L32,48.78a4.13,4.13,0,0,1,1.3-.93,1.63,1.63,0,0,1,1.43.26A3,3,0,0,1,36,50.22c.13,1.62-.79,3.26-1.53,4.59-2.36,4.2-5,9-5.79,14.3s.46,10.45,1.62,15.5c.33,1.43.67,2.91,1,4.36,1.64,8.22.74,14.45-2.65,18.52a7,7,0,0,1-4.08,2.62,3.49,3.49,0,0,1-3.75-1.88c-.55-1.43.2-3.07.91-4.65l.07-.15a41.56,41.56,0,0,0,1.87-28.37,17.32,17.32,0,0,0-2.47-4.7A14.34,14.34,0,0,1,19,66.14c-1.1-4.23,3.12-8.14,5.64-10.48Z"/></g></g></g></svg>
