<svg xmlns="http://www.w3.org/2000/svg" width="277" height="298" viewBox="0 0 277.28 298"><defs><style>.cls-1{opacity:0.27;}.cls-2{fill:#fff;}</style></defs><title>recrutements_lines_3</title><g id="Calque_2" data-name="Calque 2"><g id="Calque_1-2" data-name="Calque 1"><g id="Groupe_54" data-name="Groupe 54" class="cls-1"><path id="Tracé_920" data-name="Tracé 920" class="cls-2" d="M149.62,98.13c-2.1,4.13-3.14,9.87.24,13.6,2.23,2.45,5.6,3.17,9.15,3.74L174.75,118a29.4,29.4,0,0,0,4.58.48,10.28,10.28,0,0,0,4.21-.8c4.27-1.92,5.77-6.84,7.09-11.18.2-.68.41-1.35.62-2a37.13,37.13,0,0,1,6.6-12.13,19.86,19.86,0,0,1,7-5.82,10.46,10.46,0,0,1,3.37-.62,9.86,9.86,0,0,0,3.67-.75,6.28,6.28,0,0,0,3.19-4.61,12.59,12.59,0,0,0-2.61-9.65c-3-3.46-8-5.46-14.8-6-1.63-.12-3.29-.17-4.9-.21a35,35,0,0,1-19.05-4.5,48.58,48.58,0,0,0-8.43-3.44c-6.16-1.65-14,.25-16,6.2-1.51,4.58.81,8.69,3.05,12.66a37.71,37.71,0,0,1,2.28,4.48c2.13,5.35-.39,9.73-3,14.37C150.93,95.7,150.24,96.9,149.62,98.13Zm6.14-18.4a41.75,41.75,0,0,0-2.35-4.62c-2.12-3.75-4.3-7.63-3-11.7s5.84-6,10.41-6A16.49,16.49,0,0,1,165,58a47.34,47.34,0,0,1,8.21,3.36A36.07,36.07,0,0,0,192.75,66c1.6.05,3.24.1,4.84.21,6.46.47,11.17,2.34,14,5.55a11.25,11.25,0,0,1,2.34,8.64,5.19,5.19,0,0,1-2.58,3.78,9,9,0,0,1-3.2.62,11.31,11.31,0,0,0-3.77.72,20.92,20.92,0,0,0-7.44,6.16,38.35,38.35,0,0,0-6.81,12.5c-.22.66-.42,1.34-.63,2-1.3,4.3-2.65,8.74-6.43,10.44-2.54,1.14-5.63.63-8.11.23l-15.75-2.55c-3.33-.54-6.49-1.2-8.45-3.36-3-3.29-1.9-8.66-.07-12.26.61-1.2,1.29-2.39,1.95-3.54,2.81-4.89,5.47-9.51,3.12-15.4Z"/><path id="Tracé_921" data-name="Tracé 921" class="cls-2" d="M134.87,73.59a29.33,29.33,0,0,0,1.48,4c.93,2.17,1.8,4.22,1.76,6.44a17.32,17.32,0,0,1-1.16,5c-.8,2.34-1.62,4.76-.94,7.23a12.43,12.43,0,0,0,2.42,4.14,12.71,12.71,0,0,1,2.13,3.43c.76,2.21.19,4.53-.43,7a22.64,22.64,0,0,0-.84,4.9c-.09,3.93,2.07,8.1,5.78,11.17,3.3,2.73,7.27,4.36,11.11,5.94,4.75,1.95,9.66,4,14.94,4.31.49,0,1,0,1.44,0,5.39,0,10.14-2,12.92-5.57a25.24,25.24,0,0,0,2.34-3.89,15.59,15.59,0,0,1,3.51-5c1.78-1.47,4.07-2,6.49-2.64s4.93-1.22,6.92-2.83,3.06-3.91,4.14-6.13,2-4.21,3.72-5.65a17.41,17.41,0,0,1,2.16-1.46,7.87,7.87,0,0,0,4.8-8.11,11.62,11.62,0,0,1,.69-4,11.14,11.14,0,0,1,2.42-3.16,12.43,12.43,0,0,0,2.66-3.53c1.56-3.62-.54-7.79-3.3-10.32a35.13,35.13,0,0,0-4.47-3.31,26.17,26.17,0,0,1-9.36-9.45A36.86,36.86,0,0,0,203,55.64c-4.7-4.33-11.9-6.43-20.85-6.07-3.19.13-6.4.51-9.51.89a93.81,93.81,0,0,1-12.19.91c-.83,0-1.65-.06-2.48-.1-1.22-.07-2.47-.13-3.72-.1a13.07,13.07,0,0,0-5.89,1.6,54.59,54.59,0,0,0-6,3.57l-.77.52a12.1,12.1,0,0,0-4.17,3.8c-2.1,3.83-3.85,8-2.54,12.93Zm3.59-12.36a11.38,11.38,0,0,1,3.77-3.37c.28-.18.54-.35.79-.53a53.78,53.78,0,0,1,5.9-3.49,11.81,11.81,0,0,1,5.38-1.47c1.2,0,2.44,0,3.63.09.84,0,1.68.09,2.52.1a92.68,92.68,0,0,0,12.35-.92c3.09-.37,6.28-.75,9.42-.88,6-.23,14.36.57,20,5.76a36.07,36.07,0,0,1,5,6.22,27.14,27.14,0,0,0,9.68,9.77,34.64,34.64,0,0,1,4.32,3.19c2.46,2.25,4.34,5.9,3,9a11.59,11.59,0,0,1-2.43,3.18,12.27,12.27,0,0,0-2.65,3.5,12.79,12.79,0,0,0-.79,4.37,6.76,6.76,0,0,1-4.22,7.16,17.38,17.38,0,0,0-2.31,1.57c-1.9,1.6-3,3.86-4,6s-2.06,4.29-3.81,5.72-4.05,2-6.45,2.6-5,1.23-7,2.88a16.37,16.37,0,0,0-3.81,5.39,24.89,24.89,0,0,1-2.23,3.7c-2.77,3.54-7.77,5.43-13.34,5.07-5.09-.34-9.9-2.32-14.56-4.23-3.76-1.55-7.65-3.14-10.81-5.76-3.43-2.83-5.43-6.65-5.35-10.22a21.59,21.59,0,0,1,.81-4.64c.63-2.52,1.28-5.13.4-7.66a13.51,13.51,0,0,0-2.31-3.77,11.32,11.32,0,0,1-2.21-3.74c-.59-2.11.14-4.26.91-6.53A17.69,17.69,0,0,0,139.31,84a17,17,0,0,0-1.86-6.93A30.19,30.19,0,0,1,136,73.28c-1.21-4.47.45-8.43,2.43-12.05Z"/><path id="Tracé_922" data-name="Tracé 922" class="cls-2" d="M193.76,79.89a17.51,17.51,0,0,0,7.77.77,4.86,4.86,0,0,0,3.61-1.76c1.2-1.73.32-4-.8-5.48-1.92-2.49-5.66-5-8.75-4.79a8.15,8.15,0,0,0-5.74,3.26,4.57,4.57,0,0,0-.72,4C189.78,78.14,192,79.3,193.76,79.89Zm-2.93-7.33a7,7,0,0,1,4.84-2.74H196c2.56,0,5.73,2.15,7.42,4.34.87,1.13,1.6,2.87.76,4.07a3.79,3.79,0,0,1-2.78,1.26,16.31,16.31,0,0,1-7.24-.72c-1.48-.5-3.35-1.45-3.87-3.18a3.47,3.47,0,0,1,.56-3Z"/><path id="Tracé_923" data-name="Tracé 923" class="cls-2" d="M129.18,101.31c.77,2,1.57,4.14,2.24,6.22a42.12,42.12,0,0,1,1.8,7.49,38.31,38.31,0,0,1-.63,13.79A34.72,34.72,0,0,1,129.8,136a44.91,44.91,0,0,0-2.37,5.58c-1.5,4.66.93,10.46,5.67,13.5A21,21,0,0,0,144.62,158c1.06,0,2.16-.05,3.3-.16a89.52,89.52,0,0,0,15.94-3.45c6.76-1.9,13.74-3.86,20.26-6.82a71.41,71.41,0,0,0,36.7-38.69c.42-1.08.82-2.17,1.22-3.26,1.47-4.05,3-8.25,5.76-11.53.62-.73,1.32-1.45,2-2.14,1.87-1.9,3.79-3.87,4.44-6.53,1-4.08-1.47-8-4.1-10.27a35,35,0,0,0-6.79-4.28c-.89-.47-1.81-1-2.68-1.45-3.9-2.23-6.28-4.64-7.29-7.35a19.27,19.27,0,0,1-.8-6.18c-.06-2.56-.13-5.2-1.35-7.54-1.83-3.5-5.76-5.62-12-6.5-10.1-1.42-20.35-.3-30.26.77-8.63.94-18.41,2-26.54,6.69C129.11,57,122,74.18,125.58,90.22A81.07,81.07,0,0,0,129.18,101.31Zm13.84-51c7.92-4.57,17.57-5.62,26.08-6.54A183.26,183.26,0,0,1,189,42.37a71.09,71.09,0,0,1,10.1.66c5.84.82,9.48,2.74,11.12,5.87,1.09,2.09,1.15,4.49,1.21,7a20.23,20.23,0,0,0,.88,6.56c1.11,3,3.66,5.6,7.81,8,.9.51,1.82,1,2.72,1.48a33.34,33.34,0,0,1,6.56,4.12c2.26,2,4.59,5.52,3.72,9.09-.57,2.34-2.3,4.1-4.13,6-.7.71-1.41,1.44-2.06,2.21-2.9,3.44-4.46,7.73-6,11.88q-.58,1.64-1.2,3.24a70.27,70.27,0,0,1-36.09,38c-6.44,2.91-13.38,4.86-20.08,6.75a89,89,0,0,1-15.74,3.41c-5.8.54-10.54-.34-14.07-2.6s-6.7-7.38-5.17-12.13a44.69,44.69,0,0,1,2.31-5.43,35.68,35.68,0,0,0,2.88-7.41,39.78,39.78,0,0,0,.65-14.22,43.61,43.61,0,0,0-1.85-7.7c-.68-2.11-1.48-4.22-2.26-6.27A80.39,80.39,0,0,1,126.75,90c-3.44-15.55,3.41-32.21,16.27-39.63Z"/><path id="Tracé_924" data-name="Tracé 924" class="cls-2" d="M100.92,222.54l-1.38-1.1a23.77,23.77,0,0,1-8.23-14.81C90.65,202,91.22,195.14,95,191c2.33-2.53,5.53-3.9,8.92-5.34,3.22-1.38,6.55-2.8,9.09-5.31a28.75,28.75,0,0,0,4.92-7.54c1.74-3.39,3.38-6.59,6.39-8.44,3.21-2,7.2-1.9,11.7-1.64,6.54.39,14,.83,20.15,4,4.87,2.48,8.69,6.4,12.84,10.88l.45.49c3.75,4.06,7.62,8.26,12.48,11.11,5.76,3.39,12.19,4.13,17.18,2A13.13,13.13,0,0,0,206,184a10.2,10.2,0,0,0,0-7.93,18.39,18.39,0,0,0-1.06-2,8.73,8.73,0,0,1-1.43-3.33c-.34-2.85,2.46-5.29,5.4-6.23a32.29,32.29,0,0,1,4.15-.91,25.09,25.09,0,0,0,5.65-1.45c6.54-2.83,9.27-10.32,9.65-16.39a63.7,63.7,0,0,0-.73-11.86c-.3-2.39-.61-4.86-.74-7.3a50.28,50.28,0,0,1,9.63-32c.24-.34.5-.67.75-1,2.55-3.4,5.44-7.25,4.7-11.64-.64-3.83-3.73-6.28-6.71-8.64-2.62-2.08-5.09-4-6.07-6.85-.77-2.22-.47-4.61-.14-7.14a28.92,28.92,0,0,0,.34-4.74c-.2-6-4.28-11.9-10.63-15.37-5.67-3.11-12.16-4.05-18.31-4.75-14.34-1.63-35.66-3-55.23,3.61-9,3-15.23,7.16-19.12,12.59-3.52,4.91-5.08,10.94-6.37,16.69a151.93,151.93,0,0,0-3.22,18.7,45.86,45.86,0,0,0,0,8.61h0a69.62,69.62,0,0,0,1.5,9.1c.8,3.53,1.48,7,1,10.34-1.2,7.89-9.32,10.26-15.93,10.87a81.5,81.5,0,0,1-11,0,77.9,77.9,0,0,0-12.22.13c-7.18.84-16.35,4.8-18.57,13.2-1.15,4.32-.14,8.78.84,13.09,1,4.6,2,9,.57,13.06-2.35,6.63-10,9.62-17.16,11.66-6.53,1.87-15.46,4.43-19,11.72a26.51,26.51,0,0,0-2,8.08,31.87,31.87,0,0,1-1.26,6.26,33.37,33.37,0,0,1-2,4.33,20.89,20.89,0,0,0-2.75,7.24c-.69,5.66,3,10.78,6.5,15.14,5.13,6.37,10.4,12.77,15.65,19,4.82,5.74,10.61,11.89,18.25,12.15h.49c5.17,0,9.94-2.79,13.8-5.05l27.22-15.92c3.29-1.93,6.38-4.2,6.63-7.73C107.25,227.54,103.89,224.88,100.92,222.54Zm4.46,8.81c-.2,2.8-2.93,4.76-5.85,6.47L72.31,253.74c-3.8,2.23-8.53,5-13.43,4.83-7-.24-12.49-6.11-17.1-11.59-5.24-6.25-10.5-12.64-15.62-19-3.46-4.29-6.78-8.9-6.17-13.95a19.79,19.79,0,0,1,2.58-6.69,33,33,0,0,0,2.12-4.55A32.6,32.6,0,0,0,26,196.21a24.64,24.64,0,0,1,1.83-7.6c3-6.14,10.19-8.65,18-10.87,7.55-2.16,15.63-5.36,18.22-12.67,1.61-4.54.53-9.32-.52-13.94-.93-4.12-1.9-8.39-.85-12.33,2-7.63,10.54-11.24,17.22-12a49.7,49.7,0,0,1,5.72-.3c2.1,0,4.19.09,6.25.17a83,83,0,0,0,11.26,0c10.13-.94,16.29-5.27,17.35-12.21.55-3.65-.15-7.26-1-10.94A68.21,68.21,0,0,1,118,94.6h0a44.47,44.47,0,0,1,0-8.32,150.23,150.23,0,0,1,3.18-18.5c1.26-5.6,2.78-11.45,6.12-16.12,3.69-5.15,9.69-9.08,18.34-12,19.26-6.53,40.35-5.15,54.54-3.54,6,.68,12.3,1.6,17.72,4.57,4.6,2.51,9.58,7.52,9.81,14a28.19,28.19,0,0,1-.33,4.49c-.34,2.6-.68,5.29.22,7.86,1.13,3.25,3.9,5.45,6.58,7.57,2.87,2.28,5.59,4.43,6.13,7.66.62,3.71-1.93,7.12-4.41,10.42l-.76,1a51.22,51.22,0,0,0-9.93,33c.13,2.49.44,5,.74,7.41a62.26,62.26,0,0,1,.73,11.57c-.35,5.6-2.81,12.48-8.69,15a22.65,22.65,0,0,1-5.3,1.34,32.45,32.45,0,0,0-4.37,1c-3.55,1.14-6.92,4.22-6.49,7.92a10.23,10.23,0,0,0,1.64,4,18.42,18.42,0,0,1,1,1.79,8.65,8.65,0,0,1,0,6.7,11.46,11.46,0,0,1-6,6.31c-4.53,2-10.41,1.26-15.74-1.87-4.65-2.74-8.45-6.85-12.12-10.82l-.45-.49c-4.25-4.6-8.18-8.62-13.28-11.23-6.49-3.31-14.09-3.76-20.78-4.16-4.78-.29-9-.34-12.63,1.87-3.39,2.08-5.21,5.63-7,9.07a27.74,27.74,0,0,1-4.63,7.13c-2.32,2.3-5.37,3.6-8.59,5-3.4,1.45-6.91,2.94-9.47,5.73-4.18,4.55-4.83,12-4.12,16.93a25.35,25.35,0,0,0,8.79,15.81c.45.37.92.75,1.41,1.13,2.78,2.2,5.66,4.47,5.44,7.56Z"/><path id="Tracé_925" data-name="Tracé 925" class="cls-2" d="M82.11,149.53a15.24,15.24,0,0,0,3.8.5,14.6,14.6,0,0,0,9.33-3.62c5.22-4.18,7.57-8.26,6.8-11.78a7.09,7.09,0,0,0-4.48-4.86,13.62,13.62,0,0,0-6.49-.62c-2.72.28-6.25,1.23-7.57,4.21a10.21,10.21,0,0,0-.64,3.71,5.43,5.43,0,0,1-2.38,5.31c-.25.2-.5.41-.74.63-1.65,1.5-1.76,2.77-1.56,3.57C78.51,147.91,79.94,149,82.11,149.53Zm-1.57-5.64c.22-.21.46-.4.7-.6a6.5,6.5,0,0,0,2.8-6.16,9.16,9.16,0,0,1,.55-3.28c1.15-2.59,4.63-3.31,6.6-3.52.72-.07,1.4-.11,2-.11a10.65,10.65,0,0,1,3.91.66,5.91,5.91,0,0,1,3.75,4c.84,3.86-3,7.9-6.39,10.6-3.85,3.09-7.69,4-12.08,2.9-1.71-.44-2.86-1.22-3.08-2.09s.54-1.79,1.21-2.4Z"/><path id="Tracé_926" data-name="Tracé 926" class="cls-2" d="M78.75,186.54a6.08,6.08,0,0,0,2.31-.48,11.22,11.22,0,0,0,4.23-3.8A11.7,11.7,0,0,1,88.66,179a11.38,11.38,0,0,1,5-.94,25.1,25.1,0,0,0,2.74-.23,12.84,12.84,0,0,0,9-6.1,8.62,8.62,0,0,0,.71-8.15c-1.67-3.29-5.68-4.33-8.71-3.9-3.29.46-6.11,2.28-8.68,4.18A90.6,90.6,0,0,0,78.63,173c-1.27,1.27-2.59,2.59-3.92,3.86a5.39,5.39,0,0,0-.78,7A5.83,5.83,0,0,0,78.75,186.54Zm-3.22-8.86c1.35-1.28,2.67-2.6,4-3.88a89.32,89.32,0,0,1,9.94-9c2.44-1.8,5.11-3.53,8.14-4,2.61-.36,6.07.5,7.48,3.26,1.18,2.33.42,5.15-.68,7a11.63,11.63,0,0,1-8.19,5.53,25.49,25.49,0,0,1-2.61.21,12.35,12.35,0,0,0-5.46,1.08,12.8,12.8,0,0,0-3.74,3.59A10.24,10.24,0,0,1,80.61,185a4.55,4.55,0,0,1-5.68-1.78A4.18,4.18,0,0,1,75.53,177.68Z"/><path id="Tracé_927" data-name="Tracé 927" class="cls-2" d="M89.17,218.68a33,33,0,0,0-6.75-1.34l-2.1-.28c-2.49-.37-5.64-1-8-2.93-2-1.62-3.44-4.62-2.39-7.23a10.45,10.45,0,0,1,2.9-3.54c.36-.33.73-.67,1.08-1,2.08-2.07,2.91-4.34,2.28-6.24-.72-2.15-3.14-3.18-5.14-3.14a12.28,12.28,0,0,0-5.58,2l-.61.36a16.29,16.29,0,0,1-4.35,2c-3.29.79-6.66-.7-8.9-2.09-1.32-.81-2.58-1.77-3.81-2.69a50.18,50.18,0,0,0-4.27-3,5.82,5.82,0,0,0-3.73-1c-2.65.42-3.8,3.51-3.57,6.36,0,.59.13,1.18.21,1.78.24,1.8.48,3.5-.2,5s-2.24,2.48-3.86,3.47a18.68,18.68,0,0,0-2.7,1.85c-2.9,2.53-4,5.21-3.28,8.2.76,3.27,3.52,6.32,6.2,9.27a35.52,35.52,0,0,1,4.25,5.3,30.94,30.94,0,0,1,2.6,6.78,28.26,28.26,0,0,0,3.15,7.73c2.78,4.21,8.27,6.76,12.13,7.66a15.9,15.9,0,0,0,3.7.41c5.14,0,10.46-2.11,14.75-4.11a81.45,81.45,0,0,0,15.91-9.78,22.87,22.87,0,0,0,5.52-5.71,9.65,9.65,0,0,0,1.27-7.94C95,222.11,92.58,219.88,89.17,218.68Zm4.46,13.45a21.56,21.56,0,0,1-5.25,5.4,79.52,79.52,0,0,1-15.67,9.64c-5.17,2.4-11.85,5-17.68,3.62-3.93-.91-9-3.48-11.41-7.16a27.27,27.27,0,0,1-3-7.41,31.64,31.64,0,0,0-2.71-7,35.74,35.74,0,0,0-4.4-5.5c-2.57-2.83-5.23-5.77-5.92-8.74-.58-2.52.37-4.82,2.9-7A19,19,0,0,1,33,206.18c1.7-1,3.46-2.1,4.33-4s.56-3.76.3-5.65c-.08-.58-.16-1.15-.2-1.72-.18-2.24.66-4.78,2.57-5.08a2.43,2.43,0,0,1,.38,0,5.31,5.31,0,0,1,2.55.91,45.77,45.77,0,0,1,4.17,2.91c1.24.94,2.53,1.91,3.9,2.75,2.44,1.5,6.12,3.12,9.81,2.24a17.58,17.58,0,0,0,4.67-2.17l.6-.35a10.85,10.85,0,0,1,5-1.84,3.93,3.93,0,0,1,4,2.32c.69,2.06-1.16,4.2-2,5-.34.34-.7.66-1.06,1a11.31,11.31,0,0,0-3.19,4c-1.26,3.13.42,6.7,2.74,8.6,2.55,2.08,5.9,2.79,8.54,3.18l2.12.28a32.08,32.08,0,0,1,6.51,1.29c3,1.07,5.24,3,6,5.38a8.45,8.45,0,0,1-1.15,6.93Z"/><path id="Tracé_928" data-name="Tracé 928" class="cls-2" d="M86.3,224.89c-.83-.3-1.69-.51-2.52-.72a19,19,0,0,1-3.45-1.12,19.68,19.68,0,0,1-1.73-1,9.29,9.29,0,0,0-8.9-1.25c-.73.15-1.48.31-2.2.41a14,14,0,0,1-9.89-2.47,29.43,29.43,0,0,1-2.88-2.48,23.88,23.88,0,0,0-3.68-3c-2.62-1.64-6.43-2.12-8.63.17-2,2-1.7,5.31-.57,7.65A22.92,22.92,0,0,0,44.46,225c.57.73,1.15,1.49,1.66,2.26a8,8,0,0,1,1.31,6.13c-.44,2.84,1,4,3.32,4.9a24.55,24.55,0,0,0,2.66.78,21.3,21.3,0,0,1,2.62.77A22.76,22.76,0,0,1,59,241.36a16.38,16.38,0,0,0,4.21,2,9.66,9.66,0,0,0,2.33.29,15.82,15.82,0,0,0,6.3-1.56c1-.43,1.9-.91,2.82-1.38a34.16,34.16,0,0,1,4.83-2.15c.92-.3,1.89-.53,2.83-.75A21.15,21.15,0,0,0,87,236.3c2.52-1.24,4.74-4,4.09-6.85C90.66,227.49,88.91,225.82,86.3,224.89Zm.19,10.34a21.09,21.09,0,0,1-4.47,1.4c-1,.22-2,.46-2.93.77a34.9,34.9,0,0,0-5,2.22c-.9.46-1.84.94-2.77,1.35-3.08,1.38-5.64,1.77-7.84,1.2a15.21,15.21,0,0,1-3.91-1.84,16.75,16.75,0,0,0-5.87-2.44,22,22,0,0,1-2.52-.73c-2.26-.87-2.87-1.71-2.57-3.61a9.14,9.14,0,0,0-1.5-7h0c-.53-.81-1.13-1.59-1.71-2.34a21.37,21.37,0,0,1-2.47-3.71c-1-2-1.21-4.69.35-6.31A4.23,4.23,0,0,1,46.4,213a7.84,7.84,0,0,1,4,1.23,23.68,23.68,0,0,1,3.5,2.89,29.65,29.65,0,0,0,3,2.59,15.18,15.18,0,0,0,10.74,2.67c.76-.1,1.54-.26,2.28-.42a8.22,8.22,0,0,1,8,1.1,18.48,18.48,0,0,0,1.84,1,19.84,19.84,0,0,0,3.66,1.2c.81.21,1.64.42,2.42.7,1,.38,3.54,1.48,4,3.7s-1.36,4.47-3.46,5.51Z"/><path id="Tracé_929" data-name="Tracé 929" class="cls-2" d="M207.11,145.19a12.53,12.53,0,0,0-10.5,2.55,24.1,24.1,0,0,0-4.54,5.72c-.42.65-.84,1.3-1.27,1.94-1.47,2.14-3.86,4.81-6.9,5.39a24.08,24.08,0,0,1-2.54.29,22.19,22.19,0,0,0-2.81.33,6.29,6.29,0,0,0-4.7,3.27,5.31,5.31,0,0,0,.46,4.76,8.24,8.24,0,0,0,3.22,2.81,8.72,8.72,0,0,1,2.48,1.9c.59.71,1.12,1.46,1.63,2.18a15.11,15.11,0,0,0,5.22,5.2,8,8,0,0,0,3.69.9,5.81,5.81,0,0,0,4.83-2.23c1.26-1.72,1.44-4.16.55-7.25-.14-.5-.31-1-.47-1.51a14,14,0,0,1-1-5.08c.18-2.65,2-5.25,5-7.15a36.43,36.43,0,0,1,5.71-2.72c1-.39,2-.79,2.92-1.23,1.58-.72,3.74-1.93,4.19-4.11C212.85,148.3,210.05,145.83,207.11,145.19Zm4,5.72c-.25,1.25-1.37,2.29-3.51,3.26-.94.43-1.92.83-2.87,1.22a36.66,36.66,0,0,0-5.9,2.81c-3.3,2.1-5.32,5-5.52,8.07a15,15,0,0,0,1,5.53c.16.49.32,1,.46,1.48.79,2.71.66,4.81-.37,6.22-1.52,2.08-4.82,2.13-7,1s-3.47-2.95-4.81-4.84c-.52-.73-1.06-1.5-1.67-2.24a9.82,9.82,0,0,0-2.8-2.16,7.33,7.33,0,0,1-2.81-2.4,4.08,4.08,0,0,1-.38-3.67c.78-1.78,2.95-2.39,3.84-2.58a22.06,22.06,0,0,1,2.67-.31,23.71,23.71,0,0,0,2.67-.31c3.44-.66,6.07-3.56,7.66-5.89.44-.64.87-1.3,1.29-2a23.14,23.14,0,0,1,4.3-5.45,11.4,11.4,0,0,1,7.18-2.56,11.1,11.1,0,0,1,2.3.25C209.25,146.88,211.52,148.84,211.09,150.91Z"/><path id="Tracé_930" data-name="Tracé 930" class="cls-2" d="M105.66,213.92c-1-.59-2-1.2-2.87-1.87-1.5-1.07-4.94-4-4.68-7.7.19-2.67,2.18-4.84,4.39-7l24.82-24.55c2.1-2.07,4.7-4.64,7.89-5.38,4.23-1,8.58,1.47,11.48,3.69A39.42,39.42,0,0,1,159,187c.46,1.08.88,2.22,1.29,3.32,1.26,3.37,2.56,6.86,5.08,9.54a28,28,0,0,0,3.83,3.22,18.4,18.4,0,0,1,4.8,4.51,21.11,21.11,0,0,1,2.29,6.64c.79,3.49,1.6,7.1,4.72,9,3,1.83,7.26,1.31,11.49-1.37,1-.62,1.94-1.31,2.87-2a17.09,17.09,0,0,1,10.93-4.5,22.67,22.67,0,0,0,4.55-.77c3.14-1,5.89-4.08,5-7.14a8.6,8.6,0,0,0-2.88-3.7c-1.27-1.12-2.46-2.18-2.5-3.63-.06-1.84,1.92-3.28,3.9-3.89.55-.17,1.11-.31,1.67-.45a11.12,11.12,0,0,0,4.76-2c2.39-2,3-5.91,1.61-10.35-.23-.76-.5-1.52-.77-2.28-.91-2.59-1.77-5-1.44-7.55.52-3.92,4-6.89,6.73-8.69,1.07-.7,2.18-1.37,3.25-2,1.79-1.08,3.64-2.2,5.39-3.47,2.78-2,3.47-4.95,4-8,1.17-7-.29-14.13-1.69-21l-.19-.93c-2.05-10-3.17-20.32,2.4-27.88a43.16,43.16,0,0,1,5.85-6c4.14-3.74,8.42-7.6,8.35-13.2-.05-4.79-3.36-8.4-6.56-11.88a36.13,36.13,0,0,1-4.92-6.17c-2.16-3.76-2.67-8-3.21-12.57a45.93,45.93,0,0,0-1.91-9.91C233.22,29.07,219,23.23,207.15,22c-6.72-.68-13.57-.31-20.2,0a145.41,145.41,0,0,1-17.59.26,145.13,145.13,0,0,1-20-3.17,168,168,0,0,0-17.81-3c-15.39-1.46-28.44,2.54-35.79,11-4.74,5.45-7.15,14.43-2.3,20.33,2.06,2.5,5,3.93,7.89,5.31s5.63,2.71,7.52,5c3.58,4.4,2.86,11,1.92,16.77L106,103.89c-.74,4.58-1.59,8.6-4.36,11.34-4.41,4.36-11.93,3.52-17.41,2.91-8.09-.9-16.66-1.37-24.52,1.27-7.68,2.57-13.45,8.07-15.82,15.07-1.14,3.36-1.1,6.16-1.06,9.39,0,.73,0,1.47,0,2.25,0,2.59-.29,5.2-.55,7.73a76.62,76.62,0,0,0-.56,7.73c0,5-3.79,9.39-7,12.2-.95.84-2,1.68-2.95,2.5-3.66,3-7.46,6.18-9.33,10.63a29.26,29.26,0,0,0-1.75,8.38,32.61,32.61,0,0,1-1.4,7.38,35.07,35.07,0,0,1-2.53,5.1,26.89,26.89,0,0,0-3.13,7c-1.05,4.38-.3,9.54,2.17,14.92a78.56,78.56,0,0,0,4.76,8.5c1.24,2,2.52,4.1,3.64,6.22,1.2,2.29,2.25,4.71,3.27,7.05a75.46,75.46,0,0,0,4.87,9.88,28,28,0,0,0,11.73,10.94,23.21,23.21,0,0,0,9.71,2.06,25.53,25.53,0,0,0,5.44-.59c5.57-1.21,10.38-4.38,15-7.45,1.44-.95,2.92-1.93,4.39-2.82,2.53-1.54,5-3.19,7.46-4.78,3.06-2,6.23-4.1,9.47-6,6.25-3.61,12.55-7.83,16.29-14.1,3.6-6,4.43-15-.93-20.7A25.75,25.75,0,0,0,105.66,213.92ZM110.94,238c-3.6,6-9.76,10.14-15.87,13.68-3.27,1.9-6.45,4-9.53,6-2.42,1.59-4.91,3.23-7.42,4.76-1.49.9-3,1.89-4.43,2.84-4.56,3-9.27,6.12-14.63,7.28a23,23,0,0,1-14.4-1.39A26.61,26.61,0,0,1,33.45,260.7a74.46,74.46,0,0,1-4.8-9.73c-1-2.36-2.09-4.8-3.31-7.12-1.13-2.16-2.42-4.26-3.68-6.3a80.74,80.74,0,0,1-4.7-8.37c-1.64-3.58-3.33-9-2.08-14.15a25.84,25.84,0,0,1,3-6.67,35,35,0,0,0,2.61-5.28A32.82,32.82,0,0,0,22,195.42a28,28,0,0,1,1.67-8c1.76-4.18,5.44-7.23,9-10.18,1-.82,2-1.67,3-2.53,3.34-3,7.33-7.66,7.35-13.09A74.67,74.67,0,0,1,43.5,154c.31-2.6.5-5.22.56-7.84,0-.79,0-1.54,0-2.27a25.13,25.13,0,0,1,1-9c2.25-6.64,7.74-11.87,15.08-14.33a41.6,41.6,0,0,1,13.25-1.91,99.14,99.14,0,0,1,10.75.7c5.72.64,13.56,1.51,18.38-3.25,3-3,3.92-7.2,4.7-12L112,74.82c1-6.06,1.72-12.93-2.17-17.72-2.06-2.53-5-4-7.93-5.36s-5.59-2.7-7.48-5C90,41.35,92.25,33,96.67,28c7.1-8.17,19.77-12,34.77-10.6a167.7,167.7,0,0,1,17.68,3,149.15,149.15,0,0,0,20.16,3.19A149.84,149.84,0,0,0,187,23.27c6.58-.36,13.38-.73,20-.06,11.47,1.17,25.25,6.78,29.53,19a46,46,0,0,1,1.85,9.65c.53,4.46,1.07,9.06,3.36,13a37.26,37.26,0,0,0,5.07,6.4c3.19,3.47,6.2,6.75,6.25,11.09.06,5-3.84,8.57-8,12.3a43.42,43.42,0,0,0-6,6.19c-5.85,7.93-4.71,18.54-2.61,28.82l.19.94c1.39,6.76,2.82,13.75,1.68,20.56-.49,2.93-1.09,5.5-3.51,7.25-1.71,1.24-3.54,2.35-5.31,3.43-1.08.65-2.2,1.32-3.28,2-4.35,2.82-6.79,6-7.26,9.53-.37,2.81.58,5.5,1.5,8.1.26.75.53,1.49.76,2.24.46,1.49,1.74,6.55-1.25,9.1a10.1,10.1,0,0,1-4.27,1.76c-.59.14-1.17.29-1.74.46-2.23.69-4.82,2.43-4.74,5.07.06,2,1.5,3.24,2.9,4.48a7.71,7.71,0,0,1,2.53,3.15c.71,2.38-1.59,4.85-4.19,5.66a21.1,21.1,0,0,1-4.31.72,18.25,18.25,0,0,0-11.5,4.72c-.92.66-1.86,1.34-2.81,1.94-1.44.91-6.44,3.7-10.24,1.37-2.68-1.66-3.41-4.87-4.18-8.27a21.85,21.85,0,0,0-2.45-7,19.34,19.34,0,0,0-5.09-4.83,27.72,27.72,0,0,1-3.67-3.08c-2.35-2.51-3.61-5.88-4.83-9.15-.42-1.11-.85-2.26-1.31-3.36a40.75,40.75,0,0,0-12.7-16.4c-4.46-3.41-8.78-4.76-12.48-3.9-3.52.81-6.26,3.52-8.46,5.7l-24.82,24.54c-2.37,2.35-4.52,4.71-4.74,7.79s1.67,6.23,5.17,8.75c1,.69,2,1.31,2.94,1.92a24.45,24.45,0,0,1,5.13,3.8C115.11,224,114.3,232.37,110.94,238Z"/><path id="Tracé_931" data-name="Tracé 931" class="cls-2" d="M124.84,229.53c1.57-3.4,3.76-9.88.86-15.05-1.4-2.49-3.78-4.28-6.09-6-2.93-2.19-5.69-4.26-6.24-7.54-.8-4.79,3.85-8.52,5.3-9.55,1.25-.9,2.62-1.69,4-2.46a32.12,32.12,0,0,0,6.25-4.33A33.48,33.48,0,0,0,131.2,182a16,16,0,0,1,4.43-4.1c4.38-2.36,9.93.17,12.57,3.86,2.43,3.41,3.44,8.19,3,14.2-.15,2.1-.45,4.23-.74,6.3a71.37,71.37,0,0,0-.85,8.87c-.1,9.54,4.92,20.39,14.72,22.68,6,1.42,12.34-.88,17.38-2.73l26.4-9.68c4.68-1.71,9-3.58,11.21-7.6,1.27-2.34,1.51-5.05,1.74-7.66.26-2.91.5-5.65,2.06-7.86,1.41-2,3.76-3.3,6-4.54,2.88-1.57,5.85-3.2,7.06-6.33,1.11-2.89.24-5.88-.6-8.77a19.07,19.07,0,0,1-1.1-6.22c.21-3.73,2.66-6.65,5.26-9.74a29.73,29.73,0,0,0,4.74-6.8c2.6-5.81,1-12.14-.53-18.25a51.62,51.62,0,0,1-1.93-10.88,23.8,23.8,0,0,1,8.38-18.36c1.25-1.05,2.58-2.07,3.87-3.07,4.49-3.44,9.12-7,11.43-12.63,3.23-7.9.33-16.74-2.67-22.77-1.31-2.63-2.83-5.21-4.29-7.71a77,77,0,0,1-6.43-12.68,75.83,75.83,0,0,1-2.48-9.27c-1.14-5.06-2.31-10.29-5.08-14.8-5.16-8.43-15.7-13.79-28.9-14.72-9.41-.67-18.91.7-28.09,2A169.86,169.86,0,0,1,166.1,15,168.53,168.53,0,0,1,146,13.65a164.41,164.41,0,0,0-21.39-1.28c-16.58.48-30.14,7.1-36.25,17.72-3.92,6.8-5.07,15.68-3.26,25a72.14,72.14,0,0,0,6,17.13,70.26,70.26,0,0,0,3.66,6.5,55.82,55.82,0,0,1,4.28,8c1.74,4.31,1.84,8.71.28,12.09-3.34,7.19-12.7,8.5-16.57,8.74-2.27.13-4.61.1-6.87.07-4.47,0-9.08-.11-13.48,1.1-6.71,1.83-12.32,6.45-17.28,10.52-4.45,3.67-10,8.22-11.87,14.61a32,32,0,0,0-.95,7.92,37.9,37.9,0,0,1-.61,6.47c-.76,3.56-2.6,6.86-4.37,10.05-.5.91-1,1.82-1.49,2.73a62.46,62.46,0,0,0-7.44,26.08,59.85,59.85,0,0,1-2.54,14.85A46.34,46.34,0,0,1,13,208.67a46.69,46.69,0,0,0-3,7.08c-2.37,8.16,1,17.09,3.41,23.6.39,1.05.78,2.1,1.17,3.17,3.79,10.24,7.7,20.83,14.56,29.11,6.08,7.36,14.22,12.14,25.62,15a18.32,18.32,0,0,0,4.61.58A28.29,28.29,0,0,0,72,283.82c5.49-2.75,10.32-7,15-11.05,1.53-1.33,3.11-2.72,4.66-4,7.18-5.91,14.19-12.19,20.85-18.66a48.08,48.08,0,0,0,7.3-8.37A33.72,33.72,0,0,0,123,234.3C123.57,232.71,124.14,231.06,124.84,229.53Zm-6.07,11.57a47.32,47.32,0,0,1-7.13,8.15C105,255.71,98,262,90.87,267.85c-1.57,1.29-3.16,2.68-4.7,4-4.61,4-9.39,8.2-14.74,10.88-6.18,3.1-11.53,4-16.37,2.77-11.14-2.85-19.08-7.5-25-14.65-6.72-8.13-10.6-18.62-14.36-28.77l-1.17-3.17c-3.09-8.25-5.47-15.66-3.38-22.85a44.27,44.27,0,0,1,2.9-6.89A47.17,47.17,0,0,0,17,202.24a61.19,61.19,0,0,0,2.6-15.14,61.26,61.26,0,0,1,7.3-25.58c.47-.9,1-1.8,1.47-2.7,1.82-3.27,3.7-6.65,4.5-10.38a39.44,39.44,0,0,0,.63-6.68,30.69,30.69,0,0,1,.91-7.63c1.77-6,7.15-10.46,11.48-14,4.86-4,10.37-8.53,16.83-10.3,4.24-1.16,8.78-1.11,13.16-1,2.28,0,4.64.06,7-.08,4.08-.24,14-1.65,17.58-9.42,1.7-3.68,1.61-8.43-.25-13a56.65,56.65,0,0,0-4.37-8.12,69.2,69.2,0,0,1-3.6-6.39A70.47,70.47,0,0,1,86.3,54.85c-1.76-9-.66-17.61,3.12-24.17C95.32,20.43,108.5,14,124.67,13.56a160.26,160.26,0,0,1,21.23,1.28,173.06,173.06,0,0,0,20.23,1.3A172.07,172.07,0,0,0,188,13.94c9.12-1.31,18.55-2.67,27.84-2,12.82.9,23,6.06,28,14.16,2.66,4.34,3.81,9.47,4.93,14.44a80.05,80.05,0,0,0,2.52,9.41,77.45,77.45,0,0,0,6.52,12.88c1.46,2.48,3,5,4.25,7.64,2.89,5.81,5.7,14.3,2.63,21.78-2.18,5.34-6.69,8.8-11,12.15-1.3,1-2.65,2-3.92,3.1a24.64,24.64,0,0,0-8.8,19.3,52,52,0,0,0,2,11.13c1.56,6.2,3,12,.6,17.48a29,29,0,0,1-4.57,6.52c-2.61,3.1-5.31,6.31-5.54,10.45a19.61,19.61,0,0,0,1.15,6.61c.82,2.83,1.6,5.5.63,8-1.05,2.72-3.7,4.17-6.52,5.7-2.4,1.31-4.88,2.67-6.45,4.9-1.73,2.48-2,5.51-2.26,8.45-.23,2.49-.46,5.07-1.6,7.2-2,3.65-6.13,5.41-10.57,7L181.31,230c-4.9,1.8-11,4-16.7,2.7-9.09-2.13-13.89-12.67-13.8-21.51a71,71,0,0,1,.84-8.73c.29-2.08.59-4.23.75-6.37.45-6.3-.63-11.34-3.23-15-2.92-4.1-9.15-6.89-14.1-4.23a17.36,17.36,0,0,0-4.77,4.39,33.4,33.4,0,0,1-2.25,2.5,31,31,0,0,1-6,4.15c-1.36.79-2.75,1.6-4,2.52-4.24,3-6.41,7-5.79,10.73s3.72,6.06,6.7,8.3c2.21,1.65,4.5,3.36,5.77,5.64,2.73,4.88.28,11.39-.9,14-.73,1.59-1.31,3.26-1.87,4.88a33.23,33.23,0,0,1-3.12,7.19Z"/><path id="Tracé_932" data-name="Tracé 932" class="cls-2" d="M126.82,31.83c5.35.72,10.88,1.46,15.74-2.55,1.95-1.6,3.23-4.41,1.77-6.45A5.63,5.63,0,0,0,140.59,21c-6.37-1.19-12.68-.32-18.79.52l-2.71.37c-7.94,1-15.42,8.36-17.52,10.58-.27.29-.55.57-.84.87a12.85,12.85,0,0,0-3.5,4.84,2.76,2.76,0,0,0,.52,3,3.67,3.67,0,0,0,2.6.89,7.1,7.1,0,0,0,2.09-.35,12.05,12.05,0,0,0,4.78-3.54c.33-.36.65-.73,1-1.09a22,22,0,0,1,2.9-3A14.53,14.53,0,0,1,119,31.33,38.91,38.91,0,0,1,126.82,31.83Zm-16.47,1.36a23.82,23.82,0,0,0-3.07,3.12l-.94,1.08a10.82,10.82,0,0,1-4.28,3.2c-1.39.47-2.85.36-3.48-.26a1.7,1.7,0,0,1-.22-1.83,11.85,11.85,0,0,1,3.21-4.36c.3-.3.59-.6.86-.89,2-2.14,9.26-9.22,16.82-10.21l2.71-.37a87.17,87.17,0,0,1,12-1.1,34.07,34.07,0,0,1,6.45.56,4.57,4.57,0,0,1,3,1.4c1.1,1.53-.25,3.75-1.56,4.83-4.46,3.68-9.49,3-14.83,2.29a39.07,39.07,0,0,0-8.08-.51A15.78,15.78,0,0,0,110.35,33.19Z"/><path id="Tracé_933" data-name="Tracé 933" class="cls-2" d="M123.37,255.84c6.15-4.09,9-12.14,9.49-17.79.37-3.93,1-8.23,4.24-9.5,2.75-1.08,5.8.72,8.7,2.67,9.3,6.24,17.1,9,24.58,8.83s14.38-3.5,21-6.68a95.36,95.36,0,0,1,10.84-4.7c2.26-.76,4.78-1.35,7.45-2,7.55-1.75,16.1-3.73,20.14-10.58a27,27,0,0,0,2.5-6.62,23.6,23.6,0,0,1,5.92-11.21,29.6,29.6,0,0,0,4.48-6.7c1.56-3.62,1.61-7.6,1.66-11.46a35.49,35.49,0,0,1,.92-9.3,35.07,35.07,0,0,1,4-8.11,38.74,38.74,0,0,0,3.9-7.74c2-6.09.9-12.58-.16-18.86l-.26-1.57c-1.12-6.78-1.7-13.83,1.64-19.47,2.13-3.58,5.36-6,8.79-8.64a42,42,0,0,0,7.54-6.74c3.8-4.69,7.37-13.38,6.48-20.26-.73-5.7-3.69-10.68-6.18-14.39-1-1.45-2-2.89-3-4.28a83.49,83.49,0,0,1-5.63-8.55c-2.59-4.73-4.26-10-5.87-15.11-.34-1.07-.68-2.14-1-3.2-2-6.19-4.46-12.63-8.75-17.78C236,3.25,215.6,3.7,199.06,5.54c-2.45.27-4.9.58-7.36.89-9.79,1.22-19.91,2.5-29.8,1.37A127,127,0,0,1,144,4c-1.69-.45-3.38-.9-5.08-1.32C125.65-.69,93.41-5.58,81.48,21.31c-3.26,7.36-4.22,16.17-2.77,25.5,1.15,7.35,3.74,15.11,8.16,24.41.28.6.57,1.19.85,1.78a54.15,54.15,0,0,1,4.61,11.84c1.49,6.91.38,11.5-3.5,14.45s-9.09,3.82-13.69,4.29c-2,.2-4,.31-5.94.42-4.82.27-9.79.55-14.46,2.1-10.85,3.59-18,12.8-25.62,23.57L11.38,154.82c-1.8,2.56-4.06,5.76-4.21,9.41-.14,3.42,1.53,6.45,3.15,9.38.6,1.09,1.23,2.22,1.74,3.35C16.19,186,13.3,193.27,10,201.64c-.33.81-.66,1.63-1,2.46l-1,2.58C4.41,215.65.74,224.93.14,235a57.37,57.37,0,0,0,5.38,28.55c3.27,6.58,11.06,12.79,15.41,15.91,13.6,9.74,30.44,13.53,45.16,16.33l1.78.33h0A91.35,91.35,0,0,0,84.43,298a44,44,0,0,0,6.28-.42c2.86-.4,9.82-1.73,12.76-5.25,2.35-2.81,1.85-7.18,1.4-11a31.16,31.16,0,0,1-.31-4.53,19,19,0,0,1,6.34-13.38,38.59,38.59,0,0,1,7.3-4.58A57.5,57.5,0,0,0,123.37,255.84Zm-13.25,6.63a20.24,20.24,0,0,0-6.75,14.24,29.75,29.75,0,0,0,.32,4.71c.41,3.62.89,7.72-1.13,10.14-2.75,3.3-9.89,4.53-12,4.83-7.55,1.07-15.23-.14-22.45-1.47h0l-1.78-.34c-14.59-2.76-31.28-6.52-44.68-16.12-4.26-3-11.89-9.13-15-15.47a56.23,56.23,0,0,1-5.26-28c.59-9.86,4.06-18.63,7.73-27.93l1-2.58c.32-.83.65-1.65,1-2.46,3.46-8.62,6.44-16.07,2.1-25.62-.53-1.16-1.17-2.31-1.79-3.43-1.61-2.91-3.12-5.66-3-8.75.14-3.3,2.28-6.34,4-8.77l17.73-25.14c7.47-10.6,14.52-19.66,25-23.13,4.52-1.5,9.42-1.78,14.15-2,2-.12,4-.23,6-.43,4.76-.48,10.19-1.4,14.29-4.52,5.63-4.29,5-11,3.94-15.65a54.86,54.86,0,0,0-4.7-12.11l-.85-1.77c-4.37-9.2-6.93-16.85-8-24.09-1.42-9.1-.49-17.68,2.68-24.83C94.13-4.27,125.65.54,138.66,3.82c1.69.42,3.38.87,5.07,1.32a127.67,127.67,0,0,0,18,3.84c10,1.14,20.23-.14,30.09-1.38,2.45-.3,4.89-.61,7.34-.88,16.24-1.8,36.2-2.28,46.56,10.17,4.16,5,6.56,11.31,8.54,17.38.34,1.06.68,2.13,1,3.19,1.64,5.16,3.33,10.49,6,15.33A84.75,84.75,0,0,0,267,61.46c1,1.39,2,2.82,3,4.25,2.42,3.6,5.29,8.43,6,13.88.81,6.31-2.53,14.8-6.23,19.36a41.09,41.09,0,0,1-7.33,6.54c-3.37,2.55-6.85,5.2-9.09,9-3.54,6-3,13.27-1.8,20.27l.27,1.58c1,6.13,2.11,12.48.2,18.29a37.63,37.63,0,0,1-3.79,7.49,35.9,35.9,0,0,0-4.09,8.4,36.63,36.63,0,0,0-1,9.62c0,3.91-.09,7.6-1.56,11a28.88,28.88,0,0,1-4.31,6.42,24.6,24.6,0,0,0-6.13,11.64,26.19,26.19,0,0,1-2.39,6.33c-3.78,6.41-11.71,8.25-19.37,10-2.7.62-5.26,1.22-7.57,2a96.89,96.89,0,0,0-11,4.76c-6.47,3.12-13.15,6.35-20.47,6.56s-14.8-2.54-23.89-8.63c-3.15-2.12-6.51-4.08-9.8-2.79-3.83,1.52-4.58,6.22-5,10.5-.5,5.39-3.15,13.05-9,16.91a57.7,57.7,0,0,1-5.07,2.9,39.6,39.6,0,0,0-7.52,4.72Z"/></g></g></g></svg>
