<svg xmlns="http://www.w3.org/2000/svg" width="505" height="461" viewBox="0 0 504.98 461.77"><defs><style>.cls-1{fill:#e0e0e0;}</style></defs><title>fruits_lines</title><g id="Calque_2" data-name="Calque 2"><g id="Calque_1-2" data-name="Calque 1"><path id="Union_1" data-name="Union 1" class="cls-1" d="M33.85,461.76c-6.39-.21-11.23-5.35-15.26-10.16C14.2,446.37,9.8,441,5.51,435.69c-2.93-3.64-6-7.93-5.44-12.66a17.8,17.8,0,0,1,2.3-6,27.64,27.64,0,0,0,1.69-3.62,26.76,26.76,0,0,0,1.06-5.24,21.9,21.9,0,0,1,1.65-6.75c2.93-6.1,10.4-8.23,15.86-9.79,6-1.72,12.38-4.22,14.35-9.76,1.22-3.43.39-7.07-.48-10.91-.82-3.6-1.66-7.34-.71-10.94,1.86-7,9.53-10.34,15.53-11a65.8,65.8,0,0,1,10.22-.11,69.49,69.49,0,0,0,9.24,0c5.52-.51,12.31-2.5,13.31-9.09a23.4,23.4,0,0,0-.81-8.65,59,59,0,0,1-1.25-7.6h0a37.65,37.65,0,0,1,0-7.2,127.31,127.31,0,0,1,2.69-15.63c1.09-4.81,2.39-9.86,5.33-14,3.26-4.54,8.48-8,16-10.53,16.36-5.54,34.18-4.37,46.17-3,5.14.58,10.56,1.37,15.31,4,5.31,2.9,8.71,7.83,8.89,12.85a25.17,25.17,0,0,1-.29,4c-.27,2.11-.53,4.11.12,6,.81,2.36,2.88,4,5.07,5.73,2.5,2,5.08,4,5.61,7.22.62,3.67-1.8,6.89-3.93,9.73l-.63.85a42.13,42.13,0,0,0-8.05,26.72c.1,2,.37,4.1.62,6.1a53.11,53.11,0,0,1,.61,9.92c-.31,5.07-2.6,11.33-8.06,13.7a21.34,21.34,0,0,1-4.73,1.21,25.88,25.88,0,0,0-3.47.76c-2.46.79-4.79,2.83-4.51,5.2a7.37,7.37,0,0,0,1.2,2.79,18.24,18.24,0,0,1,.89,1.63,8.57,8.57,0,0,1,0,6.63,10.94,10.94,0,0,1-5.71,6c-4.17,1.8-9.55,1.19-14.37-1.65-4.05-2.38-7.3-5.9-10.43-9.29l-.38-.41c-3.46-3.75-6.66-7-10.73-9.1-5.18-2.64-11.38-3-16.85-3.33-3.76-.23-7.1-.28-9.78,1.37-2.52,1.54-3.89,4.22-5.34,7.05a23.71,23.71,0,0,1-4.12,6.3c-2.12,2.11-4.9,3.29-7.59,4.44s-5.51,2.35-7.46,4.47C61,407.41,60.46,413.15,61,417A19.85,19.85,0,0,0,67.9,429.4l1.15.92c2.48,2,5.3,4.17,5.06,7.46-.22,3-2.8,4.85-5.55,6.46L45.8,457.55c-3.23,1.89-7.22,4.22-11.54,4.22ZM51.48,350.25c-5.59.65-12.71,3.68-14.4,10.06-.88,3.29-.07,6.86.71,10.31.88,3.86,1.78,7.85.44,11.65-2.17,6.11-8.92,8.78-15.24,10.59-6.51,1.86-12.56,4-15,9.09a20.77,20.77,0,0,0-1.53,6.36,27.16,27.16,0,0,1-1.12,5.49,26.75,26.75,0,0,1-1.77,3.8,16.56,16.56,0,0,0-2.15,5.59c-.52,4.22,2.26,8.08,5.15,11.67,4.28,5.32,8.68,10.66,13.07,15.89,3.84,4.58,8.44,9.49,14.29,9.69,4.1.12,8.05-2.18,11.23-4l22.75-13.31c2.44-1.43,4.72-3.07,4.89-5.41.19-2.58-2.22-4.48-4.55-6.32-.4-.32-.8-.63-1.17-.94A21.22,21.22,0,0,1,59.7,417.2c-.6-4.15-.05-10.35,3.45-14.15,2.14-2.33,5.07-3.59,7.91-4.8s5.24-2.23,7.18-4.16a23,23,0,0,0,3.87-6c1.47-2.88,3-5.85,5.83-7.58,3-1.85,6.56-1.8,10.56-1.57,5.6.34,11.94.71,17.37,3.48,4.26,2.18,7.55,5.54,11.1,9.39l.38.41c3.07,3.32,6.24,6.76,10.13,9,4.45,2.62,9.37,3.21,13.16,1.57a9.59,9.59,0,0,0,5-5.28,7.25,7.25,0,0,0,0-5.6,15.46,15.46,0,0,0-.82-1.5,8.49,8.49,0,0,1-1.38-3.31c-.36-3.09,2.46-5.67,5.43-6.62a28.67,28.67,0,0,1,3.65-.81,19.33,19.33,0,0,0,4.43-1.12c4.92-2.12,7-7.88,7.27-12.56a53.09,53.09,0,0,0-.61-9.67c-.25-2-.52-4.12-.62-6.2a42.81,42.81,0,0,1,8.3-27.58l.63-.85c2.07-2.76,4.21-5.61,3.69-8.71-.45-2.71-2.72-4.5-5.13-6.41-2.24-1.77-4.56-3.61-5.5-6.32a14.34,14.34,0,0,1-.18-6.58,23.5,23.5,0,0,0,.28-3.75c-.19-5.45-4.36-9.63-8.2-11.73-4.54-2.49-9.81-3.25-14.82-3.82-11.86-1.35-29.49-2.5-45.6,3-7.23,2.45-12.24,5.73-15.33,10-2.8,3.9-4.06,8.8-5.11,13.47a126.78,126.78,0,0,0-2.67,15.48,38.41,38.41,0,0,0,0,7,58.44,58.44,0,0,0,1.23,7.43,24.31,24.31,0,0,1,.82,9.14c-.88,5.8-6,9.43-14.5,10.21a72.06,72.06,0,0,1-9.41,0c-1.72-.07-3.47-.15-5.22-.15A42.57,42.57,0,0,0,51.48,350.25Zm-21,104.66c-3.23-.76-7.83-2.89-10.15-6.41A23.67,23.67,0,0,1,17.68,442a26.25,26.25,0,0,0-2.17-5.66A29.16,29.16,0,0,0,12,431.94c-2.23-2.47-4.54-5-5.18-7.76-.58-2.5.32-4.73,2.74-6.85a16.45,16.45,0,0,1,2.26-1.55c1.36-.82,2.64-1.6,3.23-2.9a7.49,7.49,0,0,0,.17-4.17c-.07-.5-.14-1-.17-1.49-.2-2.38.77-5,3-5.31a4.8,4.8,0,0,1,3.11.86,40,40,0,0,1,3.57,2.49c1,.77,2.08,1.57,3.18,2.25,1.88,1.16,4.7,2.4,7.45,1.75a13.84,13.84,0,0,0,3.63-1.7l.51-.3a10.2,10.2,0,0,1,4.67-1.67,4.39,4.39,0,0,1,4.3,2.62c.53,1.59-.17,3.49-1.9,5.22l-.91.86a8.64,8.64,0,0,0-2.42,2.95c-.88,2.18.34,4.69,2,6.05a13.65,13.65,0,0,0,6.65,2.44c.58.09,1.17.16,1.76.24a27.09,27.09,0,0,1,5.64,1.12,8.63,8.63,0,0,1,5.64,5.14,8,8,0,0,1-1.07,6.63,19,19,0,0,1-4.62,4.77,67.49,67.49,0,0,1-13.3,8.17c-3.59,1.67-8,3.45-12.33,3.45A13.93,13.93,0,0,1,30.46,454.91Zm-12.32-52c-1.6.25-2.3,2.37-2.15,4.25,0,.47.1.95.17,1.43a8.43,8.43,0,0,1-.25,4.72c-.72,1.58-2.2,2.47-3.62,3.34a14.7,14.7,0,0,0-2.12,1.45c-2.12,1.85-2.92,3.77-2.43,5.87.58,2.49,2.8,4.94,4.95,7.32a28.67,28.67,0,0,1,3.68,4.6,25.72,25.72,0,0,1,2.26,5.88,23,23,0,0,0,2.51,6.2c2,3.06,6.25,5.21,9.54,6,4.88,1.14,10.46-1,14.78-3a66.29,66.29,0,0,0,13.1-8.06A17.92,17.92,0,0,0,63,438.33a7.08,7.08,0,0,0,1-5.8,7.69,7.69,0,0,0-5-4.5A27.38,27.38,0,0,0,53.45,427l-1.77-.24a14.51,14.51,0,0,1-7.14-2.66c-1.94-1.59-3.35-4.57-2.29-7.19a9.53,9.53,0,0,1,2.67-3.31c.3-.28.6-.55.88-.84.69-.68,2.23-2.47,1.66-4.19a3.3,3.3,0,0,0-3.32-1.94,9.06,9.06,0,0,0-4.2,1.53l-.51.3a14.13,14.13,0,0,1-3.9,1.81c-3.09.74-6.17-.61-8.2-1.87-1.14-.7-2.22-1.51-3.26-2.3a41.67,41.67,0,0,0-3.48-2.43,4.56,4.56,0,0,0-2.14-.76A1.67,1.67,0,0,0,18.14,402.89ZM37.5,447.7A13.81,13.81,0,0,1,34,446.05a18,18,0,0,0-2.46-1.28,16.24,16.24,0,0,0-2.19-.65,19.41,19.41,0,0,1-2.22-.65c-1.93-.74-3.15-1.72-2.78-4.1a6.6,6.6,0,0,0-1.1-5.12c-.42-.65-.91-1.28-1.38-1.9a18.51,18.51,0,0,1-2.18-3.28c-1-2-1.17-4.7.47-6.4,1.84-1.91,5-1.51,7.22-.13a19.67,19.67,0,0,1,3.07,2.53,23.8,23.8,0,0,0,2.41,2.08,11.69,11.69,0,0,0,8.27,2.06c.6-.08,1.23-.21,1.84-.34a10.09,10.09,0,0,1,4.82-.24,10.27,10.27,0,0,1,2.62,1.28,15.88,15.88,0,0,0,1.45.82,15.16,15.16,0,0,0,2.88.94c.69.17,1.41.36,2.11.6,2.18.78,3.64,2.17,4,3.81.54,2.39-1.32,4.69-3.42,5.73a18.8,18.8,0,0,1-4,1.25c-.78.18-1.6.37-2.37.62a29,29,0,0,0-4,1.8c-.77.39-1.56.79-2.36,1.15a13,13,0,0,1-5.26,1.3A7.54,7.54,0,0,1,37.5,447.7ZM20.86,423.37c-1.3,1.36-1.09,3.63-.29,5.27a17.09,17.09,0,0,0,2.07,3.1c.48.63,1,1.28,1.43,2a7.61,7.61,0,0,1,1.25,5.82c-.25,1.59.25,2.29,2.15,3a17.39,17.39,0,0,0,2.1.62,18.72,18.72,0,0,1,2.32.69,18.2,18.2,0,0,1,2.59,1.35,13.05,13.05,0,0,0,3.27,1.54c1.84.47,4,.14,6.56-1,.77-.34,1.55-.74,2.31-1.12a28.92,28.92,0,0,1,4.18-1.86c.81-.27,1.64-.46,2.45-.65A16.91,16.91,0,0,0,57,440.92c1.76-.87,3.31-2.73,2.89-4.61s-2.5-2.78-3.38-3.09c-.66-.23-1.35-.41-2-.58a16.35,16.35,0,0,1-3.06-1c-.53-.27-1-.56-1.54-.87a9,9,0,0,0-2.36-1.17,9.34,9.34,0,0,0-4.36.25c-.62.13-1.27.27-1.91.35a12.7,12.7,0,0,1-9-2.24,24.45,24.45,0,0,1-2.51-2.16,19.35,19.35,0,0,0-2.92-2.42,6.58,6.58,0,0,0-3.36-1,3.52,3.52,0,0,0-2.61,1ZM370,411.21a3.48,3.48,0,0,1-1.87-2.65,6.67,6.67,0,0,0-.52-1.37,9.46,9.46,0,0,0-2.35-2.57c-1.36-1.16-2.76-2.36-2.9-4.76a9.19,9.19,0,0,1,2.5-6.53,16.23,16.23,0,0,1,5.77-3.91,9.13,9.13,0,0,1,4.32-1,4.26,4.26,0,0,1,3.74,2.53c.58,1.54,0,3.45-1.61,5.1-.44.46-.93.88-1.39,1.3a11.72,11.72,0,0,0-2.18,2.27,2.69,2.69,0,0,0-.5,2.12,3.44,3.44,0,0,0,1.1,1.4c.23.22.46.44.68.68a4.83,4.83,0,0,1,.5,5.58,4.54,4.54,0,0,1-3.79,2.06A4,4,0,0,1,370,411.21Zm1-21a15.15,15.15,0,0,0-5.46,3.68,8.33,8.33,0,0,0-2.28,5.89c.12,2,1.26,3,2.59,4.13a10.21,10.21,0,0,1,2.55,2.81,7.94,7.94,0,0,1,.59,1.56c.28.94.52,1.75,1.35,2.07a3.6,3.6,0,0,0,4.21-1.42,3.91,3.91,0,0,0-.42-4.51c-.19-.21-.4-.4-.62-.62a4.21,4.21,0,0,1-1.34-1.78,3.45,3.45,0,0,1,.6-2.88,12.64,12.64,0,0,1,2.34-2.45c.45-.4.92-.82,1.34-1.25s2.08-2.37,1.41-4.17a3.38,3.38,0,0,0-3-1.95h-.39a8.94,8.94,0,0,0-3.51.9ZM436.49,406a5.46,5.46,0,0,1-5-4,10.29,10.29,0,0,1-.19-2.59,5.89,5.89,0,0,0-1.74-5,8.27,8.27,0,0,1-1.66-2.76c-.83-2.79,1.23-5.45,3.24-6.88a8.54,8.54,0,0,1,5.14-1.78c2.82.1,4.2,1.57,4.12,4.4a36,36,0,0,0,.78,9.37l.14.57a10,10,0,0,1,.35,4.82,5.34,5.34,0,0,1-5.05,3.89Zm-4.87-20.54c-1.91,1.36-3.55,3.71-2.91,5.9a7.39,7.39,0,0,0,1.51,2.45,6.72,6.72,0,0,1,1.93,5.58,9.36,9.36,0,0,0,.17,2.36,4.51,4.51,0,0,0,4.18,3.36h.07a4.45,4.45,0,0,0,4.19-3.22,9.18,9.18,0,0,0-.35-4.38l-.13-.58a36.86,36.86,0,0,1-.81-9.6c.07-2.33-.94-3.4-3.26-3.48H436a7.92,7.92,0,0,0-4.41,1.61ZM46.49,398a4.51,4.51,0,0,1,.64-5.86c1.12-1.07,2.22-2.17,3.29-3.23a75.11,75.11,0,0,1,8.42-7.62,16.37,16.37,0,0,1,7.26-3.49c2.53-.36,5.88.51,7.28,3.26a7.21,7.21,0,0,1-.6,6.81,10.74,10.74,0,0,1-7.55,5.1,19.63,19.63,0,0,1-2.3.19,9.45,9.45,0,0,0-4.13.79A9.57,9.57,0,0,0,56,396.64a9.45,9.45,0,0,1-3.53,3.17,5,5,0,0,1-1.94.4A4.84,4.84,0,0,1,46.49,398Zm19.75-19.22A15.66,15.66,0,0,0,59.43,382a75.92,75.92,0,0,0-8.31,7.52c-1.07,1.07-2.17,2.18-3.3,3.25a3.51,3.51,0,0,0-.5,4.6,3.8,3.8,0,0,0,4.74,1.48A8.5,8.5,0,0,0,55.2,396a10.53,10.53,0,0,1,3.13-3,10.23,10.23,0,0,1,4.56-.91c.73,0,1.46-.08,2.19-.17a9.74,9.74,0,0,0,6.84-4.63,6.27,6.27,0,0,0,.57-5.85,5.77,5.77,0,0,0-5.27-2.8A7.93,7.93,0,0,0,66.24,378.73Zm180.68,21a6.51,6.51,0,0,1-4.3-2.43c-3.35-4.44-.54-8.72,1.94-12.5a23.22,23.22,0,0,0,2.78-5.05c.29-.89.55-1.84.82-2.84,1.29-4.73,2.75-10.1,8.57-10.94a6.67,6.67,0,0,1,5,1.4,5.24,5.24,0,0,1,2.06,3.62c.2,2.36-1.25,4.77-4.2,7l-1.12.81c-1.78,1.28-3.62,2.61-4.53,4.53s-.76,4.24-.6,6.46c0,.41,0,.81.08,1.21.2,3.68-.63,6.28-2.46,7.72a5.15,5.15,0,0,1-3.25,1.08,5.25,5.25,0,0,1-.79-.06Zm9.94-32.87c-5.24.75-6.56,5.6-7.83,10.28-.28,1-.54,2-.84,2.88a24.51,24.51,0,0,1-2.88,5.27c-2.55,3.87-4.95,7.53-2,11.48a5.59,5.59,0,0,0,3.7,2.08,4.45,4.45,0,0,0,3.38-.84c1.58-1.25,2.3-3.6,2.11-7,0-.4-.05-.8-.08-1.2-.16-2.33-.33-4.75.69-6.9s2.94-3.52,4.81-4.87l1.1-.8c1.88-1.41,4.07-3.63,3.85-6.2a4.34,4.34,0,0,0-1.72-3,5.82,5.82,0,0,0-3.58-1.26A3.64,3.64,0,0,0,256.86,366.91ZM140.89,396a12.69,12.69,0,0,1-4.37-4.34c-.42-.6-.86-1.23-1.35-1.83a7.49,7.49,0,0,0-2.08-1.58,6.88,6.88,0,0,1-2.7-2.35,4.45,4.45,0,0,1-.38-4,5.25,5.25,0,0,1,3.93-2.73,20.91,20.91,0,0,1,2.35-.28,18.84,18.84,0,0,0,2.12-.24c2.55-.49,4.55-2.72,5.78-4.51q.54-.8,1.05-1.62a20.21,20.21,0,0,1,3.8-4.78,10.49,10.49,0,0,1,8.78-2.14c2.45.54,4.8,2.6,4.31,5-.38,1.82-2.18,2.83-3.5,3.43-.81.37-1.64.71-2.45,1a30.24,30.24,0,0,0-4.77,2.28c-2.49,1.58-4,3.75-4.15,6a11.5,11.5,0,0,0,.81,4.25q.21.63.39,1.26c.75,2.58.59,4.62-.46,6.07a4.85,4.85,0,0,1-4,1.86A6.62,6.62,0,0,1,140.89,396Zm8.8-27.47a19.32,19.32,0,0,0-3.6,4.55c-.36.55-.71,1.11-1.08,1.64-1.33,1.95-3.52,4.38-6.4,4.93a21.13,21.13,0,0,1-2.23.25,18.59,18.59,0,0,0-2.23.27c-.75.15-2.57.67-3.22,2.15a3.41,3.41,0,0,0,.32,3.07,6.06,6.06,0,0,0,2.35,2,8.12,8.12,0,0,1,2.34,1.81c.51.63,1,1.26,1.4,1.88a11.69,11.69,0,0,0,4,4c1.82,1,4.58.93,5.85-.81.86-1.18,1-2.93.31-5.2-.12-.41-.25-.83-.38-1.24a12.38,12.38,0,0,1-.86-4.62c.16-2.53,1.85-5,4.61-6.74a29.35,29.35,0,0,1,4.93-2.36c.8-.32,1.62-.66,2.4-1,1.79-.82,2.72-1.68,2.94-2.73.35-1.73-1.55-3.37-3.55-3.81a8.89,8.89,0,0,0-1.92-.21A9.43,9.43,0,0,0,149.69,368.55ZM96,373.89c-4-2.53-6-7.39-4.74-11.28a37.58,37.58,0,0,1,2-4.67,28.5,28.5,0,0,0,2.33-6,32.17,32.17,0,0,0,.53-11.53,35.44,35.44,0,0,0-1.5-6.26c-.56-1.74-1.23-3.5-1.87-5.2a68.21,68.21,0,0,1-3-9.27c-3-13.41,3-27.79,14.08-34.2,6.8-3.92,15-4.81,22.19-5.59,8.28-.9,16.85-1.84,25.3-.65,5.22.73,8.51,2.51,10,5.43A14,14,0,0,1,162.4,291a16.35,16.35,0,0,0,.68,5.16c.84,2.27,2.83,4.28,6.09,6.15.73.41,1.5.82,2.24,1.21a28.91,28.91,0,0,1,5.68,3.58c2.2,1.92,4.25,5.18,3.42,8.58-.54,2.23-2.15,3.87-3.71,5.47-.57.58-1.15,1.18-1.67,1.79-2.31,2.74-3.59,6.24-4.82,9.63-.34.92-.67,1.83-1,2.73a59.7,59.7,0,0,1-30.69,32.34,117.37,117.37,0,0,1-16.93,5.7,75.08,75.08,0,0,1-13.33,2.89c-1,.09-1.88.13-2.76.13A17.59,17.59,0,0,1,96,373.89Zm30.1-93c-7.12.78-15.18,1.66-21.8,5.47-10.76,6.2-16.48,20.13-13.6,33.12a67.66,67.66,0,0,0,3,9.14c.65,1.71,1.32,3.48,1.89,5.24A35.73,35.73,0,0,1,97,340.29a33,33,0,0,1-.54,11.88,29.4,29.4,0,0,1-2.41,6.2,37.71,37.71,0,0,0-1.93,4.54c-1.28,4,1.28,8.19,4.33,10.14s6.91,2.62,11.76,2.17a73.75,73.75,0,0,0,13.15-2.85,116.23,116.23,0,0,0,16.79-5.65,58.65,58.65,0,0,0,30.17-31.8c.35-.89.68-1.8,1-2.7,1.27-3.47,2.57-7.06,5-9.94.54-.64,1.14-1.25,1.72-1.84,1.53-1.57,3-3,3.46-5,.72-3-1.23-6-3.11-7.6a27.7,27.7,0,0,0-5.49-3.45c-.75-.4-1.52-.8-2.27-1.23-3.47-2-5.6-4.17-6.53-6.67a16.65,16.65,0,0,1-.74-5.48,13.15,13.15,0,0,0-1-5.87c-1.37-2.62-4.41-4.22-9.3-4.91a61,61,0,0,0-8.44-.55,153.66,153.66,0,0,0-16.61,1.2ZM354.62,374.3a13.3,13.3,0,0,1-3.85-1.9,8.59,8.59,0,0,0-7.86-1.66,14.59,14.59,0,0,1-3.61.27,8.06,8.06,0,0,1-6.67-4.89c-2.13-5.22,2.19-9.8,5.66-13.49.43-.45.84-.89,1.22-1.31a104.8,104.8,0,0,1,14-12.85c4.66-3.54,11.73-8.14,19.25-7.16,3.12.41,5.54,1.74,8.1,3.15l.62.34c2.36,1.23,4.78,2.34,7.24,3.33,1.22.51,2.47,1,3.68,1.57,3.24,1.46,6.91,3.1,9.37,6.09,3.63,4.38,3.86,10.57,3.57,16.61-.12,2.48-.33,4.88-1.52,6.9-2.22,3.76-7.16,4.88-11.08,4.34a35.08,35.08,0,0,1-8.86-2.94c-.87-.38-1.74-.76-2.62-1.11-3-1.21-7.41-2.67-11.47-1.4a20.83,20.83,0,0,0-5.28,2.88c-.59.4-1.17.8-1.77,1.17a12.46,12.46,0,0,1-6.47,2.26,7.28,7.28,0,0,1-1.68-.2Zm-7.38-4.58a12.4,12.4,0,0,1,4,1.93,12.12,12.12,0,0,0,3.58,1.78c2.12.51,4.56-.12,7.46-1.95.59-.37,1.17-.76,1.75-1.15a21.19,21.19,0,0,1,5.51-3c4.33-1.36,9,.16,12.07,1.42.89.36,1.77.74,2.65,1.12a33.62,33.62,0,0,0,8.62,2.87c3.62.51,8.18-.5,10.19-3.91,1.09-1.84,1.28-4.12,1.39-6.49.28-5.86.07-11.85-3.36-16-2.33-2.82-5.9-4.43-9.05-5.84-1.2-.54-2.44-1.06-3.65-1.57a78.3,78.3,0,0,1-7.33-3.37l-.63-.34c-2.48-1.37-4.82-2.66-7.78-3-7.19-.94-14.06,3.53-18.59,7a102.94,102.94,0,0,0-13.9,12.74l-1.24,1.32c-3.29,3.5-7.4,7.85-5.48,12.54a7.13,7.13,0,0,0,5.91,4.34,14.41,14.41,0,0,0,3.41-.26,18.62,18.62,0,0,1,2.88-.29,8.37,8.37,0,0,1,1.58.15Zm1.05-1.67a14.51,14.51,0,0,1-1.52-1.71,8.71,8.71,0,0,0-2.32-2.25,8.29,8.29,0,0,0-1.23-.53,5.41,5.41,0,0,1-2.43-1.45c-1.25-1.51-.91-3.8,1-6.46a84.31,84.31,0,0,1,6.8-8.4c.8-.88,1.54-1.81,2.25-2.72a33.4,33.4,0,0,1,3.71-4.17c2.78-2.5,7.26-5.62,12.86-6.27,6.81-.79,13.55,2.3,19,4.79,2.38,1.09,5.08,2.33,7,4.47a20.46,20.46,0,0,1,3.28,5.74c1.31,3,2.94,6.75,2.25,10.52a10.56,10.56,0,0,1-10.31,8.26h0a22.22,22.22,0,0,1-7.27-1.69c-2.6-.92-5.06-1.8-7.64-1.58-3,.27-5.92,1.58-8.7,2.85a33.06,33.06,0,0,1-7.7,2.75,13.33,13.33,0,0,1-2.28.2,9.74,9.74,0,0,1-6.66-2.35Zm19.22-32.78c-5.29.61-9.55,3.59-12.2,6a31.08,31.08,0,0,0-3.57,4c-.72.92-1.48,1.87-2.31,2.78a86.07,86.07,0,0,0-6.7,8.29c-.89,1.26-2.21,3.59-1,5a4.49,4.49,0,0,0,1.93,1.1,10.1,10.1,0,0,1,1.39.61,9.5,9.5,0,0,1,2.67,2.54,13.08,13.08,0,0,0,1.4,1.58A9.28,9.28,0,0,0,357,369a31.47,31.47,0,0,0,7.42-2.67c2.88-1.3,5.85-2.66,9.1-2.94,2.83-.25,5.53.71,8.14,1.64a21.42,21.42,0,0,0,6.88,1.63h0c4.31,0,8.41-3.27,9.14-7.3.62-3.4-.93-7-2.17-9.83a19.63,19.63,0,0,0-3.08-5.41c-1.76-2-4.34-3.14-6.62-4.19-4.71-2.17-10.47-4.81-16.26-4.81a18.13,18.13,0,0,0-2.08.12Zm-314.19,34c-1.81-.47-3-1.36-3.29-2.47-.16-.67-.07-1.73,1.3-3,.2-.18.41-.35.62-.52a4.52,4.52,0,0,0,2-4.44,8.4,8.4,0,0,1,.54-3.1c1.1-2.49,4.05-3.29,6.33-3.52a11.35,11.35,0,0,1,5.42.52A5.94,5.94,0,0,1,70,356.82c.64,2.95-1.33,6.35-5.69,9.85a12.2,12.2,0,0,1-7.8,3A13.07,13.07,0,0,1,53.32,369.28Zm7.59-16c-1.65.16-4.56.77-5.52,2.93a7.56,7.56,0,0,0-.45,2.75,5.44,5.44,0,0,1-2.35,5.15c-.2.16-.4.33-.58.5-.56.51-1.19,1.27-1,2s1.14,1.38,2.57,1.74c3.67.93,6.88.16,10.1-2.42,2.82-2.26,6-5.64,5.34-8.86a4.93,4.93,0,0,0-3.14-3.35,8.86,8.86,0,0,0-3.27-.55C62.08,353.14,61.52,353.17,60.91,353.23Zm303.9,10.86c-2-.87-3.05-3.1-3.61-4.82a17.83,17.83,0,0,0-2.65-4.62c-1.37-1.91-2.78-3.89-3.14-6.38-.51-3.5,1.5-7.39,4.9-9.45A15.89,15.89,0,0,1,371,337.15a45.46,45.46,0,0,1,10.3,3.35,25.05,25.05,0,0,1,5.65,2.93,8.72,8.72,0,0,1,3.56,5.37,13.12,13.12,0,0,1,.14,1.65,5.29,5.29,0,0,0,1,3.58,6.48,6.48,0,0,1,.87,1.72,3.68,3.68,0,0,1-.51,3,5.58,5.58,0,0,1-3.74,2.42c-2.21.34-4.36-.39-6.44-1.1l-.61-.21c-2.09-.7-4.51-1.3-6.54-.42a10,10,0,0,0-2.85,2.16,11,11,0,0,1-3.06,2.33,5.57,5.57,0,0,1-2.3.53,4.24,4.24,0,0,1-1.72-.35Zm-4-24.51c-3.1,1.88-4.94,5.4-4.48,8.56.33,2.28,1.62,4.08,3,6a18.62,18.62,0,0,1,2.78,4.86c.5,1.55,1.46,3.55,3.13,4.29a4,4,0,0,0,3.29-.17,10.34,10.34,0,0,0,2.81-2.16,11,11,0,0,1,3.11-2.34c2.31-1,4.92-.36,7.18.4l.61.21c2,.67,4,1.37,6,1.06a4.74,4.74,0,0,0,3.13-2,2.77,2.77,0,0,0,.4-2.27,5.8,5.8,0,0,0-.77-1.48,8.46,8.46,0,0,1-.75-1.35,8.1,8.1,0,0,1-.42-2.67,11.29,11.29,0,0,0-.13-1.54,7.9,7.9,0,0,0-3.22-4.81,24.71,24.71,0,0,0-5.45-2.82,45.57,45.57,0,0,0-10.1-3.3,19,19,0,0,0-3-.24,13.63,13.63,0,0,0-7.11,1.81Zm-233,19.26c-4.42-.29-8.52-2-12.49-3.61a34.83,34.83,0,0,1-9.29-5c-3.1-2.56-4.9-6-4.84-9.33a19.55,19.55,0,0,1,.71-4.1c.51-2.06,1-4,.36-5.85a10.72,10.72,0,0,0-1.78-2.86,10.44,10.44,0,0,1-2-3.47c-.58-2.07.11-4.09.78-6.05a14.36,14.36,0,0,0,1-4.14,13.2,13.2,0,0,0-1.48-5.39,27.2,27.2,0,0,1-1.23-3.3h0c-1.1-4.07.37-7.6,2.13-10.8A10,10,0,0,1,103,291.8l.64-.43a43.44,43.44,0,0,1,5-3,10.86,10.86,0,0,1,4.92-1.35c1,0,2.1,0,3.11.08.69,0,1.38.08,2.07.09a77.14,77.14,0,0,0,10.19-.77c2.6-.31,5.29-.63,8-.73,7.48-.3,13.5,1.45,17.43,5.07a31.06,31.06,0,0,1,4.33,5.37,21.78,21.78,0,0,0,7.82,7.9,30.64,30.64,0,0,1,3.74,2.77c2.31,2.12,4.06,5.6,2.76,8.62a10.12,10.12,0,0,1-2.23,3,9.47,9.47,0,0,0-2,2.64,9.56,9.56,0,0,0-.57,3.31,6.6,6.6,0,0,1-4,6.78,14.59,14.59,0,0,0-1.8,1.22,13.64,13.64,0,0,0-3.12,4.73,14.08,14.08,0,0,1-3.46,5.12,14.18,14.18,0,0,1-5.78,2.37,9.69,9.69,0,0,0-8.36,6.4,21.09,21.09,0,0,1-2,3.25c-2.32,3-6.3,4.66-10.8,4.66C128.54,358.88,128.14,358.87,127.74,358.84ZM114.26,288h-.59a9.89,9.89,0,0,0-4.5,1.24,43.66,43.66,0,0,0-4.93,2.91l-.66.45a9.37,9.37,0,0,0-3.15,2.82c-1.65,3-3.05,6.33-2,10.07a24.22,24.22,0,0,0,1.19,3.17,14,14,0,0,1,1.55,5.8,14.79,14.79,0,0,1-1,4.44c-.65,1.9-1.26,3.69-.76,5.46a9.46,9.46,0,0,0,1.85,3.13,11.41,11.41,0,0,1,1.93,3.14c.73,2.13.19,4.3-.34,6.42a18.13,18.13,0,0,0-.67,3.87c-.07,3,1.6,6.18,4.47,8.55,2.64,2.18,5.89,3.52,9,4.81,3.89,1.6,7.92,3.25,12.17,3.54,4.66.3,8.84-1.28,11.15-4.24a20.42,20.42,0,0,0,1.87-3.1A13.78,13.78,0,0,1,144,346a14,14,0,0,1,5.82-2.4,13.32,13.32,0,0,0,5.39-2.18,13.21,13.21,0,0,0,3.19-4.78,14.73,14.73,0,0,1,3.37-5,14,14,0,0,1,1.94-1.31,5.68,5.68,0,0,0,3.53-6,10.28,10.28,0,0,1,.66-3.64,10.1,10.1,0,0,1,2.21-2.94,9.22,9.22,0,0,0,2-2.65c1.11-2.58-.47-5.62-2.52-7.5a27.58,27.58,0,0,0-3.61-2.67,22.89,22.89,0,0,1-8.1-8.17,30.32,30.32,0,0,0-4.18-5.21c-4.71-4.33-11.69-5-16.72-4.81-2.62.11-5.3.43-7.87.74a79.24,79.24,0,0,1-10.32.77l-2.12-.09c-.79,0-1.61-.09-2.41-.09Zm260.65,64.61c-1.11-1.18-2.89-5.43-1.74-7.44.35-.61,1.12-1.26,2.8-.87a4.35,4.35,0,0,1,1.67.95,4.16,4.16,0,0,0,1.12.73,4.44,4.44,0,0,0,1.7.15,4.87,4.87,0,0,1,2.17.26,2.75,2.75,0,0,1,1.42,1.59,3.61,3.61,0,0,1-.1,2.74,6.17,6.17,0,0,1-4.61,3.15,7,7,0,0,1-1,.08A4.57,4.57,0,0,1,374.91,352.64Zm-1-7c-.83,1.44.58,5.29,1.61,6.38a4,4,0,0,0,3.64,1,5.29,5.29,0,0,0,3.94-2.64,2.77,2.77,0,0,0,.08-2.06,1.82,1.82,0,0,0-1-1.08,3.94,3.94,0,0,0-1.77-.19,5,5,0,0,1-2-.21,4.82,4.82,0,0,1-1.36-.86,3.57,3.57,0,0,0-1.31-.78h0a3.66,3.66,0,0,0-.74-.1,1.08,1.08,0,0,0-1.08.55Zm-85.17-1c-3.42-2.73-5.58-6-7.87-9.54l-.43-.66a22.84,22.84,0,0,0-2.82-3.31,16.85,16.85,0,0,1-3.84-5.17,33.89,33.89,0,0,1-2-10.05l-1.6-16.43c-.51-5.2-1.51-10.34-5.36-12.68a15.29,15.29,0,0,0-6.06-1.67,16.85,16.85,0,0,1-6.29-1.72c-3-1.72-4.58-5-5.88-7.66-1.58-3.22-3.22-6.54-3.69-10.21a34.76,34.76,0,0,1-.1-5.68c.12-3.2.23-6.23-1.08-8.94-1.16-2.4-3.36-4.29-5.49-6.12-2.85-2.43-5.79-4.95-6.2-8.71-.28-2.57.75-4.95,1.74-7.26a21,21,0,0,0,1.65-4.92,13.17,13.17,0,0,0-2.58-9.35,28,28,0,0,0-2.89-3.36,22.26,22.26,0,0,1-3.58-4.45,28.3,28.3,0,0,0-3.63-5.37,16.42,16.42,0,0,0-2.67-2.4c-5.08-3.66-12-4.88-20.57-3.64-10.2,1.47-16.58-1.1-19.52-7.86-2.57-5.91-1.73-12.54-.92-19l.14-1c.85-6.79,1.14-13.8-2.43-19.13a33.48,33.48,0,0,0-2.94-3.56c-2-2.19-4.06-4.45-4.62-7.42-.83-4.36,1.81-8.25,4.37-12s5.07-7.45,4.12-11.48c-1.1-4.7-5.8-6.5-10.77-8.4a33.82,33.82,0,0,1-8.46-4.17c-3.66-2.82-5.43-7.85-4.62-13.12s4-9.52,8.35-11.11c3.78-1.39,8.16-1.22,12.4-1,6.21.24,12.07.47,15.25-4.18,2.52-3.69,1.64-8.23.7-13a51.42,51.42,0,0,1-.9-5.78c-.48-6.32,2.06-12.57,7.14-17.6A29,29,0,0,1,217,27.07c5.44.46,10.86,2.34,16.1,4.15,8.55,3,16.62,5.75,24.62,2.85a38.69,38.69,0,0,0,8.65-5c3.41-2.39,6.93-4.86,11.08-5.72,7.93-1.65,15.29,3,19.54,7.92,4.82,5.59,7.55,12.85,9.95,19.26,1.83,4.89,3.72,9.94,3.88,15.3.14,4.62-1.05,10.31-4.81,12.45-.95.54-1.85,1-2.73,1.38-2.77,1.3-5,2.32-6.36,5.88A12,12,0,0,0,298.5,97c1.78,2.35,4.46,4,7,5.7,3.59,2.28,7.29,4.64,8.57,8.74a19.67,19.67,0,0,1,.64,4.45c.16,2.36.31,4.58,1.73,6.22,1.64,1.9,4.38,2.25,7,2.59.57.07,1.14.14,1.69.23,7.23,1.13,14.28,5.61,21.54,13.69,1.84,2,3.63,4.21,5.35,6.3,3.65,4.42,7.43,9,11.9,12.67,2.2,1.81,4.62,3.44,7,5a59.46,59.46,0,0,1,10.41,8.21c4.6,4.9,7,11,6.54,16.65-.6,7.56-7.14,14-13.95,13.84-.79,0-1.66-.09-2.58-.17-3.2-.26-7.2-.59-9.09,1.26a4.94,4.94,0,0,0-1.18,4c0,.5.09,1,.15,1.5a9.54,9.54,0,0,1-2.82,9c-.33.42-.66.85-1,1.28-4.17,5.78-.44,11,3.18,16,.54.75,1.08,1.49,1.57,2.22a43.21,43.21,0,0,1,4.73,10.26c2,5.95,4.59,17.08-1.15,24.71-3.75,5-10,7-16.09,8.92-1.93.62-3.76,1.2-5.47,1.87a13.26,13.26,0,0,0-4.92,2.8c-1.83,1.92-2.23,4.45-2.67,7.13a20.32,20.32,0,0,1-1.37,5.36c-1.66,3.55-4.39,3.3-7,3.05a11.52,11.52,0,0,0-4.53.18c-3.38,1.05-4.85,5.36-4.34,8.92a28.46,28.46,0,0,0,2.38,7.07c.51,1.16,1,2.36,1.47,3.57,3.21,8.88,1.31,18.72-4.72,24.5A20.51,20.51,0,0,1,304.26,350a25,25,0,0,1-15.48-5.39ZM218.61,198.24a17.29,17.29,0,0,1,2.82,2.52,29.53,29.53,0,0,1,3.74,5.53,21.24,21.24,0,0,0,3.45,4.28,28.91,28.91,0,0,1,3,3.46,14.09,14.09,0,0,1,2.73,10,21.59,21.59,0,0,1-1.72,5.14c-1,2.3-1.92,4.48-1.67,6.81.38,3.42,3.05,5.71,5.89,8.14,2.2,1.88,4.47,3.83,5.71,6.4,1.41,2.91,1.29,6.19,1.18,9.36a34.17,34.17,0,0,0,.09,5.54c.45,3.52,2.05,6.77,3.6,9.92,1.25,2.54,2.8,5.71,5.53,7.29a15.92,15.92,0,0,0,6,1.6,16.32,16.32,0,0,1,6.41,1.8c4.18,2.54,5.25,7.92,5.78,13.35l1.6,16.43a33.14,33.14,0,0,0,1.95,9.8,16.13,16.13,0,0,0,3.66,4.89,23.55,23.55,0,0,1,2.93,3.45l.43.65c2.25,3.45,4.38,6.7,7.68,9.34,8.61,6.88,21.42,6.93,28.55.11,5.78-5.53,7.59-15,4.5-23.55-.43-1.18-.95-2.37-1.45-3.51a28.52,28.52,0,0,1-2.44-7.3c-.57-3.88,1-8.67,4.94-9.9a12.17,12.17,0,0,1,4.88-.22c2.65.25,4.74.44,6.13-2.54a19.27,19.27,0,0,0,1.3-5.12c.44-2.7.89-5.48,2.9-7.6a14,14,0,0,1,5.25-3c1.74-.68,3.58-1.26,5.52-1.88,5.93-1.9,12.07-3.86,15.65-8.61,5.7-7.58,2.61-19.23,1-23.89a42.7,42.7,0,0,0-4.62-10c-.49-.72-1-1.46-1.56-2.2-3.62-5-7.73-10.72-3.18-17,.32-.44.65-.88,1-1.31a8.69,8.69,0,0,0,2.63-8.32c-.06-.5-.12-1-.15-1.55a5.78,5.78,0,0,1,1.44-4.72c2.19-2.14,6.23-1.81,9.79-1.51.91.07,1.77.14,2.53.16h.26c6.29,0,12.22-6,12.77-13,.43-5.43-1.87-11.25-6.29-16a58.89,58.89,0,0,0-10.26-8.08c-2.36-1.59-4.8-3.24-7-5.07-4.54-3.74-8.35-8.34-12-12.8-1.72-2.08-3.5-4.23-5.33-6.26-7.12-7.93-14-12.31-21-13.41-.54-.09-1.1-.16-1.66-.23-2.81-.36-5.73-.73-7.6-2.88-1.62-1.87-1.78-4.35-1.94-6.75a18.55,18.55,0,0,0-.61-4.25c-1.18-3.79-4.58-6-8.19-8.25-2.65-1.69-5.4-3.43-7.28-5.91a13,13,0,0,1-1.7-12.3c1.53-3.89,4-5,6.82-6.37.86-.4,1.75-.82,2.67-1.34,3.41-2,4.48-7.49,4.36-11.64-.16-5.22-2-10.2-3.83-15-2.49-6.65-5.07-13.53-9.79-19-5.13-5.93-12.46-8.93-18.68-7.64-4,.82-7.27,3.13-10.76,5.58A38.86,38.86,0,0,1,258,34.91c-8.3,3-16.9,0-25.22-2.85-5.18-1.79-10.55-3.65-15.88-4.1a28.06,28.06,0,0,0-21.48,8.12c-4.89,4.84-7.33,10.84-6.87,16.9a51.78,51.78,0,0,0,.88,5.67c.93,4.77,1.89,9.71-.84,13.7-3.46,5.06-9.56,4.82-16,4.57-4.16-.16-8.45-.33-12.07,1-4,1.48-7,5.47-7.77,10.41S153.63,98,157,100.6a32.82,32.82,0,0,0,8.23,4.05c5,1.9,10.12,3.87,11.33,9,1,4.41-1.66,8.36-4.26,12.18s-5,7.34-4.23,11.34c.52,2.72,2.41,4.8,4.41,7a31.15,31.15,0,0,1,3,3.66c3.74,5.57,3.45,12.77,2.58,19.73l-.13,1c-.8,6.29-1.63,12.79.85,18.48,2.75,6.33,8.82,8.73,18.57,7.32a45.42,45.42,0,0,1,6.28-.47C209.64,194,214.65,195.39,218.61,198.24ZM303,342.33c-2.15-1.78-3.52-4.27-4.84-6.66l-.14-.27c-1.39-2.51-2.81-4.9-5-6.43a18.58,18.58,0,0,0-2.91-1.58,16.31,16.31,0,0,1-3.67-2.16c-3.24-2.76-3.27-7.87-1.43-11a5.82,5.82,0,0,1,7.45-2.74,38.11,38.11,0,0,1,4.22,1.91,25.87,25.87,0,0,0,6.23,2.5l1.07.23c3.64.79,7.41,1.62,10,4.58,3.5,4.05,2.76,10,1.58,15.36-.64,2.88-1.54,6.09-4.22,7.59a5.91,5.91,0,0,1-2.93.74A8.76,8.76,0,0,1,303,342.33Zm-17.21-27.68c-1.65,2.85-1.65,7.44,1.24,9.9a15,15,0,0,0,3.48,2,20.83,20.83,0,0,1,3,1.66c2.33,1.64,3.81,4.12,5.25,6.74l.14.26c1.28,2.33,2.6,4.73,4.63,6.4,1.84,1.53,4.92,2.56,7.3,1.22s3.19-4.31,3.79-7c1.13-5.1,1.86-10.82-1.38-14.58-2.36-2.74-6-3.52-9.48-4.29l-1.08-.23a27.26,27.26,0,0,1-6.43-2.57,39.18,39.18,0,0,0-4.12-1.88,5.9,5.9,0,0,0-2-.38,5.12,5.12,0,0,0-4.34,2.73Zm-155,28.28-13.16-2.13c-3-.48-5.79-1.08-7.65-3.13-2.83-3.12-2-7.92-.21-11.37.53-1,1.1-2,1.66-3,2.23-3.88,4.33-7.54,2.55-12a30.6,30.6,0,0,0-1.91-3.74c-1.87-3.33-3.81-6.76-2.55-10.59,1.65-5,8.22-6.56,13.37-5.18a40.71,40.71,0,0,1,7.05,2.87,39.5,39.5,0,0,0,6.9,2.82,39.7,39.7,0,0,0,9,.95c1.34,0,2.73.07,4.09.17,5.67.42,9.83,2.09,12.37,5a10.44,10.44,0,0,1,2.18,8.07,5.18,5.18,0,0,1-2.66,3.86,8.26,8.26,0,0,1-3.07.63,8.78,8.78,0,0,0-2.82.51,16.74,16.74,0,0,0-5.86,4.87,31.49,31.49,0,0,0-5.52,10.14c-.17.54-.34,1.11-.52,1.67-1.1,3.63-2.35,7.75-5.92,9.35a8.49,8.49,0,0,1-3.52.67,23.47,23.47,0,0,1-3.83-.4Zm-20.32-45.66c-1.12,3.41.7,6.65,2.47,9.79a32.58,32.58,0,0,1,2,3.86c2,4.92-.26,8.79-2.62,12.88-.55,1-1.12,1.95-1.63,2.95-1.53,3-2.43,7.5.06,10.25,1.64,1.81,4.28,2.37,7.07,2.82L130.94,342c2.08.33,4.66.75,6.78-.2,3.16-1.42,4.29-5.14,5.38-8.73.17-.57.34-1.14.52-1.69a32.4,32.4,0,0,1,5.7-10.46,17.56,17.56,0,0,1,6.23-5.15,9.67,9.67,0,0,1,3.15-.6,7.42,7.42,0,0,0,2.68-.51,4.32,4.32,0,0,0,2.15-3.16,9.42,9.42,0,0,0-1.95-7.23c-2.36-2.68-6.3-4.24-11.7-4.63-1.34-.1-2.71-.14-4-.18a40.67,40.67,0,0,1-9.27-1,41,41,0,0,1-7.07-2.88,39.81,39.81,0,0,0-6.87-2.81,13.46,13.46,0,0,0-3.46-.45c-3.83,0-7.6,1.6-8.71,5Zm327.82,30.25a5.84,5.84,0,0,1-3-3.65,20.51,20.51,0,0,1-.6-2.09,18.21,18.21,0,0,0-.66-2.26c-1.29-3.32-3.82-5.57-6.27-7.74-3-2.69-6.15-5.46-7-10.24-.27-1.46-.42-3-.56-4.39a33.05,33.05,0,0,0-1.16-6.78c-1.94-6.07-7.75-11-14.8-12.62-21.09-4.77-36.75,11.32-50.54,29.42-.87,1.13-1.77,2.43-2.71,3.8-3.13,4.52-6.67,9.64-11.11,11.85A8.56,8.56,0,0,1,332,323c-1.86-1-3-3-3.15-5.73-.22-3.57,1.28-7.35,3.57-9a12.59,12.59,0,0,1,3.25-1.49,10.63,10.63,0,0,0,3.26-1.55c2.11-1.7,2.4-4.5,2.7-7.46a16.78,16.78,0,0,1,1.6-6.64c2-3.57,6.11-4.77,10.07-5.92,1.36-.4,2.77-.81,4.05-1.32,7.88-3.08,13.66-11.29,14.72-20.91.88-7.95-1.29-16.91-6.27-25.92l-.47-.84a24.13,24.13,0,0,1-2.58-5.72,7.9,7.9,0,0,1,1.29-7.16,12.1,12.1,0,0,1,1.6-1.43,4.11,4.11,0,0,0,2-5.31,9.23,9.23,0,0,1-.29-2.4c.16-3,3.17-5.07,5.9-5.66a24.1,24.1,0,0,1,4.48-.42,28.81,28.81,0,0,0,3.71-.28c8.58-1.43,13.58-10.72,13.3-18.52a26.08,26.08,0,0,0-10.58-20.49c-1.55-1.14-3.09-2.27-4.62-3.37-9.75-7.1-19-13.81-26.78-23.72-1.24-1.58-2.42-3.31-3.57-5-3.58-5.23-7.29-10.63-13.51-12.7-1-.34-2.06-.62-3.17-.93-3.86-1-7.85-2.13-10.31-5.52a18.12,18.12,0,0,1-2.42-5.73,20.68,20.68,0,0,0-1.84-4.82c-1.34-2.24-3.53-3.87-5.64-5.45-.56-.42-1.13-.84-1.67-1.27-5.32-4.18-6.4-9.24-3.22-15a24.92,24.92,0,0,1,5-5.87A25.51,25.51,0,0,0,317.17,74c2.62-4.54,1.61-9.82.55-15.42-1-5.16-2-10.5.1-15.24,3.38-7.66,13.08-9.81,20.67-8.58a68.93,68.93,0,0,1,12.8,3.87,86.28,86.28,0,0,0,9.63,3.21A44.54,44.54,0,0,0,404.3,28.18a87.93,87.93,0,0,0,6.3-8.55,76,76,0,0,1,7.69-10.08c4.93-5.13,13.5-9.94,21.4-6.6,4.48,1.89,7.43,5.93,10.29,9.83,2.65,3.63,5.4,7.38,9.33,9.32,4.24,2.09,11.27.55,16.43-1.59,1.52-.63,3-1.4,4.47-2.14s3.05-1.56,4.65-2.22c3.83-1.57,7.25-1.93,10.15-1.1,3.7,1.07,6.37,4.4,6.2,7.75-.18,3.93-3.65,6.56-6.71,8.88l-1.29,1c-7,5.51-11.71,13.9-11.91,21.36-.19,7,2.17,13.85,4.46,20.5.85,2.5,1.74,5.08,2.46,7.6,3.17,11-.86,20-10.26,22.87a22.54,22.54,0,0,1-7.54.64,34.55,34.55,0,0,0-4.88.1c-5.22.59-9.27,4.08-13.18,7.46l-.22.18a51.1,51.1,0,0,1-11.07,7.52c-3.71,1.78-7.81,1.73-11.78,1.68-1.06,0-2.16,0-3.22,0-2.5.06-10.82.71-12.89,6.68-1,3-.05,6.08,1,9.34a24.84,24.84,0,0,1,1.52,7A23.17,23.17,0,0,1,414,153.4a22.87,22.87,0,0,0-1.63,7.43,22.44,22.44,0,0,0,1.94,7.77,36.1,36.1,0,0,1,1.62,4.94c1.83,8-1.89,14.92-5.49,21.59l-.64,1.19c-4.16,7.73-8.61,17-10.2,27-2.75,17.39,3.65,36.41,15.54,46.27h0l-.29.33.29-.33a84.84,84.84,0,0,0,48.89,19.3l1.24.06c3.39.14,7.61.32,10,2.91,1.61,1.75,1.92,4,2.22,6.24a14.2,14.2,0,0,0,1,4.25,10.05,10.05,0,0,0,1.4,2,9.05,9.05,0,0,1,1.78,2.94,6.37,6.37,0,0,1-.77,5.12c-2.36,4.1-8.1,7.13-11.25,7.88a39.08,39.08,0,0,1-9,.74c-4.84,0-9.4.06-13.46,2.74-.61.4-1.2.88-1.77,1.34a24,24,0,0,1-2.16,1.59,6.61,6.61,0,0,1-3.45,1.07,4,4,0,0,1-1.61-.3Zm-33.94-50.63c7.36,1.66,13.42,6.84,15.46,13.21a33.45,33.45,0,0,1,1.19,7c.14,1.42.29,2.9.55,4.32.83,4.48,3.7,7,6.74,9.73,2.54,2.25,5.15,4.57,6.52,8.09a22.15,22.15,0,0,1,.7,2.37,20.52,20.52,0,0,0,.56,2,5.2,5.2,0,0,0,2.55,3.13,4.87,4.87,0,0,0,4.26-.72,19.19,19.19,0,0,0,2.06-1.52c.59-.47,1.19-1,1.84-1.39,4.28-2.82,9.2-2.86,13.94-2.88a39.12,39.12,0,0,0,8.77-.72c3.11-.74,8.55-3.76,10.68-7.46a5.47,5.47,0,0,0,.69-4.42,8.21,8.21,0,0,0-1.63-2.64,11.87,11.87,0,0,1-1.5-2.2,15,15,0,0,1-1.09-4.51c-.3-2.17-.58-4.22-2-5.76-2.13-2.32-6.15-2.49-9.37-2.63l-1.26-.06a85.67,85.67,0,0,1-49.4-19.5h0c-12.13-10-18.65-29.41-15.85-47.1,1.6-10.15,6.1-19.49,10.29-27.3l.64-1.19c3.52-6.52,7.16-13.26,5.41-21a38.79,38.79,0,0,0-1.58-4.82,23.31,23.31,0,0,1-2-8.08,23.59,23.59,0,0,1,1.68-7.73,22.63,22.63,0,0,0,1.63-7.52,23.86,23.86,0,0,0-1.48-6.72c-1-3.26-2.12-6.62-1-9.9,2.25-6.52,11.06-7.22,13.71-7.28,1.07,0,2.18,0,3.25,0,3.86,0,7.86.1,11.38-1.59a50.55,50.55,0,0,0,10.88-7.39l.22-.18c4-3.47,8.17-7,13.66-7.68a36.41,36.41,0,0,1,5-.1,21.61,21.61,0,0,0,7.25-.6c10.79-3.28,12.07-13.4,9.66-21.77-.71-2.5-1.6-5.07-2.45-7.56-2.31-6.73-4.69-13.69-4.5-20.82.21-7.72,5-16.37,12.26-22l1.3-1c3-2.31,6.2-4.7,6.36-8.22.16-3.35-2.75-6-5.56-6.84s-5.92-.43-9.57,1.06c-1.56.64-3.1,1.43-4.58,2.19s-3,1.53-4.54,2.17c-5.34,2.21-12.65,3.78-17.16,1.57-4.13-2-6.94-5.88-9.66-9.6-2.91-4-5.66-7.74-9.91-9.54-7-3-15.3,1.08-20.41,6.4a74.88,74.88,0,0,0-7.6,10A86.86,86.86,0,0,1,405,28.74a45.42,45.42,0,0,1-44.27,14A90.15,90.15,0,0,1,351,39.48a67.37,67.37,0,0,0-12.63-3.83c-7.26-1.18-16.52.84-19.71,8.05-2,4.49-1,9.69,0,14.72,1.05,5.51,2.13,11.2-.65,16A26.28,26.28,0,0,1,313,80.11a23.8,23.8,0,0,0-4.85,5.64c-3,5.44-2,10,3,13.91.54.43,1.1.84,1.65,1.26,2.19,1.63,4.45,3.32,5.87,5.71a20.88,20.88,0,0,1,1.94,5,17.2,17.2,0,0,0,2.28,5.45c2.28,3.14,6.12,4.18,9.83,5.19,1.07.29,2.18.59,3.21.94,6.51,2.16,10.3,7.7,14,13,1.14,1.66,2.31,3.38,3.54,4.93,7.73,9.82,16.9,16.49,26.6,23.55l4.62,3.38a27,27,0,0,1,10.94,21.17c.3,8.18-5,17.93-14,19.44a28.91,28.91,0,0,1-3.83.29,24.22,24.22,0,0,0-4.33.4c-2.4.52-5.05,2.26-5.2,4.84a8.39,8.39,0,0,0,.28,2.17,4.94,4.94,0,0,1-2.31,6.19,11,11,0,0,0-1.48,1.33,7,7,0,0,0-1.1,6.35,23.7,23.7,0,0,0,2.49,5.5c.16.28.32.56.47.85,5.08,9.17,7.28,18.32,6.38,26.44-1.1,10-7.1,18.45-15.28,21.65-1.32.52-2.75.94-4.13,1.34-4,1.16-7.69,2.25-9.54,5.51a15.94,15.94,0,0,0-1.49,6.29c-.31,3-.64,6.13-3,8.06a10.94,10.94,0,0,1-3.52,1.7,12,12,0,0,0-3,1.38c-2,1.44-3.4,5-3.2,8.2.08,1.37.55,3.85,2.68,5a7.78,7.78,0,0,0,7-.2c4.23-2.1,7.7-7.13,10.77-11.56,1-1.38,1.85-2.68,2.73-3.84,12.27-16.09,26-30.61,43.8-30.61A34,34,0,0,1,404.34,276.89Zm34.26,38.47a6.73,6.73,0,0,1-2.29-4,9.94,9.94,0,0,0-.82-2.29,11.31,11.31,0,0,0-2.79-2.94,21.33,21.33,0,0,1-2-1.88h0c-3.13-3.54-6-13.17-3.34-16.42,1.4-1.69,3.88-1.5,7.39.58a36,36,0,0,1,3.13,2.21,21.61,21.61,0,0,0,4.46,2.87c3.2,1.39,6.52.76,10,.09a24.19,24.19,0,0,1,7.77-.63c3.28.46,7,2.56,8,6.22a12.19,12.19,0,0,1,.27,1.31,6.08,6.08,0,0,0,2,4,12.47,12.47,0,0,1,1.29,1.61c1.44,2.23,1.77,4.14,1,5.67-1.66,3.2-7.66,3.8-12,4-1.4,0-2.87,0-4.3,0a52.06,52.06,0,0,0-8.91.5l-1.45.29a15,15,0,0,1-3.13.45A6.5,6.5,0,0,1,438.6,315.36Zm-10.59-27c-2.32,2.8.45,12,3.32,15.26a18.19,18.19,0,0,0,1.94,1.78,12.18,12.18,0,0,1,3,3.2,11.07,11.07,0,0,1,.9,2.49,5.77,5.77,0,0,0,2,3.54c2.37,1.93,4.18,1.55,6.68,1,.48-.1,1-.2,1.48-.29a52.85,52.85,0,0,1,9.07-.51c1.41,0,2.88,0,4.26-.06,2.39-.1,9.65-.38,11.26-3.49.64-1.22.32-2.83-.93-4.77a12.41,12.41,0,0,0-1.21-1.5,6.87,6.87,0,0,1-2.23-4.44c-.08-.43-.15-.83-.25-1.23-.9-3.26-4.32-5.15-7.3-5.57a23.89,23.89,0,0,0-7.49.62c-3.5.67-7.11,1.36-10.56-.14a23.07,23.07,0,0,1-4.64-3,33.56,33.56,0,0,0-3.05-2.15,9.58,9.58,0,0,0-4.38-1.58A2.28,2.28,0,0,0,428,288.39ZM146.67,311.05c-1.47-.49-3.32-1.46-3.88-3.31a3.88,3.88,0,0,1,.6-3.38,6.84,6.84,0,0,1,4.8-2.72c2.59-.19,5.72,1.92,7.32,4,.94,1.22,1.68,3.14.67,4.59a4.11,4.11,0,0,1-3,1.47,14.09,14.09,0,0,1-1.84.11A14.43,14.43,0,0,1,146.67,311.05Zm1.6-8.42a5.81,5.81,0,0,0-4.05,2.3,2.91,2.91,0,0,0-.47,2.52c.43,1.44,2,2.24,3.24,2.66a13.49,13.49,0,0,0,6,.6,3.19,3.19,0,0,0,2.33-1c.7-1,.09-2.46-.64-3.4-1.41-1.83-4.07-3.63-6.2-3.63h-.26Zm311.1,7.82-.5-.13a18.68,18.68,0,0,0-7.33-.4c-.69.1-1.39.25-2.06.38a21.34,21.34,0,0,1-3.81.55,6.74,6.74,0,0,1-5.73-2.36h0a9.11,9.11,0,0,1-1.36-4.27,10,10,0,0,0-.84-3.26,5.63,5.63,0,0,0-.88-1.07c-.8-.85-1.91-2-1.12-3.44,1-1.84,5.21-.3,11.5,2.27a30.79,30.79,0,0,0,5.33,1.91c1,.1,2,.12,3,.13a27.13,27.13,0,0,1,4.22.29c3,.53,5.28,2.15,6.09,4.34a4.25,4.25,0,0,1-1.55,5.09,3.94,3.94,0,0,1-2,.51,11.45,11.45,0,0,1-3-.54Zm-.2-1.28.5.14c1.45.39,2.95.8,4.08.14a3.1,3.1,0,0,0,1-3.66c-.66-1.78-2.6-3.12-5.18-3.57a24.66,24.66,0,0,0-4-.27c-1,0-2.07,0-3.12-.14a30,30,0,0,1-5.66-2c-2.82-1.15-9.42-3.85-10-2.8-.33.6.05,1.11.94,2.05a6,6,0,0,1,1.07,1.34,10.73,10.73,0,0,1,1,3.64,8.23,8.23,0,0,0,1.15,3.74,5.61,5.61,0,0,0,4.74,1.88,21,21,0,0,0,3.6-.53c.69-.14,1.4-.29,2.12-.39a19.29,19.29,0,0,1,2.84-.21,19.8,19.8,0,0,1,5,.63ZM273.92,288.72a25.42,25.42,0,0,1-3.11-5.4c-1.16-2.46-2.26-4.79-4.22-6.45-1.63-1.39-3.95-2.22-6.41-3.09-4.14-1.47-8.43-3-9.6-7.51-.63-2.47-.18-5,.26-7.47.38-2.11.85-4.74.19-7.07-.92-3.26-3.79-5.52-6.56-7.7l-1.28-1c-2.51-2-6.55-6.13-5.42-10.73A14,14,0,0,1,240,228c1.23-1.82,2.39-3.53,2-5.48a8.37,8.37,0,0,0-2.24-3.7l-.12-.14c-6-6.91-9.83-13.54-11.46-19.72a20.09,20.09,0,0,0-12.89-13.64,31.25,31.25,0,0,0-8.61-1c-1.35,0-2.75-.06-4.11-.17-3.19-.25-8.91-1.35-11.41-5.82-2-3.63-1.12-7.79-.24-11.82.74-3.39,1.5-6.9.53-10.06-1.21-3.92-4.81-6.54-8.3-9.08-3.77-2.74-7.66-5.57-8.67-10.09-1.11-4.94,1.74-9.41,4.49-13.74,2.54-4,5.17-8.12,4.62-12.56-.42-3.29-3-6.34-5.52-9.29-4-4.75-8.22-9.66-3.32-15.7,3.32-4.09,8.37-5.61,13.25-7.08,5.45-1.64,10.6-3.19,13.51-8,1.77-2.93,2.06-6.63,2.34-10.2.35-4.44.71-9,4-12.13,5.58-5.29,12.77-2.65,19.13-.33a52.82,52.82,0,0,0,5.46,1.8c8,2,15.11-.14,22.68-2.4,2.23-.66,4.53-1.34,6.84-1.91,9.17-2.26,23.63-.88,27.08,9.25,2.05,6.06-1.06,12.43-3.81,18l-.28.57c-3.85,7.89-4.32,13.72-1.46,17.8,2.13,3,5.86,4.52,9.46,6,4,1.59,8.12,3.23,10.19,7,1.91,3.46,1.42,7.59.94,11.57-.51,4.3-1,8.37,1.34,11.56,3.14,4.29,8,4.66,13.22,5,4,.3,8.2.62,11.53,2.91a48.38,48.38,0,0,1,7.88,7.39c.71.78,1.42,1.55,2.14,2.3,4.28,4.49,9,7.73,14,11.16,2.21,1.52,4.49,3.08,6.72,4.76,6.23,4.67,13.82,14.31,9.23,21.75-1.67,2.7-4.34,4.71-6.93,6.66-3.72,2.79-7.23,5.43-8.07,9.95a18.72,18.72,0,0,0,.18,5.69c.32,2.36.64,4.8-.15,7.1a15.26,15.26,0,0,1-2.43,4.09,16.35,16.35,0,0,0-2.18,3.49c-2.7,6.67,1.4,11.75,5.37,16.66a54,54,0,0,1,3.89,5.25c5.8,9.39,5.84,18.43.11,25.48-6.51,8-16.87,9.84-22.46,10.24l-1.38.08c-2.8.16-5.71.33-8,1.77s-3.93,4.25-5.37,6.9c-1.67,3.07-3.4,6.25-6.66,7.61s-6.82.3-10.21-.74c-2.55-.78-5.19-1.6-7.75-1.36a19.18,19.18,0,0,0-5.39,1.62,22.54,22.54,0,0,1-5,1.6,11.45,11.45,0,0,1-1.85.15C281,295.07,276.56,291.93,273.92,288.72ZM208.48,49.23c-3,2.86-3.34,7.08-3.7,11.56-.29,3.68-.58,7.48-2.46,10.59-3.09,5.12-8.64,6.79-14,8.4-4.75,1.43-9.67,2.91-12.82,6.79-4.43,5.46-.67,9.88,3.31,14.56,2.6,3.05,5.28,6.2,5.72,9.76.6,4.75-2.12,9-4.75,13.14-2.77,4.37-5.4,8.49-4.37,13.07.94,4.19,4.53,6.8,8.33,9.57,3.6,2.62,7.32,5.33,8.62,9.53,1,3.39.26,7-.51,10.51-.88,4-1.71,7.87.15,11.19,2.3,4.11,7.69,5.13,10.7,5.38,1.34.11,2.72.13,4.06.16a32.3,32.3,0,0,1,8.86,1,21,21,0,0,1,13.48,14.26c1.6,6.05,5.39,12.56,11.27,19.37l.12.14a8.9,8.9,0,0,1,2.44,4.13c.4,2.3-.91,4.25-2.18,6.13a13.08,13.08,0,0,0-2.09,4c-1,4.13,2.76,7.93,5.1,9.83l1.28,1c2.88,2.27,5.87,4.62,6.87,8.16.71,2.53.22,5.28-.17,7.48-.43,2.36-.86,4.8-.27,7.09,1.05,4.06,5.11,5.5,9,6.89,2.42.86,4.93,1.75,6.69,3.25,2.1,1.79,3.29,4.31,4.44,6.75a25,25,0,0,0,3,5.21c2.8,3.41,7.7,6.75,13,5.89a22,22,0,0,0,4.75-1.55,20.23,20.23,0,0,1,5.65-1.68c2.73-.25,5.46.59,8.1,1.4,3.38,1,6.58,2,9.6.77s4.55-4.14,6.22-7.21c1.49-2.75,3-5.59,5.68-7.23s5.53-1.74,8.45-1.9l1.37-.08c5.45-.38,15.54-2.18,21.83-9.92,7.38-9.07,3.06-19.21-.18-24.44a52.1,52.1,0,0,0-3.82-5.16c-4.13-5.11-8.39-10.4-5.5-17.55a17.14,17.14,0,0,1,2.28-3.7,14.4,14.4,0,0,0,2.3-3.84c.73-2.1.43-4.33.11-6.69a19,19,0,0,1-.17-6c.9-4.86,4.72-7.72,8.41-10.5,2.52-1.89,5.13-3.85,6.71-6.41,4.27-6.93-3.05-16.1-9-20.57-2.22-1.66-4.5-3.22-6.7-4.73-5.05-3.46-9.83-6.73-14.17-11.28-.72-.76-1.44-1.54-2.15-2.32a47.9,47.9,0,0,0-7.74-7.25c-3.13-2.16-7.17-2.47-11.08-2.76-5.16-.39-10.5-.79-13.88-5.41-2.54-3.47-2-7.9-1.5-12.19.46-3.85.94-7.83-.83-11-1.92-3.49-5.72-5-9.74-6.6-3.73-1.49-7.58-3-9.86-6.28-3.07-4.37-2.62-10.5,1.39-18.7l.27-.57c2.67-5.47,5.7-11.67,3.77-17.37-3.23-9.5-17.44-10.8-26-8.68-2.29.56-4.58,1.25-6.8,1.91-7.69,2.29-15,4.45-23.15,2.41a57.42,57.42,0,0,1-5.56-1.84c-3.52-1.29-7.32-2.68-10.9-2.68A10.17,10.17,0,0,0,208.48,49.23Zm92,232.61a36.5,36.5,0,0,1-4.26-2.09,30.16,30.16,0,0,0-5-2.34,30.64,30.64,0,0,0-3.07-.78c-2.46-.55-5-1.12-6.9-2.9a13.87,13.87,0,0,1-2.88-4.73c-.35-.8-.71-1.62-1.13-2.37-2-3.66-5.72-6.13-9-8.32s-7.2-4.84-9.4-8.65-2.44-9.24,1.12-12.34a14.53,14.53,0,0,1,3.35-2,13.15,13.15,0,0,0,3.07-1.8c3.42-3,2.58-8.77-.32-12.11-1.93-2.23-4.3-3.27-6.82-4.37a30.7,30.7,0,0,1-4.51-2.27,62.22,62.22,0,0,1-6.7-5.31c-.9-.78-1.74-1.52-2.59-2.22a128.75,128.75,0,0,1-19-19.6c-3-3.84-6.27-8.48-7.86-13.82-1.52-5.14-.88-9.27,2.16-13.83.5-.75,1.09-1.49,1.66-2.21,1.6-2,3.12-3.93,2.95-6.22a4.35,4.35,0,0,0-2.15-3.46c-2.35-1.52-6.38-1.75-9.57-.57-4.48,1.67-10.3,3.36-15.57,1.69-6.13-2-8.12-10-6.12-16.35a44.25,44.25,0,0,1,4.9-9.68,62.61,62.61,0,0,0,3.74-6.7c2.39-5.29,2.85-12.64-1.8-16.3a20.88,20.88,0,0,0-6.22-2.84c-3.51-1.17-7.15-2.38-8.38-6-1.68-4.85,2.9-9.54,8.06-11.48,1-.39,2.12-.74,3.18-1.08,3.57-1.16,7.27-2.35,9.41-5.25,1.45-2,2-4.52,2.55-7,.63-2.89,1.28-5.88,3.34-8.1,4.59-4.93,12.62-2.69,15.86-1.5.9.34,1.81.69,2.72,1.06,4.1,1.62,8.34,3.3,12.55,2.51,3.63-.68,6.54-3,9.61-5.5,1.18-.94,2.39-1.92,3.64-2.78,5.92-4.11,17.41-4.16,22.36,1.64,2.45,2.86,3.23,7.2,2.15,11.89a64.76,64.76,0,0,1-3.5,10c-1.9,4.61-3.87,9.38-4.1,14.5a9.31,9.31,0,0,0,2.61,7.4,7.29,7.29,0,0,0,3.37,1.72,17.55,17.55,0,0,0,3,.34c.53,0,1,.06,1.57.11,6.84.68,12.9,5.17,16.21,12,1.39,2.86.89,6.21.4,8.49-.14.65-.3,1.31-.46,2a24.07,24.07,0,0,0-.94,6c.08,4.42,2.58,6.74,7.64,7.08,1.51.11,3.07.17,4.57.22,5.62.21,11.43.42,16.48,3.06,3.9,2,6.91,5.3,9.82,8.46a64.11,64.11,0,0,0,5.4,5.41,63.74,63.74,0,0,0,7,5,63.41,63.41,0,0,1,7.15,5c4.22,3.6,8.21,9.61,6.73,15.72-.93,3.85-3.77,6.74-6.51,9.55s-5.34,5.46-6.2,9a20.41,20.41,0,0,0-.25,5.94,30.34,30.34,0,0,1,0,4.67,28.85,28.85,0,0,1-1.86,6.76,38.13,38.13,0,0,0-1.54,4.9c-1.21,5.66.17,11.87,4.34,19.53a32,32,0,0,0,2.26,3.37c2.79,3.81,6.25,8.55,1.67,12.93-1.8,1.72-3.95,1.73-6,1.74a20.89,20.89,0,0,0-2.37.11c-3.63.49-5.76,3.2-7.36,5.8l-.42.69c-1.74,2.85-3.54,5.79-6.67,7-2.42.94-5.12.61-7.72.29-3.13-.38-6.07-.75-8.18,1.11a10.27,10.27,0,0,0-2.46,4.37,12.34,12.34,0,0,1-2.52,4.62,7.61,7.61,0,0,1-5.53,2.08,13.26,13.26,0,0,1-4.78-1ZM223.92,147.1a5.58,5.58,0,0,1,2.69,4.38c.2,2.75-1.53,4.94-3.21,7.05-.55.69-1.12,1.41-1.6,2.13-2.85,4.29-3.44,8-2,12.83,1.53,5.15,4.73,9.67,7.66,13.42a126.38,126.38,0,0,0,18.86,19.41l2.61,2.24a58.82,58.82,0,0,0,6.56,5.21,32.07,32.07,0,0,0,4.34,2.19c2.53,1.1,5.14,2.24,7.24,4.67,3.27,3.77,4.16,10.36.2,13.79a13.89,13.89,0,0,1-3.34,2,13.19,13.19,0,0,0-3.07,1.81c-3,2.59-2.78,7.55-.88,10.85,2.06,3.57,5.77,6.06,9,8.26s7.15,4.82,9.33,8.73a26.55,26.55,0,0,1,1.18,2.47,12.84,12.84,0,0,0,2.61,4.34c1.65,1.56,3.93,2.07,6.34,2.6,1,.24,2.14.48,3.17.82a31,31,0,0,1,5.19,2.43,37.39,37.39,0,0,0,4.12,2c2.71,1.07,6.7,1.48,9-.86a11.36,11.36,0,0,0,2.25-4.19,11.3,11.3,0,0,1,2.78-4.85c2.51-2.21,5.87-1.8,9.11-1.4,2.46.3,5,.61,7.15-.22,2.76-1.07,4.45-3.84,6.08-6.51l.43-.7c1.65-2.66,4.07-5.8,8.21-6.35a21.33,21.33,0,0,1,2.53-.12c1.93,0,3.75,0,5.21-1.42,3.83-3.65,1-7.57-1.8-11.35a33.11,33.11,0,0,1-2.36-3.51c-2.71-5-6.13-12.53-4.45-20.35a39.05,39.05,0,0,1,1.59-5.06,27.51,27.51,0,0,0,1.79-6.47,28,28,0,0,0,0-4.49,21.35,21.35,0,0,1,.28-6.28c.94-3.84,3.77-6.74,6.51-9.53s5.34-5.47,6.2-9c1.35-5.59-2.39-11.17-6.35-14.54a62.2,62.2,0,0,0-7-4.93,64.2,64.2,0,0,1-7.17-5,66.5,66.5,0,0,1-5.5-5.51c-3-3.23-5.79-6.28-9.5-8.22-4.81-2.51-10.48-2.72-16-2.92-1.52-.06-3.09-.11-4.61-.22-5.64-.39-8.66-3.24-8.75-8.25a24.64,24.64,0,0,1,1-6.32c.15-.65.31-1.29.45-1.94.46-2.1.92-5.18-.31-7.71-3.17-6.56-8.73-10.7-15.25-11.35L281,101a20,20,0,0,1-3.18-.37,8.56,8.56,0,0,1-3.9-2,10.49,10.49,0,0,1-3-8.33c.25-5.33,2.25-10.2,4.19-14.9a64.93,64.93,0,0,0,3.44-9.85c1-4.32.31-8.27-1.89-10.85-4.58-5.36-15.26-5.27-20.78-1.44-1.21.84-2.41,1.8-3.57,2.74-3.06,2.46-6.21,5-10.14,5.74-4.54.86-9-.89-13.2-2.58-.9-.36-1.8-.71-2.7-1-3-1.11-10.47-3.22-14.58,1.19-1.84,2-2.43,4.68-3,7.54-.57,2.59-1.15,5.28-2.75,7.45-2.37,3.21-6.26,4.46-10,5.67-1,.33-2.11.68-3.12,1.06-4,1.5-8.88,5.58-7.35,10,1,3,4.24,4.08,7.63,5.21a21.26,21.26,0,0,1,6.57,3c5.16,4,4.73,12,2.15,17.72a64.25,64.25,0,0,1-3.81,6.83,43.18,43.18,0,0,0-4.78,9.41c-1.82,5.77-.11,13.12,5.35,14.86,4.92,1.56,10.49-.07,14.79-1.67a13.56,13.56,0,0,1,4.76-.83,11,11,0,0,1,5.87,1.52ZM382.14,273.24a6.05,6.05,0,0,1-4.34-2.9,8,8,0,0,1-.77-6.6c4.4-10.68-.21-20.67-4.72-28.17-.47-.85-2.74-5.17-1.72-7.89a12,12,0,0,1,2.36-3.49l.29-.33a8.14,8.14,0,0,0,2.1-3.68,9.48,9.48,0,0,0,.08-1.6,6.68,6.68,0,0,1,.33-2.59c.85-2.08,3.33-2.77,5.11-3.11a17,17,0,0,0,3.82-1.64c2.68-1.37,5.71-2.93,7.84-1.87a10.72,10.72,0,0,1,3.77,3.77l0,.05a12.58,12.58,0,0,1,0,6.83l0,.06c-3.85,7.69-7.48,19-3,29.35.3.59.6,1.36.9,2.1s.59,1.47.88,2.05a22,22,0,0,0,4,5.15,32.16,32.16,0,0,1,3.66,4.32,7.17,7.17,0,0,1,.81,4,3.9,3.9,0,0,1-2.18,3.16l-.11,0a22.77,22.77,0,0,1-6.06.14c-1-.06-2-.13-2.95-.13a10.35,10.35,0,0,0-4.5,1.49,11,11,0,0,1-4.79,1.55A5.26,5.26,0,0,1,382.14,273.24ZM385.08,212a17.44,17.44,0,0,1-4.05,1.72c-1.58.3-3.76.9-4.45,2.57a5.74,5.74,0,0,0-.27,2.25,10.33,10.33,0,0,1-.09,1.76,8.91,8.91,0,0,1-2.3,4.1l-.29.34a11.23,11.23,0,0,0-2.2,3.22c-.69,1.82.47,5,1.66,7.13,4.6,7.67,9.32,17.91,4.78,28.93a7.07,7.07,0,0,0,.69,5.81,5.15,5.15,0,0,0,3.72,2.5c1.77.29,3.41-.53,5.14-1.4a10.94,10.94,0,0,1,4.9-1.58c1,0,2,.06,3,.13a22.74,22.74,0,0,0,5.77-.11,3.1,3.1,0,0,0,1.64-2.46,6.28,6.28,0,0,0-.7-3.46,31.76,31.76,0,0,0-3.53-4.14,22.77,22.77,0,0,1-4.2-5.37c-.31-.62-.61-1.38-.91-2.12s-.59-1.47-.88-2c-3.69-8.44-2.66-18.84,3-30.1a11.65,11.65,0,0,0,0-6.2,9.82,9.82,0,0,0-3.35-3.34,2.71,2.71,0,0,0-1.22-.26c-1.67,0-3.85,1.12-5.82,2.13Zm-.94,55.3c-2.94-1.63-1.64-5.47-.6-8.55a14.65,14.65,0,0,0,.89-3.38,23.71,23.71,0,0,0-4-14c-.38-.56-.8-1.13-1.2-1.68a25.1,25.1,0,0,1-2.36-3.66,7.45,7.45,0,0,1-.33-6.65,9.86,9.86,0,0,1,1.35-1.85,12,12,0,0,0,1-1.33,11,11,0,0,0,1.18-3.44A17,17,0,0,1,381,220a5.62,5.62,0,0,1,3.55-3.12,2.93,2.93,0,0,1,2.67.57A4,4,0,0,1,388,222a11.93,11.93,0,0,1-1.49,2.53c-.26.36-.52.74-.76,1.12-2.63,4.24-2.5,10.07.38,17.84.33.87.67,1.74,1,2.62,2,5.14,4.06,10.46,3.38,16a7.48,7.48,0,0,1-1.71,4.29,4.27,4.27,0,0,1-3.07,1.38,3.17,3.17,0,0,1-1.57-.38Zm.64-49.32a4.37,4.37,0,0,0-2.72,2.43,14.46,14.46,0,0,0-.77,2.66,12.29,12.29,0,0,1-1.33,3.8,11.48,11.48,0,0,1-1.13,1.47,8.62,8.62,0,0,0-1.19,1.63c-1.11,2.13-.13,4.61.34,5.58a23.23,23.23,0,0,0,2.25,3.48c.41.56.84,1.14,1.23,1.73a24.83,24.83,0,0,1,4.16,14.65,15.29,15.29,0,0,1-.95,3.72c-1.15,3.39-1.87,6.07,0,7.14a2.8,2.8,0,0,0,3.19-.76,6.31,6.31,0,0,0,1.4-3.63c.65-5.23-1.36-10.4-3.3-15.41-.34-.88-.68-1.76-1-2.64-3-8.13-3.11-14.3-.27-18.88.25-.4.53-.8.8-1.17a11.41,11.41,0,0,0,1.35-2.28,2.86,2.86,0,0,0-.45-3.19,1.62,1.62,0,0,0-1.1-.4A2,2,0,0,0,384.78,218Zm-88.11,43.36-.48-.1c-4.64-1-9.91-2.13-14.14-5.07a16.26,16.26,0,0,1-7-10.65,12.52,12.52,0,0,1,4.5-11.75,21.21,21.21,0,0,1,6.3-2.85c.94-.32,1.93-.64,2.85-1,3.62-1.45,5.91-3.86,6.14-6.44.27-3.12-2.46-5.88-5.31-7a25.42,25.42,0,0,0-7.12-1.3c-.85-.08-1.73-.16-2.6-.26-14.61-1.78-26.28-11.39-38.94-22.83-5.94-5.36-13.7-13.87-12.6-25.82.13-1.42.37-2.85.61-4.23.51-2.94,1-5.72.48-8.52-1.74-9.4-11.53-10.08-19.4-10.63-3.57-.25-8.26-1.33-10.32-5.1-1.78-3.26-.75-7.12.81-9.65a33.16,33.16,0,0,1,5.42-5.93c4.3-4,8.75-8.23,7.47-13.37-.85-3.4-4-5.34-7.37-7.39s-6.94-4.25-7.76-8.1c-1.12-5.19,3.4-9.51,7.46-12.7,6.63-5.2,14.14-11.09,23.13-12.71a57,57,0,0,1,9.77-.63c5.73,0,11.14-.1,15.78-2.89a37.42,37.42,0,0,0,3.34-2.38c2.7-2.09,5.5-4.26,8.93-3.94a7,7,0,0,1,5.3,3.39,12.49,12.49,0,0,1,1.2,10.29c-1.16,3.44-3.38,6.37-5.54,9.2-1.18,1.56-2.41,3.18-3.44,4.86-2.78,4.54-4,11.12-.2,14.81,2.49,2.39,6,2.66,9.77,3,3.43.26,7,.53,9.73,2.55,4.74,3.49,5.26,10.8,5.18,16.78-.1,6.94,2.69,11.58,8.75,14.59a51.67,51.67,0,0,0,10.79,3.48c1.67.41,3.41.83,5.09,1.32,3.78,1.1,9.13,3,11.92,6.57h0c.2.26.38.52.55.78a26.64,26.64,0,0,1,1.88,3.83c1,2.46,2,4.78,4.83,6.5a20.74,20.74,0,0,0,6.46,2.14c2.92.63,5.93,1.28,8.13,3.4,5.65,5.44,2.48,11.5-.58,17.37-1.8,3.44-3.65,7-3.54,10.25,0,.87.15,1.77.26,2.64a9.18,9.18,0,0,1-2.47,9.39,15.23,15.23,0,0,0-1.77,2.39c-2.45,4.41-.41,8.47,1.75,12.78a37.12,37.12,0,0,1,2.24,5.08,11.14,11.14,0,0,1,.24,4.94,11.63,11.63,0,0,0,.06,4.24,29,29,0,0,0,1.07,3.27c.89,2.36,1.8,4.81,1.28,7.46a7.43,7.43,0,0,1-6.65,5.84,13.89,13.89,0,0,1-3.63-.39c-.54-.11-1.09-.22-1.64-.29A13.12,13.12,0,0,0,323.8,253a10.48,10.48,0,0,0-2.39,3.35,11.89,11.89,0,0,1-2.47,3.5c-2.75,2.41-6.45,3.19-10.27,3.19a57.84,57.84,0,0,1-12-1.68ZM258.24,62.79a35.93,35.93,0,0,1-3.42,2.44c-4.85,2.91-10.63,3-16.23,3a58.45,58.45,0,0,0-9.62.62c-8.77,1.59-16.19,7.4-22.73,12.54-3.86,3-8.15,7.1-7.14,11.81.74,3.48,4,5.44,7.35,7.52s6.83,4.19,7.77,7.94c1.41,5.65-3.44,10.21-7.72,14.24a32.26,32.26,0,0,0-5.27,5.74c-1.43,2.32-2.39,5.83-.79,8.76,1.87,3.41,6.25,4.41,9.6,4.64,7.74.54,18.35,1.29,20.21,11.36.55,3,0,5.94-.47,8.83-.24,1.37-.48,2.78-.61,4.16-1.06,11.56,6.52,19.85,12.31,25.08,12.55,11.33,24.1,20.85,38.46,22.6.85.1,1.72.17,2.56.25a26.78,26.78,0,0,1,7.37,1.35c3.06,1.2,6.2,4.17,5.87,7.9-.37,4.22-4.8,6.43-6.69,7.18-.95.39-1.95.71-2.91,1a20.31,20.31,0,0,0-6,2.72,11.61,11.61,0,0,0-4.15,10.9,15.33,15.33,0,0,0,6.61,10.05c4.08,2.84,9.25,4,13.82,4.94l.48.1c6.39,1.37,16,3.46,21.49-1.31a10.86,10.86,0,0,0,2.27-3.26,11.64,11.64,0,0,1,2.6-3.61,14.05,14.05,0,0,1,10.56-2.66c.57.08,1.14.19,1.69.3a13.39,13.39,0,0,0,3.4.38,6.54,6.54,0,0,0,5.84-5.13c.47-2.4-.36-4.62-1.24-7a28.42,28.42,0,0,1-1.11-3.38,12.6,12.6,0,0,1-.08-4.54,10.23,10.23,0,0,0-.2-4.57,35.93,35.93,0,0,0-2.19-5c-2.17-4.32-4.41-8.78-1.73-13.61a15.9,15.9,0,0,1,1.87-2.53,11,11,0,0,0,2.12-3.15c.66-1.72.41-3.58.15-5.54-.12-.9-.24-1.82-.28-2.74-.11-3.48,1.8-7.14,3.65-10.68,3-5.84,5.92-11.35.75-16.32-2-1.94-4.78-2.54-7.7-3.17a21.54,21.54,0,0,1-6.74-2.26c-3.07-1.86-4.1-4.31-5.19-6.9a23.86,23.86,0,0,0-1.8-3.7c-.16-.25-.32-.49-.5-.72-2-2.53-5.73-4.58-11.47-6.26-1.66-.48-3.39-.9-5-1.31a51.76,51.76,0,0,1-11-3.55c-6.4-3.18-9.34-8.07-9.24-15.4.07-5.77-.4-12.8-4.82-16-2.55-1.87-6-2.13-9.26-2.38-3.74-.29-7.6-.59-10.32-3.2-4.2-4-2.91-11.08,0-15.92a57.65,57.65,0,0,1,3.5-4.93c2.1-2.77,4.28-5.64,5.4-8.94A11.62,11.62,0,0,0,271.2,62a6.21,6.21,0,0,0-4.64-3q-.3,0-.6,0C263.14,59,260.76,60.85,258.24,62.79ZM296,253.3c-3.35-1.87-7.28-7-5.65-11.23,1.1-2.9,4.26-4.23,6.85-4.51a26.62,26.62,0,0,1,5.57.2c.86.09,1.75.18,2.62.23.46,0,.93,0,1.39.06,2.74.1,5.56.2,7.6,2a6.88,6.88,0,0,1,1.55,7.41,10.06,10.06,0,0,1-5.42,5.4,21.51,21.51,0,0,1-8.41,1.71,12.64,12.64,0,0,1-6.1-1.32Zm1.3-14.85c-2.33.25-5.16,1.42-6.12,3.94-1.4,3.67,2.12,8.37,5.25,10.13,3.5,2,9.84,1.3,13.71-.43a9.14,9.14,0,0,0,4.95-4.9,6,6,0,0,0-1.31-6.43c-1.8-1.62-4.46-1.72-7-1.81l-1.41-.06c-.89,0-1.8-.15-2.67-.24a37.53,37.53,0,0,0-3.82-.28c-.52,0-1,0-1.55.08Zm-195.16,13a2.05,2.05,0,0,1-.39-2.27,9.53,9.53,0,0,1,2.62-3.62l.63-.65c1.57-1.66,7.17-7.14,13.11-7.92l2-.27c4.57-.64,9.3-1.29,14.06-.4a4.21,4.21,0,0,1,2.8,1.4c1.1,1.53.13,3.63-1.33,4.83-3.63,3-7.77,2.45-11.78,1.91a28.73,28.73,0,0,0-5.86-.38,10.93,10.93,0,0,0-5.9,2.09,16.34,16.34,0,0,0-2.18,2.22c-.23.28-.47.55-.71.82a9.06,9.06,0,0,1-3.59,2.65,4.86,4.86,0,0,1-1.56.26A2.74,2.74,0,0,1,102.16,251.43Zm18.12-13.85c-.68.09-1.35.19-2,.27-5.65.75-11.06,6.05-12.58,7.65l-.65.66a8.93,8.93,0,0,0-2.4,3.27,1.27,1.27,0,0,0,.16,1.37,2.79,2.79,0,0,0,2.6.2,8.12,8.12,0,0,0,3.21-2.4c.24-.27.47-.54.71-.8a17,17,0,0,1,2.3-2.34,11.79,11.79,0,0,1,6.38-2.28,29.83,29.83,0,0,1,6,.38c4,.54,7.76,1,11.1-1.71,1-.81,2-2.47,1.17-3.62a3.47,3.47,0,0,0-2.24-1,26.81,26.81,0,0,0-4.82-.41,64.16,64.16,0,0,0-9,.81Zm330.24,5.53c-3.32-1.17-7.93-4-10-8a25.1,25.1,0,0,1-2-7.15,27.76,27.76,0,0,0-1.65-6.29,30.62,30.62,0,0,0-3.27-5.14c-2.08-2.87-4.23-5.84-4.58-8.8-.32-2.69.88-4.94,3.68-6.87a16.33,16.33,0,0,1,2.57-1.38c1.54-.72,3-1.4,3.8-2.74a8,8,0,0,0,.68-4.45c0-.53,0-1.07,0-1.6.07-2.51,1.37-5.1,3.72-5.21a4.92,4.92,0,0,1,3.15,1.26,44.3,44.3,0,0,1,3.5,3.06c1,.94,2,1.91,3.12,2.76,1.87,1.47,4.74,3.13,7.77,2.75a14.61,14.61,0,0,0,4.07-1.38l.58-.26a10.82,10.82,0,0,1,5.11-1.22,4.53,4.53,0,0,1,4.18,3.22c.37,1.71-.58,3.62-2.6,5.23-.34.27-.7.54-1.06.8a9.32,9.32,0,0,0-2.94,2.89c-1.21,2.24-.2,5.1,1.43,6.75,1.89,1.93,4.63,2.83,6.82,3.4l1.83.45a29.25,29.25,0,0,1,5.85,1.85c2.89,1.38,4.83,3.59,5.34,6.06a8.5,8.5,0,0,1-1.89,6.85,20,20,0,0,1-5.44,4.5,71.79,71.79,0,0,1-15.06,7.12,36.87,36.87,0,0,1-11.46,2.31,15.57,15.57,0,0,1-5.24-.82Zm-7-56.69c-1.78.08-2.81,2.3-2.87,4.34,0,.51,0,1,0,1.55a8.85,8.85,0,0,1-.81,4.94c-.94,1.57-2.59,2.34-4.19,3.09a15.84,15.84,0,0,0-2.44,1.3c-2.5,1.73-3.58,3.7-3.3,6,.32,2.73,2.4,5.6,4.41,8.38a31.6,31.6,0,0,1,3.36,5.3,28.06,28.06,0,0,1,1.71,6.5,24.83,24.83,0,0,0,1.95,6.9c1.8,3.51,6.06,6.31,9.48,7.51,5.07,1.79,11.27.15,16.11-1.49a71.06,71.06,0,0,0,14.88-7,19.25,19.25,0,0,0,5.21-4.3,7.62,7.62,0,0,0,1.72-6.12c-.45-2.19-2.22-4.17-4.85-5.43a28.27,28.27,0,0,0-5.67-1.78l-1.86-.46c-2.29-.6-5.19-1.56-7.23-3.64-1.85-1.89-3-5.18-1.58-7.8a10.26,10.26,0,0,1,3.2-3.19c.35-.26.7-.51,1-.78.83-.66,2.7-2.4,2.29-4.34a3.65,3.65,0,0,0-3.38-2.52,9.61,9.61,0,0,0-4.67,1.14l-.58.26a15.37,15.37,0,0,1-4.33,1.46c-3.34.41-6.43-1.37-8.43-2.93-1.12-.88-2.17-1.87-3.18-2.82a40.68,40.68,0,0,0-3.43-3,4.34,4.34,0,0,0-2.48-1.09ZM328.41,237.67c-3.52-.5-6.42-2.71-9.22-4.85l-1.24-.93c-1.33-1-2.73-1.95-4.08-2.87a61.07,61.07,0,0,1-8.09-6.23,61.45,61.45,0,0,1-5.43-6.31c-1.41-1.8-2.86-3.66-4.46-5.33-2.4-2.51-7.26-6.64-13-6.13a23.7,23.7,0,0,0-5.37,1.39c-2.79,1-5.68,2-8.58,1.13-2.58-.73-4.46-2.7-6.27-4.61-.74-.78-1.5-1.59-2.29-2.28a68.68,68.68,0,0,0-7-5.16c-6.67-4.53-13.57-9.22-13.8-19a65.1,65.1,0,0,1,1.12-11.48c.34-2.11.69-4.29.9-6.44.42-4.17-.81-9.29-5.51-11.14a23,23,0,0,0-4.85-1.1c-3.06-.47-6.23-1-8-3.51-2.5-3.49-.57-8.38,2.45-11.68.73-.8,1.54-1.58,2.31-2.34,2.14-2.07,4.35-4.22,5.27-7,1.8-5.43-1.79-11.1-5.61-16.43-5.22-7.28-6.59-13-4.19-17.47,1.71-3.2,5.42-5.41,10.19-6.06,2.08-.28,4.93.09,6.65,1.54a3.84,3.84,0,0,1,1.4,2.86,7.12,7.12,0,0,1-.88,3c-.15.32-.3.65-.43,1-1.87,4.73,1.06,10.26,5,12.86,3.55,2.37,8.35,3.39,14.65,3.13,1.13,0,2.28-.12,3.39-.2a46.74,46.74,0,0,1,8.93,0c4.82.61,8.69,2.83,10.61,6.09s1.78,7,1.67,10.63c-.09,2.89-.18,5.87.73,8.54,2.52,7.48,11.55,10.32,19.13,12,8.17,1.77,17.17,4.28,20.46,11.68a26,26,0,0,1,1,2.92,12.14,12.14,0,0,0,2.46,5.06c2,2,4.93,2.38,8.08,2.74s6.65.76,8.77,3.28c2.83,3.36,1.54,8.47-.62,12.13-.51.88-1.09,1.76-1.64,2.61-1.68,2.57-3.42,5.24-3.76,8.25a21.45,21.45,0,0,0,.22,4.87c.33,2.71.67,5.51-.74,7.92a12.57,12.57,0,0,1-2.22,2.6,9.54,9.54,0,0,0-2.35,3c-1,2.49.36,5.33,1.29,6.8.44.71.95,1.4,1.44,2.08a20.35,20.35,0,0,1,2.66,4.43,10.38,10.38,0,0,1-9.74,14.16A9.32,9.32,0,0,1,328.41,237.67Zm-31.87-27.14a69.34,69.34,0,0,1,4.51,5.4,59.85,59.85,0,0,0,5.35,6.22,59,59,0,0,0,8,6.13c1.36.94,2.77,1.9,4.12,2.9l1.24.94c2.71,2.06,5.51,4.2,8.81,4.67a9.5,9.5,0,0,0,10.74-8.07,9.61,9.61,0,0,0-.56-4.78,19,19,0,0,0-2.55-4.24c-.5-.68-1-1.39-1.47-2.12-1-1.62-2.56-4.76-1.36-7.62a10.23,10.23,0,0,1,2.54-3.26,11.73,11.73,0,0,0,2.08-2.42c1.26-2.15,1-4.68.63-7.36a22.17,22.17,0,0,1-.23-5.08c.37-3.22,2.16-6,3.9-8.64.55-.84,1.12-1.71,1.62-2.57,2-3.4,3.24-8.1.7-11.1-1.88-2.25-4.95-2.6-8.2-3s-6.42-.74-8.61-3a13,13,0,0,1-2.67-5.41,25.52,25.52,0,0,0-1-2.82c-3.13-7-11.88-9.45-19.84-11.17-7.81-1.69-17.12-4.64-19.79-12.54-1-2.82-.86-5.89-.77-8.85.11-3.69.21-7.18-1.55-10.16s-5.4-5.08-9.95-5.65a44.88,44.88,0,0,0-8.75,0c-1.12.07-2.28.15-3.42.2-6.5.27-11.47-.8-15.19-3.28-4.15-2.76-7.42-8.58-5.31-13.93.13-.34.29-.69.45-1a6.18,6.18,0,0,0,.79-2.65,2.84,2.84,0,0,0-1.07-2.2c-1.5-1.29-4.07-1.6-5.95-1.35-4.48.61-7.95,2.65-9.53,5.6-2.21,4.15-.86,9.56,4.13,16.53,3.12,4.35,7.83,10.92,5.74,17.23-1,3-3.28,5.21-5.49,7.36-.77.75-1.56,1.52-2.28,2.3-2.78,3-4.59,7.48-2.38,10.56,1.6,2.25,4.45,2.69,7.46,3.15a22.89,22.89,0,0,1,5,1.15c5.16,2,6.52,7.56,6.07,12.06-.22,2.17-.56,4.37-.9,6.49a63.21,63.21,0,0,0-1.11,11.32c.22,9.28,6.62,13.63,13.41,18.24A70.67,70.67,0,0,1,261,200c.82.73,1.6,1.55,2.35,2.34,1.81,1.91,3.52,3.71,5.87,4.37,2.63.74,5.26-.16,8-1.11a24.58,24.58,0,0,1,5.59-1.44c.36,0,.71,0,1.06,0,5.63,0,10.3,4,12.66,6.45Zm162.31,25.76a14.67,14.67,0,0,1-3.53-2.16,14.22,14.22,0,0,0-4.73-2.6,19.74,19.74,0,0,1-2.27-.95c-1.93-1-3.09-2.15-2.43-4.58a7.23,7.23,0,0,0-.58-5.63c-.37-.74-.82-1.47-1.25-2.18a20.78,20.78,0,0,1-1.92-3.72c-.76-2.16-.68-5.05,1.22-6.64,2.15-1.79,5.44-1,7.58.7a21.82,21.82,0,0,1,3,3,24.89,24.89,0,0,0,2.32,2.5,12.58,12.58,0,0,0,8.6,3.18c.65,0,1.34-.09,2-.15a8.24,8.24,0,0,1,7.72,2,12.34,12.34,0,0,0,4.41,2.38c.72.28,1.46.55,2.17.9,2.2,1.06,3.57,2.68,3.77,4.44.29,2.56-1.92,4.75-4.25,5.59a19.24,19.24,0,0,1-4.32.86c-.86.1-1.75.21-2.6.39a29.58,29.58,0,0,0-4.51,1.44c-.86.32-1.74.66-2.63.94a15.3,15.3,0,0,1-4.64.82A8.81,8.81,0,0,1,458.85,236.29Zm-14.92-27.78c-1.57,1.32-1.61,3.79-.95,5.66a19.67,19.67,0,0,0,1.84,3.56c.44.72.9,1.47,1.29,2.24a8,8,0,0,1,.64,6.26c-.45,1.69,0,2.55,2,3.56a21.73,21.73,0,0,0,2.18.9,14.71,14.71,0,0,1,5,2.72,13.93,13.93,0,0,0,3.31,2c1.92.72,4.25.62,7.14-.3.87-.28,1.75-.61,2.59-.93a30.29,30.29,0,0,1,4.65-1.48c.89-.19,1.8-.3,2.67-.4a19.36,19.36,0,0,0,4.13-.81c2-.73,3.9-2.56,3.66-4.65s-2.37-3.31-3.28-3.75a22.37,22.37,0,0,0-2.09-.86,13.43,13.43,0,0,1-4.64-2.51A7.39,7.39,0,0,0,466.9,218c-.67.06-1.38.13-2.06.15a13.44,13.44,0,0,1-9.22-3.41,26.74,26.74,0,0,1-2.4-2.58,20.55,20.55,0,0,0-2.83-2.92,6.82,6.82,0,0,0-4.05-1.53A3.71,3.71,0,0,0,443.93,208.51Zm-222.31,24.9c-2.54-.59-4.06-2.81-5.53-5l-.66-.95c-6.22-8.82-18.62-13.64-33.17-12.88-6.94.37-13.88,1.78-20.6,3.14-5.37,1.09-10.93,2.22-16.48,2.81-3.69.39-8.74.38-11.86-.86a6,6,0,0,1-3.79-4c-.83-3.48,2.91-6.4,6.21-9a21.9,21.9,0,0,0,4.24-3.86,23.26,23.26,0,0,0,3.84-9.14,22.55,22.55,0,0,0-4-17.63l-.83-1.08c-1.82-2.33-3.87-5-3.25-7.95.54-2.64,3-4.27,5.09-5.72l.69-.47a32.13,32.13,0,0,0,12.34-34.23c-.18-.67-.39-1.33-.6-2-.8-2.56-1.63-5.21-1.22-7.91a8.74,8.74,0,0,1,8.89-7.22,7.73,7.73,0,0,1,5.42,3.24,7.06,7.06,0,0,1,1.27,5.74c-.56,2.28-2.16,4-3.72,5.7a15.94,15.94,0,0,0-3.25,4.43c-1.56,3.73.28,8,1.51,10.2.69,1.22,1.48,2.42,2.25,3.59a34.94,34.94,0,0,1,3.42,6c2.41,5.85,1.49,12.43.59,16.88-.34,1.7-.75,3.4-1.14,5.06a66.07,66.07,0,0,0-2,11.44c-.37,6.34,1.45,11.86,5,15.17,4.77,4.46,11.81,4.7,18.62,4.93,1.36,0,2.77.1,4.12.18a61.86,61.86,0,0,1,24.6,6.82c2.95,1.54,7.2,4,9.89,8s3.24,8.79,1.45,12.41c-1.09,2.2-3.5,4.22-6.13,4.22A4.86,4.86,0,0,1,221.62,233.41ZM216.16,227c.22.32.45.64.67,1,1.37,2,2.79,4.09,5,4.6,2.61.6,5.18-1.42,6.27-3.62,1.65-3.34,1.11-7.86-1.39-11.51s-6.7-6.2-9.57-7.7A60.7,60.7,0,0,0,192.9,203c-1.34-.09-2.74-.13-4.1-.18-7-.24-14.18-.49-19.2-5.18-3.72-3.48-5.64-9.27-5.26-15.87a67.12,67.12,0,0,1,2-11.6c.39-1.64.8-3.34,1.14-5,1.4-6.89,1.22-12.09-.54-16.37a36.09,36.09,0,0,0-3.34-5.82c-.78-1.17-1.58-2.39-2.29-3.65-2.26-4-2.81-7.94-1.55-11a16.45,16.45,0,0,1,3.42-4.69c1.54-1.67,3-3.25,3.5-5.3a6.15,6.15,0,0,0-1.13-5,6.75,6.75,0,0,0-4.77-2.87,7.79,7.79,0,0,0-7.93,6.46c-.38,2.5.42,5,1.19,7.51.21.67.42,1.34.61,2A33.07,33.07,0,0,1,142,161.67l-.7.47c-2.09,1.42-4.25,2.88-4.72,5.16-.54,2.59,1.3,4.95,3.08,7.22l.84,1.1A23.46,23.46,0,0,1,144.69,194a24.21,24.21,0,0,1-4,9.49,23,23,0,0,1-4.42,4.05c-3.24,2.52-6.59,5.13-5.9,8a5.12,5.12,0,0,0,3.26,3.34c3,1.17,8,1.16,11.43.8,5.51-.59,11-1.71,16.4-2.8,6.75-1.37,13.73-2.79,20.73-3.15,1-.06,2-.08,3-.08,13.55,0,25,4.87,30.93,13.32Zm112.68,3.74h0a15.67,15.67,0,0,1-11.9-6.36,14.87,14.87,0,0,1-3-12.68,6.8,6.8,0,0,1,3.24-4.39,5.64,5.64,0,0,1,4.65-.29c3.39,1.2,3.42,3.93,3.44,6.56a9.08,9.08,0,0,0,.79,4.51c.85,1.44,2.53,2.18,4.16,2.89l.84.38c1.58.72,4.22,2.33,4.16,4.95a4.34,4.34,0,0,1-2.32,3.56,7.86,7.86,0,0,1-3.9.87Zm-11.22-22.64a5.9,5.9,0,0,0-2.8,3.82,14.07,14.07,0,0,0,2.82,11.92,14.77,14.77,0,0,0,11.21,6,7.12,7.12,0,0,0,3.63-.76,3.47,3.47,0,0,0,1.86-2.8c.05-2.19-2.52-3.61-3.64-4.12l-.82-.37c-1.76-.77-3.58-1.57-4.57-3.25a9.61,9.61,0,0,1-.91-4.95c0-2.55,0-4.74-2.85-5.73a5.26,5.26,0,0,0-1.75-.32,4.62,4.62,0,0,0-2.18.56Zm-170.14,1.61c-.67-1.77.15-3.59.87-5.2l.06-.13A37,37,0,0,0,150.08,179a14.93,14.93,0,0,0-2.13-4,14.57,14.57,0,0,1-2.2-4.25c-1.2-4.59,3-8.5,5.53-10.84l6.83-6.33a4.72,4.72,0,0,1,1.64-1.11,2.67,2.67,0,0,1,2.34.37,3.92,3.92,0,0,1,1.7,2.84,8.76,8.76,0,0,1-1.55,4.91c-2.12,3.78-4.53,8.07-5.19,12.75s.43,9.3,1.48,13.85c.3,1.33.62,2.7.89,4.06,1.58,7.93.67,14-2.7,18.05a7.64,7.64,0,0,1-4.49,2.83,5.81,5.81,0,0,1-.72.05A4.27,4.27,0,0,1,147.48,209.68Zm12.64-56a3.63,3.63,0,0,0-1.2.86l-6.83,6.33c-2.32,2.15-6.21,5.76-5.18,9.66a13.62,13.62,0,0,0,2,3.89,15.69,15.69,0,0,1,2.28,4.32,38.27,38.27,0,0,1-1.72,26.14l-.06.14c-.66,1.46-1.34,3-.85,4.28a3.23,3.23,0,0,0,3.47,1.73,6.5,6.5,0,0,0,3.75-2.41c3.13-3.75,3.95-9.49,2.45-17.06-.27-1.34-.58-2.7-.89-4-1.07-4.65-2.17-9.47-1.5-14.28s3.16-9.3,5.34-13.17c.68-1.22,1.53-2.74,1.4-4.23a2.77,2.77,0,0,0-1.17-1.95,1.73,1.73,0,0,0-.91-.3,1.85,1.85,0,0,0-.41.07Zm144.71,48.57a6.18,6.18,0,0,1-3-3.9,12.32,12.32,0,0,1,.11-4.65c.31-2,.6-4-.53-5.46a4.74,4.74,0,0,0-4.57-1.41,15.59,15.59,0,0,0-4.59,1.88l-.34.18c-7.66,4.12-14.52,6.36-21,6.88-8,.64-15.67-1.58-21-6.08a23.19,23.19,0,0,1-7.79-18.42,15.93,15.93,0,0,1,7-12.7,29.76,29.76,0,0,1,4.63-2.38,28.23,28.23,0,0,0,4.57-2.36,28.63,28.63,0,0,0,5.45-5.38,37,37,0,0,1,4.35-4.59,18.71,18.71,0,0,1,16.89-3.62,36.8,36.8,0,0,1,7.33,3.28,32.31,32.31,0,0,0,7.87,3.4,37.13,37.13,0,0,0,6.31.68c4.12.21,8.37.42,11.4,3.25,2.65,2.47,3.46,6.12,4.24,9.65.12.51.23,1,.35,1.53.82,3.5,2.6,7.9,6.37,8.94a13.27,13.27,0,0,0,3.26.33c1.81,0,3.69.07,5.17,1.22,2.42,1.9,2.17,5.5,1.68,8.43-.8,4.75-1.79,9.25-5.09,12.13a19.56,19.56,0,0,1-6.66,3.32c-1,.36-2.07.72-3.05,1.15a43.72,43.72,0,0,0-4.49,2.38,29.69,29.69,0,0,1-6.93,3.27,11,11,0,0,1-2.85.37A10.28,10.28,0,0,1,304.83,202.21Zm-2.7-14.55c1.37,1.77,1,4,.71,6.13a11.84,11.84,0,0,0-.13,4.32,5.29,5.29,0,0,0,2.57,3.33,9.87,9.87,0,0,0,7.3.86,28.63,28.63,0,0,0,6.71-3.17,43.71,43.71,0,0,1,4.59-2.43c1-.44,2.08-.81,3.11-1.17a18.74,18.74,0,0,0,6.37-3.16c3.08-2.69,4-7,4.8-11.6.45-2.68.7-6-1.36-7.57-1.24-1-2.89-1-4.63-1a13.59,13.59,0,0,1-3.48-.36c-4.2-1.16-6.13-5.86-7-9.6-.12-.5-.24-1-.35-1.54-.75-3.39-1.53-6.9-4-9.18-2.8-2.61-6.71-2.81-10.84-3a37,37,0,0,1-6.47-.7,33.52,33.52,0,0,1-8.09-3.48,35.86,35.86,0,0,0-7.15-3.21,17.81,17.81,0,0,0-16.07,3.44,36.12,36.12,0,0,0-4.25,4.49,22,22,0,0,1-10.34,8,28.37,28.37,0,0,0-4.49,2.3,15.08,15.08,0,0,0-6.58,12A22.25,22.25,0,0,0,250.56,189c5.11,4.35,12.51,6.49,20.31,5.87,6.33-.5,13.08-2.72,20.63-6.78l.34-.17a16.11,16.11,0,0,1,4.86-2,6.64,6.64,0,0,1,1.18-.1,5.32,5.32,0,0,1,4.25,1.84Zm-243.65,3.1c-.78-.43-1.54-.91-2.27-1.38a20.45,20.45,0,0,0-4.73-2.46,21,21,0,0,0-3.7-.69,18.82,18.82,0,0,1-4.45-.91,10.16,10.16,0,0,1-6.25-7.92c-.54-3.93,2.34-6.78,4.88-9.28.56-.55,1.09-1.07,1.56-1.58,2.9-3.13,7.36-7.43,12.66-8.63a16.81,16.81,0,0,1,11.21,1.83,47.74,47.74,0,0,1,9.13,6.65c2.28,2,5.12,4.4,6.43,7.67s.71,7.61-2.46,9.47a10.92,10.92,0,0,1-3.65,1.13,11.32,11.32,0,0,0-3,.85,11.2,11.2,0,0,0-3.23,3,11.28,11.28,0,0,1-3.83,3.37,6.67,6.67,0,0,1-2.72.57,12,12,0,0,1-5.56-1.66Zm-2-31.7h0c-5,1.13-9.27,5.27-12.05,8.28-.5.53-1,1.06-1.6,1.62-2.46,2.42-5,4.93-4.54,8.27a8.94,8.94,0,0,0,5.49,7,18,18,0,0,0,4.18.85,21.72,21.72,0,0,1,3.91.73,21.45,21.45,0,0,1,5,2.59c.72.46,1.46.93,2.21,1.35,1.95,1.08,4.78,2.15,7.22,1.05a10.25,10.25,0,0,0,3.4-3.05,12,12,0,0,1,3.6-3.27,11.9,11.9,0,0,1,3.35-1,9.86,9.86,0,0,0,3.26-1c2.61-1.54,3-5.28,2-8-1.2-3-3.8-5.23-6.1-7.21a46.79,46.79,0,0,0-8.89-6.49,17.06,17.06,0,0,0-7.75-2,12.44,12.44,0,0,0-2.65.29Zm198.26,26a16.34,16.34,0,0,1-5.51-11.33,11.3,11.3,0,0,1,3.23-8.46c5.88-6,14.06-9.31,21.27-12.23,4.54-1.84,9.7-3.93,15-3.39a31.71,31.71,0,0,1,4.52.9,24,24,0,0,0,5.58.94,25.17,25.17,0,0,0,4-.38c2.23-.33,4.54-.68,6.76,0,4.68,1.44,6.78,6.45,8.35,11.66,1,3.46,2.23,7.37,1.78,11.27-.4,3.55-2.7,7.83-6.8,8.82-2.74.67-5.43-.28-8-1.2a22.77,22.77,0,0,0-5.07-1.37c-4.31-.45-8.37,1.79-12.3,4l-1.95,1.06c-5.55,3-10.62,4.49-15.51,4.72-.39,0-.79,0-1.18,0a21.06,21.06,0,0,1-14.1-5ZM274,153.88c-7.14,2.89-15.23,6.17-21,12a10.4,10.4,0,0,0-3,7.8,15.48,15.48,0,0,0,5.21,10.7A20.54,20.54,0,0,0,270,189.16c4.75-.22,9.7-1.74,15.13-4.62l1.94-1.06c4.05-2.23,8.23-4.54,12.83-4.06a23.31,23.31,0,0,1,5.27,1.41c2.6.92,5.05,1.79,7.54,1.18,3.67-.89,5.75-4.8,6.12-8,.42-3.72-.73-7.54-1.75-10.92-1.5-5-3.48-9.74-7.77-11.06-2-.62-4.12-.31-6.35,0a24.78,24.78,0,0,1-4.12.4,25.14,25.14,0,0,1-5.78-1,31.73,31.73,0,0,0-4.4-.88c-.55-.05-1.1-.08-1.64-.08-4.53,0-9,1.81-12.93,3.41Zm200.22,30.65a4.73,4.73,0,0,1,1.35-6c1.31-1,2.61-2,3.87-3.05a80.73,80.73,0,0,1,9.83-7.1c2.45-1.43,5.13-2.76,8.08-2.85,2.7-.09,6.11,1.22,7.26,4.26a7.64,7.64,0,0,1-1.42,7.09,11.41,11.41,0,0,1-8.55,4.5c-.82,0-1.63,0-2.45-.07a10.22,10.22,0,0,0-4.53.35,10.69,10.69,0,0,0-3.33,2.6,9.9,9.9,0,0,1-4.09,2.94,5.37,5.37,0,0,1-1.54.23,5.07,5.07,0,0,1-4.48-2.85Zm23.15-18.14c-2.74.08-5.3,1.36-7.66,2.73a79.69,79.69,0,0,0-9.72,7c-1.25,1-2.56,2.05-3.88,3.05a3.85,3.85,0,0,0-1.1,4.94,4.15,4.15,0,0,0,5,2.17,9.14,9.14,0,0,0,3.71-2.7,11.31,11.31,0,0,1,3.64-2.8,10.94,10.94,0,0,1,4.92-.42c.78.06,1.56.08,2.35.07a10.55,10.55,0,0,0,7.88-4.15c1.17-1.56,2.13-4,1.3-6.23-1-2.56-3.84-3.69-6.2-3.69h-.21Zm-95.34,18.4c-2.61-1.48-2.36-5-2.25-6.47a15.29,15.29,0,0,0-.56-6.41c-2.7-7.53-10.52-10.94-17.42-13.95-1-.44-2-.87-2.95-1.3-6.61-3-12.8-8.41-18.38-16.06a81.85,81.85,0,0,1-5.05-8.19c-2.6-4.6-5.28-9.37-9.55-13.12-.78-.68-1.64-1.38-2.64-2.11-1.27-1-2.61-1.86-3.9-2.74a70.09,70.09,0,0,1-6.33-4.66c-9.48-8.14-9.44-21-6.25-30.26a76.17,76.17,0,0,0,2.47-9.87c.24-1.17.48-2.35.75-3.54,1.11-5.07,3.3-8.51,6.68-10.54,7.26-4.34,15.68-1.9,23.11.26,1.27.37,2.47.72,3.67,1a43.66,43.66,0,0,0,24.76-.58,43.14,43.14,0,0,0,20-13.55,82.25,82.25,0,0,0,5.82-8.65c3-4.84,6-9.85,10.57-13.49,6.15-4.93,15.7-7.43,22.17-1.28a34,34,0,0,1,3.37,3.92,25.55,25.55,0,0,0,4.42,4.81c2.61,2,5.89,2.42,9.06,2.83l1.57.21c3.67.52,7.66,1.58,9.36,5.45,1.89,4.3.12,8.87-1.45,12.9l-.2.51a27.42,27.42,0,0,0-1.6,14.42c.33,2.2.83,4.43,1.31,6.58a74.87,74.87,0,0,1,1.52,8.12c.79,7.16-.78,16-7.54,19.4-3.16,1.59-6.66,1.5-10,1.4-1.05,0-2.14-.05-3.18,0-4.94.12-8,2.12-11.24,5.31-5.61,5.46-12.37,6.39-19.53,7.38-2.28.31-4.65.64-7,1.12-4.54.95-10.37,3.6-13.12,8.16a10,10,0,0,0-1,8.17,31,31,0,0,0,3.38,7c2.61,4.41,5.08,8.58,2.72,14.43-.34.83-.7,1.65-1.05,2.44-1.38,3.1-2.68,6-2.23,9.65A36.78,36.78,0,0,0,406,170a40.31,40.31,0,0,1,1.58,6.11c.29,2,.08,7.29-2.19,8.85a2.51,2.51,0,0,1-1.42.44,3.8,3.8,0,0,1-1.86-.55ZM337.15,56.35c-3.16,1.89-5.21,5.15-6.27,10-.26,1.19-.5,2.36-.74,3.53a77.88,77.88,0,0,1-2.5,10c-3.1,9-3.16,21.45,6,29.3a70.39,70.39,0,0,0,6.26,4.6c1.3.88,2.64,1.8,3.93,2.75,1,.75,1.89,1.46,2.69,2.16,4.38,3.85,7.1,8.68,9.74,13.36a81.15,81.15,0,0,0,5,8.1c5.49,7.52,11.56,12.83,18,15.77.95.44,1.94.87,2.94,1.3,7.07,3.08,15.08,6.58,17.9,14.47a15.85,15.85,0,0,1,.61,6.77c-.16,2.19-.06,4.58,1.8,5.63a2.09,2.09,0,0,0,2.33.15c1.77-1.21,2.13-5.91,1.82-8a39.36,39.36,0,0,0-1.55-6,36.82,36.82,0,0,1-1.64-6.6c-.48-3.86.87-6.9,2.3-10.12.34-.79.7-1.59,1-2.42,2.2-5.44-.16-9.42-2.66-13.64a31.4,31.4,0,0,1-3.47-7.22,10.81,10.81,0,0,1,1.1-8.87c2.9-4.81,9-7.58,13.7-8.57,2.35-.49,4.73-.82,7-1.14,7-1,13.62-1.87,19-7.13,3.43-3.34,6.61-5.43,11.84-5.56,1.07,0,2.17,0,3.23,0,3.27.09,6.66.18,9.62-1.31,6.35-3.19,7.81-11.65,7.05-18.5a72.77,72.77,0,0,0-1.5-8c-.49-2.16-1-4.4-1.32-6.64a28.18,28.18,0,0,1,1.65-14.87l.2-.52c1.5-3.87,3.2-8.25,1.46-12.22-1.52-3.47-5.24-4.43-8.67-4.92l-1.56-.21c-3.28-.42-6.68-.85-9.49-3a26.61,26.61,0,0,1-4.58-5A32.34,32.34,0,0,0,446.17,20c-6.07-5.78-15.14-3.36-21,1.34-4.42,3.54-7.44,8.48-10.37,13.25a81.62,81.62,0,0,1-5.89,8.75,44,44,0,0,1-20.41,13.85,44.55,44.55,0,0,1-25.27.59c-1.21-.32-2.41-.67-3.69-1C355,55.4,350.42,54.06,346,54.06A16.72,16.72,0,0,0,337.15,56.35ZM56.28,182.42a9.63,9.63,0,0,0-4.15-1.82c-1.82-.48-3.69-1-5-2.54a6,6,0,0,1-.47-6.14,16.83,16.83,0,0,1,3.76-4.83c2.9-2.89,6.08-5.71,10-5.56s6.78,3.06,9.46,6c1.48,1.65,3.15,3.52,3.77,5.87s-.19,5.36-2.56,6.36a7.63,7.63,0,0,1-2.16.45,8.52,8.52,0,0,0-1.59.27,8.69,8.69,0,0,0-2.93,1.93l-.3.25a6,6,0,0,1-3.81,1.82C59,184.52,57.73,183.72,56.28,182.42Zm-5.2-14.7a16,16,0,0,0-3.58,4.56,5.08,5.08,0,0,0,.35,5.21c1.09,1.34,2.75,1.78,4.51,2.25a10.55,10.55,0,0,1,4.52,2c2.4,2.17,3.86,2.68,6.67.27l.3-.25a9.28,9.28,0,0,1,3.25-2.1,9.54,9.54,0,0,1,1.76-.31,6.84,6.84,0,0,0,1.9-.39c1.91-.8,2.55-3.38,2-5.3-.56-2.15-2.16-3.93-3.57-5.5-2.55-2.84-5.33-5.62-8.83-5.75h-.24c-3.47,0-6.39,2.61-9.09,5.3Zm215.08,11.14a9.15,9.15,0,0,1-7.09-6.2,7.59,7.59,0,0,1,2.5-7.6c3.61-3.4,9-4,13.73-4.48,1.09-.12,2.11-.23,3.1-.37a58.36,58.36,0,0,0,7.18-1.65c2-.55,4.08-1.12,6.16-1.5,3.94-.7,9.49-.87,13.62,2.35a10,10,0,0,1,3.7,7.2,7.24,7.24,0,0,1-2.09,5.71c-2.72,2.62-6.62,2.46-10.38,2.31-1.13,0-2.3-.09-3.39,0-3.65.11-7.24,1.3-10.71,2.44l-2.14.7a33.44,33.44,0,0,1-9.72,1.62,19.81,19.81,0,0,1-4.47-.48ZM292,158.23c-2,.36-4.08.93-6.06,1.47a57.22,57.22,0,0,1-7.33,1.68c-1,.15-2,.26-3.14.37-4.78.52-9.72,1.05-13,4.17a6.38,6.38,0,0,0-2.17,6.43,8,8,0,0,0,6.2,5.35c5.07,1.16,10.67-.2,13.57-1.12l2.13-.69c3.55-1.17,7.22-2.38,11-2.5,1.14,0,2.32,0,3.47.06,3.68.15,7.16.28,9.52-2a6,6,0,0,0,1.72-4.79,8.79,8.79,0,0,0-3.24-6.32,13.47,13.47,0,0,0-8.39-2.52,24.52,24.52,0,0,0-4.28.4ZM54.5,177.82a2.6,2.6,0,0,1-1.21-1.73,3.8,3.8,0,0,1,.62-2.89A2.91,2.91,0,0,1,55.66,172a2.87,2.87,0,0,1,3.1,1.39,3.22,3.22,0,0,1,0,3.71,3.27,3.27,0,0,1-2.58,1.2A3.19,3.19,0,0,1,54.5,177.82Zm1.36-5a2.06,2.06,0,0,0-1.22.88,2.88,2.88,0,0,0-.48,2.19,1.7,1.7,0,0,0,.8,1.15,2.45,2.45,0,0,0,3.07-.54,2.35,2.35,0,0,0,0-2.68,2,2,0,0,0-1.72-1.05,1.58,1.58,0,0,0-.43.05Zm58.45.33a9.87,9.87,0,0,1-3.26-3.23c-3.15-4.53-4.76-9.56-6.32-14.42-.7-2.19-1.42-4.45-2.28-6.66a11.84,11.84,0,0,1-.49-1.53,12.91,12.91,0,0,1,5.86-14.3,14.5,14.5,0,0,1,11-1,10.4,10.4,0,0,1,8.2,12.21,10.66,10.66,0,0,1-1.22,3.22,16.32,16.32,0,0,1-3.51,4.37,18.91,18.91,0,0,0-3,3.53,9.79,9.79,0,0,0-.9,8,20.47,20.47,0,0,0,.82,2,15.73,15.73,0,0,1,1,2.6c.43,1.61.35,3.77-1.17,5a3.77,3.77,0,0,1-2.35.79,5.13,5.13,0,0,1-2.31-.58Zm-6-39.37a12,12,0,0,0-5.45,13.31,13.83,13.83,0,0,0,.46,1.42c.87,2.24,1.6,4.52,2.3,6.72,1.61,5,3.13,9.76,6.2,14.18a8.85,8.85,0,0,0,3,3,3.43,3.43,0,0,0,3.68-.11c1.18-1,1.21-2.81.87-4.09a15.3,15.3,0,0,0-1-2.46,19.26,19.26,0,0,1-.86-2.1,10.69,10.69,0,0,1,1-8.69,19.69,19.69,0,0,1,3.18-3.7A15.24,15.24,0,0,0,125,147.1a9.52,9.52,0,0,0-3.36-13,9.29,9.29,0,0,0-3.06-1.15,15,15,0,0,0-4.22-.6,12.12,12.12,0,0,0-6,1.48Zm376.57,21.05c-1.84-.69-3-1.76-3.15-2.93-.1-.71.12-1.79,1.7-2.94.23-.17.47-.33.71-.49a4.88,4.88,0,0,0,2.67-4.54,9,9,0,0,1,.93-3.2c1.44-2.48,4.65-3,7.06-3a12.13,12.13,0,0,1,5.66,1.17,6.25,6.25,0,0,1,3.46,4.69c.33,3.17-2.14,6.53-7.16,9.72a13.5,13.5,0,0,1-7.31,2.35,12.8,12.8,0,0,1-4.57-.88Zm3.63-13.64a8.06,8.06,0,0,0-.81,2.88,5.76,5.76,0,0,1-3.06,5.15c-.23.15-.46.3-.68.46-.68.49-1.46,1.25-1.34,2.1s1.07,1.66,2.57,2.22c3.82,1.43,7.34,1,11.09-1.39,3.29-2.09,7.13-5.32,6.75-8.87a5.37,5.37,0,0,0-3-4,11.33,11.33,0,0,0-5.25-1.07h-.12c-1.81,0-4.9.34-6.16,2.51Zm-107.25,3.14c-3.72-.33-6.68-3.79-8.51-6.63A28.58,28.58,0,0,1,369,129c-.16-.7-.3-1.42-.45-2.12a43.91,43.91,0,0,0-2.28-8.35c-2.24-5.31-7.8-9.67-13.17-13.88-9.09-7.13-18.5-14.5-13.47-27.07A11.25,11.25,0,0,1,347.07,71a9.66,9.66,0,0,1,8.66,1.67C365.82,79.76,377,81.39,388,77.33a28.53,28.53,0,0,1,4.14-1.78c9-4.7,16-11.46,23.39-18.61,2.77-2.67,5.64-5.43,8.6-8.07,5.78-4.34,11.15-5.92,16.44-4.87l1.79.44c6.92,1.66,16.39,3.94,15.81,12.52A25.63,25.63,0,0,1,456.52,63c-1,2.86-2,5.57-1.33,8.67.65,1.93,2.62,8.7.38,13.12a6.5,6.5,0,0,1-3.94,3.34,13.5,13.5,0,0,1-3.89.51,10.76,10.76,0,0,0-4.72.89A31.73,31.73,0,0,0,434,96c-4.12,4.2-8.94,5.49-15.63,4.14a29.86,29.86,0,0,1-7.84-3c-5.66-3.23-19.6-9.74-27.38-.74-3.88,7.82.08,15.69,3.91,23.3.7,1.39,1.42,2.82,2.07,4.21,2.57,5.15,3.13,12.54-1.45,17.42-1.87,2-3.86,3-5.92,3l-.56,0ZM347.3,71.83a10.39,10.39,0,0,0-6.9,6.08c-4.78,11.94,4,18.79,13.2,26,5.46,4.28,11.11,8.71,13.44,14.23a44.9,44.9,0,0,1,2.34,8.51c.14.7.29,1.41.44,2.11a27.6,27.6,0,0,0,3.64,8.43c2.43,3.77,5.21,6,7.84,6.22,2,.18,3.91-.73,5.77-2.7,4.28-4.57,3.73-11.54,1.29-16.42-.65-1.39-1.37-2.82-2.06-4.2-3.94-7.83-8-15.92-3.89-24.15l.06-.09c8.2-9.57,22.67-2.84,28.51.5a29.73,29.73,0,0,0,7.6,2.92c6.36,1.27,10.93.07,14.82-3.89a32.56,32.56,0,0,1,9.25-6.66,11.52,11.52,0,0,1,5.08-1,12.77,12.77,0,0,0,3.64-.47,5.63,5.63,0,0,0,3.41-2.89c2.09-4.11.2-10.59-.43-12.48-.76-3.4.31-6.36,1.35-9.21a25.74,25.74,0,0,0,1.6-5.85c.52-7.81-8.16-9.9-15.13-11.57l-1.78-.44c-5-1-10.15.53-15.68,4.68-2.93,2.6-5.79,5.36-8.55,8-7.48,7.21-14.54,14-23.63,18.77l-.06,0a28.59,28.59,0,0,0-4.1,1.76c-11.36,4.19-22.8,2.52-33.17-4.79a8.61,8.61,0,0,0-5.38-1.86A9.75,9.75,0,0,0,347.3,71.83Zm33,65.06c-2.93-.34-4.85-3-6-5.16-1.84-3.61-1.89-7.49-1.94-11.24s-.1-7.14-1.71-10.29A35.16,35.16,0,0,0,359,97.06c-.42-.28-.85-.55-1.27-.81a16.78,16.78,0,0,1-5-4.14c-1.64-2.29-1.83-6,.51-7.7,2.52-1.81,5.62-.25,8.35,1.13.52.27,1,.52,1.54.76,6,2.78,12.91,1.22,20-.78s15.44-4.33,22.54-8.65a93.33,93.33,0,0,0,12.75-10c5.18-4.58,10.54-9.32,16.94-12.24A14.76,14.76,0,0,1,442,53a6.63,6.63,0,0,1,4.94,2c2.73,3,2.43,8.57,2.19,13.09-.07,1.34-.14,2.6-.12,3.66.05,3.08-.24,6.83-3,8.45-1.85,1.09-4,.74-6,.4a12,12,0,0,0-4.46-.18c-2.39.55-3.94,2.56-5.57,4.69-1.42,1.84-2.89,3.75-5,4.73-3.6,1.69-7.5.2-11.26-1.25L412.09,88a37.24,37.24,0,0,0-27.48.87c-6.48,2.83-10.32,8-10.54,14.13-.22,6.34,3.72,15.59,7.39,19.92l.55.63c2.45,2.85,5.8,6.74,3.4,10.84a5.37,5.37,0,0,1-4.53,2.55l-.56,0ZM353.71,85.14c-1.92,1.38-1.7,4.51-.32,6.45a16.12,16.12,0,0,0,4.76,3.9l1.28.82a36.16,36.16,0,0,1,12.07,13.48c1.71,3.34,1.76,7.08,1.81,10.69s.1,7.42,1.84,10.85c1,2,2.74,4.38,5.27,4.68a4.43,4.43,0,0,0,4.21-2.1c2.09-3.54-.9-7-3.3-9.8-.19-.21-.37-.43-.55-.64-3.86-4.55-7.83-13.88-7.6-20.52S377.45,91,384.25,88a38.13,38.13,0,0,1,28.14-.89l1.58.6c3.6,1.38,7.31,2.8,10.57,1.28,1.91-.9,3.31-2.72,4.66-4.48,1.66-2.16,3.38-4.39,6.08-5a12.51,12.51,0,0,1,4.8.17c2,.33,3.86.64,5.43-.28,2.34-1.38,2.6-4.65,2.55-7.67,0-1.09.05-2.37.12-3.72.23-4.36.52-9.77-1.95-12.44a5.77,5.77,0,0,0-4.31-1.73,14,14,0,0,0-6.22,1.58C429.42,58.3,424.12,63,419,67.54a94.54,94.54,0,0,1-12.88,10.1c-7.2,4.38-15.46,6.7-22.76,8.75-7,2-14.36,3.64-20.65.72-.51-.23-1-.5-1.56-.77-1.81-.91-3.67-1.85-5.33-1.85A3.41,3.41,0,0,0,353.71,85.14Zm-97.11,47.8c-2-.61-3.41-2.5-4.41-3.88-2.82-3.88-3.77-6.69-3-8.83.62-1.7,2.36-2.91,5.18-3.59a28.79,28.79,0,0,1,7-.55c3.43,0,6.85.37,8.67,2.89s1,5.86-.59,8-4.32,3.65-6.64,4.76a11.19,11.19,0,0,1-4.72,1.4,5.09,5.09,0,0,1-1.5-.22Zm-2-15.44c-2.51.62-4,1.64-4.56,3-.66,1.81.27,4.42,2.87,8,1.2,1.65,2.32,3.06,3.94,3.54,1.84.55,3.85-.3,5.58-1.14,2.22-1.06,4.72-2.38,6.31-4.49,1.42-1.89,2.08-4.88.58-7s-4.75-2.51-7.94-2.52h-.78a24.69,24.69,0,0,0-6,.53ZM120.23,106.57a6.57,6.57,0,0,1-6.08-4.87,12.37,12.37,0,0,1-.23-3.15,9.88,9.88,0,0,0-.34-3.34,9.84,9.84,0,0,0-1.81-2.86,10.33,10.33,0,0,1-2-3.34c-1-3.37,1.5-6.59,4-8.33a10.19,10.19,0,0,1,6.23-2.16c3.39.11,5.06,1.89,5,5.29a44.08,44.08,0,0,0,1,11.51l.17.7a12.13,12.13,0,0,1,.42,5.86,6.41,6.41,0,0,1-6.09,4.69Zm-6-25.16c-2.37,1.68-4.41,4.61-3.6,7.34a9.29,9.29,0,0,0,1.87,3,10.77,10.77,0,0,1,2,3.12,10.73,10.73,0,0,1,.39,3.65,11.91,11.91,0,0,0,.21,2.92,5.44,5.44,0,0,0,10.55.17,11.59,11.59,0,0,0-.43-5.42l-.17-.71a45.38,45.38,0,0,1-1-11.74c.09-2.93-1.17-4.28-4.09-4.38h-.22A9.82,9.82,0,0,0,114.2,81.41ZM44.82,41.22c-1.31-1.39-3.49-6.62-2.12-9,.41-.72,1.33-1.48,3.32-1a5.21,5.21,0,0,1,2,1.15,5.44,5.44,0,0,0,1.4.91,5.56,5.56,0,0,0,2.11.19,5.69,5.69,0,0,1,2.62.31,3.27,3.27,0,0,1,1.7,1.89,4.33,4.33,0,0,1-.12,3.28,7.42,7.42,0,0,1-5.57,3.8,7.53,7.53,0,0,1-1.25.1A5.45,5.45,0,0,1,44.82,41.22Zm-1.35-8.55c-1.07,1.87.73,6.59,2,7.94A5,5,0,0,0,50,41.86a6.61,6.61,0,0,0,4.91-3.3A3.44,3.44,0,0,0,55,36a2.38,2.38,0,0,0-1.23-1.39,5.21,5.21,0,0,0-2.22-.24,6,6,0,0,1-2.46-.24A6.28,6.28,0,0,1,47.47,33a4.45,4.45,0,0,0-1.65-1,3.65,3.65,0,0,0-.93-.12A1.41,1.41,0,0,0,43.47,32.67Zm318-22.62a5.19,5.19,0,0,1-1.88-2.5,3.18,3.18,0,0,1,.68-3.15c1.11-1.11,2.62-1.13,4.09-1.15a5.58,5.58,0,0,0,3.54-.79,6.28,6.28,0,0,0,.79-.84A3.76,3.76,0,0,1,370.86,0a2.26,2.26,0,0,1,1.74.49,4,4,0,0,1,1.25,2.74,8,8,0,0,1-4,7.43,7.6,7.6,0,0,1-3.68.91A7.89,7.89,0,0,1,361.42,10.05ZM371,.91c-.62.07-1.14.69-1.65,1.28a6.49,6.49,0,0,1-.92,1,6.32,6.32,0,0,1-4.08,1c-1.35,0-2.62,0-3.47.89a2.31,2.31,0,0,0-.45,2.25A4.24,4.24,0,0,0,362,9.33a7,7,0,0,0,7.45.56A7,7,0,0,0,373,3.32,3.19,3.19,0,0,0,372,1.2a1.33,1.33,0,0,0-.86-.31Z"/></g></g></svg>
