<svg xmlns="http://www.w3.org/2000/svg" viewBox="0 0 44.22 31.32"><defs><style>.cls-1{fill:#09432f;}</style></defs><title>icon_conditionnement</title><g id="Calque_2" data-name="Calque 2"><g id="Calque_1-2" data-name="Calque 1"><path id="Tracé_882" data-name="Tracé 882" class="cls-1" d="M44.22,17.24V9.64H41.69c0-.11,0-.22,0-.33a3.8,3.8,0,0,0-3.45-3.78,3.8,3.8,0,0,0-6.58-3.77A3.79,3.79,0,0,0,26.45.59a3.84,3.84,0,0,0-1.17,1.17A3.79,3.79,0,0,0,20.05.59a3.84,3.84,0,0,0-1.17,1.17A3.79,3.79,0,0,0,13.65.59a3.84,3.84,0,0,0-1.17,1.17A3.8,3.8,0,0,0,5.9,5.53,3.79,3.79,0,0,0,2.45,9.31c0,.11,0,.22,0,.33H0v7.6H3v6.48H0v7.6H44.22v-7.6h-3V17.24ZM37.91,6.9a2.4,2.4,0,0,1,2.4,2.41,1.84,1.84,0,0,1,0,.33H35.53c0-.11,0-.22,0-.33A2.41,2.41,0,0,1,37.91,6.9Zm-3-5.51A2.41,2.41,0,1,1,32.47,3.8a2.4,2.4,0,0,1,2.41-2.41ZM31.57,6.9A2.41,2.41,0,0,1,34,9.31a1.84,1.84,0,0,1,0,.33H29.2a1.84,1.84,0,0,1,0-.33,2.41,2.41,0,0,1,2.4-2.41Zm-3.1-5.51a2.41,2.41,0,1,1-2.4,2.41,2.41,2.41,0,0,1,2.4-2.41ZM25.24,6.9a2.4,2.4,0,0,1,2.4,2.41,1.84,1.84,0,0,1,0,.33H22.86c0-.11,0-.22,0-.33a2.41,2.41,0,0,1,2.4-2.41ZM22.07,1.39A2.41,2.41,0,1,1,19.66,3.8a2.41,2.41,0,0,1,2.41-2.41ZM18.9,6.9a2.41,2.41,0,0,1,2.41,2.41,1.84,1.84,0,0,1,0,.33H16.53c0-.11,0-.22,0-.33A2.41,2.41,0,0,1,18.9,6.9ZM15.67,1.39A2.41,2.41,0,1,1,13.26,3.8a2.41,2.41,0,0,1,2.41-2.41ZM12.57,6.9A2.41,2.41,0,0,1,15,9.31a1.84,1.84,0,0,1,0,.33H10.19a1.84,1.84,0,0,1,0-.33A2.41,2.41,0,0,1,12.57,6.9ZM9.26,1.39A2.41,2.41,0,1,1,6.85,3.8,2.4,2.4,0,0,1,9.26,1.39ZM3.83,9.31a2.41,2.41,0,1,1,4.81,0h0a1.86,1.86,0,0,1,0,.33H3.86l0-.33ZM1.38,11H42.83v4.82H1.38ZM33,23.72V17.24h2.69v6.48ZM11.19,17.24v6.48H8.49V17.24Zm1.39,0h2.69v6.48H12.58Zm4.09,0h2.69v6.48H16.67Zm4.08,0h2.7v6.48h-2.7Zm4.09,0h2.69v6.48H24.84Zm4.09,0h2.69v6.48H28.93Zm-24.52,0H7.1v6.48H4.41ZM42.83,29.92H1.38V25.11H42.83Zm-3-6.2h-2.7V17.24h2.7Z"/></g></g></svg>