<svg xmlns="http://www.w3.org/2000/svg" viewBox="0 0 43.78 42.92"><defs><style>.cls-1{fill:#09432f;}</style></defs><title>icon_revolte</title><g id="Calque_2" data-name="Calque 2"><g id="Calque_1-2" data-name="Calque 1"><g id="Groupe_44" data-name="Groupe 44"><path id="Tracé_878" data-name="Tracé 878" class="cls-1" d="M16.43,23.35A3.65,3.65,0,1,0,12.79,27,3.64,3.64,0,0,0,16.43,23.35Zm-5.84,0a2.51,2.51,0,0,1,.1-.6,1.45,1.45,0,1,0,2.76-.87,1.49,1.49,0,0,0-.5-.71,2.19,2.19,0,1,1-2.36,2.18Z"/><path id="Tracé_879" data-name="Tracé 879" class="cls-1" d="M13.31,9A4.18,4.18,0,1,0,9.14,4.83h0A4.18,4.18,0,0,0,13.31,9ZM15,3.62h0ZM13.31,2.11A2.37,2.37,0,0,1,14,2.2,1.45,1.45,0,0,0,14.55,5a1.46,1.46,0,0,0,1.16-1.42.13.13,0,0,0,0-.06A2.59,2.59,0,0,1,16,4.83a2.72,2.72,0,1,1-2.72-2.72Z"/><path id="Tracé_880" data-name="Tracé 880" class="cls-1" d="M27.69,19.34a3,3,0,1,0,3,3h0A3,3,0,0,0,27.69,19.34Zm0,4.49a1.52,1.52,0,0,1,0-3,1.62,1.62,0,0,1,.49.08,1.44,1.44,0,0,0,0,2.86,1.37,1.37,0,0,1-.49.09Z"/><path id="Tracé_881" data-name="Tracé 881" class="cls-1" d="M43.78,12.35A3.41,3.41,0,0,0,37,12.23v.12a3.36,3.36,0,0,0,.79,2.16c-2.38-.55-4.83,1-5.68,1.55l-2.92-.82,6.06-6.07c.36,0,.72.05,1.09.05a6.78,6.78,0,0,0,4.78-1.61h0c2.15-2.15,1.53-6.09,1.51-6.25a.75.75,0,0,0-.6-.6c-.17,0-4.1-.65-6.25,1.51C34,4.06,34.08,7.08,34.18,8.14l-5.24,5.25v-2.5c.82-.68,3-2.72,3-5.26,0-3-3.21-5.4-3.35-5.49a.71.71,0,0,0-.85,0c-.14.1-3.35,2.44-3.34,5.49,0,2.54,2.22,4.59,3,5.26v3.95l-6.8,6.81v-.46s0,0,0,0V17.63c.82-.67,3.05-2.72,3.05-5.26,0-3-3.21-5.39-3.34-5.49a.75.75,0,0,0-.86,0c-.13.1-3.34,2.45-3.35,5.49,0,2.54,2.22,4.59,3,5.26v3.8l-10.06-10c.11-1.09.21-4.07-1.56-5.85C5.45,3.46,1.52,4.08,1.35,4.1a.73.73,0,0,0-.6.6C.73,4.87.11,8.8,2.26,11A6.79,6.79,0,0,0,7,12.57a10.18,10.18,0,0,0,1.11-.06l5.3,5.25H10.87c-.67-.82-2.71-3-5.24-3h0c-3,0-5.4,3.21-5.49,3.35a.71.71,0,0,0,0,.85c.1.14,2.44,3.35,5.48,3.35h0c2.53,0,4.58-2.23,5.25-3.05h4.05l4.31,4.26V35.6L16,38.13l-.7.18-.63-1a.73.73,0,0,0-1.22.8l.36.54-.95.24-.07,0-.07,0-.06,0-.11.08-.09.1a.75.75,0,0,0-.07.12.76.76,0,0,0-.06.42v.07a.25.25,0,0,0,0,.07s0,0,0,.06l.68,1.41a.73.73,0,0,0,1,.34.73.73,0,0,0,.34-1l-.29-.6,1.43-.37-.22,2.37a.72.72,0,0,0,.66.79H16a.73.73,0,0,0,.72-.66l.29-3.1,2.46-1.93.47,2-1.07.82a.72.72,0,0,0-.13,1,.73.73,0,0,0,1,.14l.88-.68L22,42.22a.71.71,0,0,0,1,.11.72.72,0,0,0,.11-1l-1.68-2.08L21,37.08l3,1.09-.33.75a.73.73,0,0,0,.38,1A.72.72,0,0,0,25,39.5l.15-.32,2,2.65a.72.72,0,0,0,1,.13.73.73,0,0,0,.14-1l-.74-1,1.34-.4a.73.73,0,1,0-.41-1.4h0l-1.88.56-1.08-1.42s0,0,0,0l-.05-.05-.08-.06-.1-.07h0l.56-.31a.72.72,0,0,0,.26-1,.73.73,0,0,0-1-.29l-1.68.93-2.76-1V23.69L28,16.41l3.71,1c.42,1,1.79,3.67,4.23,4.36h0a4.85,4.85,0,0,0,1.26.17,9.11,9.11,0,0,0,4.92-1.91.72.72,0,0,0,.23-.82A10,10,0,0,0,40,15.7a2.71,2.71,0,0,0,.4,0A3.41,3.41,0,0,0,43.78,12.35Zm-7-9.06C38,2.07,40.19,2.06,41.21,2.13c.09,1.19,0,3.3-1.16,4.45a5.1,5.1,0,0,1-3.43,1.18l1.53-1.53a.73.73,0,0,0-1-1L35.59,6.73A5.25,5.25,0,0,1,36.77,3.29ZM3.29,9.93C2.07,8.7,2.06,6.5,2.14,5.48c1-.07,3.21-.06,4.43,1.16h0a5.08,5.08,0,0,1,1.18,3.42L6.22,8.54a.74.74,0,0,0-1,0,.73.73,0,0,0,0,1h0l1.55,1.54A5.28,5.28,0,0,1,3.29,9.93ZM5.62,20.82h0c-1.73,0-3.28-1.55-3.95-2.32.67-.77,2.23-2.33,4-2.33h0a5.15,5.15,0,0,1,3.26,1.6H6.07a.73.73,0,0,0-.73.72.73.73,0,0,0,.73.73H8.88a5.13,5.13,0,0,1-3.26,1.6Zm12-8.45c0-1.73,1.55-3.3,2.33-4,.77.67,2.31,2.23,2.31,4a5.17,5.17,0,0,1-1.59,3.26V12.82a.73.73,0,0,0-.73-.73h0a.73.73,0,0,0-.73.72v2.83a5.27,5.27,0,0,1-1.59-3.27Zm9.84-6.3V8.89a5.17,5.17,0,0,1-1.59-3.26c0-1.74,1.54-3.3,2.31-4,.77.68,2.32,2.24,2.32,4a5.06,5.06,0,0,1-1.58,3.26V6.07a.73.73,0,0,0-.73-.72h0a.73.73,0,0,0-.73.72ZM40.74,19.26c-.85.56-2.77,1.63-4.44,1.16A5.17,5.17,0,0,1,33.59,18l2.71.77.2,0a.72.72,0,0,0,.73-.72.71.71,0,0,0-.53-.7L34,16.6A5.18,5.18,0,0,1,37.56,16C39.22,16.42,40.3,18.34,40.74,19.26Zm-2.32-6.91A1.93,1.93,0,0,1,39,11a1.38,1.38,0,0,0-.08.45,1.45,1.45,0,0,0,2.9,0h0a1.38,1.38,0,0,0-.08-.45,2,2,0,1,1-3.32,1.39Z"/></g></g></g></svg>