<svg xmlns="http://www.w3.org/2000/svg" width="51" height="62" viewBox="0 0 51.45 61.99">
  <path d="M38.8,11.66A102.55,102.55,0,0,0,26.27.17a.05.05,0,0,1,0,0l-.09,0-.07,0A.16.16,0,0,0,26,0L25.9,0h-.34l-.1,0-.08,0-.07,0-.09,0a.05.05,0,0,1,0,0A102.55,102.55,0,0,0,12.65,11.66C4.26,20.81,0,29.2,0,36.58c0,8.3,4.2,11.84,7.73,13.35a17.12,17.12,0,0,0,6.63,1.27,19.9,19.9,0,0,0,10.42-2.85V61.08a.91.91,0,0,0,1.82,0V48.27A19.82,19.82,0,0,0,37.12,51.2a17,17,0,0,0,6.61-1.27c3.52-1.51,7.72-5,7.72-13.35C51.45,29.2,47.2,20.81,38.8,11.66ZM43,48.26C37.58,50.59,30,49,26.6,46v-.58L38.51,33.49a.91.91,0,0,0-1.28-1.28L26.6,42.83V31.58l8.23-8.22a.91.91,0,1,0-1.29-1.29L26.6,29V19.23a.91.91,0,0,0-1.82,0V29l-7.13-7.13a.91.91,0,0,0-1.29,0,.89.89,0,0,0,0,1.28l8.42,8.43V43L14.22,32.4a.91.91,0,0,0-1.28,1.29L24.78,45.54v.54C21.34,49,13.84,50.56,8.44,48.25,4.11,46.4,1.82,42.36,1.82,36.58c0-15.2,20.31-31.72,23.9-34.53,3.6,2.8,23.91,19.33,23.91,34.53,0,5.79-2.29,9.83-6.62,11.68Z"/>
</svg>
