<svg xmlns="http://www.w3.org/2000/svg" width="301" height="392" viewBox="0 0 301.1 392.5"><defs><style>.cls-1{opacity:0.28;}.cls-2{fill:#fff;}</style></defs><title>recrutment_lines</title><g id="Calque_2" data-name="Calque 2"><g id="Calque_1-2" data-name="Calque 1"><g id="Groupe_51" data-name="Groupe 51" class="cls-1"><path id="Tracé_908" data-name="Tracé 908" class="cls-2" d="M204.25,185c-6.95-5.41-16.29-5.14-22.9-4-3.51.63-7,1.59-10.36,2.51a96.07,96.07,0,0,1-12.08,2.78c-1.66.24-3.39.42-5.21.62-8,.85-17,1.83-23.09,7.54-3.89,3.65-5.42,8.31-4.21,12.78,1.37,5.07,5.94,9.06,11.92,10.43a33.37,33.37,0,0,0,7.52.8,56,56,0,0,0,16.34-2.72c1.2-.38,2.4-.78,3.6-1.17,5.84-1.93,11.87-3.91,18-4.11,1.84-.06,3.8,0,5.7.1,6.33.25,12.88.51,17.47-3.9a12.2,12.2,0,0,0,3.51-9.6A16.83,16.83,0,0,0,204.25,185Zm1.32,20.26c-4,3.82-9.82,3.59-16,3.34-1.94-.07-3.94-.15-5.85-.1-6.42.21-12.59,2.24-18.56,4.21l-3.59,1.16c-4.86,1.54-14.29,3.84-22.8,1.89-5.26-1.2-9.26-4.65-10.44-9-1-3.79.27-7.63,3.65-10.8,5.59-5.25,13.9-6.15,21.93-7,1.84-.2,3.58-.39,5.28-.63a96.54,96.54,0,0,0,12.33-2.83c3.32-.91,6.76-1.86,10.18-2.47,6.22-1.11,15-1.4,21.32,3.56a14.75,14.75,0,0,1,5.44,10.63A10.16,10.16,0,0,1,205.57,205.28Z"/><path id="Tracé_909" data-name="Tracé 909" class="cls-2" d="M211.26,171.1c-3.73-1.14-7.61-.56-11.36,0a42.68,42.68,0,0,1-6.68.64,40.91,40.91,0,0,1-9.38-1.58,53.11,53.11,0,0,0-7.61-1.52c-8.91-.9-17.57,2.6-25.21,5.7-12.13,4.92-25.89,10.49-35.77,20.58a19,19,0,0,0-5.43,14.21,27.54,27.54,0,0,0,9.26,19.06c6,5.4,14.56,8.42,23.73,8.42.65,0,1.31,0,2-.05,8.22-.39,16.75-3,26.08-7.94,1.09-.58,2.18-1.19,3.28-1.79,6.6-3.64,13.44-7.41,20.69-6.66a38.7,38.7,0,0,1,8.53,2.3c4.38,1.55,8.9,3.15,13.52,2,6.88-1.67,10.75-8.86,11.43-14.83.75-6.56-1.24-13.15-3-19C222.66,182,219.13,173.53,211.26,171.1Zm15.56,38.39c-.63,5.47-4.11,12-10.3,13.55-4.18,1-8.3-.44-12.66-2a39.62,39.62,0,0,0-8.88-2.37c-7.73-.8-14.76,3.07-21.57,6.83-1.09.6-2.18,1.2-3.26,1.77-9.13,4.86-17.45,7.4-25.44,7.78-9.51.44-18.49-2.47-24.63-8a26,26,0,0,1-8.77-18,17.51,17.51,0,0,1,5-13.12c9.66-9.86,23.26-15.37,35.26-20.24,7.47-3,15.93-6.46,24.5-5.59a53.25,53.25,0,0,1,7.4,1.48,42.14,42.14,0,0,0,9.72,1.63,43.35,43.35,0,0,0,6.92-.66c3.75-.56,7.3-1.09,10.7-.05,7.2,2.22,10.53,10.25,13.05,18.6C225.58,196.81,227.53,203.24,226.82,209.49Z"/><path id="Tracé_910" data-name="Tracé 910" class="cls-2" d="M236,249.09c1.66-.71,3.42-1.33,5.13-1.92,3.93-1.37,8-2.79,11.21-5.6,5.55-4.84,7.21-12.41,8.55-20.39.83-4.92,1.26-11-2.82-14.17-2.49-1.94-5.64-2-8.69-2.06a22.54,22.54,0,0,1-5.49-.54c-6.34-1.76-9.32-9.16-10.71-15-.2-.85-.39-1.71-.58-2.57-1.31-5.93-2.67-12.06-7.13-16.22-5.11-4.76-12.26-5.12-19.17-5.47A62.06,62.06,0,0,1,195.67,164c-4.66-1.09-9-3.43-13.23-5.71a62.7,62.7,0,0,0-12.32-5.52,31.5,31.5,0,0,0-28.4,6.08,62.3,62.3,0,0,0-7.33,7.73c-2.76,3.26-5.61,6.64-9.15,9.05a47.77,47.77,0,0,1-7.69,4,51.11,51.11,0,0,0-7.79,4c-7,4.73-11.21,12.31-11.72,21.37a39,39,0,0,0,13.1,31c8.9,7.57,21.75,11.29,35.26,10.22,10.85-.86,22.39-4.65,35.27-11.56l.57-.3a26.32,26.32,0,0,1,7.72-3.17c3.12-.54,6.14.4,7.68,2.38,1.91,2.46,1.42,5.72.9,9.17-.39,2.6-.79,5.28-.2,7.82a10.37,10.37,0,0,0,5,6.55,17,17,0,0,0,8.64,2.23,18.13,18.13,0,0,0,4.8-.63c4.19-1.14,8-3.35,11.65-5.48A71.64,71.64,0,0,1,236,249.09Zm-19.59,8a16.57,16.57,0,0,1-12.28-1.45,8.85,8.85,0,0,1-4.32-5.6c-.53-2.25-.15-4.8.22-7.25.54-3.61,1.1-7.34-1.2-10.31a9,9,0,0,0-7.15-3.11,12,12,0,0,0-2,.17,27.55,27.55,0,0,0-8.17,3.32l-.56.3c-12.7,6.82-24.05,10.55-34.69,11.39-13.12,1.05-25.57-2.55-34.17-9.86A37.45,37.45,0,0,1,99.53,205c.49-8.57,4.42-15.74,11.06-20.2a49.87,49.87,0,0,1,7.56-3.87,48.4,48.4,0,0,0,7.93-4.1c3.71-2.52,6.63-6,9.46-9.32a60.69,60.69,0,0,1,7.14-7.55,30,30,0,0,1,27-5.78,60.89,60.89,0,0,1,12,5.4c4.3,2.31,8.74,4.71,13.6,5.84a62.25,62.25,0,0,0,10.88,1.19c6.95.35,13.52.68,18.23,5.07,4.12,3.84,5.42,9.74,6.69,15.44.19.87.38,1.74.58,2.6,1.48,6.29,4.72,14.19,11.77,16.15a24.09,24.09,0,0,0,5.87.6c2.92,0,5.69.1,7.78,1.74,3.46,2.71,3,8.23,2.28,12.74-1.3,7.7-2.89,15-8.06,19.51-3,2.62-6.75,3.92-10.72,5.31-1.74.6-3.53,1.22-5.23,2a76.73,76.73,0,0,0-7.71,4.09c-3.58,2.08-7.29,4.24-11.29,5.33Z"/><path id="Tracé_911" data-name="Tracé 911" class="cls-2" d="M259.16,310.17a17.79,17.79,0,0,0,2.59-17.2,34,34,0,0,0-4.49-7.45c-.82-1.14-1.67-2.31-2.42-3.5-1.56-2.47-3.91-7.24-2.16-11.44a16.15,16.15,0,0,1,3.94-5,21.25,21.25,0,0,0,3.75-4.38c2.36-4.05,1.8-8.76,1.24-13.32a36.3,36.3,0,0,1-.38-8.2c.58-5,3.5-9.53,6.33-13.87.93-1.43,1.89-2.9,2.76-4.38,3.62-6.16,5.8-14.75,1-20.4-3.56-4.23-9.25-4.89-14.75-5.52-5.29-.6-10.28-1.18-13.59-4.6-2.18-2.26-3.13-5.3-4.13-8.51a47.54,47.54,0,0,0-1.74-4.9c-5.55-12.45-20.68-16.67-34.42-19.64-12.75-2.75-27.92-7.53-32.17-20.1-1.51-4.49-1.36-9.51-1.22-14.37.18-6.14.37-12.5-2.8-17.88S156.8,96.32,148.7,95.3a77.71,77.71,0,0,0-15,.07c-1.87.13-3.8.27-5.7.34-10.6.44-18.66-1.28-24.65-5.26C96.75,86.07,91.82,76.78,95,68.82c.22-.55.48-1.1.73-1.65A11.69,11.69,0,0,0,97.16,62a6.36,6.36,0,0,0-2.35-4.8c-2.88-2.46-7.68-3.08-11.18-2.6-8,1.09-14.25,4.81-17.14,10.2-4,7.52-1.72,17.13,7.05,29.37,6.43,9,12.46,18.5,9.43,27.64-1.54,4.67-5.26,8.28-8.85,11.77-1.3,1.27-2.65,2.58-3.9,3.94-5.07,5.54-8.31,13.76-4.11,19.64,3.07,4.3,8.4,5.11,13.54,5.9a38.63,38.63,0,0,1,8.15,1.84c7.9,3.11,10,11.72,9.27,18.74-.36,3.61-.94,7.28-1.51,10.83-1,6.29-2,12.8-1.88,19.3.38,16.38,12,24.26,23.2,31.87a118.41,118.41,0,0,1,11.73,8.68c1.33,1.18,2.61,2.53,3.85,3.84,3,3.21,6.2,6.53,10.56,7.76,4.87,1.37,9.72-.29,14.42-1.9a39.6,39.6,0,0,1,9-2.34c9.64-.87,17.82,6.08,21.85,10.3,2.68,2.81,5.13,5.94,7.5,9a76.4,76.4,0,0,0,22.73,21.09c2.28,1.56,4.63,3.17,6.87,4.83l2.07,1.57c4.72,3.6,9.59,7.31,15.52,8.15a15.26,15.26,0,0,0,2.34.17A17.83,17.83,0,0,0,259.16,310.17Zm-15.94,5c-5.54-.79-10.25-4.38-14.81-7.86l-2.09-1.58c-2.26-1.68-4.63-3.3-6.92-4.86A75.07,75.07,0,0,1,197,280.05c-2.39-3.05-4.86-6.21-7.6-9.07-4-4.16-11.82-10.84-21.27-10.84q-.88,0-1.8.09a40.14,40.14,0,0,0-9.39,2.41c-4.68,1.6-9.1,3.11-13.52,1.87-4-1.11-6.83-4.14-9.88-7.35-1.26-1.33-2.56-2.71-3.95-3.93a119.71,119.71,0,0,0-11.87-8.79c-11.41-7.74-22.18-15.06-22.54-30.66-.15-6.38.87-12.82,1.86-19,.57-3.57,1.15-7.26,1.52-10.91.75-7.57-1.54-16.87-10.22-20.29a39.56,39.56,0,0,0-8.47-1.93c-5.06-.77-9.85-1.5-12.55-5.28-3.71-5.2-.66-12.66,4-17.76,1.21-1.32,2.54-2.62,3.84-3.87,3.72-3.62,7.56-7.37,9.22-12.38,3.52-10.63-4.4-21.67-9.63-29-8.4-11.73-10.68-20.82-7-27.79,2.66-5,8.49-8.4,16-9.42,3.16-.43,7.48.1,10,2.26a4.85,4.85,0,0,1,1.82,3.68,10.5,10.5,0,0,1-1.33,4.47c-.27.58-.54,1.15-.77,1.73-3.55,9,2,18.78,8.94,23.43,6.25,4.16,14.61,6,25.54,5.51,1.92-.07,3.86-.21,5.74-.34a76.21,76.21,0,0,1,14.72-.08c7.65,1,13.75,4.43,16.74,9.5s2.78,10.87,2.6,17.08c-.15,5-.3,10.14,1.3,14.89,4.48,13.28,20.13,18.24,33.27,21.08,13.38,2.9,28.1,7,33.36,18.78a44.47,44.47,0,0,1,1.68,4.74c1,3.24,2.06,6.6,4.49,9.11,3.68,3.81,9.18,4.44,14.49,5.05s10.6,1.22,13.78,5c4.25,5,2.18,12.95-1.18,18.67-.86,1.45-1.8,2.91-2.73,4.32-2.92,4.48-6,9.12-6.56,14.53a37,37,0,0,0,.38,8.54c.54,4.51,1.06,8.77-1.05,12.39a20.19,20.19,0,0,1-3.5,4,17.43,17.43,0,0,0-4.28,5.48c-2,4.83.56,10.1,2.28,12.82.78,1.23,1.64,2.42,2.48,3.58a32.78,32.78,0,0,1,4.3,7.11,16,16,0,0,1-17.13,21.62Z"/><path id="Tracé_912" data-name="Tracé 912" class="cls-2" d="M122.25,140.49a8.32,8.32,0,0,0,2.53.36c2.77,0,5.5-1.18,7.93-2.35,3.9-1.87,8.29-4.2,11.16-8,2.72-3.62,3.94-9.4,1-13.48-3.06-4.24-8.81-4.84-14.57-4.86a48.37,48.37,0,0,0-11.76.93c-4.74,1.15-7.67,3.18-8.72,6-1.32,3.6.27,8.31,5,14.85C116.52,136.3,118.82,139.47,122.25,140.49Zm-11-20.85c.86-2.35,3.44-4.07,7.66-5.1a42.86,42.86,0,0,1,10.1-.88h1.3c5.37,0,10.69.54,13.36,4.24,2.52,3.48,1.41,8.52-1,11.69-2.66,3.54-6.87,5.76-10.61,7.56-2.91,1.4-6.28,2.83-9.38,1.9-2.72-.81-4.61-3.18-6.63-6-4.36-6-5.94-10.4-4.82-13.44Z"/><path id="Tracé_913" data-name="Tracé 913" class="cls-2" d="M247.49,289.13l-1.42-.63c-2.73-1.2-5.56-2.44-7-4.86-1.28-2.17-1.3-4.92-1.33-7.58,0-4.43-.08-9-5.78-11a9.44,9.44,0,0,0-7.81.49,11.36,11.36,0,0,0-5.46,7.38c-1.78,7.11.05,14.88,5,21.33s12.55,10.57,20,10.68h.3a13.17,13.17,0,0,0,6.55-1.47,7.3,7.3,0,0,0,3.9-6C254.58,293.06,250.14,290.35,247.49,289.13Zm2.35,13a11.79,11.79,0,0,1-6.09,1.27c-7-.1-14.06-3.87-18.85-10.09s-6.41-13.39-4.75-20.05a9.89,9.89,0,0,1,4.72-6.42,8,8,0,0,1,6.6-.4c4.71,1.66,4.75,5.36,4.78,9.63,0,2.86.06,5.81,1.54,8.33,1.67,2.83,4.72,4.18,7.68,5.47l1.39.63c1.87.85,6.2,3.25,6.12,6.93a5.89,5.89,0,0,1-3.14,4.71Z"/><path id="Tracé_914" data-name="Tracé 914" class="cls-2" d="M248.54,371.53c5.27-2,8.29-7,11.22-11.77l.71-1.16c2.7-4.36,6.27-8.93,12.37-9.75a31.35,31.35,0,0,1,4-.19c3.49,0,7.1,0,10.14-2.94,7.71-7.35,1.88-15.32-2.8-21.72a55,55,0,0,1-3.81-5.67c-7-12.89-9.34-23.33-7.29-32.85a63,63,0,0,1,2.59-8.24,49.06,49.06,0,0,0,3.12-11.36,49.11,49.11,0,0,0,0-7.86c-.19-3.48-.37-6.77.42-10,1.45-5.93,5.81-10.39,10.43-15.11s9.37-9.58,10.94-16.06c2.5-10.27-4.21-20.39-11.32-26.43a106.82,106.82,0,0,0-12-8.46,103.74,103.74,0,0,1-11.84-8.33,108.17,108.17,0,0,1-9.07-9.1c-4.9-5.32-10-10.82-16.52-14.24-8.49-4.42-18.26-4.78-27.7-5.13-2.54-.1-5.16-.19-7.7-.37-8.52-.59-12.72-4.48-12.85-11.91a40.46,40.46,0,0,1,1.59-10.13c.26-1.1.53-2.2.77-3.3.83-3.82,1.66-9.45-.67-14.27C187.69,93.7,177.5,86.16,166,85c-.88-.09-1.76-.14-2.64-.19a30.39,30.39,0,0,1-5-.57,12.35,12.35,0,0,1-5.66-2.89c-3-2.77-4.63-7.3-4.39-12.44.4-8.61,3.71-16.63,6.9-24.39a109.45,109.45,0,0,0,5.89-16.87c1.82-7.89.5-15.17-3.61-20C149.13-2.08,129.81-2,119.85,4.9c-2.1,1.46-4.14,3.1-6.11,4.69-5.17,4.17-10.06,8.1-16.17,9.25-7.08,1.33-14.2-1.5-21.1-4.23-1.53-.61-3.06-1.21-4.58-1.77-5.45-2-19-5.78-26.67,2.52C41.75,19.09,40.66,24.11,39.6,29c-.9,4.16-1.84,8.46-4.28,11.76-3.6,4.88-9.82,6.88-15.83,8.82-1.77.57-3.6,1.16-5.34,1.82C5.47,54.63-2.23,62.51.59,70.68c2.08,6,8.19,8,14.1,10,3.73,1.24,7.59,2.52,10.45,4.78,7.82,6.14,7,18.51,3,27.4a105,105,0,0,1-6.28,11.26c-3.15,5.12-6.4,10.41-8.25,16.27-3.35,10.63,0,24.2,10.3,27.49,8.86,2.82,18.64,0,26.18-2.83,5.37-2,12.14-1.59,16.1.95a7.36,7.36,0,0,1,3.61,5.82c.28,3.85-2.27,7.07-5,10.47-.95,1.2-1.93,2.44-2.78,3.71-5.11,7.67-6.19,14.62-3.63,23.25,2.66,9,8.18,16.79,13.22,23.24a214.93,214.93,0,0,0,32,32.95c1.43,1.18,2.85,2.42,4.36,3.73a100.85,100.85,0,0,0,11.26,8.94,52.33,52.33,0,0,0,7.59,3.82c4.22,1.85,8.21,3.59,11.46,7.34,4.88,5.62,6.3,15.37.54,20.37a22.12,22.12,0,0,1-5.16,3,24.29,24.29,0,0,0-5.63,3.35c-6,5.22-5.45,14.59-1.89,20.75,3.7,6.4,10.13,10.73,15.8,14.55,5.45,3.67,11.64,7.83,15.07,14,.7,1.26,1.31,2.65,1.9,4,1.24,2.82,2.52,5.74,4.84,7.95,3.18,3,7.46,4,11.6,4.88,1.73.38,3.51.78,5.16,1.32a51.74,51.74,0,0,1,8.39,3.94,64,64,0,0,0,7.15,3.51,22.58,22.58,0,0,0,8,1.6,12.76,12.76,0,0,0,9.29-3.5c2.15-2.15,3.21-5,4.24-7.76s2.06-5.53,4.13-7.36c3.55-3.12,8.5-2.51,13.75-1.86C239.94,372.55,244.47,373.11,248.54,371.53ZM235.8,370c-5.45-.67-11.1-1.36-15.32,2.35-2.45,2.16-3.59,5.21-4.68,8.16-1,2.68-1.94,5.2-3.78,7-3.92,3.93-10.63,3.24-15.18,1.45a61.81,61.81,0,0,1-6.93-3.41,53.21,53.21,0,0,0-8.72-4.08c-1.74-.57-3.58-1-5.35-1.37-4.05-.9-7.88-1.76-10.65-4.38-2-1.93-3.18-4.54-4.39-7.3-.61-1.39-1.23-2.82-2-4.16-3.67-6.57-10.34-11.06-15.7-14.67s-11.73-7.89-15.19-13.89c-3.21-5.55-3.54-13.89,1.47-18.24a22.26,22.26,0,0,1,5.17-3.05,24.09,24.09,0,0,0,5.61-3.33c6.65-5.77,5.16-16.85-.33-23.19-3.55-4.09-7.94-6-12.18-7.86a50.86,50.86,0,0,1-7.3-3.67,99.07,99.07,0,0,1-11-8.76c-1.52-1.32-3-2.57-4.39-3.77a212.35,212.35,0,0,1-31.71-32.64c-4.92-6.3-10.31-13.91-12.87-22.57-2.41-8.11-1.43-14.36,3.37-21.58.8-1.2,1.76-2.41,2.69-3.58,2.82-3.55,5.73-7.23,5.39-11.85a9.34,9.34,0,0,0-4.52-7.36,18.6,18.6,0,0,0-9.88-2.54,23,23,0,0,0-8,1.4c-7.23,2.68-16.6,5.43-24.87,2.8-9.17-2.93-12.06-15.28-9-25,1.78-5.63,5-10.81,8-15.83A103.25,103.25,0,0,0,30,113.69c4.33-9.58,5-23-3.61-29.8-3.14-2.46-7.16-3.8-11-5.1C9.64,76.89,4.25,75.1,2.5,70c-2.56-7.4,5.69-14.27,12.36-16.78,1.7-.64,3.5-1.22,5.25-1.79,6.31-2,12.84-4.14,16.83-9.53,2.69-3.65,3.68-8.16,4.63-12.52,1-4.81,2-9.35,5.13-12.68,6.9-7.42,19.44-3.88,24.51-2,1.5.56,3,1.16,4.53,1.76,7.16,2.84,14.58,5.77,22.2,4.34,6.6-1.25,11.92-5.52,17.06-9.66,2-1.57,4-3.19,6-4.6C130.29.11,148.24,0,155.94,9c3.71,4.33,4.86,11,3.19,18.24a109,109,0,0,1-5.79,16.56c-3.26,7.91-6.64,16.1-7.05,25.06-.27,5.73,1.57,10.84,5,14a14.35,14.35,0,0,0,6.56,3.36,33.09,33.09,0,0,0,5.35.62c.85,0,1.7.1,2.55.18,11,1.09,20.33,8,25.66,19.07,2.06,4.26,1.28,9.45.52,13-.24,1.09-.5,2.17-.77,3.25A42.13,42.13,0,0,0,189.56,133c.15,8.41,5.24,13.21,14.71,13.87,2.57.17,5.21.27,7.76.37,9.22.34,18.76.69,26.85,4.91,6.25,3.26,11,8.39,16,13.82a109.11,109.11,0,0,0,9.24,9.26,106.38,106.38,0,0,0,12.06,8.49A106.51,106.51,0,0,1,288,192c6.65,5.66,13,15.05,10.67,24.44-1.44,5.94-5.81,10.4-10.43,15.13s-9.36,9.57-10.94,16a36,36,0,0,0-.48,10.56,48.66,48.66,0,0,1,0,7.54,46.69,46.69,0,0,1-3,10.89,63.44,63.44,0,0,0-2.67,8.5c-2.82,13.15,2.92,25.83,7.49,34.22a54.51,54.51,0,0,0,3.95,5.89c4.66,6.38,9.48,13,3,19.1-2.46,2.35-5.53,2.37-8.77,2.39a31.52,31.52,0,0,0-4.24.2c-7,.93-11.05,6.2-13.82,10.68l-.71,1.17c-2.75,4.5-5.6,9.15-10.23,10.95-3.6,1.39-7.88.87-12,.36Z"/><path id="Tracé_915" data-name="Tracé 915" class="cls-2" d="M251.84,338.27c.91.13,1.84.31,2.74.49a23.67,23.67,0,0,0,6.1.66,12.53,12.53,0,0,0,11.2-9.83c.88-4.45-.66-8.56-2.15-12.54a45.94,45.94,0,0,1-1.81-5.5,19.64,19.64,0,0,1-.1-7.13,18.82,18.82,0,0,0-.39-8.31,63.72,63.72,0,0,0-3.78-8.54c-3.63-7.23-7.06-14.07-2.95-21.48a26.71,26.71,0,0,1,3-4,20.18,20.18,0,0,0,3.83-5.73c1.24-3.25.77-6.71.33-10.06a42,42,0,0,1-.45-4.44c-.19-5.47,2.93-11.45,6-17.23,5.15-9.87,10.48-20.08,1-29.22-3.69-3.56-8.77-4.65-13.67-5.71-3.77-.82-7.67-1.66-10.87-3.61-4.75-2.89-6.39-6.79-8.12-10.91a43.61,43.61,0,0,0-3.15-6.44c-.28-.45-.6-.89-.93-1.32h0c-4.7-6-13.69-9.19-20-11.05-2.83-.82-5.75-1.53-8.57-2.22-6.12-1.49-12.46-3-18.14-5.85-10.2-5.07-14.87-12.86-14.72-24.53.14-10.06-.73-22.36-8.71-28.21-4.63-3.4-10.59-3.86-16.35-4.3-6.3-.49-12.25-.94-16.43-5-6.45-6.21-4.35-17.27.34-24.91a99.28,99.28,0,0,1,5.78-8.16c3.62-4.76,7.36-9.68,9.3-15.47a21,21,0,0,0-2-17.3,11.75,11.75,0,0,0-8.91-5.69c-5.77-.55-10.47,3.1-15,6.61a61.22,61.22,0,0,1-5.6,4c-7.81,4.69-16.9,4.77-26.54,4.86a98.18,98.18,0,0,0-16.43,1.06C60.42,34,47.79,43.92,36.64,52.66,29.81,58,22.22,65.28,24.09,74c1.39,6.48,7.32,10.1,13.05,13.61s11,6.72,12.4,12.44c2.15,8.64-5.32,15.68-12.55,22.48-3.64,3.42-7.07,6.65-9.12,10-2.63,4.25-4.36,10.74-1.36,16.23,3.46,6.34,11.35,8.17,17.35,8.59,13.23.92,29.69,2.07,32.61,17.87.87,4.7.06,9.38-.8,14.32-.4,2.33-.82,4.73-1,7.11-1.85,20.11,11.2,34.41,21.18,43.42,21.29,19.24,40.92,35.4,65.5,38.39,1.45.18,2.93.31,4.36.43,4,.35,8.21.72,12,2.18,4.78,1.87,9.39,6.5,8.92,11.74-.38,4.35-4.24,8.4-10.31,10.83-1.56.62-3.21,1.16-4.8,1.68-3.66,1.2-7.44,2.44-10.6,4.8-5.69,4.26-8.73,12.19-7.56,19.76a27.41,27.41,0,0,0,11.74,17.91c7.11,4.94,16,6.85,23.79,8.53l.8.17c5.78,1.25,13.1,2.83,20.17,2.83,6.43,0,12.64-1.31,17.27-5.37a19.81,19.81,0,0,0,4.16-5.89,17.67,17.67,0,0,1,4-5.63C239.25,339.05,245.76,337.43,251.84,338.27Zm-17.55,3a19,19,0,0,0-4.37,6.08,18.44,18.44,0,0,1-3.83,5.47c-9.16,8-25.39,4.52-36.14,2.2l-.8-.18c-7.68-1.65-16.38-3.52-23.24-8.3a25.86,25.86,0,0,1-11.12-16.9c-1.08-7,1.72-14.4,7-18.33,3-2.21,6.46-3.36,10.16-4.57,1.62-.53,3.29-1.08,4.9-1.72,3.17-1.27,10.62-5,11.25-12.09.55-6.26-4.73-11.26-9.87-13.27-4-1.54-8.26-1.92-12.4-2.28-1.42-.12-2.89-.25-4.31-.42-24.14-2.94-43.57-18.95-64.67-38-9.74-8.8-22.48-22.74-20.7-42.18.21-2.32.62-4.69,1-7,.84-4.86,1.71-9.89.79-14.85-3.13-16.94-21-18.19-34-19.1-5.63-.39-13-2.06-16.14-7.8-2.69-4.93-1.08-10.84,1.32-14.73,1.94-3.15,5.31-6.31,8.87-9.67,7.19-6.77,15.35-14.44,13-23.93-1.57-6.32-7.42-9.89-13.07-13.35S26.81,79.55,25.56,73.7c-1.7-7.92,5.52-14.77,12-19.86,11-8.63,23.48-18.42,38.22-21.08a96.32,96.32,0,0,1,16.18-1c9.4-.08,19.14-.17,27.3-5.07a64.47,64.47,0,0,0,5.75-4.1c4.22-3.26,8.23-6.35,13-6.35.33,0,.67,0,1,0a10.44,10.44,0,0,1,7.79,5,19.41,19.41,0,0,1,1.86,16c-1.87,5.55-5.53,10.37-9.08,15-2,2.66-4.1,5.4-5.87,8.29-5,8.14-7.15,20-.09,26.77,4.56,4.39,11.06,4.89,17.35,5.37,5.55.43,11.3.87,15.58,4,7.42,5.45,8.23,17.28,8.1,27-.16,12.31,4.78,20.54,15.55,25.89,5.83,2.9,12.25,4.46,18.45,6,2.8.68,5.7,1.39,8.5,2.21,9.65,2.82,16,6.26,19.28,10.52.3.39.59.8.85,1.2a41.55,41.55,0,0,1,3,6.22c1.83,4.36,3.56,8.47,8.73,11.62,3.42,2.08,7.44,2.95,11.33,3.79,4.92,1.06,9.56,2.07,13,5.33,8.69,8.36,3.85,17.63-1.27,27.44-3.11,6-6.32,12.11-6.12,18,.05,1.54.26,3.09.46,4.6.44,3.31.86,6.43-.24,9.33a18.83,18.83,0,0,1-3.58,5.3,27.34,27.34,0,0,0-3.15,4.25c-4.5,8.11-.73,15.62,2.92,22.89a60.11,60.11,0,0,1,3.69,8.33c.88,2.72.61,5.13.33,7.68a21.09,21.09,0,0,0,.13,7.64,47.16,47.16,0,0,0,1.87,5.68c1.48,4,2.88,7.69,2.08,11.73a11,11,0,0,1-9.82,8.62,22.44,22.44,0,0,1-5.71-.64c-.93-.18-1.88-.37-2.84-.5-6.47-.91-13.44.84-17.75,4.46Z"/><path id="Tracé_916" data-name="Tracé 916" class="cls-2" d="M219.45,320.7c-3.43-3.1-8.18-3.27-12.78-3.44-.78,0-1.57-.05-2.33-.1-1.47-.08-3-.24-4.42-.4a43.74,43.74,0,0,0-9.36-.32c-4.35.46-9.67,2.7-11.52,7.58-2.74,7.2,3.87,15.73,9.5,18.88a21.32,21.32,0,0,0,10.26,2.22,36.15,36.15,0,0,0,14.14-2.88,16.93,16.93,0,0,0,9.11-9.09C223.71,328.72,222.65,323.59,219.45,320.7Zm1.19,11.93a15.37,15.37,0,0,1-8.32,8.24c-6.51,2.91-17.17,4-23,.72-5.27-2.95-11.18-10.86-8.83-17,1.61-4.24,6.37-6.2,10.28-6.62a42.7,42.7,0,0,1,9,.33c1.47.15,3,.31,4.49.4l2.37.1c4.33.15,8.8.32,11.82,3.05,2.75,2.5,3.66,6.94,2.2,10.82Z"/></g></g></g></svg>
