<svg xmlns="http://www.w3.org/2000/svg" width="266" height="420" viewBox="0 0 266.6 419.56"><defs><style>.cls-1{fill:#e0e0e0;}</style></defs><title>fruits_lines_2</title><g id="Calque_2" data-name="Calque 2"><g id="Calque_1-2" data-name="Calque 1"><g id="Groupe_60" data-name="Groupe 60"><path id="Tracé_889" data-name="Tracé 889" class="cls-1" d="M155,314.25c2.33.62,4.52,1.21,6.19,2.71,2.16,1.94,4,3.13,6,3.13,1.67,0,3.47-.82,5.68-2.71l.44-.38a12.8,12.8,0,0,1,4.36-2.86,12.64,12.64,0,0,1,2.37-.41,11.35,11.35,0,0,0,3.21-.68c3.54-1.49,4.72-6,3.81-9.46s-3.41-6.29-5.61-8.75c-4-4.44-8.36-8.8-14.09-9s-10.56,4-14.87,8.29c-2,2-4.33,4.32-5.6,7.19-1.46,3.27-1.18,6.86.7,9.15S152.31,313.53,155,314.25Zm-6.88-12.39c1.17-2.64,3.28-4.75,5.33-6.79,4-4,8.36-7.91,13.52-7.91h.37c5.2.18,9.34,4.33,13.14,8.56,2.1,2.34,4.49,5,5.32,8.2.75,2.87-.2,6.71-3,7.9a9.9,9.9,0,0,1-2.84.58,10.62,10.62,0,0,0-7.46,3.59l-.44.38c-4.18,3.58-6.36,2.82-9.94-.4-1.91-1.72-4.36-2.38-6.73-3-2.62-.7-5.09-1.36-6.72-3.35S146.88,304.67,148.13,301.86Z"/><path id="Tracé_890" data-name="Tracé 890" class="cls-1" d="M142.2,293.31c-.71.77-1.49,1.54-2.32,2.36-3.79,3.73-8.08,8-7.27,13.82a15.14,15.14,0,0,0,9.3,11.8,27.89,27.89,0,0,0,6.64,1.36,22.78,22.78,0,0,1,12.56,4.69c1.09.69,2.22,1.41,3.37,2.06a17.79,17.79,0,0,0,8.28,2.47,9.67,9.67,0,0,0,4.07-.84c2.4-1.08,4.07-3.09,5.7-5a12,12,0,0,1,9.3-5.7,16.27,16.27,0,0,0,5.43-1.69c4.72-2.77,5.57-9.35,3.66-14.1s-6.17-8.5-9.57-11.43c-3.95-3.4-8.44-7.26-13.6-9.9-5.69-2.91-11.62-3.88-16.7-2.73C153.16,282.25,146.51,288.65,142.2,293.31Zm19.26-11.12h0a17.6,17.6,0,0,1,4-.43,25.57,25.57,0,0,1,11.54,3c5,2.54,9.36,6.33,13.25,9.67,3.41,2.94,7.28,6.27,9.07,10.74,1.63,4.06,1,9.63-2.91,11.92a14.79,14.79,0,0,1-4.86,1.47,13.7,13.7,0,0,0-10.34,6.3c-1.56,1.86-3,3.63-5.07,4.54-3.63,1.64-7.85,0-10.75-1.56-1.11-.62-2.22-1.33-3.29-2a24.44,24.44,0,0,0-13.29-5,26.52,26.52,0,0,1-6.23-1.27,13.31,13.31,0,0,1-8.17-10.38c-.69-5,3.1-8.7,6.76-12.32.84-.83,1.64-1.61,2.38-2.41C147.66,290,154,283.87,161.46,282.19Z"/><path id="Tracé_891" data-name="Tracé 891" class="cls-1" d="M158.54,310.11a5,5,0,0,0,6.3-1.13,4.8,4.8,0,0,0,.06-5.53,4.3,4.3,0,0,0-4.62-2.07,4.37,4.37,0,0,0-2.62,1.84,5.71,5.71,0,0,0-.92,4.3A3.89,3.89,0,0,0,158.54,310.11Zm.2-6.13a3.16,3.16,0,0,1,1.83-1.31,2.7,2.7,0,0,1,.63-.07,3.09,3.09,0,0,1,2.58,1.56,3.54,3.54,0,0,1,0,4,3.67,3.67,0,0,1-4.58.8,2.54,2.54,0,0,1-1.18-1.72,4.33,4.33,0,0,1,.7-3.26Z"/><path id="Tracé_892" data-name="Tracé 892" class="cls-1" d="M144.61,249.61c-.76-2-.53-4.15-.29-6.44.1-.95.21-1.94.23-2.91.23-8.33-5.72-16.62-14.46-20.15-9.18-3.71-19-1.94-25.53.19C94.06,223.7,86,229.84,82,237.6c-4.91,9.33-3.29,21,3.77,27.14,3.1,2.7,7,4.23,10.69,5.72,3.39,1.35,6.9,2.74,9.74,5,3.76,3,6.62,7.64,8.73,14.24.74,2.3,1.35,4.68,2,7a93.33,93.33,0,0,0,2.89,9.71c3.42,9,10.55,19.84,20.3,23,13.85,4.51,25.45,6.62,36.44,6.62h.62c7.52-.05,13.39-1,18.47-3.09,6.43-2.6,11.4-7,14-12.34,4.08-8.47,1.9-20-5.31-28.12-5.8-6.51-14.55-11.19-26-13.93l-.55-.14c-4.1-1-8.35-2-10.55-5.23a15.49,15.49,0,0,1-1.92-5.34,17.38,17.38,0,0,0-2-5.66c-2.09-3.22-5.86-4.66-9.5-6.06C149.7,254.58,146,253.15,144.61,249.61ZM162,262.88a16.08,16.08,0,0,1,1.85,5.24A16.65,16.65,0,0,0,166,273.9c2.49,3.68,7.19,4.8,11.34,5.78l.55.14c11.19,2.67,19.71,7.22,25.33,13.52,6.86,7.7,9,18.67,5.1,26.67-2.44,5.06-7.15,9.2-13.28,11.68-4.92,2-10.63,2.94-18,3-11,.07-22.67-2-36.64-6.55-9.31-3-16.16-13.47-19.47-22.22a93.85,93.85,0,0,1-2.85-9.57c-.6-2.32-1.22-4.72-2-7-2.2-6.86-5.2-11.73-9.18-14.88-3-2.37-6.59-3.8-10.07-5.19-3.63-1.44-7.38-2.93-10.31-5.48C80,258,78.49,247,83.12,238.22,87,230.77,94.8,224.86,105,221.57c6.38-2.07,15.82-3.78,24.63-.23,8.24,3.33,13.85,11.1,13.63,18.89,0,.92-.12,1.88-.22,2.81-.25,2.34-.51,4.77.37,7.06,1.57,4.08,5.76,5.69,9.81,7.24C156.63,258.66,160.18,260,162,262.88Z"/><path id="Tracé_893" data-name="Tracé 893" class="cls-1" d="M57.77,141.58c3.44,6.84,10.4,12.07,21.25,16,2.34.84,4.74,1.61,7.07,2.36,6,1.93,12.27,3.93,17.65,7.34,7,4.41,13.27,12.77,11.63,21.5-1.22,6.54-6.45,11.24-10.62,14a88.6,88.6,0,0,1-9.13,5.1c-2.37,1.2-4.81,2.45-7.14,3.84a59.18,59.18,0,0,0-25.5,32c-.61,1.87-1.14,3.82-1.67,5.72-1.76,6.41-3.59,13-8.42,17.37a35.47,35.47,0,0,1-4.8,3.38,29,29,0,0,0-5.94,4.45,14.7,14.7,0,1,0,25.2,13.54c.2-.83.33-1.68.45-2.51.3-2,.57-3.9,1.72-5.35,2-2.57,5.84-2.94,12-1.17,11.66,3.34,23.53,7.42,29.16,17.14,2.54,4.38,3.6,9.63,4.62,14.7,1.34,6.72,2.74,13.66,7.61,18.61,5.53,5.63,14.27,7,20.65,8l41,6.46a78.15,78.15,0,0,0,12,1.16c6,0,11.8-1.24,16.2-5.35,6.12-5.72,7-14.8,7.3-23.61.26-6.9.59-15.47-3.63-22.22-3.13-5-8.24-8.2-13.19-11.27-1.9-1.19-3.87-2.41-5.69-3.72-9.45-6.81-16.26-17.14-22.26-26.26a31.79,31.79,0,0,0-5.52-5.95,31.5,31.5,0,0,1-5.2-5.56,12.13,12.13,0,0,1-1.88-8.75c.8-4.73,4.38-8,7.83-11.17,1.06-1,2.16-2,3.15-3,3.53-3.66,8.29-9.36,8.83-16.63A27.8,27.8,0,0,0,171.91,178c-1.82-1.37-3.9-2.63-5.91-3.85-5.81-3.53-11.3-6.85-11.68-12.85a9.28,9.28,0,0,1,2.56-6.95c3.06-3.41,8.67-5.79,14.29-6.05,2.34-.11,4.77,0,7.13,0,6,.18,12.18.37,17.57-2.42,12.24-6.34,12.33-23.2,12.06-28.21-.44-8.36-2.66-20.29-10.74-29.65C188.77,78.3,176.12,73.71,165,69.66c-1.39-.5-2.84-1.06-4.34-1.63-8.62-3.29-19.34-7.4-28.32-5.4-9.77,2.17-19.37,7.31-26.65,11.55A189.75,189.75,0,0,0,74.24,97.42C66.27,104.71,48.71,123.61,57.77,141.58ZM75.14,98.4a187.22,187.22,0,0,1,31.2-23.07c7.19-4.2,16.67-9.28,26.26-11.4,8.58-1.91,19.1,2.11,27.56,5.34,1.51.58,3,1.14,4.36,1.64,11,4,23.48,8.52,31.67,18,7.83,9.08,10,20.7,10.42,28.85.25,4.81.19,21-11.35,27-5.08,2.63-10.83,2.46-16.92,2.27-2.38-.08-4.84-.15-7.23,0-6,.28-11.93,2.83-15.22,6.5a10.71,10.71,0,0,0-2.89,7.91c.42,6.7,6.47,10.36,12.31,13.9a68.16,68.16,0,0,1,5.8,3.78,26.45,26.45,0,0,1,10,22.6c-.39,5.28-3,10.15-8.46,15.8-1,1-2,2-3.09,3-3.62,3.32-7.37,6.75-8.25,11.93a13.55,13.55,0,0,0,2.09,9.71,33,33,0,0,0,5.41,5.8,31.13,31.13,0,0,1,5.3,5.7c6.07,9.21,13,19.65,22.6,26.6,1.85,1.34,3.84,2.58,5.77,3.77,4.81,3,9.79,6.09,12.76,10.85,4,6.4,3.69,14.75,3.43,21.46-.33,8.54-1.13,17.32-6.88,22.7-6.85,6.42-17.58,5.35-27.1,3.85l-41-6.46c-8-1.27-15.08-2.72-19.91-7.63-4.59-4.67-5.89-11.11-7.26-17.94-1-5.18-2.11-10.54-4.76-15.11-5.89-10.14-18-14.33-29.95-17.75a25.22,25.22,0,0,0-6.78-1.15c-2.55,0-5,.68-6.64,2.78-1.36,1.72-1.68,3.88-2,6-.12.8-.24,1.63-.42,2.4a13.38,13.38,0,1,1-22.95-12.33,27.55,27.55,0,0,1,5.67-4.23,36.09,36.09,0,0,0,5-3.52c5.13-4.59,7-11.41,8.83-18,.51-1.87,1-3.81,1.65-5.65a57.76,57.76,0,0,1,24.91-31.26c2.29-1.37,4.71-2.6,7.06-3.8a91.43,91.43,0,0,0,9.27-5.19c4.38-2.93,9.87-7.89,11.19-14.89,1.75-9.34-4.88-18.21-12.23-22.87-5.53-3.5-11.85-5.52-18-7.47-2.31-.75-4.71-1.51-7-2.35C69,152.51,62.23,147.49,59,141c-8.65-17.16,8.44-35.49,16.19-42.58Z"/><path id="Tracé_895" data-name="Tracé 895" class="cls-1" d="M145.39,188.35c.85-.75,1.73-1.52,2.54-2.36,2.85-3,3.93-6.39,2.9-9.16s-4.12-4.33-6.69-4.52a16.82,16.82,0,0,0-7.82,1.74,29.35,29.35,0,0,0-10.48,7.1A16.63,16.63,0,0,0,121.31,193c.24,4.3,2.78,6.47,5.24,8.57a17.72,17.72,0,0,1,4.32,4.73,12.85,12.85,0,0,1,1,2.55c.56,1.9,1.15,3.88,3.33,4.74a7.06,7.06,0,0,0,2.69.5,8.11,8.11,0,0,0,6.79-3.69,8.66,8.66,0,0,0-.91-10,15.86,15.86,0,0,0-1.23-1.23,6.61,6.61,0,0,1-2-2.61,5,5,0,0,1,.93-4A21.47,21.47,0,0,1,145.39,188.35Zm-6.2,8.59a7.61,7.61,0,0,0,2.4,3.18,15.24,15.24,0,0,1,1.14,1.13,7.3,7.3,0,0,1,.78,8.43,6.77,6.77,0,0,1-7.87,2.66c-1.58-.63-2-2.14-2.55-3.89a13.54,13.54,0,0,0-1.07-2.82,18.7,18.7,0,0,0-4.62-5.09c-2.45-2.09-4.56-3.9-4.78-7.64h0a15.32,15.32,0,0,1,4.2-10.86,28.05,28.05,0,0,1,10-6.77,16.66,16.66,0,0,1,6.5-1.66c.23,0,.47,0,.7,0,2.14.17,4.69,1.36,5.55,3.66,1.25,3.38-1.69,6.81-2.62,7.78-.77.8-1.63,1.55-2.46,2.28a22.93,22.93,0,0,0-4.23,4.46,6.08,6.08,0,0,0-1.09,5.13Z"/><path id="Tracé_896" data-name="Tracé 896" class="cls-1" d="M114.25,110.35a32.62,32.62,0,0,1,4.87,8.47c1,3.11,3,7.15,6.52,8.72a7.59,7.59,0,0,0,3.07.65,10.17,10.17,0,0,0,4.14-1A20.22,20.22,0,0,0,138.4,123a18.59,18.59,0,0,1,5.25-4c3.76-1.63,8.2-.52,12,.77l1.12.38c3.77,1.29,7.67,2.62,11.68,2a10,10,0,0,0,6.72-4.35,6.48,6.48,0,0,0,.92-5.34,11.49,11.49,0,0,0-1.58-3.1,13.81,13.81,0,0,1-1.24-2.22,13.17,13.17,0,0,1-.67-4.4,24.61,24.61,0,0,0-.25-3,15.87,15.87,0,0,0-6.46-9.72,45.78,45.78,0,0,0-10.27-5.34c-6-2.48-12.17-5.06-18.78-6.11-7.37-1.17-14.28-.1-19.45,3-6.16,3.73-9.81,10.76-8.89,17.1C109.2,103.28,111.77,106.87,114.25,110.35Zm3.87-27.55a25.1,25.1,0,0,1,13.06-3.32,36.22,36.22,0,0,1,5.5.45c6.45,1,12.56,3.57,18.47,6a44.46,44.46,0,0,1,10,5.17,14.55,14.55,0,0,1,5.94,8.87,22.35,22.35,0,0,1,.24,2.82,11,11,0,0,0,2.12,7.28,10.46,10.46,0,0,1,1.41,2.74,5.19,5.19,0,0,1-.76,4.26,8.78,8.78,0,0,1-5.8,3.76c-3.68.57-7.43-.71-11-2l-1.13-.38c-4.08-1.37-8.82-2.54-13-.73a19.9,19.9,0,0,0-5.64,4.25,18.84,18.84,0,0,1-5.17,4,7.38,7.38,0,0,1-6.13.32c-3.1-1.38-4.86-5.07-5.8-7.92-1.07-3.27-3.09-6.1-5-8.84-2.5-3.5-4.87-6.8-5.47-11-.84-5.82,2.56-12.31,8.26-15.77Z"/><path id="Tracé_897" data-name="Tracé 897" class="cls-1" d="M79,140.16a28.85,28.85,0,0,0,6.56-.49A15.78,15.78,0,0,1,100,142.72a23.36,23.36,0,0,0,7,3.44,12.7,12.7,0,0,0,3,.35c3.51,0,7.38-1.35,11.74-4.1,1.09-.68,2.18-1.42,3.23-2.13,3-2.06,6.18-4.19,9.68-5.28,7.45-2.32,15.58.35,21.05,2.56,1.6.65,3.22,1.36,4.8,2,5.14,2.24,10.46,4.55,16.12,5.34,7.11,1,16.07-1,20.08-7.85,2.16-3.66,2.54-8,2.75-12.53.53-11,.11-22.26-6.47-30.22-4.48-5.42-11.17-8.42-17.06-11.07-2.2-1-4.49-2-6.71-2.88A143.78,143.78,0,0,1,156,74.31l-1.14-.63c-4.66-2.56-9.06-5-14.73-5.72-13.68-1.79-26.55,6.58-35,13A189.4,189.4,0,0,0,79.5,104.44c-.7.77-1.46,1.57-2.24,2.4-6.31,6.7-14.16,15-10.31,24.47A14.58,14.58,0,0,0,79,140.16Zm-.78-32.4,2.26-2.42a188.64,188.64,0,0,1,25.4-23.28c8.3-6.31,20.88-14.51,34.06-12.78,5.43.71,9.72,3.07,14.27,5.57l1.14.63a142.78,142.78,0,0,0,13.37,6.14c2.2.93,4.49,1.88,6.67,2.87,5.76,2.59,12.3,5.52,16.59,10.7,6.29,7.6,6.68,18.58,6.16,29.31-.2,4.34-.56,8.52-2.56,11.92-3.7,6.28-12.09,8.15-18.76,7.21-5.48-.77-10.71-3-15.78-5.24-1.58-.69-3.21-1.4-4.82-2-5.66-2.3-14.09-5.05-21.94-2.6-3.69,1.14-6.92,3.33-10,5.44-1,.71-2.12,1.44-3.19,2.11-5.33,3.35-9.82,4.52-13.73,3.58a22.14,22.14,0,0,1-6.58-3.27,22.69,22.69,0,0,0-7.28-3.5,14.44,14.44,0,0,0-2.86-.28,34.1,34.1,0,0,0-5.24.54,27.89,27.89,0,0,1-6.25.47,13.22,13.22,0,0,1-10.94-8c-3.52-8.65,4-16.64,10-23Z"/><path id="Tracé_898" data-name="Tracé 898" class="cls-1" d="M86.21,126.51a17.59,17.59,0,0,1,2.28,1,15.73,15.73,0,0,1,4.29,4.16,28,28,0,0,0,2.75,3.1,17.63,17.63,0,0,0,12,4.24,22.79,22.79,0,0,0,4.12-.37c4.91-.87,9.54-3,14-5,5.1-2.33,10.37-4.73,16-5.2,4.75-.41,9.26,1.19,14,2.88,4.24,1.51,8.64,3.07,13.22,3.08h0c8.93,0,17.12-6.54,18.64-14.93,1.25-6.81-1.71-13.62-4.1-19.09-1.57-3.62-3.2-7.37-6-10.42-3.49-3.87-8.4-6.13-12.74-8.12-9.86-4.53-22.15-10.17-34.53-8.73C120.1,74.27,112,79.94,106.9,84.48a59.28,59.28,0,0,0-6.74,7.6c-1.31,1.65-2.66,3.36-4.13,5a157.18,157.18,0,0,0-12.4,15.32c-3.37,4.78-4,8.88-1.77,11.56A9.67,9.67,0,0,0,86.21,126.51Zm-1.13-13.12A153.57,153.57,0,0,1,97.34,98.25c1.51-1.66,2.88-3.4,4.21-5.08a56.5,56.5,0,0,1,6.54-7.37h0c4.85-4.38,12.68-9.83,22.39-11a32.49,32.49,0,0,1,3.82-.22c10.62,0,21.13,4.83,29.77,8.8,4.17,1.92,8.91,4.09,12.15,7.7,2.56,2.83,4.13,6.45,5.65,9.94,2.28,5.25,5.13,11.78,4,18.07-1.35,7.44-8.93,13.47-16.9,13.47h0c-4.28,0-8.52-1.52-12.63-3-4.74-1.68-9.64-3.42-14.77-3-5.89.51-11.31,3-16.54,5.36-4.38,2-8.9,4.05-13.6,4.88-5.73,1-11.2-.26-14.62-3.43a24.7,24.7,0,0,1-2.59-2.91,17.24,17.24,0,0,0-4.8-4.6,18.78,18.78,0,0,0-2.52-1.09,8.32,8.32,0,0,1-3.61-2.06c-2.24-2.7.2-7,1.86-9.4Z"/><path id="Tracé_899" data-name="Tracé 899" class="cls-1" d="M150.23,109.07a11.66,11.66,0,0,0,1.86-.15c3.71-.6,7-2.83,8.3-5.67a6.47,6.47,0,0,0,.17-4.89A4.87,4.87,0,0,0,158,95.54a8.61,8.61,0,0,0-3.9-.46,5.86,5.86,0,0,1-5.23-1.64,7.78,7.78,0,0,0-3-1.71c-3-.69-4.32.45-4.94,1.53-2,3.54,1.2,11.32,3.16,13.4A8.25,8.25,0,0,0,150.23,109.07Zm-8.11-15.15a2.1,2.1,0,0,1,2.11-1.07,5.39,5.39,0,0,1,1.38.18,6.47,6.47,0,0,1,2.46,1.45,7.07,7.07,0,0,0,6.11,1.92,7.59,7.59,0,0,1,3.31.35,3.59,3.59,0,0,1,1.83,2.07,5.18,5.18,0,0,1-.13,3.87c-1.13,2.42-4.07,4.39-7.31,4.91a7.49,7.49,0,0,1-6.78-1.85c-1.9-2-4.58-9-3-11.83Z"/><path id="Tracé_900" data-name="Tracé 900" class="cls-1" d="M134.89,279.68a33.78,33.78,0,0,0-15.77-26.48l-1.22-.73c-2.74-1.63-5.58-3.32-6.28-6.15-.45-1.82.09-3.86.61-5.83.69-2.57,1.4-5.23,0-7.61-1.58-2.71-5-3.33-7.57-2.76-2.72.62-5,2.39-7,4-3.26,2.71-6.67,6.09-7.17,10.51-1.23,10.69,10.83,13.35,18,14.94l.17,0a16.69,16.69,0,0,1,12.74,14.33,33.51,33.51,0,0,1,.05,4,25.33,25.33,0,0,0,.24,5.5c.62,3.27,3.13,6.67,6.59,6.67h.23a6.52,6.52,0,0,0,5.36-4A13.38,13.38,0,0,0,134.89,279.68Zm-2.13,5.91a5.19,5.19,0,0,1-4.22,3.18c-2.75.13-4.91-2.74-5.45-5.58a24,24,0,0,1-.23-5.22,34.14,34.14,0,0,0,0-4.17A18.05,18.05,0,0,0,109,258.3l-.16,0c-7.2-1.59-18.09-4-17-13.49.45-3.95,3.64-7.09,6.71-9.64,1.81-1.52,4-3.17,6.39-3.72a6.64,6.64,0,0,1,1.48-.16,5.23,5.23,0,0,1,4.64,2.29c1.11,1.9.5,4.18-.14,6.6-.57,2.13-1.15,4.33-.62,6.49.84,3.37,4,5.28,6.89,7l1.2.72a32.41,32.41,0,0,1,15.15,25.42,12,12,0,0,1-.81,5.84Z"/><path id="Tracé_901" data-name="Tracé 901" class="cls-1" d="M57.31,106.83c-6.7,10.42-9,24.35-6.79,41.4.53,4.11.08,5.37-4.14,6.35a25.23,25.23,0,0,1-3.58.47,15.91,15.91,0,0,0-6.39,1.46c-4.32,2.34-6.47,8.28-4.88,13.52,1.34,4.41,5,8.34,10.1,10.78,4.32,2.07,9,2.93,14.3,3.77s10.14,1.88,12.94,5.46c3.23,4.14,2.3,10.17,1,14.5-3.19,10.26-9.8,19.85-20.21,29.31-3.3,3-7,5.77-10.49,8.45-5.93,4.5-12.06,9.16-16.82,15.06-6.56,8.14-10.61,21-4.87,31.33C21.48,296,29,300,37.57,304.13c7.49,3.6,15.23,7.33,23.67,8.6,9.53,1.43,18.3-.8,24.06-6.12.67-.62,1.31-1.3,1.94-1.95,1.62-1.7,3.16-3.31,5.19-4.12,4.77-1.9,10.34,1.78,12.54,6.41,2.12,4.44,2.14,9.6,2.17,14.6v1.35c0,5.74.56,11.68,3.92,16.18,5,6.73,13.85,7.47,22.37,8.2,7.79.65,15.85,1.34,21,6.58,3.29,3.36,4.78,8.1,6.22,12.68,1.5,4.76,3.06,9.69,6.62,13.27a15.4,15.4,0,0,0,10.94,4.29,19.55,19.55,0,0,0,2.42-.17,15.8,15.8,0,0,0,11.77-7.53c1.67-3,2.33-6.37,3-9.67.76-3.92,1.48-7.62,3.76-10.61,2.07-2.73,5.1-4.39,8.3-6.15,1.1-.6,2.23-1.23,3.31-1.89A36.86,36.86,0,0,0,224,333.53c2.59-5,3.23-9.85,3.9-15,.15-1.12.3-2.25.47-3.4,2-13.7-2.35-26-12.05-33.6-.48-.38-1-.76-1.48-1.14-3-2.24-6-4.55-6.42-7.93a14.16,14.16,0,0,1,0-2.16,9.3,9.3,0,0,0-.32-3.6c-.75-2.12-2.65-3.29-4.48-4.4a18.2,18.2,0,0,1-2.52-1.74c-2.48-2.16-3.34-5.42-4.25-8.89-.82-3.12-1.66-6.35-3.81-8.8a21,21,0,0,0-3.17-2.79c-1.75-1.35-3.4-2.63-4.11-4.52-1.45-3.83,1.95-7.86,3-9,.73-.77,1.53-1.53,2.31-2.26a22.65,22.65,0,0,0,5-5.85c2.41-4.64,1.44-10.26.18-15.14A135,135,0,0,0,190,184.85l-.59-1.4a44.1,44.1,0,0,1-3-8.65h0c-.84-4.31,0-10.1,3.7-12.65a29.72,29.72,0,0,1,4.6-2.43c3-1.37,5.92-2.67,8.16-6.45a34.88,34.88,0,0,0,2.81-6.78,48.91,48.91,0,0,1,1.75-4.69c1.51-3.32,4.5-6.91,8.38-7a14.35,14.35,0,0,1,6,1.71c2.48,1.1,5.05,2.24,7.77,1.57a6.82,6.82,0,0,0,4.33-3.5,10.15,10.15,0,0,0,.63-8c-1.54-4.4-5.42-7.52-8.54-10s-6.72-5.4-8.15-9.41c-1.69-4.78,0-9.66,1.79-14.82a43.63,43.63,0,0,0,2.54-9.59c1.11-10.52-7.44-21.25-17.94-22.51a42.33,42.33,0,0,0-5.74-.15c-3.06.06-5.95.12-8.66-.86-5.27-1.91-8.26-7.2-9.84-11.29-.85-2.21-1.51-4.55-2.16-6.81A64.1,64.1,0,0,0,175,32.7c-2.62-6-6.85-10-11.63-11-5.3-1.13-11.43,1.38-16.83,6.9-4.16,4.26-7.43,9.33-10.6,14.24-1.69,2.63-3.44,5.35-5.31,7.9-4.14,5.67-9.59,9-15.36,12.52l-2.34,1.43L90.46,78.57C78.22,86.16,65.55,94,57.31,106.83Zm56.3-41c.78-.48,1.55-1,2.32-1.42,5.89-3.6,11.45-7,15.75-12.88,1.89-2.58,3.65-5.32,5.36-8,3.12-4.85,6.35-9.87,10.42-14,2.4-2.46,8.72-8,15.6-6.53,4.36.94,8.25,4.67,10.7,10.25a65,65,0,0,1,2.75,8.26c.65,2.29,1.32,4.66,2.2,6.93,1.67,4.35,4.88,10,10.62,12,2.95,1.07,6.1,1,9.14,1a39.72,39.72,0,0,1,5.56.14c9.82,1.18,17.82,11.21,16.78,21a43.35,43.35,0,0,1-2.48,9.29c-1.79,5.15-3.63,10.48-1.79,15.7,1.55,4.37,5.44,7.5,8.57,10s6.71,5.39,8.12,9.42a9,9,0,0,1-.54,6.9,5.51,5.51,0,0,1-3.48,2.85c-2.29.55-4.53-.44-6.91-1.5-2.09-.93-4.23-1.9-6.55-1.83-3.82.1-7.39,3-9.56,7.79a50.64,50.64,0,0,0-1.8,4.82,33.58,33.58,0,0,1-2.69,6.51c-2,3.41-4.58,4.57-7.56,5.91a31,31,0,0,0-4.8,2.54c-4.26,2.9-5.21,9.13-4.25,14h0a44.42,44.42,0,0,0,3.09,8.92l.59,1.39A134.11,134.11,0,0,1,195,203.64c1.2,4.64,2.13,10-.07,14.2a21.5,21.5,0,0,1-4.7,5.49c-.79.75-1.6,1.52-2.36,2.32-3.22,3.43-4.46,7.31-3.3,10.39.84,2.24,2.73,3.69,4.55,5.1a20.49,20.49,0,0,1,3,2.61c1.94,2.22,2.74,5.3,3.52,8.27.92,3.5,1.87,7.12,4.66,9.55a19.91,19.91,0,0,0,2.7,1.86c1.71,1.05,3.33,2,3.93,3.72a8.31,8.31,0,0,1,.24,3.1,13.63,13.63,0,0,0,0,2.39c.49,3.94,3.91,6.53,6.93,8.82l1.46,1.12c9.32,7.36,13.53,19.15,11.56,32.36-.17,1.17-.32,2.3-.47,3.43-.66,5-1.28,9.73-3.76,14.54a35.6,35.6,0,0,1-12.84,14c-1.05.65-2.17,1.27-3.25,1.86-3.19,1.75-6.47,3.56-8.72,6.51-2.47,3.24-3.25,7.27-4,11.17-.62,3.19-1.26,6.49-2.83,9.27a15.3,15.3,0,0,1-21.15,4.56,16.33,16.33,0,0,1-1.88-1.43c-3.33-3.36-4.77-7.92-6.29-12.75s-3-9.62-6.54-13.2c-5.47-5.6-13.78-6.3-21.82-7-8.6-.73-16.73-1.42-21.41-7.67-3.14-4.19-3.61-9.88-3.66-15.4v-1.34c0-5.14,0-10.46-2.29-15.16-2-4.2-6.52-7.67-11.08-7.67a8.28,8.28,0,0,0-3.15.6c-2.3.91-4,2.7-5.66,4.43-.61.64-1.24,1.3-1.89,1.89-5.46,5.05-13.82,7.16-23,5.78-8.24-1.24-15.89-4.92-23.29-8.48-8.42-4-15.7-8-19.54-14.89-5.45-9.81-1.54-22.06,4.74-29.85,4.66-5.77,10.72-10.38,16.58-14.83,3.56-2.7,7.24-5.5,10.58-8.53,10.59-9.62,17.33-19.4,20.59-29.9,1.44-4.63,2.4-11.11-1.18-15.71-3.09-4-8.28-5.08-13.78-6-5.16-.82-9.77-1.66-13.94-3.66-4.74-2.28-8.16-5.91-9.4-10-1.41-4.65.46-9.91,4.24-12a14.56,14.56,0,0,1,5.88-1.3,28.05,28.05,0,0,0,3.76-.5c5.16-1.2,5.74-3.28,5.16-7.82-2.16-16.72.06-30.35,6.58-40.5C66.51,95,79,87.21,91.17,79.7Z"/><path id="Tracé_902" data-name="Tracé 902" class="cls-1" d="M109.28,47.16c-7.62,9.87-17.87,17.55-27.79,25-1.89,1.42-3.78,2.83-5.65,4.27-11.83,9-23.61,19.31-29.7,33.25-2.51,5.75-2.06,11.84-1.64,17.74.5,6.89,1,13.4-3.11,19a30.1,30.1,0,0,1-6.64,6c-3,2.21-6.11,4.5-7.88,7.9-3.13,6-1.11,13,1.22,19.65,1.78,5.07,3.61,10.32,6.61,14.95,1.13,1.74,2.43,3.42,3.69,5,2.84,3.65,5.52,7.1,6.49,11.35,1.07,4.66-.12,10.08-3.36,15.27a67.49,67.49,0,0,1-9,10.73L30.85,239A198.54,198.54,0,0,0,6.4,270.35c-3.89,6.19-7.33,12.88-6.17,19.9,1.14,6.86,6.54,12.84,16.51,18.28A125,125,0,0,0,74.93,323.7h1.88c5.82,0,11.84.06,16.65,3,5.68,3.5,7.22,10.22,6.76,15.33-.4,4.53-2.89,7.26-5.52,10.15A30.39,30.39,0,0,0,90.24,358,27.07,27.07,0,0,0,88,364.15c-.93,3.47-1.82,6.74-4.91,9.05a18.5,18.5,0,0,1-6,2.56c-.83.25-1.68.5-2.51.8a24.77,24.77,0,0,0-15.22,15.5,22,22,0,0,0,4.51,21.11,20.25,20.25,0,0,0,14.73,6.39,18.29,18.29,0,0,0,6-1c3.62-1.28,6.7-3.62,9.68-5.89,1.19-.9,2.42-1.83,3.66-2.68,3-2.07,8.91-5.24,14.14-3.16a19.21,19.21,0,0,1,5.76,4.23,22.44,22.44,0,0,0,5.54,4.23c4,1.93,7.72.68,11.27-.53,3.38-1.14,6.57-2.22,10-.75a8.52,8.52,0,0,0,6.48,3.59,16.58,16.58,0,0,0,12.68-5.1,50.41,50.41,0,0,0,5.67-7.72c2-3.18,4.16-6.47,7-8.93a40.11,40.11,0,0,1,7.54-4.73c3.08-1.63,6.26-3.31,8.79-5.84,3.12-3.11,4.92-7.2,6.66-11.14a41.29,41.29,0,0,1,5.18-9.41c4.66-5.77,11.65-8.24,19.06-10.85,5.5-1.94,11.18-3.94,15.85-7.43,11.69-8.73,14.56-27.46,6-39.29a58.28,58.28,0,0,0-7.94-8.38c-4.33-4-8.41-7.77-10.32-13a37.67,37.67,0,0,1-1.64-8.74c-.49-4.52-1-9.18-3.86-12.83-2-2.57-4.89-4.18-7.67-5.73-1.38-.77-2.8-1.57-4.1-2.47-3.86-2.7-6.54-7.61-4.36-11.16a11.19,11.19,0,0,1,2.46-2.54,18.09,18.09,0,0,0,1.93-1.78c4.16-4.64,2.7-11.1,1.3-17.34-.31-1.41-.61-2.73-.85-4.05a33.74,33.74,0,0,1,6.16-25.88c.79-1,1.68-2.1,2.53-3.13,3.12-3.71,6.34-7.56,6.44-12.44.06-3.17-1.25-6.23-2.52-9.19-1.63-3.82-3.18-7.43-1.64-10.85,1.74-3.86,6.59-5,8.59-5.31a44.91,44.91,0,0,1,4.64-.41,37.8,37.8,0,0,0,6.53-.78,18.54,18.54,0,0,0,3.07-35c-8.94-3.93-13.16-8.72-14.56-16.55-1-5.32.14-10.85,1.2-16.19.32-1.58.64-3.22.91-4.84,1.56-9.36.2-16.4-4-20.91-2.43-2.59-5.64-4.13-8.76-5.62A41.3,41.3,0,0,1,213,48.61c-5.51-4-8.48-10.47-11.34-16.75-1.05-2.29-2.12-4.65-3.31-6.87C193,15,184.82,7.29,175.36,3.22c-10.29-4.43-22-4.28-31.35.38-7.2,3.6-13.51,9.91-19.86,19.85-1.8,2.83-3.52,5.78-5.18,8.63A138.54,138.54,0,0,1,109.28,47.16Zm16-23c6.21-9.73,12.35-15.88,19.33-19.37a34,34,0,0,1,15.19-3.46,38.28,38.28,0,0,1,15,3.11c9.19,4,17.11,11.48,22.3,21.18,1.17,2.18,2.24,4.52,3.27,6.79,2.94,6.44,6,13.1,11.79,17.28a40.85,40.85,0,0,0,6.41,3.55c3.14,1.5,6.1,2.92,8.36,5.33,3.95,4.19,5.2,10.85,3.71,19.78-.26,1.6-.59,3.23-.9,4.8-1.08,5.47-2.21,11.11-1.21,16.69,1.47,8.21,6.06,13.45,15.33,17.52A17.22,17.22,0,0,1,241,149.85a36,36,0,0,1-6.3.74c-1.56.09-3.17.18-4.76.43-4.69.72-8.18,2.94-9.6,6.07-1.77,4,0,8,1.63,11.92,1.22,2.83,2.47,5.76,2.41,8.64-.09,4.41-3.16,8.08-6.12,11.62-.87,1-1.77,2.11-2.58,3.18a35.12,35.12,0,0,0-6.41,26.92c.25,1.34.56,2.74.87,4.1,1.33,5.91,2.7,12-1,16.15a17.61,17.61,0,0,1-1.8,1.66,12.4,12.4,0,0,0-2.74,2.86c-2.6,4.21.37,9.89,4.73,12.94,1.36.92,2.77,1.77,4.21,2.55,2.79,1.55,5.42,3,7.27,5.38,2.64,3.35,3.1,7.63,3.59,12.16a38.61,38.61,0,0,0,1.71,9c2,5.55,6.41,9.61,10.66,13.54a57.8,57.8,0,0,1,7.77,8.18c8.14,11.28,5.41,29.13-5.74,37.45-4.5,3.37-10.1,5.34-15.5,7.24-7.25,2.56-14.75,5.2-19.65,11.27a42.36,42.36,0,0,0-5.35,9.71c-1.78,4-3.45,7.8-6.39,10.74-2.39,2.39-5.34,4-8.47,5.6a41.48,41.48,0,0,0-7.79,4.9c-3,2.59-5.17,6-7.27,9.22a50.11,50.11,0,0,1-5.52,7.52,15.39,15.39,0,0,1-11.59,4.69,7.31,7.31,0,0,1-5.61-3.17l-.1-.16-.18-.08c-4-1.79-7.66-.56-11.18.64s-6.73,2.28-10.28.58a20.86,20.86,0,0,1-5.2-4,20.39,20.39,0,0,0-6.17-4.49c-5.8-2.31-12.13,1.07-15.39,3.3-1.26.86-2.51,1.81-3.71,2.72-2.9,2.2-5.9,4.49-9.32,5.69a18.6,18.6,0,0,1-19.31-5,20.6,20.6,0,0,1-4.22-19.81,23.42,23.42,0,0,1,14.4-14.64c.8-.28,1.64-.53,2.45-.78a20,20,0,0,0,6.4-2.76c3.46-2.59,4.45-6.24,5.4-9.78a25.46,25.46,0,0,1,2.1-5.86,29,29,0,0,1,4.28-5.52c2.67-2.92,5.42-5.94,5.86-10.92.62-7-2.21-13.39-7.39-16.58s-11.33-3.2-17.33-3.23H74.94a123.63,123.63,0,0,1-57.56-15C7.79,302.13,2.61,296.46,1.54,290c-1.09-6.59,2.23-13,6-19a197.61,197.61,0,0,1,24.29-31.13c.54-.57,1.09-1.14,1.64-1.7a68.28,68.28,0,0,0,9.2-10.95c3.42-5.49,4.67-11.26,3.53-16.27-1-4.54-3.94-8.27-6.74-11.87-1.24-1.6-2.53-3.25-3.62-4.94-2.91-4.5-4.72-9.68-6.47-14.67-2.24-6.39-4.18-13.08-1.3-18.6,1.62-3.12,4.47-5.22,7.49-7.45a31.13,31.13,0,0,0,6.93-6.28c4.37-6,3.86-13.07,3.36-19.9-.42-5.74-.84-11.66,1.53-17.11,6-13.67,17.6-23.81,29.28-32.73q2.81-2.14,5.65-4.26C92.28,65.72,102.61,58,110.34,48a141.12,141.12,0,0,0,9.78-15.22C121.77,29.91,123.48,27,125.27,24.16Z"/><path id="Tracé_903" data-name="Tracé 903" class="cls-1" d="M139.71,384.72a4,4,0,0,0-3.07-.86c-1.72.21-2.91,1.62-4,2.87a11.34,11.34,0,0,1-1.47,1.55c-1.8,1.43-4.11,1.46-6.56,1.48-2.64,0-5.37.06-7.36,2.05a5.65,5.65,0,0,0-1.19,5.6,9.06,9.06,0,0,0,3.37,4.48,14.18,14.18,0,0,0,8.56,2.8,13.91,13.91,0,0,0,6.65-1.65,14.41,14.41,0,0,0,7.25-13.42A7.13,7.13,0,0,0,139.71,384.72ZM134,401.87a13,13,0,0,1-13.77-1,8,8,0,0,1-2.9-3.82,4.34,4.34,0,0,1,.86-4.27c1.6-1.61,4-1.63,6.44-1.66s5.2,0,7.36-1.77a12.42,12.42,0,0,0,1.67-1.73c.93-1.12,1.9-2.26,3.1-2.41a2.63,2.63,0,0,1,2.07.57,6,6,0,0,1,1.73,4A13.06,13.06,0,0,1,134,401.88Z"/><path id="Tracé_904" data-name="Tracé 904" class="cls-1" d="M254.28,241.93c-5.72-1.64-12-1.08-16.32,1.46a19.23,19.23,0,0,0-8.73,21.3A20,20,0,0,0,230,267c1.28,3.3,2.36,6.66,3.4,9.93,2.32,7.24,4.72,14.72,9.41,21.47a14.67,14.67,0,0,0,4.85,4.81,7.37,7.37,0,0,0,3.44.86,5.4,5.4,0,0,0,3.5-1.17c2.26-1.84,2.38-5.06,1.75-7.46a26.7,26.7,0,0,0-1.5-3.87,29.65,29.65,0,0,1-1.23-3,14.53,14.53,0,0,1,1.34-11.85,28,28,0,0,1,4.52-5.26,24.26,24.26,0,0,0,5.24-6.51c2.43-5.11,2.56-10.69.34-14.94C263.07,246.22,259.25,243.36,254.28,241.93Zm9.2,22.42a22.64,22.64,0,0,1-5,6.14,29,29,0,0,0-4.73,5.52A15.84,15.84,0,0,0,252.33,289a28.3,28.3,0,0,0,1.27,3.12,23.05,23.05,0,0,1,1.43,3.67c.51,1.9.47,4.64-1.3,6.09a5.1,5.1,0,0,1-5.48.16,13.1,13.1,0,0,1-4.39-4.4C239.28,291,237,284,234.63,276.47c-1-3.28-2.14-6.67-3.44-10a19.16,19.16,0,0,1-.67-2.11,17.89,17.89,0,0,1,8.11-19.83c4-2.36,9.9-2.87,15.28-1.32,4.62,1.33,8.15,3.95,9.94,7.39,2,3.88,1.89,9-.37,13.75Z"/><path id="Tracé_905" data-name="Tracé 905" class="cls-1" d="M240.83,177.82a15,15,0,0,0,3,5,14.87,14.87,0,0,1,2.7,4.26,14.68,14.68,0,0,1,.5,5,18.92,18.92,0,0,0,.35,4.69,9.8,9.8,0,0,0,9.06,7.26h.15a9.57,9.57,0,0,0,9.08-7c.75-2.91.05-5.87-.63-8.72l-.25-1.05a65.89,65.89,0,0,1-1.43-17.15c.15-5.06-2.33-7.71-7.39-7.88a15.32,15.32,0,0,0-9.28,3.22C243.07,168,239.35,172.81,240.83,177.82Zm14.78-14.3h.33c4.35.14,6.23,2.15,6.1,6.51a67.16,67.16,0,0,0,1.47,17.49l.25,1.06c.64,2.7,1.31,5.49.64,8.08a8.31,8.31,0,0,1-7.93,6,8.4,8.4,0,0,1-7.78-6.24,17.26,17.26,0,0,1-.31-4.36,12.18,12.18,0,0,0-3.5-10.09,13.68,13.68,0,0,1-2.77-4.52c-1.2-4.07,1.83-8.42,5.36-10.94a14.61,14.61,0,0,1,8.14-3Z"/></g></g></g></svg>
