<svg xmlns="http://www.w3.org/2000/svg" width="162" height="183" viewBox="0 0 162.77 183.47"><defs><style>.cls-1{opacity:0.32;}.cls-2{fill:#fff;}</style></defs><title>recrutment_lines_2</title><g id="Calque_2" data-name="Calque 2"><g id="Calque_1-2" data-name="Calque 1"><g id="Groupe_53" data-name="Groupe 53" class="cls-1"><path id="Tracé_917" data-name="Tracé 917" class="cls-2" d="M160.32,36.5c1.7-4.36,3.61-9.29,1.57-13.95-1.83-4.19-6.15-5.33-10.12-5.89l-1.7-.23c-3.43-.44-7-.89-9.8-3.06a27.43,27.43,0,0,1-4.78-5.2,37,37,0,0,0-3.65-4.25c-7-6.64-17.32-3.94-24,1.4C103,9.25,99.65,14.66,96.44,19.9a86.41,86.41,0,0,1-6.3,9.35A46.61,46.61,0,0,1,68.52,43.92a47.13,47.13,0,0,1-26.78.62c-1.29-.34-2.59-.72-4-1.12-8-2.33-17.14-5-25-.28-3.66,2.19-6,5.92-7.23,11.4-.29,1.28-.55,2.56-.8,3.82A85.07,85.07,0,0,1,2.09,69c-3.46,10-3.5,23.92,6.75,32.72a74.92,74.92,0,0,0,6.85,5c1.4,1,2.84,1.93,4.22,3,1.07.8,2,1.54,2.85,2.28,4.61,4.06,7.52,9.21,10.32,14.19a87.36,87.36,0,0,0,5.47,8.85c6,8.28,12.72,14.12,19.87,17.37,1,.47,2.1.94,3.19,1.41,7.46,3.26,15.92,6.94,18.84,15.09a16.57,16.57,0,0,1,.6,6.93c-.12,1.61-.39,5.4,2.44,7a4,4,0,0,0,2,.6A2.64,2.64,0,0,0,87,183c2.46-1.68,2.69-7.45,2.37-9.57a42.91,42.91,0,0,0-1.7-6.6,39.93,39.93,0,0,1-1.74-7c-.49-3.91.92-7.08,2.41-10.44.38-.85.77-1.73,1.13-2.63,2.56-6.33-.11-10.84-2.94-15.6a33.38,33.38,0,0,1-3.65-7.59A10.71,10.71,0,0,1,84,114.76c3-4.93,9.28-7.8,14.19-8.82,2.5-.53,5.06-.88,7.53-1.22,7.74-1.06,15-2.07,21.12-8,3.54-3.45,6.81-5.61,12.15-5.74,1.13,0,2.3,0,3.44,0,3.66.1,7.45.2,10.86-1.52,7.32-3.67,9-13.24,8.15-21a79.52,79.52,0,0,0-1.64-8.79c-.52-2.32-1.06-4.72-1.41-7.1a29.67,29.67,0,0,1,1.72-15.6Zm-1.11.21a30.55,30.55,0,0,0-1.79,16.08c.36,2.42.9,4.84,1.43,7.18a79.92,79.92,0,0,1,1.63,8.68c.82,7.41-.76,16.56-7.63,20-3.2,1.61-6.86,1.51-10.4,1.42-1.15,0-2.34-.06-3.49,0-5.66.14-9.09,2.4-12.8,6-5.84,5.68-13,6.67-20.57,7.71-2.49.34-5.06.7-7.6,1.23-5.12,1.07-11.69,4.06-14.82,9.27A11.63,11.63,0,0,0,82,123.86a33.84,33.84,0,0,0,3.75,7.81c2.7,4.56,5.25,8.87,2.88,14.75-.36.89-.75,1.76-1.12,2.61-1.55,3.48-3,6.77-2.49,10.94a39.88,39.88,0,0,0,1.78,7.14,43.77,43.77,0,0,1,1.67,6.46c.33,2.24,0,7.32-2,8.63A2.25,2.25,0,0,1,84,182c-2-1.14-2.12-3.72-2-6.09a17.44,17.44,0,0,0-.66-7.32C78.3,160.09,69.64,156.32,62,153l-3.18-1.4c-7-3.19-13.55-8.93-19.49-17.07a88.26,88.26,0,0,1-5.4-8.75c-2.85-5-5.79-10.28-10.53-14.44-.86-.76-1.82-1.52-2.91-2.34-1.39-1-2.85-2-4.25-3a74.94,74.94,0,0,1-6.77-5C-.41,92.55-.35,79.11,3,69.36A83.44,83.44,0,0,0,5.7,58.57c.26-1.26.52-2.53.8-3.82C7.65,49.55,9.87,46,13.28,44a18.15,18.15,0,0,1,9.54-2.49c4.81,0,9.8,1.45,14.7,2.87,1.38.4,2.68.78,4,1.13a48.16,48.16,0,0,0,27.33-.65,47.51,47.51,0,0,0,22.08-15,89.8,89.8,0,0,0,6.37-9.45c3.16-5.17,6.44-10.5,11.21-14.34,6.33-5.08,16.13-7.7,22.7-1.45a36.76,36.76,0,0,1,3.55,4.14,28.35,28.35,0,0,0,4.95,5.37c3,2.33,6.71,2.8,10.26,3.26l1.69.22c3.71.53,7.73,1.57,9.37,5.33,1.89,4.29,0,9-1.58,13.21Z"/><path id="Tracé_918" data-name="Tracé 918" class="cls-2" d="M127.08,31.1l-1.94-.47c-5.72-1.15-11.53.56-17.78,5.25-3.21,2.86-6.31,5.84-9.3,8.73-8,7.74-15.6,15-25.29,20.13a30.51,30.51,0,0,0-4.48,1.92c-11.91,4.39-24,2.63-34.9-5.07A10.41,10.41,0,0,0,24,59.79a12.18,12.18,0,0,0-8.1,7.14c-5.43,13.59,4.74,21.56,14.57,29.28,5.81,4.55,11.82,9.26,14.24,15a47.16,47.16,0,0,1,2.47,9l.48,2.29A31,31,0,0,0,51.75,132c2,3.07,5.18,6.8,9.2,7.17l.62,0c2.23,0,4.38-1.1,6.41-3.26,4.94-5.27,4.34-13.27,1.56-18.83-.7-1.51-1.48-3.06-2.24-4.56-4.14-8.23-8.42-16.74-4.22-25.2,8.4-9.73,23.48-2.69,29.6.81a32.55,32.55,0,0,0,8.48,3.25c7.23,1.45,12.44.07,16.9-4.48a34,34,0,0,1,9.73-7,11.46,11.46,0,0,1,5.1-1,14.63,14.63,0,0,0,4.21-.55,7,7,0,0,0,4.25-3.61c2.43-4.78.3-12.1-.4-14.19-.74-3.36.32-6.28,1.44-9.37a28.17,28.17,0,0,0,1.79-6.57C144.79,35.35,134.55,32.89,127.08,31.1Zm16.14,13.45a27.68,27.68,0,0,1-1.74,6.32c-1.12,3.09-2.28,6.28-1.46,10,.68,2.05,2.73,9.06.48,13.5a6.12,6.12,0,0,1-3.7,3.13,13.38,13.38,0,0,1-3.93.5,12.67,12.67,0,0,0-5.5,1.06,35.27,35.27,0,0,0-10,7.2c-4.2,4.29-9.15,5.59-16,4.21a31.87,31.87,0,0,1-8.21-3.16c-6.32-3.61-22-10.88-30.83-.54l-.07.1c-4.45,8.91,0,17.66,4.2,26.12.75,1.49,1.53,3,2.23,4.54,2.64,5.28,3.24,12.82-1.4,17.75-2,2.14-4.1,3.13-6.23,2.93-2.84-.26-5.85-2.65-8.48-6.73a30.12,30.12,0,0,1-3.94-9.11l-.48-2.28a48.11,48.11,0,0,0-2.52-9.21c-2.52-6-8.63-10.76-14.54-15.39-10-7.84-19.43-15.24-14.26-28.16a11.2,11.2,0,0,1,7.45-6.57,9.53,9.53,0,0,1,8.54,1.64c11.2,7.91,23.59,9.71,35.86,5.19a30,30,0,0,1,4.44-1.9l.07,0C83,60.47,90.63,53.11,98.72,45.32c3-2.89,6.08-5.87,9.24-8.68,6-4.49,11.54-6.15,17-5.06l1.92.46C134.39,33.85,143.78,36.1,143.22,44.55Z"/><path id="Tracé_919" data-name="Tracé 919" class="cls-2" d="M126.62,40.32a16,16,0,0,0-7.16,1.79c-6.91,3.16-12.71,8.28-18.31,13.23-4.34,3.83-8.82,7.8-13.79,10.82C79.69,70.83,70.82,73.32,63,75.52s-15.16,3.85-21.66.84c-.55-.25-1.1-.53-1.67-.82-2.95-1.49-6.3-3.18-9-1.22-2.53,1.82-2.32,5.85-.55,8.33a18.26,18.26,0,0,0,5.41,4.47l1.37.87a38.09,38.09,0,0,1,12.72,14.22c1.75,3.41,1.8,7.15,1.85,11.12s.11,8.26,2.1,12.16c1.19,2.34,3.28,5.21,6.45,5.58q.3,0,.6,0a5.78,5.78,0,0,0,4.89-2.76c2.61-4.43-1-8.64-3.67-11.71l-.59-.69c-4-4.69-8.24-14.68-8-21.54.24-6.65,4.39-12.22,11.39-15.29a40.28,40.28,0,0,1,29.72-.93c.56.2,1.12.42,1.7.64,4.07,1.56,8.28,3.17,12.17,1.35,2.28-1.07,3.87-3.13,5.4-5.12,1.77-2.3,3.44-4.48,6-5.07a12.83,12.83,0,0,1,4.82.2c2.22.37,4.51.75,6.51-.43,3-1.75,3.3-5.81,3.24-9.14,0-1.15.05-2.51.13-4,.26-4.88.58-11-2.37-14.15A7.21,7.21,0,0,0,126.62,40.32Zm6.74,16.28c-.07,1.46-.15,2.84-.13,4,.06,3.27-.23,6.8-2.76,8.3-1.7,1-3.72.67-5.87.31a13.54,13.54,0,0,0-5.19-.19c-2.92.67-4.78,3.09-6.57,5.42-1.47,1.9-3,3.87-5,4.84-3.52,1.65-7.53.11-11.42-1.38l-1.71-.64a41.2,41.2,0,0,0-30.43,1c-7.36,3.23-11.72,9.1-12,16.14s4,17.27,8.21,22.2l.6.69c2.6,3,5.83,6.76,3.58,10.6a4.8,4.8,0,0,1-4.55,2.26c-2.75-.32-4.62-2.93-5.7-5.06-1.89-3.7-1.95-7.79-2-11.73s-.1-7.94-2-11.55a39,39,0,0,0-13-14.58c-.45-.3-.92-.6-1.39-.89a17.29,17.29,0,0,1-5.14-4.22c-1.51-2.1-1.74-5.48.34-7,2.25-1.62,5.19-.13,8,1.3.57.29,1.14.58,1.69.83,6.8,3.16,14.76,1.34,22.33-.78,7.89-2.21,16.82-4.72,24.61-9.46,5-3.07,9.56-7.06,13.93-10.92,5.55-4.91,11.29-10,18.07-13.09a15.18,15.18,0,0,1,6.73-1.7,6.21,6.21,0,0,1,4.66,1.87c2.67,2.88,2.36,8.73,2.12,13.44Z"/></g></g></g></svg>
