<svg xmlns="http://www.w3.org/2000/svg" width="40" height="10" viewBox="0 0 40.5 9.51">
  <title>schtzlr</title>
  <path d="M20.25,9.14A1.35,1.35,0,0,1,19.78,8V3.08h-.64V3L19.78,3,22.11,1h.13V3h1.33v.13H22.24V8a1.92,1.92,0,0,0,.11.71.5.5,0,0,0,.52.29.94.94,0,0,0,.47-.12l.38-.26,0,.09a3.52,3.52,0,0,1-1.1.58,3.94,3.94,0,0,1-1.18.19A2,2,0,0,1,20.25,9.14ZM7.16,9.23A3,3,0,0,1,5.52,7.47a3.76,3.76,0,0,1-.21-1.24,3.26,3.26,0,0,1,.31-1.45,3.46,3.46,0,0,1,2-1.73,4,4,0,0,1,1.28-.23,3,3,0,0,1,1,.18,2.3,2.3,0,0,1,.72.43A1.74,1.74,0,0,1,11,4a1.23,1.23,0,0,1,.14.57,1,1,0,0,1,0,.34.79.79,0,0,1-.17.31,1.11,1.11,0,0,1-.34.22,1.25,1.25,0,0,1-.51.09.85.85,0,0,1-.63-.19.52.52,0,0,1-.19-.39.79.79,0,0,1,.1-.42,2.92,2.92,0,0,1,.21-.28A2.75,2.75,0,0,0,9.82,4a.65.65,0,0,0,.1-.39A.65.65,0,0,0,9.16,3c-.41,0-.74.27-1,.8A5.75,5.75,0,0,0,7.83,6,4.1,4.1,0,0,0,8,7.38a2.22,2.22,0,0,0,.46.82,1.7,1.7,0,0,0,.64.42,2.26,2.26,0,0,0,.69.11,1.83,1.83,0,0,0,.85-.2,3.85,3.85,0,0,0,.6-.39l.05.12c-.05.05-.14.14-.26.28a2.59,2.59,0,0,1-.51.42,3.34,3.34,0,0,1-.81.38,4,4,0,0,1-2.57-.1Zm-5.37.24c-.2,0-.4-.06-.61-.1L.59,9.23a2.32,2.32,0,0,1-.46-.18L0,7.31H.13a3.34,3.34,0,0,0,.92,1.54,2,2,0,0,0,1.35.52,1.18,1.18,0,0,0,.69-.19.69.69,0,0,0,.26-.58A.86.86,0,0,0,3.1,8a3.14,3.14,0,0,0-.6-.49C2.26,7.35,2,7.2,1.71,7a4.35,4.35,0,0,1-.79-.56,3.08,3.08,0,0,1-.61-.73A2.11,2.11,0,0,1,.21,4,1.57,1.57,0,0,1,.65,3.4,2.13,2.13,0,0,1,1.43,3a3.81,3.81,0,0,1,1.16-.15l.49,0,.53.08a4.77,4.77,0,0,1,.51.13,3.2,3.2,0,0,1,.43.17l.13,1.65H4.55a4.32,4.32,0,0,0-.36-.67,4.74,4.74,0,0,0-.46-.62,2.36,2.36,0,0,0-.54-.46A1.12,1.12,0,0,0,2.6,3a.61.61,0,0,0-.7.5.54.54,0,0,0,0,.18,1.09,1.09,0,0,0,.23.67,3,3,0,0,0,.59.53c.24.16.49.31.76.47a5.74,5.74,0,0,1,.76.53,2.75,2.75,0,0,1,.59.68,1.76,1.76,0,0,1,.23.93,1.81,1.81,0,0,1-.71,1.49,3.11,3.11,0,0,1-2,.56,5.24,5.24,0,0,1-.56,0Zm37-.34a1,1,0,0,1-.3-.71,1,1,0,0,1,.3-.73,1,1,0,0,1,1.1-.23,1.5,1.5,0,0,1,.33.23,1.19,1.19,0,0,1,.22.33,1.14,1.14,0,0,1,.08.4,1.1,1.1,0,0,1-.08.4,1,1,0,0,1-.22.31,1,1,0,0,1-.33.22.85.85,0,0,1-.38.09,1,1,0,0,1-.72-.31Zm-5.1.24V9.24A2.24,2.24,0,0,0,34,9.19a.39.39,0,0,0,.19-.08A.2.2,0,0,0,34.29,9a1.36,1.36,0,0,0,0-.2V3.85a2.45,2.45,0,0,0,0-.27.3.3,0,0,0-.08-.16A.66.66,0,0,0,34,3.33l-.35-.06V3.14l3-.32h.13L36.71,4.3h.06c.08-.19.16-.37.25-.55a3.08,3.08,0,0,1,.32-.48,1.49,1.49,0,0,1,.41-.33,1.25,1.25,0,0,1,.54-.12.93.93,0,0,1,.33.07.9.9,0,0,1,.3.21,1.11,1.11,0,0,1,.22.34,1.27,1.27,0,0,1,.09.47,1,1,0,0,1-.08.38.94.94,0,0,1-.2.33,1,1,0,0,1-.28.23.72.72,0,0,1-.75,0,2.23,2.23,0,0,1-.27-.26l-.22-.27a.29.29,0,0,0-.23-.12.72.72,0,0,0-.44.26V8.79a.58.58,0,0,0,0,.19.21.21,0,0,0,.11.13.77.77,0,0,0,.27.08l.48.05v.13Zm-3.85,0V9.24a2.08,2.08,0,0,0,.34-.05.33.33,0,0,0,.19-.08A.2.2,0,0,0,30.43,9a.68.68,0,0,0,0-.2V1a1.23,1.23,0,0,0,0-.27A.25.25,0,0,0,30.35.6a.34.34,0,0,0-.19-.09,1.86,1.86,0,0,0-.34-.06V.32l3-.32h.13V8.79a.68.68,0,0,0,0,.2.2.2,0,0,0,.08.12.33.33,0,0,0,.19.08,2.08,2.08,0,0,0,.34.05v.13Zm-5.94,0V9.24l2.84-6.16h-1a1.14,1.14,0,0,0-.91.46,4.28,4.28,0,0,0-.67,1.53H24L24.07,3h5.31v.13L26.56,9.24H27.8a1.19,1.19,0,0,0,.94-.46,3.88,3.88,0,0,0,.7-1.53h.13l-.13,2.12Zm-8.4,0V9.24a.9.9,0,0,0,.42-.13A.45.45,0,0,0,16,8.79V4.62c0-.55-.21-.83-.64-.83a.84.84,0,0,0-.5.17l-.37.34V8.79a.67.67,0,0,0,0,.2.38.38,0,0,0,.09.13.4.4,0,0,0,.19.07,2.08,2.08,0,0,0,.34.05v.13H11.38V9.24a2.08,2.08,0,0,0,.34-.05.44.44,0,0,0,.19-.07A.26.26,0,0,0,12,9a.68.68,0,0,0,0-.2V1a1.23,1.23,0,0,0,0-.27A.3.3,0,0,0,11.91.6a.34.34,0,0,0-.19-.09,2,2,0,0,0-.34-.06V.32l3-.32h.13l-.07,4.17h.07a4.42,4.42,0,0,1,1-1,2.1,2.1,0,0,1,1.24-.39,2.59,2.59,0,0,1,.67.1,1.46,1.46,0,0,1,.56.34,1.6,1.6,0,0,1,.39.6,2.44,2.44,0,0,1,.14.89v4a1.36,1.36,0,0,0,0,.2.24.24,0,0,0,.09.13.4.4,0,0,0,.19.07,2.08,2.08,0,0,0,.34.05v.13Z"/>
</svg>
