<svg xmlns="http://www.w3.org/2000/svg" viewBox="0 0 140.99 158.46">
  <path class="Orange" d="M45.28,67.24c-4.62,0-9-3.52-8.54-6.77s2.82-4.77,5.93-4.83c3.34-.07,7.6,3.74,7.53,6.7C50.12,65.86,47.75,67.07,45.28,67.24Z"/>
  <g class="Tree">
    <path d="M48.3,47.42C59.09,56.82,63.14,70,67.88,83.57c6.62-17.5,13.37-34.1,28-45.88a70.83,70.83,0,0,0-9.91,22.58,75.63,75.63,0,0,0-1.61,15.21c-.06,3.16,1.26,3.1,3.6,2.32A91.22,91.22,0,0,1,120,73.1c4.79.16,9.34,1.29,14.52,2.51-6.57,1.16-12.49,2.25-18.43,3.24-2.82.48-3.57,1.33-1.87,4.17,2.93,4.88,2.31,5.79-3.31,5.54-2.1-.1-4.64-.23-6.17-1.39-3.53-2.7-6.28-1.45-9.15.73-2.49,1.9-5,3.82-7.43,5.73-7.25,5.61-8.66,13.11-7.4,21.72A398.24,398.24,0,0,0,89,155.4c.23.93.33,1.9.52,3.06H50.92c2.95-11.73,5.93-23.16,8.67-34.64,1.41-5.91,2.62-11.88,3.54-17.89,1.6-10.48-7.65-24.83-19.43-30.29-4.92-2.29-10-4.19-15.53-4.42-1.13,0-2.39.06-2.8-1.7A58.46,58.46,0,0,1,51.44,71.4c2.47.78,3.11.27,3.06-2.27A43.12,43.12,0,0,0,48.3,47.42Z"/>
      <path d="M111.18,63.26C109.1,67.55,105.89,70.38,101,71c-3.66.46-7-.17-9-3.62C90.12,64.15,91,61,93.07,58.17c2.8-3.76,6.69-5.12,11.25-4.86,3.94.23,6.12,2.61,7.36,6.11C112.79,60.87,111.94,62.06,111.18,63.26Z"/>
      <path d="M50.89,23.51c-3.4-4.43-5-9-9.4-12.42.37,5.54,3.94,9,5.24,13.36C36.58,22.51,32.16,13.17,35,.21,46.74,2.76,52.16,10.24,50.89,23.51Z"/>
      <path d="M105.63,0c4.15,11.06-.92,21.87-12.17,25,2.73-4.76,5.34-9.22,6.85-15.52a61.17,61.17,0,0,0-9.86,14C87.82,11.75,93,4.15,105.63,0Z"/>
      <path d="M27.3,59.34c-5.69.16-10.73.4-16.76,2.09,6.16,1.86,11.36,1.71,16.78,1.82C19.7,70.49,7.85,70.17,1,63c-1.47-1.53-1.22-2.16.19-3.42C9.63,52.11,20.91,52.85,27.3,59.34Z"/>
      <path d="M113.94,58.26c10.36-5.74,17.62-5.35,25.52,1.13,1.81,1.49,2.22,2.15.12,3.92-8.24,7-18.27,7.09-26.35,0,4.28-2.85,13-1.18,17.1-2.18-2.46-.11-9.32-.28-12.26-.58C116.48,60.4,114.26,60.9,113.94,58.26Z"/>
      <path d="M77.3,50.05c0,5.27-3,9.06-7.07,8.9-3.8-.14-6.76-4-6.84-8.84-.07-5.09,3-9.13,7-9.15S77.31,44.67,77.3,50.05Z"/>
      <path d="M43.91,44.32c-3.55-1.62-5.73-4-9.23-2.56l6.66,4.71a6.9,6.9,0,0,1-4.61.32C31,45.86,25.54,41,24.91,36.37c-.19-1.34.45-1.59,1.52-1.9a14.13,14.13,0,0,1,15.16,5.6C42.29,41.13,42.82,42.31,43.91,44.32Z"/>
      <path d="M99.38,46.59c2.09-1.5,3.38-2.49,4.73-3.37a11.49,11.49,0,0,0,4.07-3.65c-3.81.62-6.69,2.57-9.92,4,1.74-7.18,10.33-11.68,16.54-9,2,.84,1.1,1.94.63,3.15C112.75,44.45,107.93,47.35,99.38,46.59Z"/>
      <path d="M24.9,87.69c2.67-9.5,7.28-12.76,16.66-11.39l-7.89,5.29c3.42,1.9,5.49-2.07,8.42-1.38C40.26,87.14,34.43,89.66,24.9,87.69Z"/>
      <path d="M72.31,28.27c-.43-3.53-.84-6.94-1.31-10.82-3,3.71-.78,7.9-2,11.53-5.21-6.29-5.16-13.61,0-19,.85-.89,1.32-1.66,2.71-.42C76.65,14,77.12,22.9,72.31,28.27Z"/>
      <path d="M54.63,34.33c3,.18,4.77,1.73,4.8,4.52a29.19,29.19,0,0,1-1.1,3.29C55.77,40.41,54.09,37.11,54.63,34.33Z"/>
      <path d="M85.63,34.32c.73-.14,1,.83.91,1.86-.12,2.12-.44,4.18-2.81,5.08.55-2.36-3,.09-2.61-2.26S82.67,35.16,85.63,34.32Z"/>
  </g>
</svg>
