<svg xmlns="http://www.w3.org/2000/svg" width="450" height="345" viewBox="0 0 450.76 345.79"><defs><style>.cls-1{opacity:0.28;}.cls-2{fill:#fff;}</style></defs><title>verger_lines</title><g id="Calque_2" data-name="Calque 2"><g id="Calque_1-2" data-name="Calque 1"><g id="Groupe_70" data-name="Groupe 70" class="cls-1"><path id="Tracé_908" data-name="Tracé 908" class="cls-2" d="M238.28,234.56c6.21-8,5.9-18.7,4.54-26.3-.72-4-1.83-8-2.89-11.9a111.46,111.46,0,0,1-3.19-13.87c-.27-1.91-.48-3.89-.71-6-1-9.16-2.1-19.54-8.66-26.52-4.2-4.46-9.55-6.22-14.68-4.83-5.82,1.58-10.4,6.82-12,13.69a38.52,38.52,0,0,0-.91,8.63,64.36,64.36,0,0,0,3.13,18.77c.43,1.38.89,2.76,1.34,4.14,2.21,6.7,4.49,13.64,4.72,20.68.07,2.1,0,4.36-.11,6.54-.29,7.27-.59,14.79,4.48,20.06a13.94,13.94,0,0,0,11,4A19.29,19.29,0,0,0,238.28,234.56ZM215,236.07c-4.39-4.56-4.12-11.27-3.84-18.37.09-2.22.18-4.52.11-6.71-.24-7.37-2.57-14.47-4.83-21.32-.45-1.38-.9-2.75-1.33-4.12-1.77-5.59-4.4-16.42-2.17-26.19,1.38-6,5.34-10.63,10.34-12,4.35-1.18,8.76.31,12.41,4.19,6,6.42,7.06,16,8.05,25.19.23,2.12.44,4.11.71,6.06A112.17,112.17,0,0,0,237.72,197c1.05,3.82,2.13,7.77,2.84,11.7,1.27,7.14,1.6,17.17-4.09,24.48a17,17,0,0,1-12.21,6.25,11.67,11.67,0,0,1-9.25-3.33Z"/><path id="Tracé_909" data-name="Tracé 909" class="cls-2" d="M254.26,242.6c1.32-4.28.65-8.73,0-13a48.14,48.14,0,0,1-.74-7.68,47.4,47.4,0,0,1,1.82-10.77,61.58,61.58,0,0,0,1.74-8.73c1-10.24-3-20.19-6.54-28.95-5.65-13.94-12.06-29.74-23.63-41.09a21.81,21.81,0,0,0-16.33-6.24c-7.93.25-16.11,4.23-21.88,10.64C182.5,143.63,179,153.46,179,164c0,.75,0,1.51.06,2.27.44,9.43,3.43,19.23,9.13,29.94.66,1.26,1.35,2.51,2.05,3.77,4.18,7.59,8.51,15.44,7.64,23.77a43.76,43.76,0,0,1-2.64,9.79c-1.78,5-3.61,10.22-2.33,15.53,1.92,7.9,10.18,12.35,17,13.12,7.54.86,15.1-1.42,21.78-3.44C241.8,255.7,251.48,251.65,254.26,242.6Zm-44.09,17.87c-6.28-.71-13.83-4.72-15.56-11.82-1.16-4.8.51-9.54,2.28-14.54a45,45,0,0,0,2.73-10.2c.92-8.87-3.53-16.95-7.84-24.77-.7-1.25-1.38-2.5-2-3.74-5.58-10.49-8.5-20.05-8.93-29.22-.51-10.92,2.83-21.24,9.18-28.29,5.46-6.07,13.18-9.83,20.66-10.06a20.08,20.08,0,0,1,15.06,5.75c11.32,11.09,17.66,26.71,23.24,40.5,3.48,8.58,7.42,18.3,6.42,28.13a59.9,59.9,0,0,1-1.7,8.49,49.15,49.15,0,0,0-1.87,11.16,49.43,49.43,0,0,0,.76,8c.64,4.3,1.25,8.37.05,12.28-2.55,8.27-11.77,12.09-21.36,15-6.51,2-13.9,4.2-21.08,3.38Z"/><path id="Tracé_910" data-name="Tracé 910" class="cls-2" d="M164.69,271c.83,1.9,1.53,3.93,2.21,5.89,1.58,4.52,3.2,9.19,6.43,12.88,5.56,6.37,14.25,8.28,23.42,9.82,5.65.95,12.6,1.44,16.27-3.25,2.23-2.86,2.3-6.48,2.37-10a25.27,25.27,0,0,1,.62-6.31c2-7.29,10.51-10.71,17.28-12.3,1-.23,2-.45,3-.67,6.81-1.51,13.85-3.07,18.62-8.18,5.47-5.88,5.89-14.09,6.29-22a70.37,70.37,0,0,1,1.31-12.19c1.25-5.36,3.95-10.36,6.56-15.2,2.42-4.49,4.92-9.14,6.34-14.15a36.17,36.17,0,0,0-7-32.62,71.28,71.28,0,0,0-8.87-8.41c-3.75-3.17-7.63-6.45-10.4-10.51a55.08,55.08,0,0,1-4.55-8.84A58,58,0,0,0,240,126c-5.42-8.09-14.13-12.87-24.53-13.46-13.2-.76-27.16,5.15-35.57,15-8.69,10.22-13,25-11.74,40.49,1,12.47,5.34,25.72,13.28,40.52l.35.64c1.52,2.83,3.1,5.75,3.63,8.87.62,3.59-.45,7.06-2.73,8.82-2.83,2.19-6.57,1.63-10.53,1-3-.45-6.06-.91-9-.23a11.91,11.91,0,0,0-7.52,5.76,19.67,19.67,0,0,0-2.57,9.93,20.82,20.82,0,0,0,.73,5.5c1.31,4.82,3.85,9.17,6.3,13.38A83.69,83.69,0,0,1,164.69,271Zm-9.24-22.5a19.07,19.07,0,0,1,1.66-14.1,10.24,10.24,0,0,1,6.44-5c2.59-.61,5.51-.17,8.33.26,4.14.62,8.43,1.26,11.84-1.38a10.27,10.27,0,0,0,3.57-8.2,13.3,13.3,0,0,0-.2-2.27c-.58-3.4-2.22-6.44-3.81-9.39l-.35-.65c-7.83-14.58-12.11-27.61-13.08-39.83-1.2-15.07,2.93-29.37,11.33-39.24,8.08-9.5,21.49-15.17,34.16-14.44,9.85.56,18.09,5.07,23.2,12.7a56.38,56.38,0,0,1,4.45,8.68,56.07,56.07,0,0,0,4.7,9.11c2.9,4.25,6.87,7.61,10.71,10.86a69.92,69.92,0,0,1,8.66,8.2,34.42,34.42,0,0,1,6.65,31c-1.37,4.83-3.82,9.39-6.2,13.8-2.66,4.94-5.41,10.05-6.71,15.63a71.9,71.9,0,0,0-1.37,12.49c-.4,8-.78,15.53-5.82,20.94-4.41,4.72-11.18,6.22-17.73,7.68l-3,.67c-7.22,1.69-16.3,5.41-18.55,13.51a27.32,27.32,0,0,0-.69,6.74c-.06,3.36-.12,6.54-2,8.94-3.11,4-9.45,3.49-14.62,2.62-8.85-1.49-17.22-3.32-22.41-9.26-3-3.44-4.51-7.75-6.1-12.31-.69-2-1.41-4-2.26-6a87,87,0,0,0-4.69-8.85c-2.4-4.12-4.87-8.37-6.13-13Z"/><path id="Tracé_911" data-name="Tracé 911" class="cls-2" d="M94.55,297.62a20.42,20.42,0,0,0,19.75,3,38.8,38.8,0,0,0,8.56-5.15c1.3-.94,2.65-1.92,4-2.78,2.84-1.79,8.32-4.5,13.14-2.48,2.22.93,3.92,2.68,5.73,4.53a24.57,24.57,0,0,0,5,4.3c4.66,2.72,10.07,2.06,15.3,1.43a41.24,41.24,0,0,1,9.42-.44c5.8.66,11,4,15.93,7.27,1.64,1.07,3.33,2.17,5,3.17,7.08,4.16,16.95,6.66,23.43,1.2,4.86-4.09,5.61-10.63,6.33-16.95.7-6.06,1.36-11.8,5.29-15.6,2.6-2.5,6.09-3.59,9.78-4.75a49.59,49.59,0,0,0,5.63-2C261.2,266,266,248.6,269.45,232.82c3.17-14.64,8.65-32.07,23.08-36.94,5.16-1.75,10.93-1.58,16.5-1.41,7.06.21,14.36.42,20.54-3.22s10.58-11.18,11.75-20.49c.72-5.75.31-11.59-.08-17.24-.15-2.15-.3-4.37-.4-6.55-.5-12.17,1.48-21.44,6.05-28.31,5-7.55,15.7-13.22,24.84-9.61.63.25,1.26.54,1.9.83a13.23,13.23,0,0,0,5.89,1.69,7.3,7.3,0,0,0,5.51-2.7c2.82-3.3,3.53-8.82,3-12.84-1.25-9.2-5.51-16.37-11.71-19.68-8.64-4.62-19.67-2-33.73,8.1-10.3,7.39-21.24,14.3-31.73,10.83-5.37-1.77-9.51-6-13.53-10.16-1.46-1.5-3-3.05-4.52-4.48-6.36-5.82-15.81-9.54-22.55-4.72-4.94,3.52-5.87,9.64-6.78,15.55a43.48,43.48,0,0,1-2.12,9.36c-3.57,9.07-13.45,11.45-21.52,10.65-4.14-.42-8.35-1.09-12.43-1.73-7.22-1.15-14.7-2.33-22.17-2.16-18.81.43-27.86,13.76-36.6,26.64a133.74,133.74,0,0,1-10,13.46c-1.34,1.54-2.9,3-4.4,4.43-3.69,3.5-7.5,7.12-8.91,12.12-1.58,5.6.33,11.18,2.18,16.56a45.55,45.55,0,0,1,2.68,10.38c1,11.07-7,20.47-11.82,25.1-3.23,3.08-6.82,5.89-10.29,8.61a117.15,117.15,0,0,0-12.21,10.48c-4.59,4.75-8.37,10.27-12,15.62-1.79,2.61-3.64,5.31-5.55,7.88l-1.8,2.38c-4.13,5.42-8.4,11-9.36,17.82a18.86,18.86,0,0,0-.19,2.7A20.48,20.48,0,0,0,94.55,297.62Zm-5.7-18.31c.91-6.36,5-11.77,9-17,.61-.8,1.22-1.6,1.81-2.4,1.94-2.6,3.8-5.31,5.59-7.94,3.61-5.29,7.35-10.75,11.84-15.4a115.78,115.78,0,0,1,12-10.32c3.51-2.75,7.13-5.59,10.42-8.73C144.33,213,152,203.94,152,193.08q0-1-.09-2.07a46.6,46.6,0,0,0-2.77-10.77c-1.84-5.38-3.58-10.46-2.15-15.54,1.28-4.54,4.76-7.84,8.44-11.34,1.53-1.45,3.11-3,4.51-4.54A137.17,137.17,0,0,0,170,135.19c8.89-13.1,17.29-25.48,35.22-25.89,7.31-.17,14.71,1,21.86,2.14,4.1.65,8.33,1.32,12.53,1.74,8.69.87,19.37-1.76,23.29-11.73a45,45,0,0,0,2.22-9.73c.89-5.81,1.73-11.31,6.07-14.41,6-4.26,14.54-.76,20.4,4.6,1.51,1.39,3,2.92,4.45,4.4,4.15,4.27,8.45,8.69,14.21,10.6,12.2,4,24.89-5,33.28-11.07,13.47-9.65,23.91-12.26,31.92-8,5.7,3,9.64,9.75,10.81,18.39.5,3.63-.11,8.59-2.59,11.49a5.59,5.59,0,0,1-4.23,2.1,12,12,0,0,1-5.13-1.53c-.66-.31-1.32-.62-2-.88-10.33-4.08-21.57,2.25-26.9,10.26-4.78,7.18-6.85,16.78-6.34,29.34.09,2.2.25,4.43.4,6.59.39,5.57.79,11.33.09,16.91-1.1,8.78-5.08,15.78-10.91,19.22s-12.49,3.19-19.61,3c-5.73-.17-11.66-.35-17.1,1.5-15.25,5.15-20.95,23.12-24.22,38.21-3.32,15.37-8,32.27-21.57,38.32a51.64,51.64,0,0,1-5.44,1.93c-3.72,1.16-7.57,2.36-10.46,5.15-4.38,4.23-5.1,10.54-5.8,16.64-.72,6.26-1.4,12.18-5.73,15.83-5.8,4.88-14.88,2.5-21.44-1.36-1.67-1-3.35-2.08-5-3.13-5.15-3.36-10.47-6.84-16.68-7.54a43,43,0,0,0-9.82.43c-5.18.63-10.06,1.23-14.22-1.2a23.52,23.52,0,0,1-4.66-4c-1.85-1.89-3.75-3.85-6.29-4.91-5.54-2.32-11.6.65-14.72,2.62-1.41.89-2.78,1.88-4.1,2.84a37.17,37.17,0,0,1-8.18,4.93,18.34,18.34,0,0,1-24.82-19.67Z"/><path id="Tracé_912" data-name="Tracé 912" class="cls-2" d="M289.41,140.38a10.58,10.58,0,0,0-.41,2.9c0,3.19,1.36,6.33,2.7,9.12,2.16,4.47,4.82,9.52,9.2,12.82,4.15,3.12,10.79,4.51,15.47,1.14,4.87-3.51,5.56-10.12,5.58-16.73,0-4.46,0-9-1.06-13.5-1.32-5.44-3.66-8.81-6.93-10-4.13-1.51-9.56.31-17.06,5.76C294.23,133.8,290.59,136.44,289.41,140.38Zm23.95-12.65c2.7,1,4.67,4,5.85,8.8a49.07,49.07,0,0,1,1,11.6v1.5c0,6.15-.62,12.27-4.87,15.33-4,2.89-9.78,1.63-13.42-1.12-4.07-3.06-6.62-7.9-8.69-12.18-1.61-3.35-3.24-7.22-2.18-10.78.93-3.13,3.64-5.3,6.84-7.61,6.9-5,11.95-6.83,15.45-5.54Z"/><path id="Tracé_913" data-name="Tracé 913" class="cls-2" d="M118.71,284.21q.36-.79.72-1.62c1.39-3.14,2.81-6.39,5.59-8,2.49-1.47,5.65-1.5,8.7-1.52,5.09-.05,10.36-.1,12.67-6.65a10.86,10.86,0,0,0-.56-9,13.14,13.14,0,0,0-8.48-6.27c-8.16-2-17.09.06-24.49,5.76-7.56,5.82-12.15,14.41-12.27,23h0v.35a15,15,0,0,0,1.69,7.52,8.4,8.4,0,0,0,6.86,4.48C114.2,292.36,117.31,287.26,118.71,284.21Zm-14.93,2.7a13.67,13.67,0,0,1-1.46-7c.11-8.05,4.44-16.14,11.59-21.64,7-5.38,15.38-7.37,23-5.45a11.35,11.35,0,0,1,7.37,5.41,9.17,9.17,0,0,1,.46,7.58c-1.91,5.42-6.15,5.45-11.06,5.5-3.29,0-6.68.06-9.57,1.76-3.25,1.92-4.8,5.43-6.28,8.82-.24.54-.48,1.08-.72,1.6-1,2.15-3.73,7.13-8,7a6.73,6.73,0,0,1-5.4-3.61Z"/><path id="Tracé_914" data-name="Tracé 914" class="cls-2" d="M24.08,285.43c2.35,6,8,9.52,13.52,12.87l1.33.82c5,3.1,10.26,7.2,11.21,14.21a38.9,38.9,0,0,1,.21,4.58c0,4,0,8.16,3.37,11.65,8.45,8.85,17.6,2.16,25-3.22A60.71,60.71,0,0,1,85.19,322c14.8-8.06,26.79-10.72,37.72-8.37a74.12,74.12,0,0,1,9.46,3c4.18,1.52,8.5,3.1,13,3.59a56.72,56.72,0,0,0,9,0c4-.22,7.77-.42,11.46.48,6.81,1.67,11.93,6.67,17.35,12s11,10.77,18.44,12.57c11.8,2.86,23.42-4.84,30.36-13a122.82,122.82,0,0,0,9.72-13.8,119.9,119.9,0,0,1,9.56-13.59,122.33,122.33,0,0,1,10.45-10.42c6.1-5.63,12.42-11.45,16.35-19,5.08-9.74,5.5-21,5.9-31.81.1-2.91.22-5.93.42-8.84.67-9.78,5.15-14.6,13.67-14.75,3.89-.07,7.83.89,11.63,1.82,1.27.31,2.53.61,3.79.89,4.39,1,10.87,1.91,16.4-.77,13.2-6.39,21.87-18.09,23.18-31.31.1-1,.16-2,.22-3a34.92,34.92,0,0,1,.66-5.77,14.11,14.11,0,0,1,3.31-6.5c3.18-3.48,8.39-5.32,14.29-5,9.89.46,19.1,4.25,28,7.92,6.23,2.57,12.68,5.23,19.37,6.77,9.06,2.08,17.43.57,22.95-4.15,11.2-9.57,11.11-31.75,3.18-43.19-1.67-2.41-3.56-4.75-5.38-7-4.79-5.94-9.3-11.55-10.62-18.57-1.53-8.13,1.72-16.31,4.86-24.23.7-1.76,1.39-3.51,2-5.26,2.3-6.25,6.63-21.76-2.9-30.62-4.28-4-10.05-5.24-15.63-6.46-4.77-1-9.71-2.12-13.5-4.92-5.6-4.14-7.9-11.28-10.13-18.18-.66-2-1.33-4.13-2.09-6.13C388,6.28,379-2.56,369.59.68c-6.88,2.38-9.22,9.4-11.48,16.19-1.43,4.28-2.9,8.71-5.49,12-7.06,9-21.26,8.1-31.47,3.48a118.68,118.68,0,0,1-12.94-7.23c-5.87-3.6-11.95-7.34-18.68-9.46-12.2-3.85-27.8,0-31.57,11.82-3.24,10.17,0,21.41,3.25,30.06C263.5,63.71,263,71.48,260.12,76a8.41,8.41,0,0,1-6.69,4.15c-4.41.33-8.11-2.6-12-5.7-1.38-1.09-2.8-2.23-4.26-3.2-8.8-5.86-16.79-7.11-26.7-4.17-10.32,3.06-19.28,9.39-26.69,15.18a247.36,247.36,0,0,0-37.85,36.76c-1.35,1.64-2.78,3.27-4.28,5A116.18,116.18,0,0,0,131.36,137,60.14,60.14,0,0,0,127,145.7c-2.13,4.85-4.13,9.44-8.43,13.17-6.46,5.6-17.66,7.23-23.39.62a25.53,25.53,0,0,1-3.49-5.94,27.57,27.57,0,0,0-3.84-6.46c-6-6.89-16.75-6.26-23.83-2.17-7.35,4.24-12.33,11.63-16.71,18.15-4.22,6.26-9,13.36-16.06,17.3-1.45.81-3,1.5-4.58,2.18-3.24,1.42-6.6,2.89-9.13,5.56-3.45,3.65-4.55,8.56-5.61,13.32-.44,2-.9,4-1.51,5.92A59.08,59.08,0,0,1,5.88,217a74.5,74.5,0,0,0-4,8.22A25.8,25.8,0,0,0,0,234.42,14.67,14.67,0,0,0,4,245.1c2.48,2.46,5.75,3.68,8.92,4.86s6.35,2.37,8.45,4.75c3.58,4.07,2.88,9.77,2.14,15.79C22.91,275.54,22.27,280.75,24.08,285.43Zm1.73-14.64c.77-6.26,1.57-12.74-2.7-17.59-2.48-2.82-6-4.12-9.37-5.38-3.07-1.15-6-2.23-8.1-4.34C1.13,239,1.92,231.28,4,226a71.48,71.48,0,0,1,3.92-7.95,60.87,60.87,0,0,0,4.68-10c.66-2,1.12-4.1,1.58-6.14,1-4.65,2-9.05,5-12.23,2.22-2.34,5.21-3.65,8.39-5,1.58-.7,3.23-1.42,4.77-2.28,7.55-4.21,12.7-11.87,16.84-18,4.25-6.31,9.06-13.46,16-17.44,6.38-3.69,16-4.06,21,1.69a25.36,25.36,0,0,1,3.5,5.94A27.72,27.72,0,0,0,93.42,161c6.63,7.64,19.36,5.93,26.64-.38,4.69-4.07,6.9-9.11,9-14a57.71,57.71,0,0,1,4.21-8.39,115.55,115.55,0,0,1,10.06-12.67c1.52-1.74,2.95-3.38,4.33-5A244,244,0,0,1,185.17,84.1c7.24-5.66,16-11.84,25.93-14.79,9.31-2.76,16.49-1.64,24.77,3.88,1.38.92,2.77,2,4.11,3.09,4.08,3.23,8.3,6.58,13.62,6.19a10.75,10.75,0,0,0,8.45-5.2A21.37,21.37,0,0,0,265,65.93a26.67,26.67,0,0,0-1.61-9.19c-3.09-8.31-6.24-19.06-3.22-28.57,3.36-10.53,17.55-13.84,28.69-10.33,6.46,2,12.42,5.7,18.18,9.24a120.36,120.36,0,0,0,13.18,7.35c11,5,26.41,5.81,34.23-4.14,2.83-3.6,4.37-8.23,5.86-12.69,2.18-6.55,4.24-12.74,10.06-14.75,8.5-2.94,16.39,6.54,19.28,14.2.73,1.95,1.4,4,2.05,6,2.34,7.25,4.76,14.74,10.95,19.32,4.19,3.1,9.37,4.23,14.38,5.32,5.52,1.2,10.74,2.34,14.56,5.89,8.52,7.92,4.45,22.33,2.3,28.15-.64,1.73-1.33,3.46-2,5.21-3.26,8.22-6.63,16.73-5,25.5,1.43,7.58,6.34,13.68,11.09,19.58,1.8,2.24,3.66,4.55,5.29,6.89,7.4,10.68,7.56,31.29-2.79,40.14-5,4.24-12.6,5.58-20.94,3.65-6.51-1.5-12.87-4.11-19-6.65-9.09-3.74-18.5-7.61-28.78-8.1-6.58-.3-12.45,1.8-16.09,5.79a16.39,16.39,0,0,0-3.86,7.54,37.39,37.39,0,0,0-.71,6.14c-.05,1-.11,2-.21,2.94-1.25,12.6-9.24,23.34-21.9,29.47-4.89,2.36-10.85,1.47-14.91.59-1.24-.27-2.48-.58-3.73-.88-3.95-1-8-2-12.21-1.89-9.67.17-15.18,6-15.93,16.89-.2,3-.32,6-.43,8.92-.39,10.59-.8,21.54-5.64,30.83-3.74,7.18-9.63,12.6-15.87,18.35a128.46,128.46,0,0,0-10.64,10.62,123.67,123.67,0,0,0-9.75,13.85,120.08,120.08,0,0,1-9.53,13.55c-6.5,7.64-17.28,14.87-28.06,12.25-6.82-1.65-12-6.67-17.38-12s-11-10.75-18.42-12.56c-4-1-8.13-.76-12.12-.55a54.56,54.56,0,0,1-8.67,0c-4.27-.45-8.27-1.91-12.5-3.45a72.62,72.62,0,0,0-9.76-3.06c-15.11-3.25-29.67,3.35-39.3,8.6a62.94,62.94,0,0,0-6.77,4.54C70,329.83,62.43,335.36,55.38,328c-2.7-2.83-2.72-6.35-2.74-10.08a37.81,37.81,0,0,0-.23-4.87c-1.07-8-7.12-12.68-12.27-15.86l-1.34-.82c-5.17-3.16-10.51-6.43-12.58-11.75C24.62,280.46,25.22,275.54,25.81,270.79Z"/><path id="Tracé_915" data-name="Tracé 915" class="cls-2" d="M62.28,289.21c-.14,1-.36,2.12-.56,3.15a27.15,27.15,0,0,0-.76,7,14.41,14.41,0,0,0,11.28,12.86c5.12,1,9.84-.76,14.4-2.48A56.27,56.27,0,0,1,93,307.67a22.77,22.77,0,0,1,8.19-.11c3,.33,6.06.67,9.54-.45a73.25,73.25,0,0,0,9.81-4.33c8.31-4.18,16.16-8.12,24.68-3.39a30.16,30.16,0,0,1,4.6,3.42,23.18,23.18,0,0,0,6.59,4.4c3.73,1.43,7.7.89,11.55.38a49.2,49.2,0,0,1,5.1-.51c6.28-.22,13.15,3.37,19.79,6.83,11.34,5.92,23.05,12,33.55,1.13,4.09-4.24,5.35-10.07,6.56-15.71.94-4.32,1.9-8.8,4.15-12.48,3.32-5.45,7.79-7.33,12.53-9.32a49.67,49.67,0,0,0,7.4-3.62c.51-.33,1-.68,1.51-1.07h0c6.92-5.39,10.55-15.72,12.69-23,.95-3.25,1.76-6.6,2.55-9.83,1.71-7,3.48-14.3,6.72-20.84,5.82-11.71,14.77-17.08,28.17-16.9,11.55.16,25.67-.84,32.4-10,3.91-5.32,4.43-12.16,4.94-18.78.55-7.23,1.08-14.07,5.69-18.87,7.13-7.41,19.83-5,28.61.39a111.74,111.74,0,0,1,9.37,6.65c5.47,4.15,11.12,8.44,17.76,10.68A24.15,24.15,0,0,0,427.29,170a13.53,13.53,0,0,0,6.53-10.23c.63-6.63-3.56-12-7.59-17.25a69.13,69.13,0,0,1-4.6-6.44c-5.39-9-5.48-19.42-5.58-30.47-.06-6.26-.11-12.73-1.22-18.88-3.14-17.35-14.52-31.86-24.55-44.66-6.15-7.84-14.5-16.56-24.53-14.41-7.43,1.6-11.6,8.4-15.63,15s-7.71,12.6-14.28,14.24c-9.92,2.47-18-6.11-25.82-14.42-3.93-4.17-7.64-8.11-11.45-10.47-4.88-3-12.34-5-18.64-1.56-7.28,4-9.38,13-9.86,19.93-1.06,15.19-2.38,34.09-20.53,37.45-5.4,1-10.76.07-16.45-.91-2.67-.47-5.43-.94-8.16-1.19-23.09-2.12-39.52,12.87-49.87,24.33C153,134.49,134.41,157,131,185.26c-.2,1.66-.35,3.36-.5,5-.4,4.64-.82,9.43-2.5,13.76-2.14,5.5-7.46,10.79-13.48,10.25-5-.44-9.65-4.87-12.44-11.85-.71-1.79-1.33-3.68-1.93-5.51-1.38-4.2-2.8-8.54-5.52-12.17-4.88-6.53-14-10-22.68-8.68-8,1.23-15.47,6.14-20.57,13.48-5.68,8.16-7.87,18.34-9.8,27.31l-.2.93c-1.43,6.64-3.25,15.05-3.25,23.16,0,7.38,1.5,14.52,6.16,19.83A22.62,22.62,0,0,0,51,265.55c2.43,1.3,4.73,2.53,6.47,4.61C61.38,274.76,63.25,282.23,62.28,289.21Zm-3.43-20.16c-2-2.34-4.51-3.7-7-5a21.06,21.06,0,0,1-6.29-4.4c-9.21-10.51-5.18-29.16-2.52-41.5l.2-.92c1.9-8.82,4-18.81,9.53-26.69,4.83-7,11.91-11.61,19.41-12.77,8.08-1.24,16.53,2,21,8,2.54,3.4,3.86,7.42,5.25,11.68.61,1.85,1.24,3.77,2,5.61,1.46,3.65,5.74,12.21,13.89,12.93,7.18.64,12.93-5.43,15.23-11.34,1.78-4.56,2.2-9.48,2.62-14.24.14-1.63.29-3.31.49-4.94,3.37-27.73,21.76-50,43.65-74.27,10.1-11.19,26.12-25.82,48.44-23.78,2.66.25,5.39.72,8,1.18,5.58,1,11.36,2,17.06.91,19.45-3.6,20.88-24.08,21.93-39,.45-6.47,2.37-14.93,9-18.53,5.66-3.1,12.45-1.25,16.92,1.51,3.61,2.23,7.25,6.1,11.1,10.19,7.77,8.26,16.58,17.62,27.49,14.9,7.25-1.8,11.36-8.51,15.33-15s7.81-12.76,14.53-14.2c9.1-1.95,17,6.35,22.8,13.8,9.91,12.64,21.15,27,24.21,43.9,1.09,6,1.14,12.4,1.2,18.58.09,10.8.19,22,5.82,31.35a74.57,74.57,0,0,0,4.71,6.6c3.75,4.85,7.3,9.45,7.3,14.88a11.06,11.06,0,0,1-.05,1.15,12,12,0,0,1-5.76,8.95A22.28,22.28,0,0,1,408,170.67c-6.38-2.15-11.92-6.35-17.27-10.42-3-2.32-6.21-4.72-9.52-6.75-9.35-5.73-23-8.2-30.75-.11-5,5.25-5.61,12.71-6.16,19.93-.49,6.38-1,13-4.61,17.9-6.26,8.52-19.85,9.44-31,9.3-14.14-.19-23.59,5.48-29.74,17.85-3.33,6.7-5.12,14.07-6.85,21.2-.79,3.21-1.6,6.54-2.54,9.76-3.23,11.08-7.19,18.32-12.09,22.14-.45.35-.91.67-1.37,1a48.61,48.61,0,0,1-7.14,3.49c-5,2.1-9.73,4.08-13.35,10-2.39,3.93-3.38,8.55-4.35,13-1.22,5.65-2.37,11-6.12,14.87-9.6,10-20.24,4.42-31.51-1.46-6.84-3.57-13.91-7.26-20.64-7-1.77.06-3.55.3-5.28.53-3.8.51-7.39,1-10.71-.28a21.42,21.42,0,0,1-6.08-4.1,31.55,31.55,0,0,0-4.89-3.62c-9.31-5.17-17.94-.83-26.28,3.36a71,71,0,0,1-9.57,4.23c-3.12,1-5.89.7-8.82.37a24.22,24.22,0,0,0-8.78.16,55.82,55.82,0,0,0-6.52,2.14c-4.54,1.7-8.83,3.31-13.47,2.4a12.64,12.64,0,0,1-9.9-11.28,25.89,25.89,0,0,1,.73-6.56c.21-1.06.43-2.16.58-3.26C65,282,63,274,58.85,269.05Z"/><path id="Tracé_916" data-name="Tracé 916" class="cls-2" d="M82.45,252c3.57-3.93,3.77-9.39,4-14.67,0-.9.06-1.8.11-2.68.1-1.69.28-3.41.46-5.07a50.94,50.94,0,0,0,.37-10.76c-.54-5-3.1-11.1-8.7-13.23-8.27-3.15-18.07,4.45-21.69,10.91-1.78,3.18-2.55,7.39-2.55,11.79a41.5,41.5,0,0,0,3.31,16.23A19.42,19.42,0,0,0,68.15,255C73.25,256.91,79.13,255.68,82.45,252Zm-13.7,1.37a17.63,17.63,0,0,1-9.46-9.55c-3.34-7.48-4.61-19.73-.83-26.48,3.39-6,12.48-12.84,19.57-10.14,4.87,1.86,7.12,7.32,7.6,11.81a49.36,49.36,0,0,1-.37,10.38c-.18,1.69-.37,3.44-.47,5.16-.05.89-.08,1.8-.11,2.72-.18,5-.37,10.11-3.51,13.58-2.85,3.16-8,4.19-12.41,2.52Z"/></g></g></g></svg>
